G04 (created by PCBNEW-RS274X (2012-apr-16-27)-stable) date Sat 27 Apr 2013 17:01:59 BST*
G01*
G70*
G90*
%MOIN*%
G04 Gerber Fmt 3.4, Leading zero omitted, Abs format*
%FSLAX34Y34*%
G04 APERTURE LIST*
%ADD10C,0.006000*%
%ADD11C,0.012000*%
%ADD12C,0.003900*%
%ADD13C,0.007900*%
%ADD14C,0.015000*%
%ADD15C,0.005000*%
G04 APERTURE END LIST*
G54D10*
X04000Y-04000D02*
X113000Y-04000D01*
X113000Y-78670D01*
X04000Y-78670D01*
X04000Y-04000D01*
X04700Y-04700D02*
X112300Y-04700D01*
X112300Y-77970D01*
X04700Y-77970D01*
X04700Y-04700D01*
X25800Y-04000D02*
X25800Y-04700D01*
X15043Y-04552D02*
X14757Y-04552D01*
X14900Y-04552D02*
X14900Y-04052D01*
X14852Y-04124D01*
X14805Y-04171D01*
X14757Y-04195D01*
X25800Y-78670D02*
X25800Y-77970D01*
X15043Y-78522D02*
X14757Y-78522D01*
X14900Y-78522D02*
X14900Y-78022D01*
X14852Y-78094D01*
X14805Y-78141D01*
X14757Y-78165D01*
X47600Y-04000D02*
X47600Y-04700D01*
X36557Y-04100D02*
X36581Y-04076D01*
X36629Y-04052D01*
X36748Y-04052D01*
X36795Y-04076D01*
X36819Y-04100D01*
X36843Y-04148D01*
X36843Y-04195D01*
X36819Y-04267D01*
X36533Y-04552D01*
X36843Y-04552D01*
X47600Y-78670D02*
X47600Y-77970D01*
X36557Y-78070D02*
X36581Y-78046D01*
X36629Y-78022D01*
X36748Y-78022D01*
X36795Y-78046D01*
X36819Y-78070D01*
X36843Y-78118D01*
X36843Y-78165D01*
X36819Y-78237D01*
X36533Y-78522D01*
X36843Y-78522D01*
X69400Y-04000D02*
X69400Y-04700D01*
X58333Y-04052D02*
X58643Y-04052D01*
X58476Y-04243D01*
X58548Y-04243D01*
X58595Y-04267D01*
X58619Y-04290D01*
X58643Y-04338D01*
X58643Y-04457D01*
X58619Y-04505D01*
X58595Y-04529D01*
X58548Y-04552D01*
X58405Y-04552D01*
X58357Y-04529D01*
X58333Y-04505D01*
X69400Y-78670D02*
X69400Y-77970D01*
X58333Y-78022D02*
X58643Y-78022D01*
X58476Y-78213D01*
X58548Y-78213D01*
X58595Y-78237D01*
X58619Y-78260D01*
X58643Y-78308D01*
X58643Y-78427D01*
X58619Y-78475D01*
X58595Y-78499D01*
X58548Y-78522D01*
X58405Y-78522D01*
X58357Y-78499D01*
X58333Y-78475D01*
X91200Y-04000D02*
X91200Y-04700D01*
X80395Y-04219D02*
X80395Y-04552D01*
X80276Y-04029D02*
X80157Y-04386D01*
X80467Y-04386D01*
X91200Y-78670D02*
X91200Y-77970D01*
X80395Y-78189D02*
X80395Y-78522D01*
X80276Y-77999D02*
X80157Y-78356D01*
X80467Y-78356D01*
X102219Y-04052D02*
X101981Y-04052D01*
X101957Y-04290D01*
X101981Y-04267D01*
X102029Y-04243D01*
X102148Y-04243D01*
X102195Y-04267D01*
X102219Y-04290D01*
X102243Y-04338D01*
X102243Y-04457D01*
X102219Y-04505D01*
X102195Y-04529D01*
X102148Y-04552D01*
X102029Y-04552D01*
X101981Y-04529D01*
X101957Y-04505D01*
X102219Y-78022D02*
X101981Y-78022D01*
X101957Y-78260D01*
X101981Y-78237D01*
X102029Y-78213D01*
X102148Y-78213D01*
X102195Y-78237D01*
X102219Y-78260D01*
X102243Y-78308D01*
X102243Y-78427D01*
X102219Y-78475D01*
X102195Y-78499D01*
X102148Y-78522D01*
X102029Y-78522D01*
X101981Y-78499D01*
X101957Y-78475D01*
X04000Y-28890D02*
X04700Y-28890D01*
X04231Y-16510D02*
X04469Y-16510D01*
X04184Y-16652D02*
X04350Y-16152D01*
X04517Y-16652D01*
X113000Y-28890D02*
X112300Y-28890D01*
X112531Y-16510D02*
X112769Y-16510D01*
X112484Y-16652D02*
X112650Y-16152D01*
X112817Y-16652D01*
X04000Y-53780D02*
X04700Y-53780D01*
X04386Y-41280D02*
X04457Y-41304D01*
X04481Y-41328D01*
X04505Y-41376D01*
X04505Y-41447D01*
X04481Y-41495D01*
X04457Y-41519D01*
X04410Y-41542D01*
X04219Y-41542D01*
X04219Y-41042D01*
X04386Y-41042D01*
X04433Y-41066D01*
X04457Y-41090D01*
X04481Y-41138D01*
X04481Y-41185D01*
X04457Y-41233D01*
X04433Y-41257D01*
X04386Y-41280D01*
X04219Y-41280D01*
X113000Y-53780D02*
X112300Y-53780D01*
X112686Y-41280D02*
X112757Y-41304D01*
X112781Y-41328D01*
X112805Y-41376D01*
X112805Y-41447D01*
X112781Y-41495D01*
X112757Y-41519D01*
X112710Y-41542D01*
X112519Y-41542D01*
X112519Y-41042D01*
X112686Y-41042D01*
X112733Y-41066D01*
X112757Y-41090D01*
X112781Y-41138D01*
X112781Y-41185D01*
X112757Y-41233D01*
X112733Y-41257D01*
X112686Y-41280D01*
X112519Y-41280D01*
X04505Y-66385D02*
X04481Y-66409D01*
X04410Y-66432D01*
X04362Y-66432D01*
X04290Y-66409D01*
X04243Y-66361D01*
X04219Y-66313D01*
X04195Y-66218D01*
X04195Y-66147D01*
X04219Y-66051D01*
X04243Y-66004D01*
X04290Y-65956D01*
X04362Y-65932D01*
X04410Y-65932D01*
X04481Y-65956D01*
X04505Y-65980D01*
X112805Y-66385D02*
X112781Y-66409D01*
X112710Y-66432D01*
X112662Y-66432D01*
X112590Y-66409D01*
X112543Y-66361D01*
X112519Y-66313D01*
X112495Y-66218D01*
X112495Y-66147D01*
X112519Y-66051D01*
X112543Y-66004D01*
X112590Y-65956D01*
X112662Y-65932D01*
X112710Y-65932D01*
X112781Y-65956D01*
X112805Y-65980D01*
G54D11*
X79443Y-76413D02*
X79443Y-75813D01*
X79586Y-75813D01*
X79671Y-75841D01*
X79729Y-75899D01*
X79757Y-75956D01*
X79786Y-76070D01*
X79786Y-76156D01*
X79757Y-76270D01*
X79729Y-76327D01*
X79671Y-76384D01*
X79586Y-76413D01*
X79443Y-76413D01*
X80300Y-76413D02*
X80300Y-76099D01*
X80271Y-76041D01*
X80214Y-76013D01*
X80100Y-76013D01*
X80043Y-76041D01*
X80300Y-76384D02*
X80243Y-76413D01*
X80100Y-76413D01*
X80043Y-76384D01*
X80014Y-76327D01*
X80014Y-76270D01*
X80043Y-76213D01*
X80100Y-76184D01*
X80243Y-76184D01*
X80300Y-76156D01*
X80500Y-76013D02*
X80729Y-76013D01*
X80586Y-75813D02*
X80586Y-76327D01*
X80614Y-76384D01*
X80672Y-76413D01*
X80729Y-76413D01*
X81157Y-76384D02*
X81100Y-76413D01*
X80986Y-76413D01*
X80929Y-76384D01*
X80900Y-76327D01*
X80900Y-76099D01*
X80929Y-76041D01*
X80986Y-76013D01*
X81100Y-76013D01*
X81157Y-76041D01*
X81186Y-76099D01*
X81186Y-76156D01*
X80900Y-76213D01*
X81443Y-76356D02*
X81471Y-76384D01*
X81443Y-76413D01*
X81414Y-76384D01*
X81443Y-76356D01*
X81443Y-76413D01*
X81443Y-76041D02*
X81471Y-76070D01*
X81443Y-76099D01*
X81414Y-76070D01*
X81443Y-76041D01*
X81443Y-76099D01*
X82157Y-75870D02*
X82186Y-75841D01*
X82243Y-75813D01*
X82386Y-75813D01*
X82443Y-75841D01*
X82472Y-75870D01*
X82500Y-75927D01*
X82500Y-75984D01*
X82472Y-76070D01*
X82129Y-76413D01*
X82500Y-76413D01*
X82700Y-75813D02*
X83100Y-75813D01*
X82843Y-76413D01*
X84042Y-76413D02*
X84042Y-76099D01*
X84013Y-76041D01*
X83956Y-76013D01*
X83842Y-76013D01*
X83785Y-76041D01*
X84042Y-76384D02*
X83985Y-76413D01*
X83842Y-76413D01*
X83785Y-76384D01*
X83756Y-76327D01*
X83756Y-76270D01*
X83785Y-76213D01*
X83842Y-76184D01*
X83985Y-76184D01*
X84042Y-76156D01*
X84328Y-76013D02*
X84328Y-76613D01*
X84328Y-76041D02*
X84385Y-76013D01*
X84499Y-76013D01*
X84556Y-76041D01*
X84585Y-76070D01*
X84614Y-76127D01*
X84614Y-76299D01*
X84585Y-76356D01*
X84556Y-76384D01*
X84499Y-76413D01*
X84385Y-76413D01*
X84328Y-76384D01*
X84871Y-76413D02*
X84871Y-76013D01*
X84871Y-76127D02*
X84899Y-76070D01*
X84928Y-76041D01*
X84985Y-76013D01*
X85042Y-76013D01*
X85670Y-75870D02*
X85699Y-75841D01*
X85756Y-75813D01*
X85899Y-75813D01*
X85956Y-75841D01*
X85985Y-75870D01*
X86013Y-75927D01*
X86013Y-75984D01*
X85985Y-76070D01*
X85642Y-76413D01*
X86013Y-76413D01*
X86384Y-75813D02*
X86441Y-75813D01*
X86498Y-75841D01*
X86527Y-75870D01*
X86556Y-75927D01*
X86584Y-76041D01*
X86584Y-76184D01*
X86556Y-76299D01*
X86527Y-76356D01*
X86498Y-76384D01*
X86441Y-76413D01*
X86384Y-76413D01*
X86327Y-76384D01*
X86298Y-76356D01*
X86270Y-76299D01*
X86241Y-76184D01*
X86241Y-76041D01*
X86270Y-75927D01*
X86298Y-75870D01*
X86327Y-75841D01*
X86384Y-75813D01*
X87155Y-76413D02*
X86812Y-76413D01*
X86984Y-76413D02*
X86984Y-75813D01*
X86927Y-75899D01*
X86869Y-75956D01*
X86812Y-75984D01*
X87355Y-75813D02*
X87726Y-75813D01*
X87526Y-76041D01*
X87612Y-76041D01*
X87669Y-76070D01*
X87698Y-76099D01*
X87726Y-76156D01*
X87726Y-76299D01*
X87698Y-76356D01*
X87669Y-76384D01*
X87612Y-76413D01*
X87440Y-76413D01*
X87383Y-76384D01*
X87355Y-76356D01*
G54D10*
X71043Y-77613D02*
X71043Y-77013D01*
X71386Y-77613D02*
X71129Y-77270D01*
X71386Y-77013D02*
X71043Y-77356D01*
X71643Y-77613D02*
X71643Y-77213D01*
X71643Y-77013D02*
X71614Y-77041D01*
X71643Y-77070D01*
X71671Y-77041D01*
X71643Y-77013D01*
X71643Y-77070D01*
X72272Y-77556D02*
X72243Y-77584D01*
X72157Y-77613D01*
X72100Y-77613D01*
X72015Y-77584D01*
X71957Y-77527D01*
X71929Y-77470D01*
X71900Y-77356D01*
X71900Y-77270D01*
X71929Y-77156D01*
X71957Y-77099D01*
X72015Y-77041D01*
X72100Y-77013D01*
X72157Y-77013D01*
X72243Y-77041D01*
X72272Y-77070D01*
X72786Y-77613D02*
X72786Y-77299D01*
X72757Y-77241D01*
X72700Y-77213D01*
X72586Y-77213D01*
X72529Y-77241D01*
X72786Y-77584D02*
X72729Y-77613D01*
X72586Y-77613D01*
X72529Y-77584D01*
X72500Y-77527D01*
X72500Y-77470D01*
X72529Y-77413D01*
X72586Y-77384D01*
X72729Y-77384D01*
X72786Y-77356D01*
X73329Y-77613D02*
X73329Y-77013D01*
X73329Y-77584D02*
X73272Y-77613D01*
X73158Y-77613D01*
X73100Y-77584D01*
X73072Y-77556D01*
X73043Y-77499D01*
X73043Y-77327D01*
X73072Y-77270D01*
X73100Y-77241D01*
X73158Y-77213D01*
X73272Y-77213D01*
X73329Y-77241D01*
X74072Y-77299D02*
X74272Y-77299D01*
X74358Y-77613D02*
X74072Y-77613D01*
X74072Y-77013D01*
X74358Y-77013D01*
X74615Y-77556D02*
X74643Y-77584D01*
X74615Y-77613D01*
X74586Y-77584D01*
X74615Y-77556D01*
X74615Y-77613D01*
X74901Y-77613D02*
X74901Y-77013D01*
X75044Y-77013D01*
X75129Y-77041D01*
X75187Y-77099D01*
X75215Y-77156D01*
X75244Y-77270D01*
X75244Y-77356D01*
X75215Y-77470D01*
X75187Y-77527D01*
X75129Y-77584D01*
X75044Y-77613D01*
X74901Y-77613D01*
X75501Y-77556D02*
X75529Y-77584D01*
X75501Y-77613D01*
X75472Y-77584D01*
X75501Y-77556D01*
X75501Y-77613D01*
X75758Y-77441D02*
X76044Y-77441D01*
X75701Y-77613D02*
X75901Y-77013D01*
X76101Y-77613D01*
X76301Y-77556D02*
X76329Y-77584D01*
X76301Y-77613D01*
X76272Y-77584D01*
X76301Y-77556D01*
X76301Y-77613D01*
G54D11*
X104586Y-76413D02*
X104386Y-76127D01*
X104243Y-76413D02*
X104243Y-75813D01*
X104471Y-75813D01*
X104529Y-75841D01*
X104557Y-75870D01*
X104586Y-75927D01*
X104586Y-76013D01*
X104557Y-76070D01*
X104529Y-76099D01*
X104471Y-76127D01*
X104243Y-76127D01*
X105071Y-76384D02*
X105014Y-76413D01*
X104900Y-76413D01*
X104843Y-76384D01*
X104814Y-76327D01*
X104814Y-76099D01*
X104843Y-76041D01*
X104900Y-76013D01*
X105014Y-76013D01*
X105071Y-76041D01*
X105100Y-76099D01*
X105100Y-76156D01*
X104814Y-76213D01*
X105300Y-76013D02*
X105443Y-76413D01*
X105585Y-76013D01*
X105814Y-76356D02*
X105842Y-76384D01*
X105814Y-76413D01*
X105785Y-76384D01*
X105814Y-76356D01*
X105814Y-76413D01*
X105814Y-76041D02*
X105842Y-76070D01*
X105814Y-76099D01*
X105785Y-76070D01*
X105814Y-76041D01*
X105814Y-76099D01*
G54D10*
X71014Y-76384D02*
X71100Y-76413D01*
X71243Y-76413D01*
X71300Y-76384D01*
X71329Y-76356D01*
X71357Y-76299D01*
X71357Y-76241D01*
X71329Y-76184D01*
X71300Y-76156D01*
X71243Y-76127D01*
X71129Y-76099D01*
X71071Y-76070D01*
X71043Y-76041D01*
X71014Y-75984D01*
X71014Y-75927D01*
X71043Y-75870D01*
X71071Y-75841D01*
X71129Y-75813D01*
X71271Y-75813D01*
X71357Y-75841D01*
X71614Y-76413D02*
X71614Y-76013D01*
X71614Y-75813D02*
X71585Y-75841D01*
X71614Y-75870D01*
X71642Y-75841D01*
X71614Y-75813D01*
X71614Y-75870D01*
X71843Y-76013D02*
X72157Y-76013D01*
X71843Y-76413D01*
X72157Y-76413D01*
X72614Y-76384D02*
X72557Y-76413D01*
X72443Y-76413D01*
X72386Y-76384D01*
X72357Y-76327D01*
X72357Y-76099D01*
X72386Y-76041D01*
X72443Y-76013D01*
X72557Y-76013D01*
X72614Y-76041D01*
X72643Y-76099D01*
X72643Y-76156D01*
X72357Y-76213D01*
X72900Y-76356D02*
X72928Y-76384D01*
X72900Y-76413D01*
X72871Y-76384D01*
X72900Y-76356D01*
X72900Y-76413D01*
X72900Y-76041D02*
X72928Y-76070D01*
X72900Y-76099D01*
X72871Y-76070D01*
X72900Y-76041D01*
X72900Y-76099D01*
X73614Y-76241D02*
X73900Y-76241D01*
X73557Y-76413D02*
X73757Y-75813D01*
X73957Y-76413D01*
X74414Y-76013D02*
X74414Y-76413D01*
X74271Y-75784D02*
X74128Y-76213D01*
X74500Y-76213D01*
X104243Y-77613D02*
X104243Y-77013D01*
X104786Y-77613D02*
X104786Y-77013D01*
X104786Y-77584D02*
X104729Y-77613D01*
X104615Y-77613D01*
X104557Y-77584D01*
X104529Y-77556D01*
X104500Y-77499D01*
X104500Y-77327D01*
X104529Y-77270D01*
X104557Y-77241D01*
X104615Y-77213D01*
X104729Y-77213D01*
X104786Y-77241D01*
X105072Y-77556D02*
X105100Y-77584D01*
X105072Y-77613D01*
X105043Y-77584D01*
X105072Y-77556D01*
X105072Y-77613D01*
X105072Y-77241D02*
X105100Y-77270D01*
X105072Y-77299D01*
X105043Y-77270D01*
X105072Y-77241D01*
X105072Y-77299D01*
X106129Y-77613D02*
X105786Y-77613D01*
X105958Y-77613D02*
X105958Y-77013D01*
X105901Y-77099D01*
X105843Y-77156D01*
X105786Y-77184D01*
X106814Y-76984D02*
X106300Y-77756D01*
X107329Y-77613D02*
X106986Y-77613D01*
X107158Y-77613D02*
X107158Y-77013D01*
X107101Y-77099D01*
X107043Y-77156D01*
X106986Y-77184D01*
G54D11*
X70957Y-74613D02*
X71300Y-74613D01*
X71129Y-75213D02*
X71129Y-74613D01*
X71500Y-75213D02*
X71500Y-74813D01*
X71500Y-74613D02*
X71471Y-74641D01*
X71500Y-74670D01*
X71528Y-74641D01*
X71500Y-74613D01*
X71500Y-74670D01*
X71700Y-74813D02*
X71929Y-74813D01*
X71786Y-74613D02*
X71786Y-75127D01*
X71814Y-75184D01*
X71872Y-75213D01*
X71929Y-75213D01*
X72215Y-75213D02*
X72157Y-75184D01*
X72129Y-75127D01*
X72129Y-74613D01*
X72671Y-75184D02*
X72614Y-75213D01*
X72500Y-75213D01*
X72443Y-75184D01*
X72414Y-75127D01*
X72414Y-74899D01*
X72443Y-74841D01*
X72500Y-74813D01*
X72614Y-74813D01*
X72671Y-74841D01*
X72700Y-74899D01*
X72700Y-74956D01*
X72414Y-75013D01*
X72957Y-75156D02*
X72985Y-75184D01*
X72957Y-75213D01*
X72928Y-75184D01*
X72957Y-75156D01*
X72957Y-75213D01*
X72957Y-74841D02*
X72985Y-74870D01*
X72957Y-74899D01*
X72928Y-74870D01*
X72957Y-74841D01*
X72957Y-74899D01*
G54D10*
X71243Y-72499D02*
X71043Y-72499D01*
X71043Y-72813D02*
X71043Y-72213D01*
X71329Y-72213D01*
X71557Y-72813D02*
X71557Y-72413D01*
X71557Y-72213D02*
X71528Y-72241D01*
X71557Y-72270D01*
X71585Y-72241D01*
X71557Y-72213D01*
X71557Y-72270D01*
X71929Y-72813D02*
X71871Y-72784D01*
X71843Y-72727D01*
X71843Y-72213D01*
X72385Y-72784D02*
X72328Y-72813D01*
X72214Y-72813D01*
X72157Y-72784D01*
X72128Y-72727D01*
X72128Y-72499D01*
X72157Y-72441D01*
X72214Y-72413D01*
X72328Y-72413D01*
X72385Y-72441D01*
X72414Y-72499D01*
X72414Y-72556D01*
X72128Y-72613D01*
X72671Y-72756D02*
X72699Y-72784D01*
X72671Y-72813D01*
X72642Y-72784D01*
X72671Y-72756D01*
X72671Y-72813D01*
X72671Y-72441D02*
X72699Y-72470D01*
X72671Y-72499D01*
X72642Y-72470D01*
X72671Y-72441D01*
X72671Y-72499D01*
X73385Y-72641D02*
X73671Y-72641D01*
X73328Y-72813D02*
X73528Y-72213D01*
X73728Y-72813D01*
X74185Y-72813D02*
X74185Y-72213D01*
X74185Y-72784D02*
X74128Y-72813D01*
X74014Y-72813D01*
X73956Y-72784D01*
X73928Y-72756D01*
X73899Y-72699D01*
X73899Y-72527D01*
X73928Y-72470D01*
X73956Y-72441D01*
X74014Y-72413D01*
X74128Y-72413D01*
X74185Y-72441D01*
X74471Y-72413D02*
X74471Y-72927D01*
X74442Y-72984D01*
X74385Y-73013D01*
X74357Y-73013D01*
X74471Y-72213D02*
X74442Y-72241D01*
X74471Y-72270D01*
X74499Y-72241D01*
X74471Y-72213D01*
X74471Y-72270D01*
X75100Y-72813D02*
X74900Y-72527D01*
X74757Y-72813D02*
X74757Y-72213D01*
X74985Y-72213D01*
X75043Y-72241D01*
X75071Y-72270D01*
X75100Y-72327D01*
X75100Y-72413D01*
X75071Y-72470D01*
X75043Y-72499D01*
X74985Y-72527D01*
X74757Y-72527D01*
X75585Y-72784D02*
X75528Y-72813D01*
X75414Y-72813D01*
X75357Y-72784D01*
X75328Y-72727D01*
X75328Y-72499D01*
X75357Y-72441D01*
X75414Y-72413D01*
X75528Y-72413D01*
X75585Y-72441D01*
X75614Y-72499D01*
X75614Y-72556D01*
X75328Y-72613D01*
X76128Y-72413D02*
X76128Y-72899D01*
X76099Y-72956D01*
X76071Y-72984D01*
X76014Y-73013D01*
X75928Y-73013D01*
X75871Y-72984D01*
X76128Y-72784D02*
X76071Y-72813D01*
X75957Y-72813D01*
X75899Y-72784D01*
X75871Y-72756D01*
X75842Y-72699D01*
X75842Y-72527D01*
X75871Y-72470D01*
X75899Y-72441D01*
X75957Y-72413D01*
X76071Y-72413D01*
X76128Y-72441D01*
X76671Y-72413D02*
X76671Y-72813D01*
X76414Y-72413D02*
X76414Y-72727D01*
X76442Y-72784D01*
X76500Y-72813D01*
X76585Y-72813D01*
X76642Y-72784D01*
X76671Y-72756D01*
X77043Y-72813D02*
X76985Y-72784D01*
X76957Y-72727D01*
X76957Y-72213D01*
X77528Y-72813D02*
X77528Y-72499D01*
X77499Y-72441D01*
X77442Y-72413D01*
X77328Y-72413D01*
X77271Y-72441D01*
X77528Y-72784D02*
X77471Y-72813D01*
X77328Y-72813D01*
X77271Y-72784D01*
X77242Y-72727D01*
X77242Y-72670D01*
X77271Y-72613D01*
X77328Y-72584D01*
X77471Y-72584D01*
X77528Y-72556D01*
X77728Y-72413D02*
X77957Y-72413D01*
X77814Y-72213D02*
X77814Y-72727D01*
X77842Y-72784D01*
X77900Y-72813D01*
X77957Y-72813D01*
X78243Y-72813D02*
X78185Y-72784D01*
X78157Y-72756D01*
X78128Y-72699D01*
X78128Y-72527D01*
X78157Y-72470D01*
X78185Y-72441D01*
X78243Y-72413D01*
X78328Y-72413D01*
X78385Y-72441D01*
X78414Y-72470D01*
X78443Y-72527D01*
X78443Y-72699D01*
X78414Y-72756D01*
X78385Y-72784D01*
X78328Y-72813D01*
X78243Y-72813D01*
X78700Y-72813D02*
X78700Y-72413D01*
X78700Y-72527D02*
X78728Y-72470D01*
X78757Y-72441D01*
X78814Y-72413D01*
X78871Y-72413D01*
X79071Y-72756D02*
X79099Y-72784D01*
X79071Y-72813D01*
X79042Y-72784D01*
X79071Y-72756D01*
X79071Y-72813D01*
X79357Y-72813D02*
X79357Y-72213D01*
X79357Y-72441D02*
X79414Y-72413D01*
X79528Y-72413D01*
X79585Y-72441D01*
X79614Y-72470D01*
X79643Y-72527D01*
X79643Y-72699D01*
X79614Y-72756D01*
X79585Y-72784D01*
X79528Y-72813D01*
X79414Y-72813D01*
X79357Y-72784D01*
X79900Y-72813D02*
X79900Y-72413D01*
X79900Y-72527D02*
X79928Y-72470D01*
X79957Y-72441D01*
X80014Y-72413D01*
X80071Y-72413D01*
X80528Y-72813D02*
X80528Y-72213D01*
X80528Y-72784D02*
X80471Y-72813D01*
X80357Y-72813D01*
X80299Y-72784D01*
X80271Y-72756D01*
X80242Y-72699D01*
X80242Y-72527D01*
X80271Y-72470D01*
X80299Y-72441D01*
X80357Y-72413D01*
X80471Y-72413D01*
X80528Y-72441D01*
X71014Y-73984D02*
X71100Y-74013D01*
X71243Y-74013D01*
X71300Y-73984D01*
X71329Y-73956D01*
X71357Y-73899D01*
X71357Y-73841D01*
X71329Y-73784D01*
X71300Y-73756D01*
X71243Y-73727D01*
X71129Y-73699D01*
X71071Y-73670D01*
X71043Y-73641D01*
X71014Y-73584D01*
X71014Y-73527D01*
X71043Y-73470D01*
X71071Y-73441D01*
X71129Y-73413D01*
X71271Y-73413D01*
X71357Y-73441D01*
X71614Y-74013D02*
X71614Y-73413D01*
X71871Y-74013D02*
X71871Y-73699D01*
X71842Y-73641D01*
X71785Y-73613D01*
X71700Y-73613D01*
X71642Y-73641D01*
X71614Y-73670D01*
X72385Y-73984D02*
X72328Y-74013D01*
X72214Y-74013D01*
X72157Y-73984D01*
X72128Y-73927D01*
X72128Y-73699D01*
X72157Y-73641D01*
X72214Y-73613D01*
X72328Y-73613D01*
X72385Y-73641D01*
X72414Y-73699D01*
X72414Y-73756D01*
X72128Y-73813D01*
X72899Y-73984D02*
X72842Y-74013D01*
X72728Y-74013D01*
X72671Y-73984D01*
X72642Y-73927D01*
X72642Y-73699D01*
X72671Y-73641D01*
X72728Y-73613D01*
X72842Y-73613D01*
X72899Y-73641D01*
X72928Y-73699D01*
X72928Y-73756D01*
X72642Y-73813D01*
X73099Y-73613D02*
X73328Y-73613D01*
X73185Y-73413D02*
X73185Y-73927D01*
X73213Y-73984D01*
X73271Y-74013D01*
X73328Y-74013D01*
X73528Y-73956D02*
X73556Y-73984D01*
X73528Y-74013D01*
X73499Y-73984D01*
X73528Y-73956D01*
X73528Y-74013D01*
X73528Y-73641D02*
X73556Y-73670D01*
X73528Y-73699D01*
X73499Y-73670D01*
X73528Y-73641D01*
X73528Y-73699D01*
X74585Y-74013D02*
X74242Y-74013D01*
X74414Y-74013D02*
X74414Y-73413D01*
X74357Y-73499D01*
X74299Y-73556D01*
X74242Y-73584D01*
X75270Y-73384D02*
X74756Y-74156D01*
X75785Y-74013D02*
X75442Y-74013D01*
X75614Y-74013D02*
X75614Y-73413D01*
X75557Y-73499D01*
X75499Y-73556D01*
X75442Y-73584D01*
X70300Y-71970D02*
X70300Y-77970D01*
X70300Y-71970D02*
X112300Y-71970D01*
X70300Y-71970D02*
X112300Y-71970D01*
X70300Y-74370D02*
X112300Y-74370D01*
X103500Y-75570D02*
X103500Y-77970D01*
X70300Y-76770D02*
X112300Y-76770D01*
X70300Y-75570D02*
X112300Y-75570D01*
X76900Y-75570D02*
X76900Y-76770D01*
G54D12*
X55710Y-41599D02*
X55710Y-41205D01*
X55879Y-41599D02*
X55879Y-41393D01*
X55860Y-41356D01*
X55822Y-41337D01*
X55766Y-41337D01*
X55729Y-41356D01*
X55710Y-41374D01*
X56010Y-41337D02*
X56160Y-41337D01*
X56066Y-41205D02*
X56066Y-41543D01*
X56085Y-41581D01*
X56122Y-41599D01*
X56160Y-41599D01*
X56235Y-41337D02*
X56385Y-41337D01*
X56291Y-41205D02*
X56291Y-41543D01*
X56310Y-41581D01*
X56347Y-41599D01*
X56385Y-41599D01*
X56516Y-41337D02*
X56516Y-41731D01*
X56516Y-41356D02*
X56553Y-41337D01*
X56628Y-41337D01*
X56666Y-41356D01*
X56685Y-41374D01*
X56703Y-41412D01*
X56703Y-41524D01*
X56685Y-41562D01*
X56666Y-41581D01*
X56628Y-41599D01*
X56553Y-41599D01*
X56516Y-41581D01*
X56853Y-41581D02*
X56891Y-41599D01*
X56966Y-41599D01*
X57003Y-41581D01*
X57022Y-41543D01*
X57022Y-41524D01*
X57003Y-41487D01*
X56966Y-41468D01*
X56909Y-41468D01*
X56872Y-41449D01*
X56853Y-41412D01*
X56853Y-41393D01*
X56872Y-41356D01*
X56909Y-41337D01*
X56966Y-41337D01*
X57003Y-41356D01*
X57191Y-41562D02*
X57210Y-41581D01*
X57191Y-41599D01*
X57172Y-41581D01*
X57191Y-41562D01*
X57191Y-41599D01*
X57191Y-41356D02*
X57210Y-41374D01*
X57191Y-41393D01*
X57172Y-41374D01*
X57191Y-41356D01*
X57191Y-41393D01*
X57660Y-41187D02*
X57323Y-41693D01*
X58073Y-41187D02*
X57736Y-41693D01*
X58374Y-41337D02*
X58374Y-41656D01*
X58355Y-41693D01*
X58336Y-41712D01*
X58299Y-41731D01*
X58242Y-41731D01*
X58205Y-41712D01*
X58374Y-41581D02*
X58336Y-41599D01*
X58261Y-41599D01*
X58224Y-41581D01*
X58205Y-41562D01*
X58186Y-41524D01*
X58186Y-41412D01*
X58205Y-41374D01*
X58224Y-41356D01*
X58261Y-41337D01*
X58336Y-41337D01*
X58374Y-41356D01*
X58561Y-41599D02*
X58561Y-41337D01*
X58561Y-41205D02*
X58542Y-41224D01*
X58561Y-41243D01*
X58580Y-41224D01*
X58561Y-41205D01*
X58561Y-41243D01*
X58693Y-41337D02*
X58843Y-41337D01*
X58749Y-41205D02*
X58749Y-41543D01*
X58768Y-41581D01*
X58805Y-41599D01*
X58843Y-41599D01*
X58974Y-41599D02*
X58974Y-41205D01*
X59143Y-41599D02*
X59143Y-41393D01*
X59124Y-41356D01*
X59086Y-41337D01*
X59030Y-41337D01*
X58993Y-41356D01*
X58974Y-41374D01*
X59499Y-41337D02*
X59499Y-41599D01*
X59330Y-41337D02*
X59330Y-41543D01*
X59349Y-41581D01*
X59386Y-41599D01*
X59442Y-41599D01*
X59480Y-41581D01*
X59499Y-41562D01*
X59686Y-41599D02*
X59686Y-41205D01*
X59686Y-41356D02*
X59723Y-41337D01*
X59798Y-41337D01*
X59836Y-41356D01*
X59855Y-41374D01*
X59873Y-41412D01*
X59873Y-41524D01*
X59855Y-41562D01*
X59836Y-41581D01*
X59798Y-41599D01*
X59723Y-41599D01*
X59686Y-41581D01*
X60042Y-41562D02*
X60061Y-41581D01*
X60042Y-41599D01*
X60023Y-41581D01*
X60042Y-41562D01*
X60042Y-41599D01*
X60399Y-41581D02*
X60361Y-41599D01*
X60286Y-41599D01*
X60249Y-41581D01*
X60230Y-41562D01*
X60211Y-41524D01*
X60211Y-41412D01*
X60230Y-41374D01*
X60249Y-41356D01*
X60286Y-41337D01*
X60361Y-41337D01*
X60399Y-41356D01*
X60624Y-41599D02*
X60587Y-41581D01*
X60568Y-41562D01*
X60549Y-41524D01*
X60549Y-41412D01*
X60568Y-41374D01*
X60587Y-41356D01*
X60624Y-41337D01*
X60680Y-41337D01*
X60718Y-41356D01*
X60737Y-41374D01*
X60755Y-41412D01*
X60755Y-41524D01*
X60737Y-41562D01*
X60718Y-41581D01*
X60680Y-41599D01*
X60624Y-41599D01*
X60924Y-41599D02*
X60924Y-41337D01*
X60924Y-41374D02*
X60943Y-41356D01*
X60980Y-41337D01*
X61036Y-41337D01*
X61074Y-41356D01*
X61093Y-41393D01*
X61093Y-41599D01*
X61093Y-41393D02*
X61111Y-41356D01*
X61149Y-41337D01*
X61205Y-41337D01*
X61243Y-41356D01*
X61262Y-41393D01*
X61262Y-41599D01*
X61730Y-41187D02*
X61393Y-41693D01*
X61806Y-41205D02*
X62031Y-41205D01*
X61918Y-41599D02*
X61918Y-41205D01*
X62162Y-41599D02*
X62162Y-41337D01*
X62162Y-41205D02*
X62143Y-41224D01*
X62162Y-41243D01*
X62181Y-41224D01*
X62162Y-41205D01*
X62162Y-41243D01*
X62350Y-41599D02*
X62350Y-41337D01*
X62350Y-41374D02*
X62369Y-41356D01*
X62406Y-41337D01*
X62462Y-41337D01*
X62500Y-41356D01*
X62519Y-41393D01*
X62519Y-41599D01*
X62519Y-41393D02*
X62537Y-41356D01*
X62575Y-41337D01*
X62631Y-41337D01*
X62669Y-41356D01*
X62688Y-41393D01*
X62688Y-41599D01*
X63006Y-41393D02*
X63062Y-41412D01*
X63081Y-41431D01*
X63100Y-41468D01*
X63100Y-41524D01*
X63081Y-41562D01*
X63062Y-41581D01*
X63025Y-41599D01*
X62875Y-41599D01*
X62875Y-41205D01*
X63006Y-41205D01*
X63044Y-41224D01*
X63062Y-41243D01*
X63081Y-41281D01*
X63081Y-41318D01*
X63062Y-41356D01*
X63044Y-41374D01*
X63006Y-41393D01*
X62875Y-41393D01*
X63269Y-41449D02*
X63569Y-41449D01*
X64019Y-41637D02*
X63982Y-41618D01*
X63944Y-41581D01*
X63888Y-41524D01*
X63851Y-41506D01*
X63813Y-41506D01*
X63832Y-41599D02*
X63794Y-41581D01*
X63757Y-41543D01*
X63738Y-41468D01*
X63738Y-41337D01*
X63757Y-41262D01*
X63794Y-41224D01*
X63832Y-41205D01*
X63907Y-41205D01*
X63944Y-41224D01*
X63982Y-41262D01*
X64001Y-41337D01*
X64001Y-41468D01*
X63982Y-41543D01*
X63944Y-41581D01*
X63907Y-41599D01*
X63832Y-41599D01*
X64170Y-41599D02*
X64170Y-41205D01*
X64395Y-41599D01*
X64395Y-41205D01*
X64564Y-41487D02*
X64752Y-41487D01*
X64527Y-41599D02*
X64658Y-41205D01*
X64789Y-41599D01*
X65202Y-41187D02*
X64865Y-41693D01*
X65334Y-41393D02*
X65465Y-41393D01*
X65521Y-41599D02*
X65334Y-41599D01*
X65334Y-41205D01*
X65521Y-41205D01*
X65746Y-41599D02*
X65709Y-41581D01*
X65690Y-41543D01*
X65690Y-41205D01*
X66046Y-41581D02*
X66008Y-41599D01*
X65933Y-41599D01*
X65896Y-41581D01*
X65877Y-41543D01*
X65877Y-41393D01*
X65896Y-41356D01*
X65933Y-41337D01*
X66008Y-41337D01*
X66046Y-41356D01*
X66065Y-41393D01*
X66065Y-41431D01*
X65877Y-41468D01*
X66403Y-41581D02*
X66365Y-41599D01*
X66290Y-41599D01*
X66253Y-41581D01*
X66234Y-41562D01*
X66215Y-41524D01*
X66215Y-41412D01*
X66234Y-41374D01*
X66253Y-41356D01*
X66290Y-41337D01*
X66365Y-41337D01*
X66403Y-41356D01*
X66516Y-41337D02*
X66666Y-41337D01*
X66572Y-41205D02*
X66572Y-41543D01*
X66591Y-41581D01*
X66628Y-41599D01*
X66666Y-41599D01*
X66797Y-41599D02*
X66797Y-41337D01*
X66797Y-41412D02*
X66816Y-41374D01*
X66834Y-41356D01*
X66872Y-41337D01*
X66909Y-41337D01*
X67097Y-41599D02*
X67060Y-41581D01*
X67041Y-41562D01*
X67022Y-41524D01*
X67022Y-41412D01*
X67041Y-41374D01*
X67060Y-41356D01*
X67097Y-41337D01*
X67153Y-41337D01*
X67191Y-41356D01*
X67210Y-41374D01*
X67228Y-41412D01*
X67228Y-41524D01*
X67210Y-41562D01*
X67191Y-41581D01*
X67153Y-41599D01*
X67097Y-41599D01*
X67397Y-41337D02*
X67397Y-41599D01*
X67397Y-41374D02*
X67416Y-41356D01*
X67453Y-41337D01*
X67509Y-41337D01*
X67547Y-41356D01*
X67566Y-41393D01*
X67566Y-41599D01*
X67753Y-41599D02*
X67753Y-41337D01*
X67753Y-41205D02*
X67734Y-41224D01*
X67753Y-41243D01*
X67772Y-41224D01*
X67753Y-41205D01*
X67753Y-41243D01*
X68110Y-41581D02*
X68072Y-41599D01*
X67997Y-41599D01*
X67960Y-41581D01*
X67941Y-41562D01*
X67922Y-41524D01*
X67922Y-41412D01*
X67941Y-41374D01*
X67960Y-41356D01*
X67997Y-41337D01*
X68072Y-41337D01*
X68110Y-41356D01*
X68260Y-41581D02*
X68298Y-41599D01*
X68373Y-41599D01*
X68410Y-41581D01*
X68429Y-41543D01*
X68429Y-41524D01*
X68410Y-41487D01*
X68373Y-41468D01*
X68316Y-41468D01*
X68279Y-41449D01*
X68260Y-41412D01*
X68260Y-41393D01*
X68279Y-41356D01*
X68316Y-41337D01*
X68373Y-41337D01*
X68410Y-41356D01*
G54D13*
X56276Y-39930D02*
X56557Y-39930D01*
X56219Y-40099D02*
X56416Y-39508D01*
X56613Y-40099D01*
X57064Y-40099D02*
X57064Y-39508D01*
X57064Y-40071D02*
X57008Y-40099D01*
X56895Y-40099D01*
X56839Y-40071D01*
X56811Y-40042D01*
X56783Y-39986D01*
X56783Y-39817D01*
X56811Y-39761D01*
X56839Y-39733D01*
X56895Y-39705D01*
X57008Y-39705D01*
X57064Y-39733D01*
X57346Y-39705D02*
X57346Y-40211D01*
X57318Y-40268D01*
X57261Y-40296D01*
X57233Y-40296D01*
X57346Y-39508D02*
X57318Y-39536D01*
X57346Y-39564D01*
X57374Y-39536D01*
X57346Y-39508D01*
X57346Y-39564D01*
X57880Y-39705D02*
X57880Y-40099D01*
X57627Y-39705D02*
X57627Y-40014D01*
X57655Y-40071D01*
X57711Y-40099D01*
X57796Y-40099D01*
X57852Y-40071D01*
X57880Y-40042D01*
X58134Y-40071D02*
X58190Y-40099D01*
X58302Y-40099D01*
X58359Y-40071D01*
X58387Y-40014D01*
X58387Y-39986D01*
X58359Y-39930D01*
X58302Y-39902D01*
X58218Y-39902D01*
X58162Y-39874D01*
X58134Y-39817D01*
X58134Y-39789D01*
X58162Y-39733D01*
X58218Y-39705D01*
X58302Y-39705D01*
X58359Y-39733D01*
X58555Y-39705D02*
X58780Y-39705D01*
X58640Y-39508D02*
X58640Y-40014D01*
X58668Y-40071D01*
X58724Y-40099D01*
X58780Y-40099D01*
X59231Y-40099D02*
X59231Y-39789D01*
X59203Y-39733D01*
X59147Y-39705D01*
X59034Y-39705D01*
X58978Y-39733D01*
X59231Y-40071D02*
X59175Y-40099D01*
X59034Y-40099D01*
X58978Y-40071D01*
X58950Y-40014D01*
X58950Y-39958D01*
X58978Y-39902D01*
X59034Y-39874D01*
X59175Y-39874D01*
X59231Y-39845D01*
X59513Y-40099D02*
X59513Y-39508D01*
X59513Y-39733D02*
X59569Y-39705D01*
X59682Y-39705D01*
X59738Y-39733D01*
X59766Y-39761D01*
X59794Y-39817D01*
X59794Y-39986D01*
X59766Y-40042D01*
X59738Y-40071D01*
X59682Y-40099D01*
X59569Y-40099D01*
X59513Y-40071D01*
X60132Y-40099D02*
X60076Y-40071D01*
X60048Y-40014D01*
X60048Y-39508D01*
X60583Y-40071D02*
X60527Y-40099D01*
X60414Y-40099D01*
X60358Y-40071D01*
X60330Y-40014D01*
X60330Y-39789D01*
X60358Y-39733D01*
X60414Y-39705D01*
X60527Y-39705D01*
X60583Y-39733D01*
X60611Y-39789D01*
X60611Y-39845D01*
X60330Y-39902D01*
X61652Y-40099D02*
X61455Y-39817D01*
X61315Y-40099D02*
X61315Y-39508D01*
X61540Y-39508D01*
X61596Y-39536D01*
X61624Y-39564D01*
X61652Y-39620D01*
X61652Y-39705D01*
X61624Y-39761D01*
X61596Y-39789D01*
X61540Y-39817D01*
X61315Y-39817D01*
X62131Y-40071D02*
X62075Y-40099D01*
X61962Y-40099D01*
X61906Y-40071D01*
X61878Y-40014D01*
X61878Y-39789D01*
X61906Y-39733D01*
X61962Y-39705D01*
X62075Y-39705D01*
X62131Y-39733D01*
X62159Y-39789D01*
X62159Y-39845D01*
X61878Y-39902D01*
X62666Y-39705D02*
X62666Y-40183D01*
X62638Y-40239D01*
X62610Y-40268D01*
X62553Y-40296D01*
X62469Y-40296D01*
X62413Y-40268D01*
X62666Y-40071D02*
X62610Y-40099D01*
X62497Y-40099D01*
X62441Y-40071D01*
X62413Y-40042D01*
X62385Y-39986D01*
X62385Y-39817D01*
X62413Y-39761D01*
X62441Y-39733D01*
X62497Y-39705D01*
X62610Y-39705D01*
X62666Y-39733D01*
X63201Y-39705D02*
X63201Y-40099D01*
X62948Y-39705D02*
X62948Y-40014D01*
X62976Y-40071D01*
X63032Y-40099D01*
X63117Y-40099D01*
X63173Y-40071D01*
X63201Y-40042D01*
X63567Y-40099D02*
X63511Y-40071D01*
X63483Y-40014D01*
X63483Y-39508D01*
X64046Y-40099D02*
X64046Y-39789D01*
X64018Y-39733D01*
X63962Y-39705D01*
X63849Y-39705D01*
X63793Y-39733D01*
X64046Y-40071D02*
X63990Y-40099D01*
X63849Y-40099D01*
X63793Y-40071D01*
X63765Y-40014D01*
X63765Y-39958D01*
X63793Y-39902D01*
X63849Y-39874D01*
X63990Y-39874D01*
X64046Y-39845D01*
X64243Y-39705D02*
X64468Y-39705D01*
X64328Y-39508D02*
X64328Y-40014D01*
X64356Y-40071D01*
X64412Y-40099D01*
X64468Y-40099D01*
X64750Y-40099D02*
X64694Y-40071D01*
X64666Y-40042D01*
X64638Y-39986D01*
X64638Y-39817D01*
X64666Y-39761D01*
X64694Y-39733D01*
X64750Y-39705D01*
X64835Y-39705D01*
X64891Y-39733D01*
X64919Y-39761D01*
X64947Y-39817D01*
X64947Y-39986D01*
X64919Y-40042D01*
X64891Y-40071D01*
X64835Y-40099D01*
X64750Y-40099D01*
X65201Y-40099D02*
X65201Y-39705D01*
X65201Y-39817D02*
X65229Y-39761D01*
X65257Y-39733D01*
X65313Y-39705D01*
X65370Y-39705D01*
X66214Y-39789D02*
X66298Y-39817D01*
X66326Y-39845D01*
X66354Y-39902D01*
X66354Y-39986D01*
X66326Y-40042D01*
X66298Y-40071D01*
X66242Y-40099D01*
X66017Y-40099D01*
X66017Y-39508D01*
X66214Y-39508D01*
X66270Y-39536D01*
X66298Y-39564D01*
X66326Y-39620D01*
X66326Y-39677D01*
X66298Y-39733D01*
X66270Y-39761D01*
X66214Y-39789D01*
X66017Y-39789D01*
X66692Y-40099D02*
X66636Y-40071D01*
X66608Y-40042D01*
X66580Y-39986D01*
X66580Y-39817D01*
X66608Y-39761D01*
X66636Y-39733D01*
X66692Y-39705D01*
X66777Y-39705D01*
X66833Y-39733D01*
X66861Y-39761D01*
X66889Y-39817D01*
X66889Y-39986D01*
X66861Y-40042D01*
X66833Y-40071D01*
X66777Y-40099D01*
X66692Y-40099D01*
X67396Y-40099D02*
X67396Y-39789D01*
X67368Y-39733D01*
X67312Y-39705D01*
X67199Y-39705D01*
X67143Y-39733D01*
X67396Y-40071D02*
X67340Y-40099D01*
X67199Y-40099D01*
X67143Y-40071D01*
X67115Y-40014D01*
X67115Y-39958D01*
X67143Y-39902D01*
X67199Y-39874D01*
X67340Y-39874D01*
X67396Y-39845D01*
X67678Y-40099D02*
X67678Y-39705D01*
X67678Y-39817D02*
X67706Y-39761D01*
X67734Y-39733D01*
X67790Y-39705D01*
X67847Y-39705D01*
X68297Y-40099D02*
X68297Y-39508D01*
X68297Y-40071D02*
X68241Y-40099D01*
X68128Y-40099D01*
X68072Y-40071D01*
X68044Y-40042D01*
X68016Y-39986D01*
X68016Y-39817D01*
X68044Y-39761D01*
X68072Y-39733D01*
X68128Y-39705D01*
X68241Y-39705D01*
X68297Y-39733D01*
X59035Y-40414D02*
X59232Y-41005D01*
X59429Y-40414D01*
X59852Y-40977D02*
X59796Y-41005D01*
X59683Y-41005D01*
X59627Y-40977D01*
X59599Y-40920D01*
X59599Y-40695D01*
X59627Y-40639D01*
X59683Y-40611D01*
X59796Y-40611D01*
X59852Y-40639D01*
X59880Y-40695D01*
X59880Y-40751D01*
X59599Y-40808D01*
X60134Y-41005D02*
X60134Y-40611D01*
X60134Y-40723D02*
X60162Y-40667D01*
X60190Y-40639D01*
X60246Y-40611D01*
X60303Y-40611D01*
X60472Y-40977D02*
X60528Y-41005D01*
X60640Y-41005D01*
X60697Y-40977D01*
X60725Y-40920D01*
X60725Y-40892D01*
X60697Y-40836D01*
X60640Y-40808D01*
X60556Y-40808D01*
X60500Y-40780D01*
X60472Y-40723D01*
X60472Y-40695D01*
X60500Y-40639D01*
X60556Y-40611D01*
X60640Y-40611D01*
X60697Y-40639D01*
X60978Y-41005D02*
X60978Y-40611D01*
X60978Y-40414D02*
X60950Y-40442D01*
X60978Y-40470D01*
X61006Y-40442D01*
X60978Y-40414D01*
X60978Y-40470D01*
X61343Y-41005D02*
X61287Y-40977D01*
X61259Y-40948D01*
X61231Y-40892D01*
X61231Y-40723D01*
X61259Y-40667D01*
X61287Y-40639D01*
X61343Y-40611D01*
X61428Y-40611D01*
X61484Y-40639D01*
X61512Y-40667D01*
X61540Y-40723D01*
X61540Y-40892D01*
X61512Y-40948D01*
X61484Y-40977D01*
X61428Y-41005D01*
X61343Y-41005D01*
X61794Y-40611D02*
X61794Y-41005D01*
X61794Y-40667D02*
X61822Y-40639D01*
X61878Y-40611D01*
X61963Y-40611D01*
X62019Y-40639D01*
X62047Y-40695D01*
X62047Y-41005D01*
X62329Y-40948D02*
X62357Y-40977D01*
X62329Y-41005D01*
X62301Y-40977D01*
X62329Y-40948D01*
X62329Y-41005D01*
X62329Y-40639D02*
X62357Y-40667D01*
X62329Y-40695D01*
X62301Y-40667D01*
X62329Y-40639D01*
X62329Y-40695D01*
X63369Y-41005D02*
X63032Y-41005D01*
X63200Y-41005D02*
X63200Y-40414D01*
X63144Y-40498D01*
X63088Y-40554D01*
X63032Y-40583D01*
X63623Y-40948D02*
X63651Y-40977D01*
X63623Y-41005D01*
X63595Y-40977D01*
X63623Y-40948D01*
X63623Y-41005D01*
X64016Y-40414D02*
X64073Y-40414D01*
X64129Y-40442D01*
X64157Y-40470D01*
X64185Y-40526D01*
X64213Y-40639D01*
X64213Y-40780D01*
X64185Y-40892D01*
X64157Y-40948D01*
X64129Y-40977D01*
X64073Y-41005D01*
X64016Y-41005D01*
X63960Y-40977D01*
X63932Y-40948D01*
X63904Y-40892D01*
X63876Y-40780D01*
X63876Y-40639D01*
X63904Y-40526D01*
X63932Y-40470D01*
X63960Y-40442D01*
X64016Y-40414D01*
X64467Y-40780D02*
X64917Y-40780D01*
X65311Y-40414D02*
X65368Y-40414D01*
X65424Y-40442D01*
X65452Y-40470D01*
X65480Y-40526D01*
X65508Y-40639D01*
X65508Y-40780D01*
X65480Y-40892D01*
X65452Y-40948D01*
X65424Y-40977D01*
X65368Y-41005D01*
X65311Y-41005D01*
X65255Y-40977D01*
X65227Y-40948D01*
X65199Y-40892D01*
X65171Y-40780D01*
X65171Y-40639D01*
X65199Y-40526D01*
X65227Y-40470D01*
X65255Y-40442D01*
X65311Y-40414D01*
G54D14*
X49500Y-25350D02*
X69250Y-25350D01*
X69250Y-45100D02*
X69250Y-25350D01*
X49500Y-45100D02*
X49500Y-25415D01*
X49500Y-45100D02*
X69185Y-45100D01*
G54D15*
X64700Y-31950D02*
X64750Y-31950D01*
X64750Y-31950D02*
X64750Y-34050D01*
X63250Y-34050D02*
X63250Y-31950D01*
X63250Y-31950D02*
X64700Y-31950D01*
X63800Y-31950D02*
X63800Y-32150D01*
X63800Y-32150D02*
X64200Y-32150D01*
X64200Y-32150D02*
X64200Y-31950D01*
X63250Y-34050D02*
X64750Y-34050D01*
G54D10*
X64143Y-31432D02*
X64143Y-31796D01*
X64121Y-31839D01*
X64100Y-31861D01*
X64057Y-31882D01*
X63971Y-31882D01*
X63929Y-31861D01*
X63907Y-31839D01*
X63886Y-31796D01*
X63886Y-31432D01*
X63608Y-31625D02*
X63650Y-31604D01*
X63672Y-31582D01*
X63693Y-31539D01*
X63693Y-31518D01*
X63672Y-31475D01*
X63650Y-31454D01*
X63608Y-31432D01*
X63522Y-31432D01*
X63479Y-31454D01*
X63458Y-31475D01*
X63436Y-31518D01*
X63436Y-31539D01*
X63458Y-31582D01*
X63479Y-31604D01*
X63522Y-31625D01*
X63608Y-31625D01*
X63650Y-31646D01*
X63672Y-31668D01*
X63693Y-31711D01*
X63693Y-31796D01*
X63672Y-31839D01*
X63650Y-31861D01*
X63608Y-31882D01*
X63522Y-31882D01*
X63479Y-31861D01*
X63458Y-31839D01*
X63436Y-31796D01*
X63436Y-31711D01*
X63458Y-31668D01*
X63479Y-31646D01*
X63522Y-31625D01*
X64542Y-31901D02*
X64192Y-31901D01*
X64192Y-31985D01*
X64208Y-32035D01*
X64242Y-32068D01*
X64275Y-32085D01*
X64342Y-32101D01*
X64392Y-32101D01*
X64458Y-32085D01*
X64492Y-32068D01*
X64525Y-32035D01*
X64542Y-31985D01*
X64542Y-31901D01*
X64525Y-32235D02*
X64542Y-32285D01*
X64542Y-32368D01*
X64525Y-32401D01*
X64508Y-32418D01*
X64475Y-32435D01*
X64442Y-32435D01*
X64408Y-32418D01*
X64392Y-32401D01*
X64375Y-32368D01*
X64358Y-32301D01*
X64342Y-32268D01*
X64325Y-32251D01*
X64292Y-32235D01*
X64258Y-32235D01*
X64225Y-32251D01*
X64208Y-32268D01*
X64192Y-32301D01*
X64192Y-32385D01*
X64208Y-32435D01*
X64542Y-32768D02*
X64542Y-32568D01*
X64542Y-32668D02*
X64192Y-32668D01*
X64242Y-32634D01*
X64275Y-32601D01*
X64292Y-32568D01*
X64342Y-32967D02*
X64325Y-32934D01*
X64308Y-32917D01*
X64275Y-32901D01*
X64258Y-32901D01*
X64225Y-32917D01*
X64208Y-32934D01*
X64192Y-32967D01*
X64192Y-33034D01*
X64208Y-33067D01*
X64225Y-33084D01*
X64258Y-33101D01*
X64275Y-33101D01*
X64308Y-33084D01*
X64325Y-33067D01*
X64342Y-33034D01*
X64342Y-32967D01*
X64358Y-32934D01*
X64375Y-32917D01*
X64408Y-32901D01*
X64475Y-32901D01*
X64508Y-32917D01*
X64525Y-32934D01*
X64542Y-32967D01*
X64542Y-33034D01*
X64525Y-33067D01*
X64508Y-33084D01*
X64475Y-33101D01*
X64408Y-33101D01*
X64375Y-33084D01*
X64358Y-33067D01*
X64342Y-33034D01*
X64358Y-33367D02*
X64375Y-33417D01*
X64392Y-33434D01*
X64425Y-33450D01*
X64475Y-33450D01*
X64508Y-33434D01*
X64525Y-33417D01*
X64542Y-33384D01*
X64542Y-33250D01*
X64192Y-33250D01*
X64192Y-33367D01*
X64208Y-33400D01*
X64225Y-33417D01*
X64258Y-33434D01*
X64292Y-33434D01*
X64325Y-33417D01*
X64342Y-33400D01*
X64358Y-33367D01*
X64358Y-33250D01*
X64225Y-33584D02*
X64208Y-33600D01*
X64192Y-33634D01*
X64192Y-33717D01*
X64208Y-33750D01*
X64225Y-33767D01*
X64258Y-33784D01*
X64292Y-33784D01*
X64342Y-33767D01*
X64542Y-33567D01*
X64542Y-33784D01*
X64192Y-34000D02*
X64192Y-34033D01*
X64208Y-34067D01*
X64225Y-34083D01*
X64258Y-34100D01*
X64325Y-34117D01*
X64408Y-34117D01*
X64475Y-34100D01*
X64508Y-34083D01*
X64525Y-34067D01*
X64542Y-34033D01*
X64542Y-34000D01*
X64525Y-33967D01*
X64508Y-33950D01*
X64475Y-33933D01*
X64408Y-33917D01*
X64325Y-33917D01*
X64258Y-33933D01*
X64225Y-33950D01*
X64208Y-33967D01*
X64192Y-34000D01*
M02*
