G04 (created by PCBNEW (2012-apr-16-27)-stable) date Sat 27 Apr 2013 17:03:16 BST*
G01*
G70*
G90*
%MOIN*%
G04 Gerber Fmt 3.4, Leading zero omitted, Abs format*
%FSLAX34Y34*%
G04 APERTURE LIST*
%ADD10C,0.001000*%
%ADD11C,0.015000*%
%ADD12C,0.008000*%
G04 APERTURE END LIST*
G54D10*
G54D11*
X49500Y-25350D02*
X69250Y-25350D01*
X69250Y-45100D02*
X69250Y-25350D01*
X49500Y-45100D02*
X49500Y-25415D01*
X49500Y-45100D02*
X69185Y-45100D01*
G54D10*
X53295Y-35635D02*
X53545Y-35885D01*
X53545Y-35635D02*
X53295Y-35885D01*
X53735Y-34035D02*
X53985Y-34285D01*
X53985Y-34035D02*
X53735Y-34285D01*
X54975Y-25875D02*
X55225Y-26125D01*
X55225Y-25875D02*
X54975Y-26125D01*
X55275Y-28675D02*
X55525Y-28925D01*
X55525Y-28675D02*
X55275Y-28925D01*
X55775Y-29075D02*
X56025Y-29325D01*
X56025Y-29075D02*
X55775Y-29325D01*
X56875Y-28705D02*
X57125Y-28955D01*
X57125Y-28705D02*
X56875Y-28955D01*
X56965Y-25875D02*
X57215Y-26125D01*
X57215Y-25875D02*
X56965Y-26125D01*
X63125Y-36875D02*
X63375Y-37125D01*
X63375Y-36875D02*
X63125Y-37125D01*
X63125Y-39125D02*
X63375Y-39375D01*
X63375Y-39125D02*
X63125Y-39375D01*
X63475Y-29965D02*
X63725Y-30215D01*
X63725Y-29965D02*
X63475Y-30215D01*
X63910Y-33575D02*
X64160Y-33825D01*
X64160Y-33575D02*
X63910Y-33825D01*
X65625Y-39875D02*
X65875Y-40125D01*
X65875Y-39875D02*
X65625Y-40125D01*
X66125Y-43625D02*
X66375Y-43875D01*
X66375Y-43625D02*
X66125Y-43875D01*
X66375Y-43125D02*
X66625Y-43375D01*
X66625Y-43125D02*
X66375Y-43375D01*
X67625Y-43125D02*
X67875Y-43375D01*
X67875Y-43125D02*
X67625Y-43375D01*
X51660Y-38750D02*
X51656Y-38781D01*
X51647Y-38810D01*
X51633Y-38838D01*
X51613Y-38862D01*
X51589Y-38882D01*
X51562Y-38897D01*
X51532Y-38906D01*
X51501Y-38909D01*
X51471Y-38907D01*
X51441Y-38898D01*
X51413Y-38883D01*
X51389Y-38864D01*
X51368Y-38840D01*
X51353Y-38813D01*
X51344Y-38783D01*
X51341Y-38752D01*
X51343Y-38722D01*
X51352Y-38692D01*
X51366Y-38664D01*
X51385Y-38639D01*
X51409Y-38619D01*
X51436Y-38604D01*
X51466Y-38594D01*
X51497Y-38591D01*
X51527Y-38593D01*
X51557Y-38601D01*
X51585Y-38615D01*
X51610Y-38635D01*
X51630Y-38658D01*
X51646Y-38685D01*
X51656Y-38715D01*
X51659Y-38746D01*
X51660Y-38750D01*
X61410Y-33000D02*
X61406Y-33031D01*
X61397Y-33060D01*
X61383Y-33088D01*
X61363Y-33112D01*
X61339Y-33132D01*
X61312Y-33147D01*
X61282Y-33156D01*
X61251Y-33159D01*
X61221Y-33157D01*
X61191Y-33148D01*
X61163Y-33133D01*
X61139Y-33114D01*
X61118Y-33090D01*
X61103Y-33063D01*
X61094Y-33033D01*
X61091Y-33002D01*
X61093Y-32972D01*
X61102Y-32942D01*
X61116Y-32914D01*
X61135Y-32889D01*
X61159Y-32869D01*
X61186Y-32854D01*
X61216Y-32844D01*
X61247Y-32841D01*
X61277Y-32843D01*
X61307Y-32851D01*
X61335Y-32865D01*
X61360Y-32885D01*
X61380Y-32908D01*
X61396Y-32935D01*
X61406Y-32965D01*
X61409Y-32996D01*
X61410Y-33000D01*
X61410Y-36000D02*
X61406Y-36031D01*
X61397Y-36060D01*
X61383Y-36088D01*
X61363Y-36112D01*
X61339Y-36132D01*
X61312Y-36147D01*
X61282Y-36156D01*
X61251Y-36159D01*
X61221Y-36157D01*
X61191Y-36148D01*
X61163Y-36133D01*
X61139Y-36114D01*
X61118Y-36090D01*
X61103Y-36063D01*
X61094Y-36033D01*
X61091Y-36002D01*
X61093Y-35972D01*
X61102Y-35942D01*
X61116Y-35914D01*
X61135Y-35889D01*
X61159Y-35869D01*
X61186Y-35854D01*
X61216Y-35844D01*
X61247Y-35841D01*
X61277Y-35843D01*
X61307Y-35851D01*
X61335Y-35865D01*
X61360Y-35885D01*
X61380Y-35908D01*
X61396Y-35935D01*
X61406Y-35965D01*
X61409Y-35996D01*
X61410Y-36000D01*
X50500Y-26550D02*
X50500Y-26950D01*
X50700Y-26750D02*
X50300Y-26750D01*
X50500Y-27550D02*
X50500Y-27950D01*
X50700Y-27750D02*
X50300Y-27750D01*
X50500Y-28550D02*
X50500Y-28950D01*
X50700Y-28750D02*
X50300Y-28750D01*
X50500Y-29550D02*
X50500Y-29950D01*
X50700Y-29750D02*
X50300Y-29750D01*
X50500Y-30550D02*
X50500Y-30950D01*
X50700Y-30750D02*
X50300Y-30750D01*
X50500Y-31550D02*
X50500Y-31950D01*
X50700Y-31750D02*
X50300Y-31750D01*
X50500Y-32550D02*
X50500Y-32950D01*
X50700Y-32750D02*
X50300Y-32750D01*
X50500Y-33550D02*
X50500Y-33950D01*
X50700Y-33750D02*
X50300Y-33750D01*
X50500Y-34550D02*
X50500Y-34950D01*
X50700Y-34750D02*
X50300Y-34750D01*
X50500Y-35550D02*
X50500Y-35950D01*
X50700Y-35750D02*
X50300Y-35750D01*
X50500Y-36550D02*
X50500Y-36950D01*
X50700Y-36750D02*
X50300Y-36750D01*
X50500Y-37550D02*
X50500Y-37950D01*
X50700Y-37750D02*
X50300Y-37750D01*
X50500Y-38550D02*
X50500Y-38950D01*
X50700Y-38750D02*
X50300Y-38750D01*
X51500Y-26550D02*
X51500Y-26950D01*
X51700Y-26750D02*
X51300Y-26750D01*
X51500Y-27550D02*
X51500Y-27950D01*
X51700Y-27750D02*
X51300Y-27750D01*
X51500Y-28550D02*
X51500Y-28950D01*
X51700Y-28750D02*
X51300Y-28750D01*
X51500Y-29550D02*
X51500Y-29950D01*
X51700Y-29750D02*
X51300Y-29750D01*
X51500Y-30550D02*
X51500Y-30950D01*
X51700Y-30750D02*
X51300Y-30750D01*
X51500Y-31550D02*
X51500Y-31950D01*
X51700Y-31750D02*
X51300Y-31750D01*
X51500Y-32550D02*
X51500Y-32950D01*
X51700Y-32750D02*
X51300Y-32750D01*
X51500Y-33550D02*
X51500Y-33950D01*
X51700Y-33750D02*
X51300Y-33750D01*
X51500Y-34550D02*
X51500Y-34950D01*
X51700Y-34750D02*
X51300Y-34750D01*
X51500Y-35550D02*
X51500Y-35950D01*
X51700Y-35750D02*
X51300Y-35750D01*
X51500Y-36550D02*
X51500Y-36950D01*
X51700Y-36750D02*
X51300Y-36750D01*
X51500Y-37550D02*
X51500Y-37950D01*
X51700Y-37750D02*
X51300Y-37750D01*
X53000Y-26550D02*
X53000Y-26950D01*
X53200Y-26750D02*
X52800Y-26750D01*
X53000Y-27550D02*
X53000Y-27950D01*
X53200Y-27750D02*
X52800Y-27750D01*
X53000Y-28550D02*
X53000Y-28950D01*
X53200Y-28750D02*
X52800Y-28750D01*
X54020Y-30980D02*
X54020Y-31380D01*
X54220Y-31180D02*
X53820Y-31180D01*
X54020Y-31980D02*
X54020Y-32380D01*
X54220Y-32180D02*
X53820Y-32180D01*
X54020Y-32980D02*
X54020Y-33380D01*
X54220Y-33180D02*
X53820Y-33180D01*
X57750Y-26550D02*
X57750Y-26950D01*
X57950Y-26750D02*
X57550Y-26750D01*
X58750Y-26550D02*
X58750Y-26950D01*
X58950Y-26750D02*
X58550Y-26750D01*
X61350Y-26550D02*
X61350Y-26950D01*
X61550Y-26750D02*
X61150Y-26750D01*
X61350Y-28550D02*
X61350Y-28950D01*
X61550Y-28750D02*
X61150Y-28750D01*
X63100Y-43300D02*
X63100Y-43700D01*
X63300Y-43500D02*
X62900Y-43500D01*
X64100Y-43300D02*
X64100Y-43700D01*
X64300Y-43500D02*
X63900Y-43500D01*
X58000Y-31250D02*
X57995Y-31298D01*
X57981Y-31345D01*
X57958Y-31388D01*
X57927Y-31426D01*
X57889Y-31457D01*
X57846Y-31480D01*
X57800Y-31494D01*
X57751Y-31499D01*
X57704Y-31495D01*
X57657Y-31481D01*
X57614Y-31459D01*
X57576Y-31428D01*
X57544Y-31391D01*
X57521Y-31348D01*
X57506Y-31301D01*
X57501Y-31253D01*
X57505Y-31205D01*
X57518Y-31158D01*
X57540Y-31115D01*
X57571Y-31077D01*
X57608Y-31045D01*
X57650Y-31021D01*
X57697Y-31006D01*
X57745Y-31001D01*
X57793Y-31004D01*
X57840Y-31017D01*
X57883Y-31039D01*
X57922Y-31069D01*
X57954Y-31106D01*
X57978Y-31149D01*
X57993Y-31195D01*
X57999Y-31244D01*
X58000Y-31250D01*
X57500Y-31000D02*
X58000Y-31500D01*
X58000Y-31000D02*
X57500Y-31500D01*
X58000Y-38250D02*
X57995Y-38298D01*
X57981Y-38345D01*
X57958Y-38388D01*
X57927Y-38426D01*
X57889Y-38457D01*
X57846Y-38480D01*
X57800Y-38494D01*
X57751Y-38499D01*
X57704Y-38495D01*
X57657Y-38481D01*
X57614Y-38459D01*
X57576Y-38428D01*
X57544Y-38391D01*
X57521Y-38348D01*
X57506Y-38301D01*
X57501Y-38253D01*
X57505Y-38205D01*
X57518Y-38158D01*
X57540Y-38115D01*
X57571Y-38077D01*
X57608Y-38045D01*
X57650Y-38021D01*
X57697Y-38006D01*
X57745Y-38001D01*
X57793Y-38004D01*
X57840Y-38017D01*
X57883Y-38039D01*
X57922Y-38069D01*
X57954Y-38106D01*
X57978Y-38149D01*
X57993Y-38195D01*
X57999Y-38244D01*
X58000Y-38250D01*
X57500Y-38000D02*
X58000Y-38500D01*
X58000Y-38000D02*
X57500Y-38500D01*
G54D12*
X49739Y-46455D02*
X49739Y-45655D01*
X49930Y-45655D01*
X50044Y-45693D01*
X50120Y-45769D01*
X50159Y-45845D01*
X50197Y-45998D01*
X50197Y-46112D01*
X50159Y-46264D01*
X50120Y-46341D01*
X50044Y-46417D01*
X49930Y-46455D01*
X49739Y-46455D01*
X50539Y-46455D02*
X50539Y-45921D01*
X50539Y-46074D02*
X50578Y-45998D01*
X50616Y-45960D01*
X50692Y-45921D01*
X50768Y-45921D01*
X51034Y-46455D02*
X51034Y-45921D01*
X51034Y-45655D02*
X50996Y-45693D01*
X51034Y-45731D01*
X51073Y-45693D01*
X51034Y-45655D01*
X51034Y-45731D01*
X51530Y-46455D02*
X51454Y-46417D01*
X51415Y-46341D01*
X51415Y-45655D01*
X51949Y-46455D02*
X51873Y-46417D01*
X51834Y-46341D01*
X51834Y-45655D01*
X52863Y-46455D02*
X52863Y-45655D01*
X53130Y-46226D01*
X53397Y-45655D01*
X53397Y-46455D01*
X54120Y-46455D02*
X54120Y-46036D01*
X54082Y-45960D01*
X54006Y-45921D01*
X53854Y-45921D01*
X53777Y-45960D01*
X54120Y-46417D02*
X54044Y-46455D01*
X53854Y-46455D01*
X53777Y-46417D01*
X53739Y-46341D01*
X53739Y-46264D01*
X53777Y-46188D01*
X53854Y-46150D01*
X54044Y-46150D01*
X54120Y-46112D01*
X54501Y-45921D02*
X54501Y-46721D01*
X54501Y-45960D02*
X54578Y-45921D01*
X54730Y-45921D01*
X54806Y-45960D01*
X54844Y-45998D01*
X54882Y-46074D01*
X54882Y-46302D01*
X54844Y-46379D01*
X54806Y-46417D01*
X54730Y-46455D01*
X54578Y-46455D01*
X54501Y-46417D01*
X55225Y-46379D02*
X55264Y-46417D01*
X55225Y-46455D01*
X55187Y-46417D01*
X55225Y-46379D01*
X55225Y-46455D01*
X55225Y-45960D02*
X55264Y-45998D01*
X55225Y-46036D01*
X55187Y-45998D01*
X55225Y-45960D01*
X55225Y-46036D01*
X49099Y-47686D02*
X49349Y-47936D01*
X49349Y-47686D02*
X49099Y-47936D01*
X49892Y-47335D02*
X49968Y-47335D01*
X50044Y-47373D01*
X50082Y-47411D01*
X50120Y-47487D01*
X50159Y-47640D01*
X50159Y-47830D01*
X50120Y-47982D01*
X50082Y-48059D01*
X50044Y-48097D01*
X49968Y-48135D01*
X49892Y-48135D01*
X49816Y-48097D01*
X49778Y-48059D01*
X49739Y-47982D01*
X49701Y-47830D01*
X49701Y-47640D01*
X49739Y-47487D01*
X49778Y-47411D01*
X49816Y-47373D01*
X49892Y-47335D01*
X50501Y-48059D02*
X50540Y-48097D01*
X50501Y-48135D01*
X50463Y-48097D01*
X50501Y-48059D01*
X50501Y-48135D01*
X51225Y-47335D02*
X51073Y-47335D01*
X50997Y-47373D01*
X50959Y-47411D01*
X50882Y-47525D01*
X50844Y-47678D01*
X50844Y-47982D01*
X50882Y-48059D01*
X50921Y-48097D01*
X50997Y-48135D01*
X51149Y-48135D01*
X51225Y-48097D01*
X51263Y-48059D01*
X51302Y-47982D01*
X51302Y-47792D01*
X51263Y-47716D01*
X51225Y-47678D01*
X51149Y-47640D01*
X50997Y-47640D01*
X50921Y-47678D01*
X50882Y-47716D01*
X50844Y-47792D01*
X51987Y-47601D02*
X51987Y-48135D01*
X51797Y-47297D02*
X51606Y-47868D01*
X52102Y-47868D01*
X52406Y-48135D02*
X52406Y-47601D01*
X52406Y-47678D02*
X52445Y-47640D01*
X52521Y-47601D01*
X52635Y-47601D01*
X52711Y-47640D01*
X52749Y-47716D01*
X52749Y-48135D01*
X52749Y-47716D02*
X52787Y-47640D01*
X52864Y-47601D01*
X52978Y-47601D01*
X53054Y-47640D01*
X53092Y-47716D01*
X53092Y-48135D01*
X53473Y-48135D02*
X53473Y-47601D01*
X53473Y-47678D02*
X53512Y-47640D01*
X53588Y-47601D01*
X53702Y-47601D01*
X53778Y-47640D01*
X53816Y-47716D01*
X53816Y-48135D01*
X53816Y-47716D02*
X53854Y-47640D01*
X53931Y-47601D01*
X54045Y-47601D01*
X54121Y-47640D01*
X54159Y-47716D01*
X54159Y-48135D01*
X55722Y-47297D02*
X55036Y-48325D01*
X56751Y-47335D02*
X56827Y-47335D01*
X56903Y-47373D01*
X56941Y-47411D01*
X56979Y-47487D01*
X57018Y-47640D01*
X57018Y-47830D01*
X56979Y-47982D01*
X56941Y-48059D01*
X56903Y-48097D01*
X56827Y-48135D01*
X56751Y-48135D01*
X56675Y-48097D01*
X56637Y-48059D01*
X56598Y-47982D01*
X56560Y-47830D01*
X56560Y-47640D01*
X56598Y-47487D01*
X56637Y-47411D01*
X56675Y-47373D01*
X56751Y-47335D01*
X57360Y-48059D02*
X57399Y-48097D01*
X57360Y-48135D01*
X57322Y-48097D01*
X57360Y-48059D01*
X57360Y-48135D01*
X57894Y-47335D02*
X57970Y-47335D01*
X58046Y-47373D01*
X58084Y-47411D01*
X58122Y-47487D01*
X58161Y-47640D01*
X58161Y-47830D01*
X58122Y-47982D01*
X58084Y-48059D01*
X58046Y-48097D01*
X57970Y-48135D01*
X57894Y-48135D01*
X57818Y-48097D01*
X57780Y-48059D01*
X57741Y-47982D01*
X57703Y-47830D01*
X57703Y-47640D01*
X57741Y-47487D01*
X57780Y-47411D01*
X57818Y-47373D01*
X57894Y-47335D01*
X58465Y-47411D02*
X58503Y-47373D01*
X58580Y-47335D01*
X58770Y-47335D01*
X58846Y-47373D01*
X58884Y-47411D01*
X58923Y-47487D01*
X58923Y-47563D01*
X58884Y-47678D01*
X58427Y-48135D01*
X58923Y-48135D01*
X59646Y-47335D02*
X59265Y-47335D01*
X59227Y-47716D01*
X59265Y-47678D01*
X59342Y-47640D01*
X59532Y-47640D01*
X59608Y-47678D01*
X59646Y-47716D01*
X59685Y-47792D01*
X59685Y-47982D01*
X59646Y-48059D01*
X59608Y-48097D01*
X59532Y-48135D01*
X59342Y-48135D01*
X59265Y-48097D01*
X59227Y-48059D01*
X59989Y-47335D02*
X59989Y-47487D01*
X60294Y-47335D02*
X60294Y-47487D01*
X61476Y-48440D02*
X61438Y-48401D01*
X61362Y-48287D01*
X61324Y-48211D01*
X61286Y-48097D01*
X61247Y-47906D01*
X61247Y-47754D01*
X61286Y-47563D01*
X61324Y-47449D01*
X61362Y-47373D01*
X61438Y-47259D01*
X61476Y-47221D01*
X62200Y-48135D02*
X61742Y-48135D01*
X61971Y-48135D02*
X61971Y-47335D01*
X61895Y-47449D01*
X61819Y-47525D01*
X61742Y-47563D01*
X62923Y-47335D02*
X62542Y-47335D01*
X62504Y-47716D01*
X62542Y-47678D01*
X62619Y-47640D01*
X62809Y-47640D01*
X62885Y-47678D01*
X62923Y-47716D01*
X62962Y-47792D01*
X62962Y-47982D01*
X62923Y-48059D01*
X62885Y-48097D01*
X62809Y-48135D01*
X62619Y-48135D01*
X62542Y-48097D01*
X62504Y-48059D01*
X63914Y-48135D02*
X63914Y-47335D01*
X64257Y-48135D02*
X64257Y-47716D01*
X64219Y-47640D01*
X64143Y-47601D01*
X64029Y-47601D01*
X63953Y-47640D01*
X63914Y-47678D01*
X64753Y-48135D02*
X64677Y-48097D01*
X64638Y-48059D01*
X64600Y-47982D01*
X64600Y-47754D01*
X64638Y-47678D01*
X64677Y-47640D01*
X64753Y-47601D01*
X64867Y-47601D01*
X64943Y-47640D01*
X64981Y-47678D01*
X65019Y-47754D01*
X65019Y-47982D01*
X64981Y-48059D01*
X64943Y-48097D01*
X64867Y-48135D01*
X64753Y-48135D01*
X65477Y-48135D02*
X65401Y-48097D01*
X65362Y-48021D01*
X65362Y-47335D01*
X66086Y-48097D02*
X66010Y-48135D01*
X65858Y-48135D01*
X65781Y-48097D01*
X65743Y-48021D01*
X65743Y-47716D01*
X65781Y-47640D01*
X65858Y-47601D01*
X66010Y-47601D01*
X66086Y-47640D01*
X66124Y-47716D01*
X66124Y-47792D01*
X65743Y-47868D01*
X66429Y-48097D02*
X66506Y-48135D01*
X66658Y-48135D01*
X66734Y-48097D01*
X66772Y-48021D01*
X66772Y-47982D01*
X66734Y-47906D01*
X66658Y-47868D01*
X66544Y-47868D01*
X66467Y-47830D01*
X66429Y-47754D01*
X66429Y-47716D01*
X66467Y-47640D01*
X66544Y-47601D01*
X66658Y-47601D01*
X66734Y-47640D01*
X67039Y-48440D02*
X67077Y-48401D01*
X67154Y-48287D01*
X67192Y-48211D01*
X67230Y-48097D01*
X67268Y-47906D01*
X67268Y-47754D01*
X67230Y-47563D01*
X67192Y-47449D01*
X67154Y-47373D01*
X67077Y-47259D01*
X67039Y-47221D01*
G54D10*
X49349Y-48867D02*
X49345Y-48898D01*
X49336Y-48927D01*
X49322Y-48955D01*
X49302Y-48979D01*
X49278Y-48999D01*
X49251Y-49014D01*
X49221Y-49023D01*
X49190Y-49026D01*
X49160Y-49024D01*
X49130Y-49015D01*
X49102Y-49000D01*
X49078Y-48981D01*
X49057Y-48957D01*
X49042Y-48930D01*
X49033Y-48900D01*
X49030Y-48869D01*
X49032Y-48839D01*
X49041Y-48809D01*
X49055Y-48781D01*
X49074Y-48756D01*
X49098Y-48736D01*
X49125Y-48721D01*
X49155Y-48711D01*
X49186Y-48708D01*
X49216Y-48710D01*
X49246Y-48718D01*
X49274Y-48732D01*
X49299Y-48752D01*
X49319Y-48775D01*
X49335Y-48802D01*
X49345Y-48832D01*
X49348Y-48863D01*
X49349Y-48867D01*
G54D12*
X49892Y-48391D02*
X49968Y-48391D01*
X50044Y-48429D01*
X50082Y-48467D01*
X50120Y-48543D01*
X50159Y-48696D01*
X50159Y-48886D01*
X50120Y-49038D01*
X50082Y-49115D01*
X50044Y-49153D01*
X49968Y-49191D01*
X49892Y-49191D01*
X49816Y-49153D01*
X49778Y-49115D01*
X49739Y-49038D01*
X49701Y-48886D01*
X49701Y-48696D01*
X49739Y-48543D01*
X49778Y-48467D01*
X49816Y-48429D01*
X49892Y-48391D01*
X50501Y-49115D02*
X50540Y-49153D01*
X50501Y-49191D01*
X50463Y-49153D01*
X50501Y-49115D01*
X50501Y-49191D01*
X50997Y-48734D02*
X50921Y-48696D01*
X50882Y-48657D01*
X50844Y-48581D01*
X50844Y-48543D01*
X50882Y-48467D01*
X50921Y-48429D01*
X50997Y-48391D01*
X51149Y-48391D01*
X51225Y-48429D01*
X51263Y-48467D01*
X51302Y-48543D01*
X51302Y-48581D01*
X51263Y-48657D01*
X51225Y-48696D01*
X51149Y-48734D01*
X50997Y-48734D01*
X50921Y-48772D01*
X50882Y-48810D01*
X50844Y-48886D01*
X50844Y-49038D01*
X50882Y-49115D01*
X50921Y-49153D01*
X50997Y-49191D01*
X51149Y-49191D01*
X51225Y-49153D01*
X51263Y-49115D01*
X51302Y-49038D01*
X51302Y-48886D01*
X51263Y-48810D01*
X51225Y-48772D01*
X51149Y-48734D01*
X52064Y-49191D02*
X51606Y-49191D01*
X51835Y-49191D02*
X51835Y-48391D01*
X51759Y-48505D01*
X51683Y-48581D01*
X51606Y-48619D01*
X52406Y-49191D02*
X52406Y-48657D01*
X52406Y-48734D02*
X52445Y-48696D01*
X52521Y-48657D01*
X52635Y-48657D01*
X52711Y-48696D01*
X52749Y-48772D01*
X52749Y-49191D01*
X52749Y-48772D02*
X52787Y-48696D01*
X52864Y-48657D01*
X52978Y-48657D01*
X53054Y-48696D01*
X53092Y-48772D01*
X53092Y-49191D01*
X53473Y-49191D02*
X53473Y-48657D01*
X53473Y-48734D02*
X53512Y-48696D01*
X53588Y-48657D01*
X53702Y-48657D01*
X53778Y-48696D01*
X53816Y-48772D01*
X53816Y-49191D01*
X53816Y-48772D02*
X53854Y-48696D01*
X53931Y-48657D01*
X54045Y-48657D01*
X54121Y-48696D01*
X54159Y-48772D01*
X54159Y-49191D01*
X55722Y-48353D02*
X55036Y-49381D01*
X56751Y-48391D02*
X56827Y-48391D01*
X56903Y-48429D01*
X56941Y-48467D01*
X56979Y-48543D01*
X57018Y-48696D01*
X57018Y-48886D01*
X56979Y-49038D01*
X56941Y-49115D01*
X56903Y-49153D01*
X56827Y-49191D01*
X56751Y-49191D01*
X56675Y-49153D01*
X56637Y-49115D01*
X56598Y-49038D01*
X56560Y-48886D01*
X56560Y-48696D01*
X56598Y-48543D01*
X56637Y-48467D01*
X56675Y-48429D01*
X56751Y-48391D01*
X57360Y-49115D02*
X57399Y-49153D01*
X57360Y-49191D01*
X57322Y-49153D01*
X57360Y-49115D01*
X57360Y-49191D01*
X57894Y-48391D02*
X57970Y-48391D01*
X58046Y-48429D01*
X58084Y-48467D01*
X58122Y-48543D01*
X58161Y-48696D01*
X58161Y-48886D01*
X58122Y-49038D01*
X58084Y-49115D01*
X58046Y-49153D01*
X57970Y-49191D01*
X57894Y-49191D01*
X57818Y-49153D01*
X57780Y-49115D01*
X57741Y-49038D01*
X57703Y-48886D01*
X57703Y-48696D01*
X57741Y-48543D01*
X57780Y-48467D01*
X57818Y-48429D01*
X57894Y-48391D01*
X58427Y-48391D02*
X58923Y-48391D01*
X58656Y-48696D01*
X58770Y-48696D01*
X58846Y-48734D01*
X58884Y-48772D01*
X58923Y-48848D01*
X58923Y-49038D01*
X58884Y-49115D01*
X58846Y-49153D01*
X58770Y-49191D01*
X58542Y-49191D01*
X58465Y-49153D01*
X58427Y-49115D01*
X59227Y-48467D02*
X59265Y-48429D01*
X59342Y-48391D01*
X59532Y-48391D01*
X59608Y-48429D01*
X59646Y-48467D01*
X59685Y-48543D01*
X59685Y-48619D01*
X59646Y-48734D01*
X59189Y-49191D01*
X59685Y-49191D01*
X59989Y-48391D02*
X59989Y-48543D01*
X60294Y-48391D02*
X60294Y-48543D01*
X61476Y-49496D02*
X61438Y-49457D01*
X61362Y-49343D01*
X61324Y-49267D01*
X61286Y-49153D01*
X61247Y-48962D01*
X61247Y-48810D01*
X61286Y-48619D01*
X61324Y-48505D01*
X61362Y-48429D01*
X61438Y-48315D01*
X61476Y-48277D01*
X61704Y-48391D02*
X62200Y-48391D01*
X61933Y-48696D01*
X62047Y-48696D01*
X62123Y-48734D01*
X62161Y-48772D01*
X62200Y-48848D01*
X62200Y-49038D01*
X62161Y-49115D01*
X62123Y-49153D01*
X62047Y-49191D01*
X61819Y-49191D01*
X61742Y-49153D01*
X61704Y-49115D01*
X63152Y-49191D02*
X63152Y-48391D01*
X63495Y-49191D02*
X63495Y-48772D01*
X63457Y-48696D01*
X63381Y-48657D01*
X63267Y-48657D01*
X63191Y-48696D01*
X63152Y-48734D01*
X63991Y-49191D02*
X63915Y-49153D01*
X63876Y-49115D01*
X63838Y-49038D01*
X63838Y-48810D01*
X63876Y-48734D01*
X63915Y-48696D01*
X63991Y-48657D01*
X64105Y-48657D01*
X64181Y-48696D01*
X64219Y-48734D01*
X64257Y-48810D01*
X64257Y-49038D01*
X64219Y-49115D01*
X64181Y-49153D01*
X64105Y-49191D01*
X63991Y-49191D01*
X64715Y-49191D02*
X64639Y-49153D01*
X64600Y-49077D01*
X64600Y-48391D01*
X65324Y-49153D02*
X65248Y-49191D01*
X65096Y-49191D01*
X65019Y-49153D01*
X64981Y-49077D01*
X64981Y-48772D01*
X65019Y-48696D01*
X65096Y-48657D01*
X65248Y-48657D01*
X65324Y-48696D01*
X65362Y-48772D01*
X65362Y-48848D01*
X64981Y-48924D01*
X65667Y-49153D02*
X65744Y-49191D01*
X65896Y-49191D01*
X65972Y-49153D01*
X66010Y-49077D01*
X66010Y-49038D01*
X65972Y-48962D01*
X65896Y-48924D01*
X65782Y-48924D01*
X65705Y-48886D01*
X65667Y-48810D01*
X65667Y-48772D01*
X65705Y-48696D01*
X65782Y-48657D01*
X65896Y-48657D01*
X65972Y-48696D01*
X66277Y-49496D02*
X66315Y-49457D01*
X66392Y-49343D01*
X66430Y-49267D01*
X66468Y-49153D01*
X66506Y-48962D01*
X66506Y-48810D01*
X66468Y-48619D01*
X66430Y-48505D01*
X66392Y-48429D01*
X66315Y-48315D01*
X66277Y-48277D01*
X49149Y-49723D02*
X49149Y-50123D01*
X49349Y-49923D02*
X48949Y-49923D01*
X50159Y-50247D02*
X49701Y-50247D01*
X49930Y-50247D02*
X49930Y-49447D01*
X49854Y-49561D01*
X49778Y-49637D01*
X49701Y-49675D01*
X50501Y-50171D02*
X50540Y-50209D01*
X50501Y-50247D01*
X50463Y-50209D01*
X50501Y-50171D01*
X50501Y-50247D01*
X51035Y-49447D02*
X51111Y-49447D01*
X51187Y-49485D01*
X51225Y-49523D01*
X51263Y-49599D01*
X51302Y-49752D01*
X51302Y-49942D01*
X51263Y-50094D01*
X51225Y-50171D01*
X51187Y-50209D01*
X51111Y-50247D01*
X51035Y-50247D01*
X50959Y-50209D01*
X50921Y-50171D01*
X50882Y-50094D01*
X50844Y-49942D01*
X50844Y-49752D01*
X50882Y-49599D01*
X50921Y-49523D01*
X50959Y-49485D01*
X51035Y-49447D01*
X51606Y-49523D02*
X51644Y-49485D01*
X51721Y-49447D01*
X51911Y-49447D01*
X51987Y-49485D01*
X52025Y-49523D01*
X52064Y-49599D01*
X52064Y-49675D01*
X52025Y-49790D01*
X51568Y-50247D01*
X52064Y-50247D01*
X52406Y-50247D02*
X52406Y-49713D01*
X52406Y-49790D02*
X52445Y-49752D01*
X52521Y-49713D01*
X52635Y-49713D01*
X52711Y-49752D01*
X52749Y-49828D01*
X52749Y-50247D01*
X52749Y-49828D02*
X52787Y-49752D01*
X52864Y-49713D01*
X52978Y-49713D01*
X53054Y-49752D01*
X53092Y-49828D01*
X53092Y-50247D01*
X53473Y-50247D02*
X53473Y-49713D01*
X53473Y-49790D02*
X53512Y-49752D01*
X53588Y-49713D01*
X53702Y-49713D01*
X53778Y-49752D01*
X53816Y-49828D01*
X53816Y-50247D01*
X53816Y-49828D02*
X53854Y-49752D01*
X53931Y-49713D01*
X54045Y-49713D01*
X54121Y-49752D01*
X54159Y-49828D01*
X54159Y-50247D01*
X55722Y-49409D02*
X55036Y-50437D01*
X56751Y-49447D02*
X56827Y-49447D01*
X56903Y-49485D01*
X56941Y-49523D01*
X56979Y-49599D01*
X57018Y-49752D01*
X57018Y-49942D01*
X56979Y-50094D01*
X56941Y-50171D01*
X56903Y-50209D01*
X56827Y-50247D01*
X56751Y-50247D01*
X56675Y-50209D01*
X56637Y-50171D01*
X56598Y-50094D01*
X56560Y-49942D01*
X56560Y-49752D01*
X56598Y-49599D01*
X56637Y-49523D01*
X56675Y-49485D01*
X56751Y-49447D01*
X57360Y-50171D02*
X57399Y-50209D01*
X57360Y-50247D01*
X57322Y-50209D01*
X57360Y-50171D01*
X57360Y-50247D01*
X57894Y-49447D02*
X57970Y-49447D01*
X58046Y-49485D01*
X58084Y-49523D01*
X58122Y-49599D01*
X58161Y-49752D01*
X58161Y-49942D01*
X58122Y-50094D01*
X58084Y-50171D01*
X58046Y-50209D01*
X57970Y-50247D01*
X57894Y-50247D01*
X57818Y-50209D01*
X57780Y-50171D01*
X57741Y-50094D01*
X57703Y-49942D01*
X57703Y-49752D01*
X57741Y-49599D01*
X57780Y-49523D01*
X57818Y-49485D01*
X57894Y-49447D01*
X58846Y-49713D02*
X58846Y-50247D01*
X58656Y-49409D02*
X58465Y-49980D01*
X58961Y-49980D01*
X59418Y-49447D02*
X59494Y-49447D01*
X59570Y-49485D01*
X59608Y-49523D01*
X59646Y-49599D01*
X59685Y-49752D01*
X59685Y-49942D01*
X59646Y-50094D01*
X59608Y-50171D01*
X59570Y-50209D01*
X59494Y-50247D01*
X59418Y-50247D01*
X59342Y-50209D01*
X59304Y-50171D01*
X59265Y-50094D01*
X59227Y-49942D01*
X59227Y-49752D01*
X59265Y-49599D01*
X59304Y-49523D01*
X59342Y-49485D01*
X59418Y-49447D01*
X59989Y-49447D02*
X59989Y-49599D01*
X60294Y-49447D02*
X60294Y-49599D01*
X61476Y-50552D02*
X61438Y-50513D01*
X61362Y-50399D01*
X61324Y-50323D01*
X61286Y-50209D01*
X61247Y-50018D01*
X61247Y-49866D01*
X61286Y-49675D01*
X61324Y-49561D01*
X61362Y-49485D01*
X61438Y-49371D01*
X61476Y-49333D01*
X61704Y-49447D02*
X62200Y-49447D01*
X61933Y-49752D01*
X62047Y-49752D01*
X62123Y-49790D01*
X62161Y-49828D01*
X62200Y-49904D01*
X62200Y-50094D01*
X62161Y-50171D01*
X62123Y-50209D01*
X62047Y-50247D01*
X61819Y-50247D01*
X61742Y-50209D01*
X61704Y-50171D01*
X62466Y-49447D02*
X63000Y-49447D01*
X62657Y-50247D01*
X63914Y-50247D02*
X63914Y-49447D01*
X64257Y-50247D02*
X64257Y-49828D01*
X64219Y-49752D01*
X64143Y-49713D01*
X64029Y-49713D01*
X63953Y-49752D01*
X63914Y-49790D01*
X64753Y-50247D02*
X64677Y-50209D01*
X64638Y-50171D01*
X64600Y-50094D01*
X64600Y-49866D01*
X64638Y-49790D01*
X64677Y-49752D01*
X64753Y-49713D01*
X64867Y-49713D01*
X64943Y-49752D01*
X64981Y-49790D01*
X65019Y-49866D01*
X65019Y-50094D01*
X64981Y-50171D01*
X64943Y-50209D01*
X64867Y-50247D01*
X64753Y-50247D01*
X65477Y-50247D02*
X65401Y-50209D01*
X65362Y-50133D01*
X65362Y-49447D01*
X66086Y-50209D02*
X66010Y-50247D01*
X65858Y-50247D01*
X65781Y-50209D01*
X65743Y-50133D01*
X65743Y-49828D01*
X65781Y-49752D01*
X65858Y-49713D01*
X66010Y-49713D01*
X66086Y-49752D01*
X66124Y-49828D01*
X66124Y-49904D01*
X65743Y-49980D01*
X66429Y-50209D02*
X66506Y-50247D01*
X66658Y-50247D01*
X66734Y-50209D01*
X66772Y-50133D01*
X66772Y-50094D01*
X66734Y-50018D01*
X66658Y-49980D01*
X66544Y-49980D01*
X66467Y-49942D01*
X66429Y-49866D01*
X66429Y-49828D01*
X66467Y-49752D01*
X66544Y-49713D01*
X66658Y-49713D01*
X66734Y-49752D01*
X67039Y-50552D02*
X67077Y-50513D01*
X67154Y-50399D01*
X67192Y-50323D01*
X67230Y-50209D01*
X67268Y-50018D01*
X67268Y-49866D01*
X67230Y-49675D01*
X67192Y-49561D01*
X67154Y-49485D01*
X67077Y-49371D01*
X67039Y-49333D01*
G54D10*
X49349Y-50979D02*
X49344Y-51027D01*
X49330Y-51074D01*
X49307Y-51117D01*
X49276Y-51155D01*
X49238Y-51186D01*
X49195Y-51209D01*
X49149Y-51223D01*
X49100Y-51228D01*
X49053Y-51224D01*
X49006Y-51210D01*
X48963Y-51188D01*
X48925Y-51157D01*
X48893Y-51120D01*
X48870Y-51077D01*
X48855Y-51030D01*
X48850Y-50982D01*
X48854Y-50934D01*
X48867Y-50887D01*
X48889Y-50844D01*
X48920Y-50806D01*
X48957Y-50774D01*
X48999Y-50750D01*
X49046Y-50735D01*
X49094Y-50730D01*
X49142Y-50733D01*
X49189Y-50746D01*
X49232Y-50768D01*
X49271Y-50798D01*
X49303Y-50835D01*
X49327Y-50878D01*
X49342Y-50924D01*
X49348Y-50973D01*
X49349Y-50979D01*
X48849Y-50729D02*
X49349Y-51229D01*
X49349Y-50729D02*
X48849Y-51229D01*
G54D12*
X50159Y-51303D02*
X49701Y-51303D01*
X49930Y-51303D02*
X49930Y-50503D01*
X49854Y-50617D01*
X49778Y-50693D01*
X49701Y-50731D01*
X50501Y-51227D02*
X50540Y-51265D01*
X50501Y-51303D01*
X50463Y-51265D01*
X50501Y-51227D01*
X50501Y-51303D01*
X50844Y-50579D02*
X50882Y-50541D01*
X50959Y-50503D01*
X51149Y-50503D01*
X51225Y-50541D01*
X51263Y-50579D01*
X51302Y-50655D01*
X51302Y-50731D01*
X51263Y-50846D01*
X50806Y-51303D01*
X51302Y-51303D01*
X51568Y-50503D02*
X52102Y-50503D01*
X51759Y-51303D01*
X52406Y-51303D02*
X52406Y-50769D01*
X52406Y-50846D02*
X52445Y-50808D01*
X52521Y-50769D01*
X52635Y-50769D01*
X52711Y-50808D01*
X52749Y-50884D01*
X52749Y-51303D01*
X52749Y-50884D02*
X52787Y-50808D01*
X52864Y-50769D01*
X52978Y-50769D01*
X53054Y-50808D01*
X53092Y-50884D01*
X53092Y-51303D01*
X53473Y-51303D02*
X53473Y-50769D01*
X53473Y-50846D02*
X53512Y-50808D01*
X53588Y-50769D01*
X53702Y-50769D01*
X53778Y-50808D01*
X53816Y-50884D01*
X53816Y-51303D01*
X53816Y-50884D02*
X53854Y-50808D01*
X53931Y-50769D01*
X54045Y-50769D01*
X54121Y-50808D01*
X54159Y-50884D01*
X54159Y-51303D01*
X55722Y-50465D02*
X55036Y-51493D01*
X56751Y-50503D02*
X56827Y-50503D01*
X56903Y-50541D01*
X56941Y-50579D01*
X56979Y-50655D01*
X57018Y-50808D01*
X57018Y-50998D01*
X56979Y-51150D01*
X56941Y-51227D01*
X56903Y-51265D01*
X56827Y-51303D01*
X56751Y-51303D01*
X56675Y-51265D01*
X56637Y-51227D01*
X56598Y-51150D01*
X56560Y-50998D01*
X56560Y-50808D01*
X56598Y-50655D01*
X56637Y-50579D01*
X56675Y-50541D01*
X56751Y-50503D01*
X57360Y-51227D02*
X57399Y-51265D01*
X57360Y-51303D01*
X57322Y-51265D01*
X57360Y-51227D01*
X57360Y-51303D01*
X57894Y-50503D02*
X57970Y-50503D01*
X58046Y-50541D01*
X58084Y-50579D01*
X58122Y-50655D01*
X58161Y-50808D01*
X58161Y-50998D01*
X58122Y-51150D01*
X58084Y-51227D01*
X58046Y-51265D01*
X57970Y-51303D01*
X57894Y-51303D01*
X57818Y-51265D01*
X57780Y-51227D01*
X57741Y-51150D01*
X57703Y-50998D01*
X57703Y-50808D01*
X57741Y-50655D01*
X57780Y-50579D01*
X57818Y-50541D01*
X57894Y-50503D01*
X58884Y-50503D02*
X58503Y-50503D01*
X58465Y-50884D01*
X58503Y-50846D01*
X58580Y-50808D01*
X58770Y-50808D01*
X58846Y-50846D01*
X58884Y-50884D01*
X58923Y-50960D01*
X58923Y-51150D01*
X58884Y-51227D01*
X58846Y-51265D01*
X58770Y-51303D01*
X58580Y-51303D01*
X58503Y-51265D01*
X58465Y-51227D01*
X59418Y-50503D02*
X59494Y-50503D01*
X59570Y-50541D01*
X59608Y-50579D01*
X59646Y-50655D01*
X59685Y-50808D01*
X59685Y-50998D01*
X59646Y-51150D01*
X59608Y-51227D01*
X59570Y-51265D01*
X59494Y-51303D01*
X59418Y-51303D01*
X59342Y-51265D01*
X59304Y-51227D01*
X59265Y-51150D01*
X59227Y-50998D01*
X59227Y-50808D01*
X59265Y-50655D01*
X59304Y-50579D01*
X59342Y-50541D01*
X59418Y-50503D01*
X59989Y-50503D02*
X59989Y-50655D01*
X60294Y-50503D02*
X60294Y-50655D01*
X61476Y-51608D02*
X61438Y-51569D01*
X61362Y-51455D01*
X61324Y-51379D01*
X61286Y-51265D01*
X61247Y-51074D01*
X61247Y-50922D01*
X61286Y-50731D01*
X61324Y-50617D01*
X61362Y-50541D01*
X61438Y-50427D01*
X61476Y-50389D01*
X61742Y-50579D02*
X61780Y-50541D01*
X61857Y-50503D01*
X62047Y-50503D01*
X62123Y-50541D01*
X62161Y-50579D01*
X62200Y-50655D01*
X62200Y-50731D01*
X62161Y-50846D01*
X61704Y-51303D01*
X62200Y-51303D01*
X63152Y-51303D02*
X63152Y-50503D01*
X63495Y-51303D02*
X63495Y-50884D01*
X63457Y-50808D01*
X63381Y-50769D01*
X63267Y-50769D01*
X63191Y-50808D01*
X63152Y-50846D01*
X63991Y-51303D02*
X63915Y-51265D01*
X63876Y-51227D01*
X63838Y-51150D01*
X63838Y-50922D01*
X63876Y-50846D01*
X63915Y-50808D01*
X63991Y-50769D01*
X64105Y-50769D01*
X64181Y-50808D01*
X64219Y-50846D01*
X64257Y-50922D01*
X64257Y-51150D01*
X64219Y-51227D01*
X64181Y-51265D01*
X64105Y-51303D01*
X63991Y-51303D01*
X64715Y-51303D02*
X64639Y-51265D01*
X64600Y-51189D01*
X64600Y-50503D01*
X65324Y-51265D02*
X65248Y-51303D01*
X65096Y-51303D01*
X65019Y-51265D01*
X64981Y-51189D01*
X64981Y-50884D01*
X65019Y-50808D01*
X65096Y-50769D01*
X65248Y-50769D01*
X65324Y-50808D01*
X65362Y-50884D01*
X65362Y-50960D01*
X64981Y-51036D01*
X65667Y-51265D02*
X65744Y-51303D01*
X65896Y-51303D01*
X65972Y-51265D01*
X66010Y-51189D01*
X66010Y-51150D01*
X65972Y-51074D01*
X65896Y-51036D01*
X65782Y-51036D01*
X65705Y-50998D01*
X65667Y-50922D01*
X65667Y-50884D01*
X65705Y-50808D01*
X65782Y-50769D01*
X65896Y-50769D01*
X65972Y-50808D01*
X66277Y-51608D02*
X66315Y-51569D01*
X66392Y-51455D01*
X66430Y-51379D01*
X66468Y-51265D01*
X66506Y-51074D01*
X66506Y-50922D01*
X66468Y-50731D01*
X66430Y-50617D01*
X66392Y-50541D01*
X66315Y-50427D01*
X66277Y-50389D01*
M02*
