M48
;DRILL file {Pcbnew (2012-apr-16-27)-stable} date Sat 27 Apr 2013 17:03:12 BST
;FORMAT={-:-/ absolute / metric / decimal}
FMAT,2
METRIC,TZ
T1C0.635
T2C0.813
T3C1.016
T4C1.270
%
G90
G05
M71
T1
X135.687Y90.830
X136.804Y86.766
X139.954Y66.040
X140.716Y73.152
X141.986Y74.168
X144.780Y73.228
X145.009Y66.040
X160.655Y93.980
X160.655Y99.695
X161.544Y76.429
X162.649Y85.598
X167.005Y101.600
X168.275Y111.125
X168.910Y109.855
X172.085Y109.855
T2
X130.810Y98.425
X155.575Y83.820
X155.575Y91.440
T3
X128.270Y67.945
X128.270Y70.485
X128.270Y73.025
X128.270Y75.565
X128.270Y78.105
X128.270Y80.645
X128.270Y83.185
X128.270Y85.725
X128.270Y88.265
X128.270Y90.805
X128.270Y93.345
X128.270Y95.885
X128.270Y98.425
X130.810Y67.945
X130.810Y70.485
X130.810Y73.025
X130.810Y75.565
X130.810Y78.105
X130.810Y80.645
X130.810Y83.185
X130.810Y85.725
X130.810Y88.265
X130.810Y90.805
X130.810Y93.345
X130.810Y95.885
X134.620Y67.945
X134.620Y70.485
X134.620Y73.025
X137.211Y79.197
X137.211Y81.737
X137.211Y84.277
X146.685Y67.945
X149.225Y67.945
X155.829Y67.945
X155.829Y73.025
X160.274Y110.490
X162.814Y110.490
T4
X146.685Y79.375
X146.685Y97.155
T0
M30
