G04 (created by PCBNEW-RS274X (2012-apr-16-27)-stable) date Sat 27 Apr 2013 17:01:59 BST*
G01*
G70*
G90*
%MOIN*%
G04 Gerber Fmt 3.4, Leading zero omitted, Abs format*
%FSLAX34Y34*%
G04 APERTURE LIST*
%ADD10C,0.006000*%
%ADD11C,0.012000*%
%ADD12C,0.015000*%
%ADD13C,0.005000*%
%ADD14C,0.008000*%
%ADD15C,0.002600*%
%ADD16C,0.002000*%
%ADD17C,0.003000*%
%ADD18C,0.000100*%
%ADD19C,0.003500*%
G04 APERTURE END LIST*
G54D10*
X04000Y-04000D02*
X113000Y-04000D01*
X113000Y-78670D01*
X04000Y-78670D01*
X04000Y-04000D01*
X04700Y-04700D02*
X112300Y-04700D01*
X112300Y-77970D01*
X04700Y-77970D01*
X04700Y-04700D01*
X25800Y-04000D02*
X25800Y-04700D01*
X15043Y-04552D02*
X14757Y-04552D01*
X14900Y-04552D02*
X14900Y-04052D01*
X14852Y-04124D01*
X14805Y-04171D01*
X14757Y-04195D01*
X25800Y-78670D02*
X25800Y-77970D01*
X15043Y-78522D02*
X14757Y-78522D01*
X14900Y-78522D02*
X14900Y-78022D01*
X14852Y-78094D01*
X14805Y-78141D01*
X14757Y-78165D01*
X47600Y-04000D02*
X47600Y-04700D01*
X36557Y-04100D02*
X36581Y-04076D01*
X36629Y-04052D01*
X36748Y-04052D01*
X36795Y-04076D01*
X36819Y-04100D01*
X36843Y-04148D01*
X36843Y-04195D01*
X36819Y-04267D01*
X36533Y-04552D01*
X36843Y-04552D01*
X47600Y-78670D02*
X47600Y-77970D01*
X36557Y-78070D02*
X36581Y-78046D01*
X36629Y-78022D01*
X36748Y-78022D01*
X36795Y-78046D01*
X36819Y-78070D01*
X36843Y-78118D01*
X36843Y-78165D01*
X36819Y-78237D01*
X36533Y-78522D01*
X36843Y-78522D01*
X69400Y-04000D02*
X69400Y-04700D01*
X58333Y-04052D02*
X58643Y-04052D01*
X58476Y-04243D01*
X58548Y-04243D01*
X58595Y-04267D01*
X58619Y-04290D01*
X58643Y-04338D01*
X58643Y-04457D01*
X58619Y-04505D01*
X58595Y-04529D01*
X58548Y-04552D01*
X58405Y-04552D01*
X58357Y-04529D01*
X58333Y-04505D01*
X69400Y-78670D02*
X69400Y-77970D01*
X58333Y-78022D02*
X58643Y-78022D01*
X58476Y-78213D01*
X58548Y-78213D01*
X58595Y-78237D01*
X58619Y-78260D01*
X58643Y-78308D01*
X58643Y-78427D01*
X58619Y-78475D01*
X58595Y-78499D01*
X58548Y-78522D01*
X58405Y-78522D01*
X58357Y-78499D01*
X58333Y-78475D01*
X91200Y-04000D02*
X91200Y-04700D01*
X80395Y-04219D02*
X80395Y-04552D01*
X80276Y-04029D02*
X80157Y-04386D01*
X80467Y-04386D01*
X91200Y-78670D02*
X91200Y-77970D01*
X80395Y-78189D02*
X80395Y-78522D01*
X80276Y-77999D02*
X80157Y-78356D01*
X80467Y-78356D01*
X102219Y-04052D02*
X101981Y-04052D01*
X101957Y-04290D01*
X101981Y-04267D01*
X102029Y-04243D01*
X102148Y-04243D01*
X102195Y-04267D01*
X102219Y-04290D01*
X102243Y-04338D01*
X102243Y-04457D01*
X102219Y-04505D01*
X102195Y-04529D01*
X102148Y-04552D01*
X102029Y-04552D01*
X101981Y-04529D01*
X101957Y-04505D01*
X102219Y-78022D02*
X101981Y-78022D01*
X101957Y-78260D01*
X101981Y-78237D01*
X102029Y-78213D01*
X102148Y-78213D01*
X102195Y-78237D01*
X102219Y-78260D01*
X102243Y-78308D01*
X102243Y-78427D01*
X102219Y-78475D01*
X102195Y-78499D01*
X102148Y-78522D01*
X102029Y-78522D01*
X101981Y-78499D01*
X101957Y-78475D01*
X04000Y-28890D02*
X04700Y-28890D01*
X04231Y-16510D02*
X04469Y-16510D01*
X04184Y-16652D02*
X04350Y-16152D01*
X04517Y-16652D01*
X113000Y-28890D02*
X112300Y-28890D01*
X112531Y-16510D02*
X112769Y-16510D01*
X112484Y-16652D02*
X112650Y-16152D01*
X112817Y-16652D01*
X04000Y-53780D02*
X04700Y-53780D01*
X04386Y-41280D02*
X04457Y-41304D01*
X04481Y-41328D01*
X04505Y-41376D01*
X04505Y-41447D01*
X04481Y-41495D01*
X04457Y-41519D01*
X04410Y-41542D01*
X04219Y-41542D01*
X04219Y-41042D01*
X04386Y-41042D01*
X04433Y-41066D01*
X04457Y-41090D01*
X04481Y-41138D01*
X04481Y-41185D01*
X04457Y-41233D01*
X04433Y-41257D01*
X04386Y-41280D01*
X04219Y-41280D01*
X113000Y-53780D02*
X112300Y-53780D01*
X112686Y-41280D02*
X112757Y-41304D01*
X112781Y-41328D01*
X112805Y-41376D01*
X112805Y-41447D01*
X112781Y-41495D01*
X112757Y-41519D01*
X112710Y-41542D01*
X112519Y-41542D01*
X112519Y-41042D01*
X112686Y-41042D01*
X112733Y-41066D01*
X112757Y-41090D01*
X112781Y-41138D01*
X112781Y-41185D01*
X112757Y-41233D01*
X112733Y-41257D01*
X112686Y-41280D01*
X112519Y-41280D01*
X04505Y-66385D02*
X04481Y-66409D01*
X04410Y-66432D01*
X04362Y-66432D01*
X04290Y-66409D01*
X04243Y-66361D01*
X04219Y-66313D01*
X04195Y-66218D01*
X04195Y-66147D01*
X04219Y-66051D01*
X04243Y-66004D01*
X04290Y-65956D01*
X04362Y-65932D01*
X04410Y-65932D01*
X04481Y-65956D01*
X04505Y-65980D01*
X112805Y-66385D02*
X112781Y-66409D01*
X112710Y-66432D01*
X112662Y-66432D01*
X112590Y-66409D01*
X112543Y-66361D01*
X112519Y-66313D01*
X112495Y-66218D01*
X112495Y-66147D01*
X112519Y-66051D01*
X112543Y-66004D01*
X112590Y-65956D01*
X112662Y-65932D01*
X112710Y-65932D01*
X112781Y-65956D01*
X112805Y-65980D01*
G54D11*
X79443Y-76413D02*
X79443Y-75813D01*
X79586Y-75813D01*
X79671Y-75841D01*
X79729Y-75899D01*
X79757Y-75956D01*
X79786Y-76070D01*
X79786Y-76156D01*
X79757Y-76270D01*
X79729Y-76327D01*
X79671Y-76384D01*
X79586Y-76413D01*
X79443Y-76413D01*
X80300Y-76413D02*
X80300Y-76099D01*
X80271Y-76041D01*
X80214Y-76013D01*
X80100Y-76013D01*
X80043Y-76041D01*
X80300Y-76384D02*
X80243Y-76413D01*
X80100Y-76413D01*
X80043Y-76384D01*
X80014Y-76327D01*
X80014Y-76270D01*
X80043Y-76213D01*
X80100Y-76184D01*
X80243Y-76184D01*
X80300Y-76156D01*
X80500Y-76013D02*
X80729Y-76013D01*
X80586Y-75813D02*
X80586Y-76327D01*
X80614Y-76384D01*
X80672Y-76413D01*
X80729Y-76413D01*
X81157Y-76384D02*
X81100Y-76413D01*
X80986Y-76413D01*
X80929Y-76384D01*
X80900Y-76327D01*
X80900Y-76099D01*
X80929Y-76041D01*
X80986Y-76013D01*
X81100Y-76013D01*
X81157Y-76041D01*
X81186Y-76099D01*
X81186Y-76156D01*
X80900Y-76213D01*
X81443Y-76356D02*
X81471Y-76384D01*
X81443Y-76413D01*
X81414Y-76384D01*
X81443Y-76356D01*
X81443Y-76413D01*
X81443Y-76041D02*
X81471Y-76070D01*
X81443Y-76099D01*
X81414Y-76070D01*
X81443Y-76041D01*
X81443Y-76099D01*
X82157Y-75870D02*
X82186Y-75841D01*
X82243Y-75813D01*
X82386Y-75813D01*
X82443Y-75841D01*
X82472Y-75870D01*
X82500Y-75927D01*
X82500Y-75984D01*
X82472Y-76070D01*
X82129Y-76413D01*
X82500Y-76413D01*
X82700Y-75813D02*
X83100Y-75813D01*
X82843Y-76413D01*
X84042Y-76413D02*
X84042Y-76099D01*
X84013Y-76041D01*
X83956Y-76013D01*
X83842Y-76013D01*
X83785Y-76041D01*
X84042Y-76384D02*
X83985Y-76413D01*
X83842Y-76413D01*
X83785Y-76384D01*
X83756Y-76327D01*
X83756Y-76270D01*
X83785Y-76213D01*
X83842Y-76184D01*
X83985Y-76184D01*
X84042Y-76156D01*
X84328Y-76013D02*
X84328Y-76613D01*
X84328Y-76041D02*
X84385Y-76013D01*
X84499Y-76013D01*
X84556Y-76041D01*
X84585Y-76070D01*
X84614Y-76127D01*
X84614Y-76299D01*
X84585Y-76356D01*
X84556Y-76384D01*
X84499Y-76413D01*
X84385Y-76413D01*
X84328Y-76384D01*
X84871Y-76413D02*
X84871Y-76013D01*
X84871Y-76127D02*
X84899Y-76070D01*
X84928Y-76041D01*
X84985Y-76013D01*
X85042Y-76013D01*
X85670Y-75870D02*
X85699Y-75841D01*
X85756Y-75813D01*
X85899Y-75813D01*
X85956Y-75841D01*
X85985Y-75870D01*
X86013Y-75927D01*
X86013Y-75984D01*
X85985Y-76070D01*
X85642Y-76413D01*
X86013Y-76413D01*
X86384Y-75813D02*
X86441Y-75813D01*
X86498Y-75841D01*
X86527Y-75870D01*
X86556Y-75927D01*
X86584Y-76041D01*
X86584Y-76184D01*
X86556Y-76299D01*
X86527Y-76356D01*
X86498Y-76384D01*
X86441Y-76413D01*
X86384Y-76413D01*
X86327Y-76384D01*
X86298Y-76356D01*
X86270Y-76299D01*
X86241Y-76184D01*
X86241Y-76041D01*
X86270Y-75927D01*
X86298Y-75870D01*
X86327Y-75841D01*
X86384Y-75813D01*
X87155Y-76413D02*
X86812Y-76413D01*
X86984Y-76413D02*
X86984Y-75813D01*
X86927Y-75899D01*
X86869Y-75956D01*
X86812Y-75984D01*
X87355Y-75813D02*
X87726Y-75813D01*
X87526Y-76041D01*
X87612Y-76041D01*
X87669Y-76070D01*
X87698Y-76099D01*
X87726Y-76156D01*
X87726Y-76299D01*
X87698Y-76356D01*
X87669Y-76384D01*
X87612Y-76413D01*
X87440Y-76413D01*
X87383Y-76384D01*
X87355Y-76356D01*
G54D10*
X71043Y-77613D02*
X71043Y-77013D01*
X71386Y-77613D02*
X71129Y-77270D01*
X71386Y-77013D02*
X71043Y-77356D01*
X71643Y-77613D02*
X71643Y-77213D01*
X71643Y-77013D02*
X71614Y-77041D01*
X71643Y-77070D01*
X71671Y-77041D01*
X71643Y-77013D01*
X71643Y-77070D01*
X72272Y-77556D02*
X72243Y-77584D01*
X72157Y-77613D01*
X72100Y-77613D01*
X72015Y-77584D01*
X71957Y-77527D01*
X71929Y-77470D01*
X71900Y-77356D01*
X71900Y-77270D01*
X71929Y-77156D01*
X71957Y-77099D01*
X72015Y-77041D01*
X72100Y-77013D01*
X72157Y-77013D01*
X72243Y-77041D01*
X72272Y-77070D01*
X72786Y-77613D02*
X72786Y-77299D01*
X72757Y-77241D01*
X72700Y-77213D01*
X72586Y-77213D01*
X72529Y-77241D01*
X72786Y-77584D02*
X72729Y-77613D01*
X72586Y-77613D01*
X72529Y-77584D01*
X72500Y-77527D01*
X72500Y-77470D01*
X72529Y-77413D01*
X72586Y-77384D01*
X72729Y-77384D01*
X72786Y-77356D01*
X73329Y-77613D02*
X73329Y-77013D01*
X73329Y-77584D02*
X73272Y-77613D01*
X73158Y-77613D01*
X73100Y-77584D01*
X73072Y-77556D01*
X73043Y-77499D01*
X73043Y-77327D01*
X73072Y-77270D01*
X73100Y-77241D01*
X73158Y-77213D01*
X73272Y-77213D01*
X73329Y-77241D01*
X74072Y-77299D02*
X74272Y-77299D01*
X74358Y-77613D02*
X74072Y-77613D01*
X74072Y-77013D01*
X74358Y-77013D01*
X74615Y-77556D02*
X74643Y-77584D01*
X74615Y-77613D01*
X74586Y-77584D01*
X74615Y-77556D01*
X74615Y-77613D01*
X74901Y-77613D02*
X74901Y-77013D01*
X75044Y-77013D01*
X75129Y-77041D01*
X75187Y-77099D01*
X75215Y-77156D01*
X75244Y-77270D01*
X75244Y-77356D01*
X75215Y-77470D01*
X75187Y-77527D01*
X75129Y-77584D01*
X75044Y-77613D01*
X74901Y-77613D01*
X75501Y-77556D02*
X75529Y-77584D01*
X75501Y-77613D01*
X75472Y-77584D01*
X75501Y-77556D01*
X75501Y-77613D01*
X75758Y-77441D02*
X76044Y-77441D01*
X75701Y-77613D02*
X75901Y-77013D01*
X76101Y-77613D01*
X76301Y-77556D02*
X76329Y-77584D01*
X76301Y-77613D01*
X76272Y-77584D01*
X76301Y-77556D01*
X76301Y-77613D01*
G54D11*
X104586Y-76413D02*
X104386Y-76127D01*
X104243Y-76413D02*
X104243Y-75813D01*
X104471Y-75813D01*
X104529Y-75841D01*
X104557Y-75870D01*
X104586Y-75927D01*
X104586Y-76013D01*
X104557Y-76070D01*
X104529Y-76099D01*
X104471Y-76127D01*
X104243Y-76127D01*
X105071Y-76384D02*
X105014Y-76413D01*
X104900Y-76413D01*
X104843Y-76384D01*
X104814Y-76327D01*
X104814Y-76099D01*
X104843Y-76041D01*
X104900Y-76013D01*
X105014Y-76013D01*
X105071Y-76041D01*
X105100Y-76099D01*
X105100Y-76156D01*
X104814Y-76213D01*
X105300Y-76013D02*
X105443Y-76413D01*
X105585Y-76013D01*
X105814Y-76356D02*
X105842Y-76384D01*
X105814Y-76413D01*
X105785Y-76384D01*
X105814Y-76356D01*
X105814Y-76413D01*
X105814Y-76041D02*
X105842Y-76070D01*
X105814Y-76099D01*
X105785Y-76070D01*
X105814Y-76041D01*
X105814Y-76099D01*
G54D10*
X71014Y-76384D02*
X71100Y-76413D01*
X71243Y-76413D01*
X71300Y-76384D01*
X71329Y-76356D01*
X71357Y-76299D01*
X71357Y-76241D01*
X71329Y-76184D01*
X71300Y-76156D01*
X71243Y-76127D01*
X71129Y-76099D01*
X71071Y-76070D01*
X71043Y-76041D01*
X71014Y-75984D01*
X71014Y-75927D01*
X71043Y-75870D01*
X71071Y-75841D01*
X71129Y-75813D01*
X71271Y-75813D01*
X71357Y-75841D01*
X71614Y-76413D02*
X71614Y-76013D01*
X71614Y-75813D02*
X71585Y-75841D01*
X71614Y-75870D01*
X71642Y-75841D01*
X71614Y-75813D01*
X71614Y-75870D01*
X71843Y-76013D02*
X72157Y-76013D01*
X71843Y-76413D01*
X72157Y-76413D01*
X72614Y-76384D02*
X72557Y-76413D01*
X72443Y-76413D01*
X72386Y-76384D01*
X72357Y-76327D01*
X72357Y-76099D01*
X72386Y-76041D01*
X72443Y-76013D01*
X72557Y-76013D01*
X72614Y-76041D01*
X72643Y-76099D01*
X72643Y-76156D01*
X72357Y-76213D01*
X72900Y-76356D02*
X72928Y-76384D01*
X72900Y-76413D01*
X72871Y-76384D01*
X72900Y-76356D01*
X72900Y-76413D01*
X72900Y-76041D02*
X72928Y-76070D01*
X72900Y-76099D01*
X72871Y-76070D01*
X72900Y-76041D01*
X72900Y-76099D01*
X73614Y-76241D02*
X73900Y-76241D01*
X73557Y-76413D02*
X73757Y-75813D01*
X73957Y-76413D01*
X74414Y-76013D02*
X74414Y-76413D01*
X74271Y-75784D02*
X74128Y-76213D01*
X74500Y-76213D01*
X104243Y-77613D02*
X104243Y-77013D01*
X104786Y-77613D02*
X104786Y-77013D01*
X104786Y-77584D02*
X104729Y-77613D01*
X104615Y-77613D01*
X104557Y-77584D01*
X104529Y-77556D01*
X104500Y-77499D01*
X104500Y-77327D01*
X104529Y-77270D01*
X104557Y-77241D01*
X104615Y-77213D01*
X104729Y-77213D01*
X104786Y-77241D01*
X105072Y-77556D02*
X105100Y-77584D01*
X105072Y-77613D01*
X105043Y-77584D01*
X105072Y-77556D01*
X105072Y-77613D01*
X105072Y-77241D02*
X105100Y-77270D01*
X105072Y-77299D01*
X105043Y-77270D01*
X105072Y-77241D01*
X105072Y-77299D01*
X106129Y-77613D02*
X105786Y-77613D01*
X105958Y-77613D02*
X105958Y-77013D01*
X105901Y-77099D01*
X105843Y-77156D01*
X105786Y-77184D01*
X106814Y-76984D02*
X106300Y-77756D01*
X107329Y-77613D02*
X106986Y-77613D01*
X107158Y-77613D02*
X107158Y-77013D01*
X107101Y-77099D01*
X107043Y-77156D01*
X106986Y-77184D01*
G54D11*
X70957Y-74613D02*
X71300Y-74613D01*
X71129Y-75213D02*
X71129Y-74613D01*
X71500Y-75213D02*
X71500Y-74813D01*
X71500Y-74613D02*
X71471Y-74641D01*
X71500Y-74670D01*
X71528Y-74641D01*
X71500Y-74613D01*
X71500Y-74670D01*
X71700Y-74813D02*
X71929Y-74813D01*
X71786Y-74613D02*
X71786Y-75127D01*
X71814Y-75184D01*
X71872Y-75213D01*
X71929Y-75213D01*
X72215Y-75213D02*
X72157Y-75184D01*
X72129Y-75127D01*
X72129Y-74613D01*
X72671Y-75184D02*
X72614Y-75213D01*
X72500Y-75213D01*
X72443Y-75184D01*
X72414Y-75127D01*
X72414Y-74899D01*
X72443Y-74841D01*
X72500Y-74813D01*
X72614Y-74813D01*
X72671Y-74841D01*
X72700Y-74899D01*
X72700Y-74956D01*
X72414Y-75013D01*
X72957Y-75156D02*
X72985Y-75184D01*
X72957Y-75213D01*
X72928Y-75184D01*
X72957Y-75156D01*
X72957Y-75213D01*
X72957Y-74841D02*
X72985Y-74870D01*
X72957Y-74899D01*
X72928Y-74870D01*
X72957Y-74841D01*
X72957Y-74899D01*
G54D10*
X71243Y-72499D02*
X71043Y-72499D01*
X71043Y-72813D02*
X71043Y-72213D01*
X71329Y-72213D01*
X71557Y-72813D02*
X71557Y-72413D01*
X71557Y-72213D02*
X71528Y-72241D01*
X71557Y-72270D01*
X71585Y-72241D01*
X71557Y-72213D01*
X71557Y-72270D01*
X71929Y-72813D02*
X71871Y-72784D01*
X71843Y-72727D01*
X71843Y-72213D01*
X72385Y-72784D02*
X72328Y-72813D01*
X72214Y-72813D01*
X72157Y-72784D01*
X72128Y-72727D01*
X72128Y-72499D01*
X72157Y-72441D01*
X72214Y-72413D01*
X72328Y-72413D01*
X72385Y-72441D01*
X72414Y-72499D01*
X72414Y-72556D01*
X72128Y-72613D01*
X72671Y-72756D02*
X72699Y-72784D01*
X72671Y-72813D01*
X72642Y-72784D01*
X72671Y-72756D01*
X72671Y-72813D01*
X72671Y-72441D02*
X72699Y-72470D01*
X72671Y-72499D01*
X72642Y-72470D01*
X72671Y-72441D01*
X72671Y-72499D01*
X73385Y-72641D02*
X73671Y-72641D01*
X73328Y-72813D02*
X73528Y-72213D01*
X73728Y-72813D01*
X74185Y-72813D02*
X74185Y-72213D01*
X74185Y-72784D02*
X74128Y-72813D01*
X74014Y-72813D01*
X73956Y-72784D01*
X73928Y-72756D01*
X73899Y-72699D01*
X73899Y-72527D01*
X73928Y-72470D01*
X73956Y-72441D01*
X74014Y-72413D01*
X74128Y-72413D01*
X74185Y-72441D01*
X74471Y-72413D02*
X74471Y-72927D01*
X74442Y-72984D01*
X74385Y-73013D01*
X74357Y-73013D01*
X74471Y-72213D02*
X74442Y-72241D01*
X74471Y-72270D01*
X74499Y-72241D01*
X74471Y-72213D01*
X74471Y-72270D01*
X75100Y-72813D02*
X74900Y-72527D01*
X74757Y-72813D02*
X74757Y-72213D01*
X74985Y-72213D01*
X75043Y-72241D01*
X75071Y-72270D01*
X75100Y-72327D01*
X75100Y-72413D01*
X75071Y-72470D01*
X75043Y-72499D01*
X74985Y-72527D01*
X74757Y-72527D01*
X75585Y-72784D02*
X75528Y-72813D01*
X75414Y-72813D01*
X75357Y-72784D01*
X75328Y-72727D01*
X75328Y-72499D01*
X75357Y-72441D01*
X75414Y-72413D01*
X75528Y-72413D01*
X75585Y-72441D01*
X75614Y-72499D01*
X75614Y-72556D01*
X75328Y-72613D01*
X76128Y-72413D02*
X76128Y-72899D01*
X76099Y-72956D01*
X76071Y-72984D01*
X76014Y-73013D01*
X75928Y-73013D01*
X75871Y-72984D01*
X76128Y-72784D02*
X76071Y-72813D01*
X75957Y-72813D01*
X75899Y-72784D01*
X75871Y-72756D01*
X75842Y-72699D01*
X75842Y-72527D01*
X75871Y-72470D01*
X75899Y-72441D01*
X75957Y-72413D01*
X76071Y-72413D01*
X76128Y-72441D01*
X76671Y-72413D02*
X76671Y-72813D01*
X76414Y-72413D02*
X76414Y-72727D01*
X76442Y-72784D01*
X76500Y-72813D01*
X76585Y-72813D01*
X76642Y-72784D01*
X76671Y-72756D01*
X77043Y-72813D02*
X76985Y-72784D01*
X76957Y-72727D01*
X76957Y-72213D01*
X77528Y-72813D02*
X77528Y-72499D01*
X77499Y-72441D01*
X77442Y-72413D01*
X77328Y-72413D01*
X77271Y-72441D01*
X77528Y-72784D02*
X77471Y-72813D01*
X77328Y-72813D01*
X77271Y-72784D01*
X77242Y-72727D01*
X77242Y-72670D01*
X77271Y-72613D01*
X77328Y-72584D01*
X77471Y-72584D01*
X77528Y-72556D01*
X77728Y-72413D02*
X77957Y-72413D01*
X77814Y-72213D02*
X77814Y-72727D01*
X77842Y-72784D01*
X77900Y-72813D01*
X77957Y-72813D01*
X78243Y-72813D02*
X78185Y-72784D01*
X78157Y-72756D01*
X78128Y-72699D01*
X78128Y-72527D01*
X78157Y-72470D01*
X78185Y-72441D01*
X78243Y-72413D01*
X78328Y-72413D01*
X78385Y-72441D01*
X78414Y-72470D01*
X78443Y-72527D01*
X78443Y-72699D01*
X78414Y-72756D01*
X78385Y-72784D01*
X78328Y-72813D01*
X78243Y-72813D01*
X78700Y-72813D02*
X78700Y-72413D01*
X78700Y-72527D02*
X78728Y-72470D01*
X78757Y-72441D01*
X78814Y-72413D01*
X78871Y-72413D01*
X79071Y-72756D02*
X79099Y-72784D01*
X79071Y-72813D01*
X79042Y-72784D01*
X79071Y-72756D01*
X79071Y-72813D01*
X79357Y-72813D02*
X79357Y-72213D01*
X79357Y-72441D02*
X79414Y-72413D01*
X79528Y-72413D01*
X79585Y-72441D01*
X79614Y-72470D01*
X79643Y-72527D01*
X79643Y-72699D01*
X79614Y-72756D01*
X79585Y-72784D01*
X79528Y-72813D01*
X79414Y-72813D01*
X79357Y-72784D01*
X79900Y-72813D02*
X79900Y-72413D01*
X79900Y-72527D02*
X79928Y-72470D01*
X79957Y-72441D01*
X80014Y-72413D01*
X80071Y-72413D01*
X80528Y-72813D02*
X80528Y-72213D01*
X80528Y-72784D02*
X80471Y-72813D01*
X80357Y-72813D01*
X80299Y-72784D01*
X80271Y-72756D01*
X80242Y-72699D01*
X80242Y-72527D01*
X80271Y-72470D01*
X80299Y-72441D01*
X80357Y-72413D01*
X80471Y-72413D01*
X80528Y-72441D01*
X71014Y-73984D02*
X71100Y-74013D01*
X71243Y-74013D01*
X71300Y-73984D01*
X71329Y-73956D01*
X71357Y-73899D01*
X71357Y-73841D01*
X71329Y-73784D01*
X71300Y-73756D01*
X71243Y-73727D01*
X71129Y-73699D01*
X71071Y-73670D01*
X71043Y-73641D01*
X71014Y-73584D01*
X71014Y-73527D01*
X71043Y-73470D01*
X71071Y-73441D01*
X71129Y-73413D01*
X71271Y-73413D01*
X71357Y-73441D01*
X71614Y-74013D02*
X71614Y-73413D01*
X71871Y-74013D02*
X71871Y-73699D01*
X71842Y-73641D01*
X71785Y-73613D01*
X71700Y-73613D01*
X71642Y-73641D01*
X71614Y-73670D01*
X72385Y-73984D02*
X72328Y-74013D01*
X72214Y-74013D01*
X72157Y-73984D01*
X72128Y-73927D01*
X72128Y-73699D01*
X72157Y-73641D01*
X72214Y-73613D01*
X72328Y-73613D01*
X72385Y-73641D01*
X72414Y-73699D01*
X72414Y-73756D01*
X72128Y-73813D01*
X72899Y-73984D02*
X72842Y-74013D01*
X72728Y-74013D01*
X72671Y-73984D01*
X72642Y-73927D01*
X72642Y-73699D01*
X72671Y-73641D01*
X72728Y-73613D01*
X72842Y-73613D01*
X72899Y-73641D01*
X72928Y-73699D01*
X72928Y-73756D01*
X72642Y-73813D01*
X73099Y-73613D02*
X73328Y-73613D01*
X73185Y-73413D02*
X73185Y-73927D01*
X73213Y-73984D01*
X73271Y-74013D01*
X73328Y-74013D01*
X73528Y-73956D02*
X73556Y-73984D01*
X73528Y-74013D01*
X73499Y-73984D01*
X73528Y-73956D01*
X73528Y-74013D01*
X73528Y-73641D02*
X73556Y-73670D01*
X73528Y-73699D01*
X73499Y-73670D01*
X73528Y-73641D01*
X73528Y-73699D01*
X74585Y-74013D02*
X74242Y-74013D01*
X74414Y-74013D02*
X74414Y-73413D01*
X74357Y-73499D01*
X74299Y-73556D01*
X74242Y-73584D01*
X75270Y-73384D02*
X74756Y-74156D01*
X75785Y-74013D02*
X75442Y-74013D01*
X75614Y-74013D02*
X75614Y-73413D01*
X75557Y-73499D01*
X75499Y-73556D01*
X75442Y-73584D01*
X70300Y-71970D02*
X70300Y-77970D01*
X70300Y-71970D02*
X112300Y-71970D01*
X70300Y-71970D02*
X112300Y-71970D01*
X70300Y-74370D02*
X112300Y-74370D01*
X103500Y-75570D02*
X103500Y-77970D01*
X70300Y-76770D02*
X112300Y-76770D01*
X70300Y-75570D02*
X112300Y-75570D01*
X76900Y-75570D02*
X76900Y-76770D01*
G54D12*
X49500Y-25350D02*
X69250Y-25350D01*
X69250Y-45100D02*
X69250Y-25350D01*
X49500Y-45100D02*
X49500Y-25415D01*
X49500Y-45100D02*
X69185Y-45100D01*
G54D11*
X57750Y-38250D02*
X57750Y-38250D01*
X57750Y-38250D02*
X57750Y-38250D01*
X57750Y-32000D02*
X57750Y-31250D01*
X57750Y-31250D02*
X57750Y-31250D01*
X58750Y-32000D02*
X58750Y-37500D01*
X56750Y-37500D02*
X56750Y-32000D01*
X57250Y-37500D02*
X56750Y-37000D01*
X56750Y-32000D02*
X58750Y-32000D01*
X56750Y-37500D02*
X58750Y-37500D01*
X57750Y-38250D02*
X57750Y-37500D01*
G54D12*
X62264Y-30844D02*
X66280Y-30844D01*
X66280Y-30844D02*
X66280Y-34742D01*
X66280Y-34742D02*
X62264Y-34742D01*
X62264Y-34742D02*
X62264Y-30844D01*
X62382Y-30844D02*
X64193Y-30844D01*
G54D13*
X62750Y-41300D02*
X62650Y-41300D01*
X62650Y-41300D02*
X62650Y-42200D01*
X62650Y-42200D02*
X62750Y-42200D01*
X62750Y-41300D02*
X62750Y-42200D01*
X62750Y-42200D02*
X63400Y-42200D01*
X64100Y-41300D02*
X64750Y-41300D01*
X64750Y-41300D02*
X64750Y-42200D01*
X64750Y-42200D02*
X64100Y-42200D01*
X63400Y-41300D02*
X62750Y-41300D01*
X62750Y-40050D02*
X62750Y-40950D01*
X62750Y-40950D02*
X63400Y-40950D01*
X64100Y-40050D02*
X64750Y-40050D01*
X64750Y-40050D02*
X64750Y-40950D01*
X64750Y-40950D02*
X64100Y-40950D01*
X63400Y-40050D02*
X62750Y-40050D01*
X66000Y-38200D02*
X66000Y-37300D01*
X66000Y-37300D02*
X65350Y-37300D01*
X64650Y-38200D02*
X64000Y-38200D01*
X64000Y-38200D02*
X64000Y-37300D01*
X64000Y-37300D02*
X64650Y-37300D01*
X65350Y-38200D02*
X66000Y-38200D01*
X53290Y-32440D02*
X52390Y-32440D01*
X52390Y-32440D02*
X52390Y-33090D01*
X53290Y-33790D02*
X53290Y-34440D01*
X53290Y-34440D02*
X52390Y-34440D01*
X52390Y-34440D02*
X52390Y-33790D01*
X53290Y-33090D02*
X53290Y-32440D01*
X64000Y-38550D02*
X64000Y-39450D01*
X64000Y-39450D02*
X64650Y-39450D01*
X65350Y-38550D02*
X66000Y-38550D01*
X66000Y-38550D02*
X66000Y-39450D01*
X66000Y-39450D02*
X65350Y-39450D01*
X64650Y-38550D02*
X64000Y-38550D01*
X52390Y-39040D02*
X53290Y-39040D01*
X53290Y-39040D02*
X53290Y-38390D01*
X52390Y-37690D02*
X52390Y-37040D01*
X52390Y-37040D02*
X53290Y-37040D01*
X53290Y-37040D02*
X53290Y-37690D01*
X52390Y-38390D02*
X52390Y-39040D01*
X63750Y-38200D02*
X63750Y-37300D01*
X63750Y-37300D02*
X63100Y-37300D01*
X62400Y-38200D02*
X61750Y-38200D01*
X61750Y-38200D02*
X61750Y-37300D01*
X61750Y-37300D02*
X62400Y-37300D01*
X63100Y-38200D02*
X63750Y-38200D01*
X53290Y-34740D02*
X52390Y-34740D01*
X52390Y-34740D02*
X52390Y-35390D01*
X53290Y-36090D02*
X53290Y-36740D01*
X53290Y-36740D02*
X52390Y-36740D01*
X52390Y-36740D02*
X52390Y-36090D01*
X53290Y-35390D02*
X53290Y-34740D01*
G54D14*
X52000Y-39250D02*
X52000Y-26250D01*
X50000Y-26250D02*
X50000Y-39250D01*
X50000Y-39250D02*
X52000Y-39250D01*
X52000Y-26250D02*
X50000Y-26250D01*
G54D11*
X63100Y-27750D02*
X63066Y-28089D01*
X62967Y-28416D01*
X62807Y-28718D01*
X62591Y-28983D01*
X62328Y-29200D01*
X62028Y-29363D01*
X61701Y-29464D01*
X61362Y-29499D01*
X61023Y-29469D01*
X60695Y-29372D01*
X60392Y-29214D01*
X60126Y-29000D01*
X59907Y-28738D01*
X59742Y-28439D01*
X59639Y-28113D01*
X59601Y-27774D01*
X59629Y-27435D01*
X59723Y-27106D01*
X59880Y-26803D01*
X60092Y-26535D01*
X60352Y-26313D01*
X60650Y-26147D01*
X60975Y-26041D01*
X61314Y-26001D01*
X61653Y-26027D01*
X61982Y-26119D01*
X62287Y-26273D01*
X62556Y-26483D01*
X62780Y-26742D01*
X62948Y-27039D01*
X63056Y-27363D01*
X63099Y-27702D01*
X63100Y-27750D01*
X61250Y-36000D02*
X61250Y-35700D01*
X61250Y-35700D02*
X61650Y-35700D01*
X61650Y-35700D02*
X61650Y-33300D01*
X61650Y-33300D02*
X61250Y-33300D01*
X61250Y-33300D02*
X61250Y-33000D01*
X61250Y-33300D02*
X60850Y-33300D01*
X60850Y-33300D02*
X60850Y-35700D01*
X60850Y-35700D02*
X61250Y-35700D01*
X61650Y-35500D02*
X60850Y-35500D01*
X60850Y-35400D02*
X61650Y-35400D01*
G54D13*
X57300Y-30500D02*
X58200Y-30500D01*
X58200Y-30500D02*
X58200Y-29850D01*
X57300Y-29150D02*
X57300Y-28500D01*
X57300Y-28500D02*
X58200Y-28500D01*
X58200Y-28500D02*
X58200Y-29150D01*
X57300Y-29850D02*
X57300Y-30500D01*
X67200Y-36000D02*
X66300Y-36000D01*
X66300Y-36000D02*
X66300Y-36650D01*
X67200Y-37350D02*
X67200Y-38000D01*
X67200Y-38000D02*
X66300Y-38000D01*
X66300Y-38000D02*
X66300Y-37350D01*
X67200Y-36650D02*
X67200Y-36000D01*
G54D15*
X66193Y-42478D02*
X66273Y-42478D01*
X66273Y-42478D02*
X66273Y-42148D01*
X66193Y-42148D02*
X66273Y-42148D01*
X66193Y-42478D02*
X66193Y-42148D01*
X66449Y-42478D02*
X66529Y-42478D01*
X66529Y-42478D02*
X66529Y-42148D01*
X66449Y-42148D02*
X66529Y-42148D01*
X66449Y-42478D02*
X66449Y-42148D01*
X66705Y-42478D02*
X66785Y-42478D01*
X66785Y-42478D02*
X66785Y-42148D01*
X66705Y-42148D02*
X66785Y-42148D01*
X66705Y-42478D02*
X66705Y-42148D01*
X66960Y-42478D02*
X67040Y-42478D01*
X67040Y-42478D02*
X67040Y-42148D01*
X66960Y-42148D02*
X67040Y-42148D01*
X66960Y-42478D02*
X66960Y-42148D01*
X67215Y-42478D02*
X67295Y-42478D01*
X67295Y-42478D02*
X67295Y-42148D01*
X67215Y-42148D02*
X67295Y-42148D01*
X67215Y-42478D02*
X67215Y-42148D01*
X67471Y-42478D02*
X67551Y-42478D01*
X67551Y-42478D02*
X67551Y-42148D01*
X67471Y-42148D02*
X67551Y-42148D01*
X67471Y-42478D02*
X67471Y-42148D01*
X67727Y-42478D02*
X67807Y-42478D01*
X67807Y-42478D02*
X67807Y-42148D01*
X67727Y-42148D02*
X67807Y-42148D01*
X67727Y-42478D02*
X67727Y-42148D01*
X67727Y-40352D02*
X67807Y-40352D01*
X67807Y-40352D02*
X67807Y-40022D01*
X67727Y-40022D02*
X67807Y-40022D01*
X67727Y-40352D02*
X67727Y-40022D01*
X67471Y-40352D02*
X67551Y-40352D01*
X67551Y-40352D02*
X67551Y-40022D01*
X67471Y-40022D02*
X67551Y-40022D01*
X67471Y-40352D02*
X67471Y-40022D01*
X67215Y-40352D02*
X67295Y-40352D01*
X67295Y-40352D02*
X67295Y-40022D01*
X67215Y-40022D02*
X67295Y-40022D01*
X67215Y-40352D02*
X67215Y-40022D01*
X66960Y-40352D02*
X67040Y-40352D01*
X67040Y-40352D02*
X67040Y-40022D01*
X66960Y-40022D02*
X67040Y-40022D01*
X66960Y-40352D02*
X66960Y-40022D01*
X66705Y-40352D02*
X66785Y-40352D01*
X66785Y-40352D02*
X66785Y-40022D01*
X66705Y-40022D02*
X66785Y-40022D01*
X66705Y-40352D02*
X66705Y-40022D01*
X66449Y-40352D02*
X66529Y-40352D01*
X66529Y-40352D02*
X66529Y-40022D01*
X66449Y-40022D02*
X66529Y-40022D01*
X66449Y-40352D02*
X66449Y-40022D01*
X66193Y-40352D02*
X66273Y-40352D01*
X66273Y-40352D02*
X66273Y-40022D01*
X66193Y-40022D02*
X66273Y-40022D01*
X66193Y-40352D02*
X66193Y-40022D01*
G54D10*
X66010Y-42148D02*
X67990Y-42148D01*
X67990Y-40352D02*
X67990Y-42148D01*
X67990Y-40352D02*
X66010Y-40352D01*
X66010Y-42148D02*
X66010Y-40352D01*
G54D16*
X66100Y-42058D02*
X67900Y-42058D01*
X67900Y-40442D02*
X67900Y-42058D01*
X67900Y-40442D02*
X66100Y-40442D01*
X66100Y-42058D02*
X66100Y-40442D01*
G54D17*
X66487Y-41730D02*
X66484Y-41754D01*
X66477Y-41778D01*
X66465Y-41800D01*
X66450Y-41819D01*
X66431Y-41835D01*
X66409Y-41847D01*
X66385Y-41854D01*
X66360Y-41856D01*
X66337Y-41854D01*
X66313Y-41847D01*
X66291Y-41836D01*
X66272Y-41820D01*
X66256Y-41801D01*
X66244Y-41780D01*
X66236Y-41756D01*
X66234Y-41731D01*
X66236Y-41708D01*
X66242Y-41684D01*
X66254Y-41662D01*
X66269Y-41642D01*
X66288Y-41626D01*
X66310Y-41614D01*
X66333Y-41606D01*
X66358Y-41604D01*
X66382Y-41605D01*
X66405Y-41612D01*
X66428Y-41623D01*
X66447Y-41639D01*
X66463Y-41657D01*
X66476Y-41679D01*
X66483Y-41702D01*
X66486Y-41727D01*
X66487Y-41730D01*
G54D10*
X57250Y-27250D02*
X57250Y-26250D01*
X57250Y-26250D02*
X59250Y-26250D01*
X59250Y-26250D02*
X59250Y-27250D01*
X59250Y-27250D02*
X57250Y-27250D01*
X64600Y-43000D02*
X64600Y-44000D01*
X64600Y-44000D02*
X62600Y-44000D01*
X62600Y-44000D02*
X62600Y-43000D01*
X62600Y-43000D02*
X64600Y-43000D01*
X54520Y-33680D02*
X53520Y-33680D01*
X53520Y-33680D02*
X53520Y-30680D01*
X53520Y-30680D02*
X54520Y-30680D01*
X54520Y-30680D02*
X54520Y-33680D01*
X53520Y-32680D02*
X54520Y-32680D01*
X52500Y-26250D02*
X53500Y-26250D01*
X53500Y-26250D02*
X53500Y-29250D01*
X53500Y-29250D02*
X52500Y-29250D01*
X52500Y-29250D02*
X52500Y-26250D01*
X53500Y-27250D02*
X52500Y-27250D01*
G54D12*
X54830Y-26404D02*
X54830Y-27585D01*
X56090Y-26404D02*
X56090Y-27585D01*
G54D15*
X56680Y-27574D02*
X56680Y-27455D01*
X56680Y-27455D02*
X56168Y-27455D01*
X56168Y-27574D02*
X56168Y-27455D01*
X56680Y-27574D02*
X56168Y-27574D01*
X56680Y-27324D02*
X56680Y-27205D01*
X56680Y-27205D02*
X56168Y-27205D01*
X56168Y-27324D02*
X56168Y-27205D01*
X56680Y-27324D02*
X56168Y-27324D01*
X56680Y-27074D02*
X56680Y-26955D01*
X56680Y-26955D02*
X56168Y-26955D01*
X56168Y-27074D02*
X56168Y-26955D01*
X56680Y-27074D02*
X56168Y-27074D01*
X56680Y-26824D02*
X56680Y-26705D01*
X56680Y-26705D02*
X56168Y-26705D01*
X56168Y-26824D02*
X56168Y-26705D01*
X56680Y-26824D02*
X56168Y-26824D01*
X56680Y-26575D02*
X56680Y-26456D01*
X56680Y-26456D02*
X56168Y-26456D01*
X56168Y-26575D02*
X56168Y-26456D01*
X56680Y-26575D02*
X56168Y-26575D01*
X54752Y-26575D02*
X54752Y-26456D01*
X54752Y-26456D02*
X54240Y-26456D01*
X54240Y-26575D02*
X54240Y-26456D01*
X54752Y-26575D02*
X54240Y-26575D01*
X54752Y-26824D02*
X54752Y-26705D01*
X54752Y-26705D02*
X54240Y-26705D01*
X54240Y-26824D02*
X54240Y-26705D01*
X54752Y-26824D02*
X54240Y-26824D01*
X54752Y-27074D02*
X54752Y-26955D01*
X54752Y-26955D02*
X54240Y-26955D01*
X54240Y-27074D02*
X54240Y-26955D01*
X54752Y-27074D02*
X54240Y-27074D01*
X54752Y-27324D02*
X54752Y-27205D01*
X54752Y-27205D02*
X54240Y-27205D01*
X54240Y-27324D02*
X54240Y-27205D01*
X54752Y-27324D02*
X54240Y-27324D01*
X54752Y-27574D02*
X54752Y-27455D01*
X54752Y-27455D02*
X54240Y-27455D01*
X54240Y-27574D02*
X54240Y-27455D01*
X54752Y-27574D02*
X54240Y-27574D01*
G54D14*
X56188Y-27612D02*
X54732Y-27612D01*
X54732Y-26376D02*
X56188Y-26376D01*
G54D18*
X55956Y-27289D02*
X55954Y-27305D01*
X55949Y-27320D01*
X55942Y-27334D01*
X55931Y-27347D01*
X55919Y-27357D01*
X55905Y-27365D01*
X55889Y-27370D01*
X55873Y-27371D01*
X55858Y-27370D01*
X55842Y-27365D01*
X55828Y-27358D01*
X55815Y-27348D01*
X55805Y-27335D01*
X55797Y-27321D01*
X55792Y-27306D01*
X55791Y-27290D01*
X55792Y-27275D01*
X55796Y-27259D01*
X55804Y-27245D01*
X55814Y-27232D01*
X55826Y-27221D01*
X55840Y-27213D01*
X55856Y-27208D01*
X55872Y-27207D01*
X55887Y-27208D01*
X55903Y-27212D01*
X55917Y-27219D01*
X55930Y-27229D01*
X55940Y-27242D01*
X55948Y-27256D01*
X55953Y-27271D01*
X55955Y-27287D01*
X55956Y-27289D01*
G54D14*
X58373Y-33933D02*
X58373Y-34171D01*
X57823Y-34171D01*
X58373Y-33504D02*
X58373Y-33790D01*
X58373Y-33647D02*
X57823Y-33647D01*
X57901Y-33695D01*
X57954Y-33742D01*
X57980Y-33790D01*
X57106Y-36619D02*
X57473Y-36619D01*
X56896Y-36738D02*
X57289Y-36857D01*
X57289Y-36547D01*
X57420Y-36357D02*
X57446Y-36333D01*
X57473Y-36357D01*
X57446Y-36381D01*
X57420Y-36357D01*
X57473Y-36357D01*
X56923Y-36167D02*
X56923Y-35833D01*
X57473Y-36048D01*
X57106Y-35429D02*
X57473Y-35429D01*
X57106Y-35643D02*
X57394Y-35643D01*
X57446Y-35619D01*
X57473Y-35572D01*
X57473Y-35500D01*
X57446Y-35452D01*
X57420Y-35429D01*
X57473Y-35191D02*
X56923Y-35191D01*
X57185Y-35191D02*
X57185Y-34905D01*
X57473Y-34905D02*
X56923Y-34905D01*
X57446Y-34643D02*
X57473Y-34643D01*
X57525Y-34667D01*
X57551Y-34691D01*
X57525Y-34548D02*
X57525Y-34167D01*
X57158Y-33977D02*
X57132Y-34024D01*
X57106Y-34048D01*
X57054Y-34072D01*
X57027Y-34072D01*
X56975Y-34048D01*
X56949Y-34024D01*
X56923Y-33977D01*
X56923Y-33881D01*
X56949Y-33834D01*
X56975Y-33810D01*
X57027Y-33786D01*
X57054Y-33786D01*
X57106Y-33810D01*
X57132Y-33834D01*
X57158Y-33881D01*
X57158Y-33977D01*
X57185Y-34024D01*
X57211Y-34048D01*
X57263Y-34072D01*
X57368Y-34072D01*
X57420Y-34048D01*
X57446Y-34024D01*
X57473Y-33977D01*
X57473Y-33881D01*
X57446Y-33834D01*
X57420Y-33810D01*
X57368Y-33786D01*
X57263Y-33786D01*
X57211Y-33810D01*
X57185Y-33834D01*
X57158Y-33881D01*
X57420Y-33572D02*
X57446Y-33548D01*
X57473Y-33572D01*
X57446Y-33596D01*
X57420Y-33572D01*
X57473Y-33572D01*
X56923Y-33096D02*
X56923Y-33334D01*
X57185Y-33358D01*
X57158Y-33334D01*
X57132Y-33286D01*
X57132Y-33167D01*
X57158Y-33120D01*
X57185Y-33096D01*
X57237Y-33072D01*
X57368Y-33072D01*
X57420Y-33096D01*
X57446Y-33120D01*
X57473Y-33167D01*
X57473Y-33286D01*
X57446Y-33334D01*
X57420Y-33358D01*
X57315Y-32882D02*
X57315Y-32644D01*
X57473Y-32929D02*
X56923Y-32763D01*
X57473Y-32596D01*
G54D19*
X66486Y-31079D02*
X66486Y-31403D01*
X66505Y-31441D01*
X66524Y-31460D01*
X66562Y-31479D01*
X66639Y-31479D01*
X66677Y-31460D01*
X66696Y-31441D01*
X66715Y-31403D01*
X66715Y-31079D01*
X67115Y-31479D02*
X66886Y-31479D01*
X67000Y-31479D02*
X67000Y-31079D01*
X66962Y-31136D01*
X66924Y-31174D01*
X66886Y-31193D01*
X63057Y-30534D02*
X62866Y-30534D01*
X62866Y-30134D01*
X63190Y-30534D02*
X63190Y-30134D01*
X63324Y-30420D01*
X63457Y-30134D01*
X63457Y-30534D01*
X63628Y-30172D02*
X63647Y-30153D01*
X63685Y-30134D01*
X63781Y-30134D01*
X63819Y-30153D01*
X63838Y-30172D01*
X63857Y-30210D01*
X63857Y-30248D01*
X63838Y-30305D01*
X63609Y-30534D01*
X63857Y-30534D01*
X64009Y-30172D02*
X64028Y-30153D01*
X64066Y-30134D01*
X64162Y-30134D01*
X64200Y-30153D01*
X64219Y-30172D01*
X64238Y-30210D01*
X64238Y-30248D01*
X64219Y-30305D01*
X63990Y-30534D01*
X64238Y-30534D01*
X64581Y-30134D02*
X64504Y-30134D01*
X64466Y-30153D01*
X64447Y-30172D01*
X64409Y-30229D01*
X64390Y-30305D01*
X64390Y-30458D01*
X64409Y-30496D01*
X64428Y-30515D01*
X64466Y-30534D01*
X64543Y-30534D01*
X64581Y-30515D01*
X64600Y-30496D01*
X64619Y-30458D01*
X64619Y-30362D01*
X64600Y-30324D01*
X64581Y-30305D01*
X64543Y-30286D01*
X64466Y-30286D01*
X64428Y-30305D01*
X64409Y-30324D01*
X64390Y-30362D01*
X64752Y-30134D02*
X65019Y-30134D01*
X64847Y-30534D01*
X65133Y-30134D02*
X65400Y-30134D01*
X65228Y-30534D01*
G54D13*
X62443Y-41825D02*
X62457Y-41839D01*
X62471Y-41882D01*
X62471Y-41911D01*
X62457Y-41954D01*
X62429Y-41982D01*
X62400Y-41997D01*
X62343Y-42011D01*
X62300Y-42011D01*
X62243Y-41997D01*
X62214Y-41982D01*
X62186Y-41954D01*
X62171Y-41911D01*
X62171Y-41882D01*
X62186Y-41839D01*
X62200Y-41825D01*
X62171Y-41725D02*
X62171Y-41539D01*
X62286Y-41639D01*
X62286Y-41597D01*
X62300Y-41568D01*
X62314Y-41554D01*
X62343Y-41539D01*
X62414Y-41539D01*
X62443Y-41554D01*
X62457Y-41568D01*
X62471Y-41597D01*
X62471Y-41682D01*
X62457Y-41711D01*
X62443Y-41725D01*
X62493Y-40600D02*
X62507Y-40614D01*
X62521Y-40657D01*
X62521Y-40686D01*
X62507Y-40729D01*
X62479Y-40757D01*
X62450Y-40772D01*
X62393Y-40786D01*
X62350Y-40786D01*
X62293Y-40772D01*
X62264Y-40757D01*
X62236Y-40729D01*
X62221Y-40686D01*
X62221Y-40657D01*
X62236Y-40614D01*
X62250Y-40600D01*
X62521Y-40314D02*
X62521Y-40486D01*
X62521Y-40400D02*
X62221Y-40400D01*
X62264Y-40429D01*
X62293Y-40457D01*
X62307Y-40486D01*
X64950Y-37221D02*
X64850Y-37079D01*
X64778Y-37221D02*
X64778Y-36921D01*
X64893Y-36921D01*
X64921Y-36936D01*
X64936Y-36950D01*
X64950Y-36979D01*
X64950Y-37021D01*
X64936Y-37050D01*
X64921Y-37064D01*
X64893Y-37079D01*
X64778Y-37079D01*
X65207Y-37021D02*
X65207Y-37221D01*
X65136Y-36907D02*
X65064Y-37121D01*
X65250Y-37121D01*
X52661Y-32090D02*
X52519Y-32190D01*
X52661Y-32262D02*
X52361Y-32262D01*
X52361Y-32147D01*
X52376Y-32119D01*
X52390Y-32104D01*
X52419Y-32090D01*
X52461Y-32090D01*
X52490Y-32104D01*
X52504Y-32119D01*
X52519Y-32147D01*
X52519Y-32262D01*
X52361Y-31990D02*
X52361Y-31790D01*
X52661Y-31919D01*
X66496Y-39225D02*
X66354Y-39325D01*
X66496Y-39397D02*
X66196Y-39397D01*
X66196Y-39282D01*
X66211Y-39254D01*
X66225Y-39239D01*
X66254Y-39225D01*
X66296Y-39225D01*
X66325Y-39239D01*
X66339Y-39254D01*
X66354Y-39282D01*
X66354Y-39397D01*
X66196Y-39125D02*
X66196Y-38939D01*
X66311Y-39039D01*
X66311Y-38997D01*
X66325Y-38968D01*
X66339Y-38954D01*
X66368Y-38939D01*
X66439Y-38939D01*
X66468Y-38954D01*
X66482Y-38968D01*
X66496Y-38997D01*
X66496Y-39082D01*
X66482Y-39111D01*
X66468Y-39125D01*
X53211Y-39490D02*
X53069Y-39590D01*
X53211Y-39662D02*
X52911Y-39662D01*
X52911Y-39547D01*
X52926Y-39519D01*
X52940Y-39504D01*
X52969Y-39490D01*
X53011Y-39490D01*
X53040Y-39504D01*
X53054Y-39519D01*
X53069Y-39547D01*
X53069Y-39662D01*
X52940Y-39376D02*
X52926Y-39362D01*
X52911Y-39333D01*
X52911Y-39262D01*
X52926Y-39233D01*
X52940Y-39219D01*
X52969Y-39204D01*
X52997Y-39204D01*
X53040Y-39219D01*
X53211Y-39390D01*
X53211Y-39204D01*
X61518Y-37825D02*
X61532Y-37839D01*
X61546Y-37882D01*
X61546Y-37911D01*
X61532Y-37954D01*
X61504Y-37982D01*
X61475Y-37997D01*
X61418Y-38011D01*
X61375Y-38011D01*
X61318Y-37997D01*
X61289Y-37982D01*
X61261Y-37954D01*
X61246Y-37911D01*
X61246Y-37882D01*
X61261Y-37839D01*
X61275Y-37825D01*
X61275Y-37711D02*
X61261Y-37697D01*
X61246Y-37668D01*
X61246Y-37597D01*
X61261Y-37568D01*
X61275Y-37554D01*
X61304Y-37539D01*
X61332Y-37539D01*
X61375Y-37554D01*
X61546Y-37725D01*
X61546Y-37539D01*
X52761Y-34390D02*
X52619Y-34490D01*
X52761Y-34562D02*
X52461Y-34562D01*
X52461Y-34447D01*
X52476Y-34419D01*
X52490Y-34404D01*
X52519Y-34390D01*
X52561Y-34390D01*
X52590Y-34404D01*
X52604Y-34419D01*
X52619Y-34447D01*
X52619Y-34562D01*
X52761Y-34104D02*
X52761Y-34276D01*
X52761Y-34190D02*
X52461Y-34190D01*
X52504Y-34219D01*
X52533Y-34247D01*
X52547Y-34276D01*
G54D14*
X52612Y-34045D02*
X52212Y-34045D01*
X52212Y-33892D01*
X52231Y-33854D01*
X52250Y-33835D01*
X52288Y-33816D01*
X52345Y-33816D01*
X52383Y-33835D01*
X52402Y-33854D01*
X52421Y-33892D01*
X52421Y-34045D01*
X52250Y-33664D02*
X52231Y-33645D01*
X52212Y-33607D01*
X52212Y-33511D01*
X52231Y-33473D01*
X52250Y-33454D01*
X52288Y-33435D01*
X52326Y-33435D01*
X52383Y-33454D01*
X52612Y-33683D01*
X52612Y-33435D01*
X52424Y-32619D02*
X52443Y-32638D01*
X52462Y-32695D01*
X52462Y-32733D01*
X52443Y-32791D01*
X52405Y-32829D01*
X52367Y-32848D01*
X52290Y-32867D01*
X52233Y-32867D01*
X52157Y-32848D01*
X52119Y-32829D01*
X52081Y-32791D01*
X52062Y-32733D01*
X52062Y-32695D01*
X52081Y-32638D01*
X52100Y-32619D01*
X52062Y-32372D02*
X52062Y-32295D01*
X52081Y-32257D01*
X52119Y-32219D01*
X52195Y-32200D01*
X52329Y-32200D01*
X52405Y-32219D01*
X52443Y-32257D01*
X52462Y-32295D01*
X52462Y-32372D01*
X52443Y-32410D01*
X52405Y-32448D01*
X52329Y-32467D01*
X52195Y-32467D01*
X52119Y-32448D01*
X52081Y-32410D01*
X52062Y-32372D01*
X52462Y-32029D02*
X52062Y-32029D01*
X52462Y-31800D01*
X52062Y-31800D01*
X52462Y-31610D02*
X52062Y-31610D01*
X52462Y-31381D01*
X52062Y-31381D01*
X52500Y-31286D02*
X52500Y-30981D01*
X52462Y-30676D02*
X52462Y-30905D01*
X52462Y-30791D02*
X52062Y-30791D01*
X52119Y-30829D01*
X52157Y-30867D01*
X52176Y-30905D01*
X52062Y-30543D02*
X52062Y-30295D01*
X52214Y-30429D01*
X52214Y-30371D01*
X52233Y-30333D01*
X52252Y-30314D01*
X52290Y-30295D01*
X52386Y-30295D01*
X52424Y-30314D01*
X52443Y-30333D01*
X52462Y-30371D01*
X52462Y-30486D01*
X52443Y-30524D01*
X52424Y-30543D01*
X52062Y-30162D02*
X52462Y-29895D01*
X52062Y-29895D02*
X52462Y-30162D01*
X52100Y-29762D02*
X52081Y-29743D01*
X52062Y-29705D01*
X52062Y-29609D01*
X52081Y-29571D01*
X52100Y-29552D01*
X52138Y-29533D01*
X52176Y-29533D01*
X52233Y-29552D01*
X52462Y-29781D01*
X52462Y-29533D01*
X62474Y-27816D02*
X62493Y-27835D01*
X62512Y-27892D01*
X62512Y-27930D01*
X62493Y-27988D01*
X62455Y-28026D01*
X62417Y-28045D01*
X62340Y-28064D01*
X62283Y-28064D01*
X62207Y-28045D01*
X62169Y-28026D01*
X62131Y-27988D01*
X62112Y-27930D01*
X62112Y-27892D01*
X62131Y-27835D01*
X62150Y-27816D01*
X62112Y-27454D02*
X62112Y-27645D01*
X62302Y-27664D01*
X62283Y-27645D01*
X62264Y-27607D01*
X62264Y-27511D01*
X62283Y-27473D01*
X62302Y-27454D01*
X62340Y-27435D01*
X62436Y-27435D01*
X62474Y-27454D01*
X62493Y-27473D01*
X62512Y-27511D01*
X62512Y-27607D01*
X62493Y-27645D01*
X62474Y-27664D01*
X60512Y-28369D02*
X60512Y-28598D01*
X60512Y-28484D02*
X60112Y-28484D01*
X60169Y-28522D01*
X60207Y-28560D01*
X60226Y-28598D01*
X60283Y-28141D02*
X60264Y-28179D01*
X60245Y-28198D01*
X60207Y-28217D01*
X60188Y-28217D01*
X60150Y-28198D01*
X60131Y-28179D01*
X60112Y-28141D01*
X60112Y-28064D01*
X60131Y-28026D01*
X60150Y-28007D01*
X60188Y-27988D01*
X60207Y-27988D01*
X60245Y-28007D01*
X60264Y-28026D01*
X60283Y-28064D01*
X60283Y-28141D01*
X60302Y-28179D01*
X60321Y-28198D01*
X60360Y-28217D01*
X60436Y-28217D01*
X60474Y-28198D01*
X60493Y-28179D01*
X60512Y-28141D01*
X60512Y-28064D01*
X60493Y-28026D01*
X60474Y-28007D01*
X60436Y-27988D01*
X60360Y-27988D01*
X60321Y-28007D01*
X60302Y-28026D01*
X60283Y-28064D01*
X60112Y-27741D02*
X60112Y-27702D01*
X60131Y-27664D01*
X60150Y-27645D01*
X60188Y-27626D01*
X60264Y-27607D01*
X60360Y-27607D01*
X60436Y-27626D01*
X60474Y-27645D01*
X60493Y-27664D01*
X60512Y-27702D01*
X60512Y-27741D01*
X60493Y-27779D01*
X60474Y-27798D01*
X60436Y-27817D01*
X60360Y-27836D01*
X60264Y-27836D01*
X60188Y-27817D01*
X60150Y-27798D01*
X60131Y-27779D01*
X60112Y-27741D01*
X60245Y-27264D02*
X60512Y-27264D01*
X60245Y-27436D02*
X60455Y-27436D01*
X60493Y-27417D01*
X60512Y-27379D01*
X60512Y-27321D01*
X60493Y-27283D01*
X60474Y-27264D01*
X60302Y-26940D02*
X60302Y-27074D01*
X60512Y-27074D02*
X60112Y-27074D01*
X60112Y-26883D01*
X61412Y-34795D02*
X61012Y-34795D01*
X61012Y-34700D01*
X61031Y-34642D01*
X61069Y-34604D01*
X61107Y-34585D01*
X61183Y-34566D01*
X61240Y-34566D01*
X61317Y-34585D01*
X61355Y-34604D01*
X61393Y-34642D01*
X61412Y-34700D01*
X61412Y-34795D01*
X61412Y-34185D02*
X61412Y-34414D01*
X61412Y-34300D02*
X61012Y-34300D01*
X61069Y-34338D01*
X61107Y-34376D01*
X61126Y-34414D01*
G54D13*
X57871Y-29550D02*
X57729Y-29650D01*
X57871Y-29722D02*
X57571Y-29722D01*
X57571Y-29607D01*
X57586Y-29579D01*
X57600Y-29564D01*
X57629Y-29550D01*
X57671Y-29550D01*
X57700Y-29564D01*
X57714Y-29579D01*
X57729Y-29607D01*
X57729Y-29722D01*
X57700Y-29379D02*
X57686Y-29407D01*
X57671Y-29422D01*
X57643Y-29436D01*
X57629Y-29436D01*
X57600Y-29422D01*
X57586Y-29407D01*
X57571Y-29379D01*
X57571Y-29322D01*
X57586Y-29293D01*
X57600Y-29279D01*
X57629Y-29264D01*
X57643Y-29264D01*
X57671Y-29279D01*
X57686Y-29293D01*
X57700Y-29322D01*
X57700Y-29379D01*
X57714Y-29407D01*
X57729Y-29422D01*
X57757Y-29436D01*
X57814Y-29436D01*
X57843Y-29422D01*
X57857Y-29407D01*
X57871Y-29379D01*
X57871Y-29322D01*
X57857Y-29293D01*
X57843Y-29279D01*
X57814Y-29264D01*
X57757Y-29264D01*
X57729Y-29279D01*
X57714Y-29293D01*
X57700Y-29322D01*
X67621Y-37050D02*
X67479Y-37150D01*
X67621Y-37222D02*
X67321Y-37222D01*
X67321Y-37107D01*
X67336Y-37079D01*
X67350Y-37064D01*
X67379Y-37050D01*
X67421Y-37050D01*
X67450Y-37064D01*
X67464Y-37079D01*
X67479Y-37107D01*
X67479Y-37222D01*
X67321Y-36779D02*
X67321Y-36922D01*
X67464Y-36936D01*
X67450Y-36922D01*
X67436Y-36893D01*
X67436Y-36822D01*
X67450Y-36793D01*
X67464Y-36779D01*
X67493Y-36764D01*
X67564Y-36764D01*
X67593Y-36779D01*
X67607Y-36793D01*
X67621Y-36822D01*
X67621Y-36893D01*
X67607Y-36922D01*
X67593Y-36936D01*
G54D19*
X65422Y-41375D02*
X65746Y-41375D01*
X65784Y-41356D01*
X65803Y-41337D01*
X65822Y-41299D01*
X65822Y-41222D01*
X65803Y-41184D01*
X65784Y-41165D01*
X65746Y-41146D01*
X65422Y-41146D01*
X65422Y-40994D02*
X65422Y-40746D01*
X65574Y-40880D01*
X65574Y-40822D01*
X65593Y-40784D01*
X65612Y-40765D01*
X65650Y-40746D01*
X65746Y-40746D01*
X65784Y-40765D01*
X65803Y-40784D01*
X65822Y-40822D01*
X65822Y-40937D01*
X65803Y-40975D01*
X65784Y-40994D01*
X68492Y-42127D02*
X68092Y-42127D01*
X68378Y-41993D01*
X68092Y-41860D01*
X68492Y-41860D01*
X68378Y-41689D02*
X68378Y-41498D01*
X68492Y-41727D02*
X68092Y-41594D01*
X68492Y-41460D01*
X68092Y-41365D02*
X68492Y-41098D01*
X68092Y-41098D02*
X68492Y-41365D01*
X68092Y-40755D02*
X68092Y-40946D01*
X68282Y-40965D01*
X68263Y-40946D01*
X68244Y-40908D01*
X68244Y-40812D01*
X68263Y-40774D01*
X68282Y-40755D01*
X68320Y-40736D01*
X68416Y-40736D01*
X68454Y-40755D01*
X68473Y-40774D01*
X68492Y-40812D01*
X68492Y-40908D01*
X68473Y-40946D01*
X68454Y-40965D01*
X68225Y-40393D02*
X68492Y-40393D01*
X68073Y-40489D02*
X68359Y-40584D01*
X68359Y-40336D01*
X68092Y-40222D02*
X68092Y-39974D01*
X68244Y-40108D01*
X68244Y-40050D01*
X68263Y-40012D01*
X68282Y-39993D01*
X68320Y-39974D01*
X68416Y-39974D01*
X68454Y-39993D01*
X68473Y-40012D01*
X68492Y-40050D01*
X68492Y-40165D01*
X68473Y-40203D01*
X68454Y-40222D01*
X68092Y-39841D02*
X68092Y-39574D01*
X68492Y-39746D01*
G54D10*
X58028Y-26121D02*
X58028Y-25821D01*
X58143Y-25821D01*
X58171Y-25836D01*
X58186Y-25850D01*
X58200Y-25879D01*
X58200Y-25921D01*
X58186Y-25950D01*
X58171Y-25964D01*
X58143Y-25979D01*
X58028Y-25979D01*
X58457Y-25921D02*
X58457Y-26121D01*
X58386Y-25807D02*
X58314Y-26021D01*
X58500Y-26021D01*
X63378Y-44371D02*
X63378Y-44071D01*
X63493Y-44071D01*
X63521Y-44086D01*
X63536Y-44100D01*
X63550Y-44129D01*
X63550Y-44171D01*
X63536Y-44200D01*
X63521Y-44214D01*
X63493Y-44229D01*
X63378Y-44229D01*
X63836Y-44371D02*
X63664Y-44371D01*
X63750Y-44371D02*
X63750Y-44071D01*
X63721Y-44114D01*
X63693Y-44143D01*
X63664Y-44157D01*
X54532Y-32513D02*
X54818Y-32513D01*
X54875Y-32533D01*
X54913Y-32571D01*
X54932Y-32628D01*
X54932Y-32666D01*
X54932Y-32323D02*
X54532Y-32323D01*
X54532Y-32170D01*
X54551Y-32132D01*
X54570Y-32113D01*
X54608Y-32094D01*
X54665Y-32094D01*
X54703Y-32113D01*
X54722Y-32132D01*
X54741Y-32170D01*
X54741Y-32323D01*
X54932Y-31713D02*
X54932Y-31942D01*
X54932Y-31828D02*
X54532Y-31828D01*
X54589Y-31866D01*
X54627Y-31904D01*
X54646Y-31942D01*
X52667Y-25762D02*
X52667Y-26048D01*
X52647Y-26105D01*
X52609Y-26143D01*
X52552Y-26162D01*
X52514Y-26162D01*
X52857Y-26162D02*
X52857Y-25762D01*
X53010Y-25762D01*
X53048Y-25781D01*
X53067Y-25800D01*
X53086Y-25838D01*
X53086Y-25895D01*
X53067Y-25933D01*
X53048Y-25952D01*
X53010Y-25971D01*
X52857Y-25971D01*
X53238Y-25800D02*
X53257Y-25781D01*
X53295Y-25762D01*
X53391Y-25762D01*
X53429Y-25781D01*
X53448Y-25800D01*
X53467Y-25838D01*
X53467Y-25876D01*
X53448Y-25933D01*
X53219Y-26162D01*
X53467Y-26162D01*
G54D19*
X55042Y-26546D02*
X55447Y-26546D01*
X55495Y-26522D01*
X55519Y-26498D01*
X55542Y-26451D01*
X55542Y-26355D01*
X55519Y-26308D01*
X55495Y-26284D01*
X55447Y-26260D01*
X55042Y-26260D01*
X55042Y-25808D02*
X55042Y-25903D01*
X55066Y-25951D01*
X55090Y-25974D01*
X55161Y-26022D01*
X55257Y-26046D01*
X55447Y-26046D01*
X55495Y-26022D01*
X55519Y-25998D01*
X55542Y-25951D01*
X55542Y-25855D01*
X55519Y-25808D01*
X55495Y-25784D01*
X55447Y-25760D01*
X55328Y-25760D01*
X55280Y-25784D01*
X55257Y-25808D01*
X55233Y-25855D01*
X55233Y-25951D01*
X55257Y-25998D01*
X55280Y-26022D01*
X55328Y-26046D01*
X53697Y-28201D02*
X53697Y-27701D01*
X53935Y-28201D02*
X53935Y-27701D01*
X54221Y-28201D01*
X54221Y-27701D01*
X54435Y-28059D02*
X54673Y-28059D01*
X54388Y-28201D02*
X54554Y-27701D01*
X54721Y-28201D01*
X54769Y-28249D02*
X55150Y-28249D01*
X55245Y-27749D02*
X55269Y-27725D01*
X55317Y-27701D01*
X55436Y-27701D01*
X55483Y-27725D01*
X55507Y-27749D01*
X55531Y-27797D01*
X55531Y-27844D01*
X55507Y-27916D01*
X55221Y-28201D01*
X55531Y-28201D01*
X55721Y-27749D02*
X55745Y-27725D01*
X55793Y-27701D01*
X55912Y-27701D01*
X55959Y-27725D01*
X55983Y-27749D01*
X56007Y-27797D01*
X56007Y-27844D01*
X55983Y-27916D01*
X55697Y-28201D01*
X56007Y-28201D01*
X56316Y-27701D02*
X56364Y-27701D01*
X56412Y-27725D01*
X56435Y-27749D01*
X56459Y-27797D01*
X56483Y-27892D01*
X56483Y-28011D01*
X56459Y-28106D01*
X56435Y-28154D01*
X56412Y-28178D01*
X56364Y-28201D01*
X56316Y-28201D01*
X56269Y-28178D01*
X56245Y-28154D01*
X56221Y-28106D01*
X56197Y-28011D01*
X56197Y-27892D01*
X56221Y-27797D01*
X56245Y-27749D01*
X56269Y-27725D01*
X56316Y-27701D01*
M02*
