G04 (created by PCBNEW-RS274X (2012-apr-16-27)-stable) date Thu 27 Dec 2012 11:36:06 GMT*
G01*
G70*
G90*
%MOIN*%
G04 Gerber Fmt 3.4, Leading zero omitted, Abs format*
%FSLAX34Y34*%
G04 APERTURE LIST*
%ADD10C,0.006000*%
%ADD11C,0.012000*%
%ADD12C,0.015000*%
G04 APERTURE END LIST*
G54D10*
X04000Y-04000D02*
X113000Y-04000D01*
X113000Y-78670D01*
X04000Y-78670D01*
X04000Y-04000D01*
X04700Y-04700D02*
X112300Y-04700D01*
X112300Y-77970D01*
X04700Y-77970D01*
X04700Y-04700D01*
X25800Y-04000D02*
X25800Y-04700D01*
X15043Y-04552D02*
X14757Y-04552D01*
X14900Y-04552D02*
X14900Y-04052D01*
X14852Y-04124D01*
X14805Y-04171D01*
X14757Y-04195D01*
X25800Y-78670D02*
X25800Y-77970D01*
X15043Y-78522D02*
X14757Y-78522D01*
X14900Y-78522D02*
X14900Y-78022D01*
X14852Y-78094D01*
X14805Y-78141D01*
X14757Y-78165D01*
X47600Y-04000D02*
X47600Y-04700D01*
X36557Y-04100D02*
X36581Y-04076D01*
X36629Y-04052D01*
X36748Y-04052D01*
X36795Y-04076D01*
X36819Y-04100D01*
X36843Y-04148D01*
X36843Y-04195D01*
X36819Y-04267D01*
X36533Y-04552D01*
X36843Y-04552D01*
X47600Y-78670D02*
X47600Y-77970D01*
X36557Y-78070D02*
X36581Y-78046D01*
X36629Y-78022D01*
X36748Y-78022D01*
X36795Y-78046D01*
X36819Y-78070D01*
X36843Y-78118D01*
X36843Y-78165D01*
X36819Y-78237D01*
X36533Y-78522D01*
X36843Y-78522D01*
X69400Y-04000D02*
X69400Y-04700D01*
X58333Y-04052D02*
X58643Y-04052D01*
X58476Y-04243D01*
X58548Y-04243D01*
X58595Y-04267D01*
X58619Y-04290D01*
X58643Y-04338D01*
X58643Y-04457D01*
X58619Y-04505D01*
X58595Y-04529D01*
X58548Y-04552D01*
X58405Y-04552D01*
X58357Y-04529D01*
X58333Y-04505D01*
X69400Y-78670D02*
X69400Y-77970D01*
X58333Y-78022D02*
X58643Y-78022D01*
X58476Y-78213D01*
X58548Y-78213D01*
X58595Y-78237D01*
X58619Y-78260D01*
X58643Y-78308D01*
X58643Y-78427D01*
X58619Y-78475D01*
X58595Y-78499D01*
X58548Y-78522D01*
X58405Y-78522D01*
X58357Y-78499D01*
X58333Y-78475D01*
X91200Y-04000D02*
X91200Y-04700D01*
X80395Y-04219D02*
X80395Y-04552D01*
X80276Y-04029D02*
X80157Y-04386D01*
X80467Y-04386D01*
X91200Y-78670D02*
X91200Y-77970D01*
X80395Y-78189D02*
X80395Y-78522D01*
X80276Y-77999D02*
X80157Y-78356D01*
X80467Y-78356D01*
X102219Y-04052D02*
X101981Y-04052D01*
X101957Y-04290D01*
X101981Y-04267D01*
X102029Y-04243D01*
X102148Y-04243D01*
X102195Y-04267D01*
X102219Y-04290D01*
X102243Y-04338D01*
X102243Y-04457D01*
X102219Y-04505D01*
X102195Y-04529D01*
X102148Y-04552D01*
X102029Y-04552D01*
X101981Y-04529D01*
X101957Y-04505D01*
X102219Y-78022D02*
X101981Y-78022D01*
X101957Y-78260D01*
X101981Y-78237D01*
X102029Y-78213D01*
X102148Y-78213D01*
X102195Y-78237D01*
X102219Y-78260D01*
X102243Y-78308D01*
X102243Y-78427D01*
X102219Y-78475D01*
X102195Y-78499D01*
X102148Y-78522D01*
X102029Y-78522D01*
X101981Y-78499D01*
X101957Y-78475D01*
X04000Y-28890D02*
X04700Y-28890D01*
X04231Y-16510D02*
X04469Y-16510D01*
X04184Y-16652D02*
X04350Y-16152D01*
X04517Y-16652D01*
X113000Y-28890D02*
X112300Y-28890D01*
X112531Y-16510D02*
X112769Y-16510D01*
X112484Y-16652D02*
X112650Y-16152D01*
X112817Y-16652D01*
X04000Y-53780D02*
X04700Y-53780D01*
X04386Y-41280D02*
X04457Y-41304D01*
X04481Y-41328D01*
X04505Y-41376D01*
X04505Y-41447D01*
X04481Y-41495D01*
X04457Y-41519D01*
X04410Y-41542D01*
X04219Y-41542D01*
X04219Y-41042D01*
X04386Y-41042D01*
X04433Y-41066D01*
X04457Y-41090D01*
X04481Y-41138D01*
X04481Y-41185D01*
X04457Y-41233D01*
X04433Y-41257D01*
X04386Y-41280D01*
X04219Y-41280D01*
X113000Y-53780D02*
X112300Y-53780D01*
X112686Y-41280D02*
X112757Y-41304D01*
X112781Y-41328D01*
X112805Y-41376D01*
X112805Y-41447D01*
X112781Y-41495D01*
X112757Y-41519D01*
X112710Y-41542D01*
X112519Y-41542D01*
X112519Y-41042D01*
X112686Y-41042D01*
X112733Y-41066D01*
X112757Y-41090D01*
X112781Y-41138D01*
X112781Y-41185D01*
X112757Y-41233D01*
X112733Y-41257D01*
X112686Y-41280D01*
X112519Y-41280D01*
X04505Y-66385D02*
X04481Y-66409D01*
X04410Y-66432D01*
X04362Y-66432D01*
X04290Y-66409D01*
X04243Y-66361D01*
X04219Y-66313D01*
X04195Y-66218D01*
X04195Y-66147D01*
X04219Y-66051D01*
X04243Y-66004D01*
X04290Y-65956D01*
X04362Y-65932D01*
X04410Y-65932D01*
X04481Y-65956D01*
X04505Y-65980D01*
X112805Y-66385D02*
X112781Y-66409D01*
X112710Y-66432D01*
X112662Y-66432D01*
X112590Y-66409D01*
X112543Y-66361D01*
X112519Y-66313D01*
X112495Y-66218D01*
X112495Y-66147D01*
X112519Y-66051D01*
X112543Y-66004D01*
X112590Y-65956D01*
X112662Y-65932D01*
X112710Y-65932D01*
X112781Y-65956D01*
X112805Y-65980D01*
G54D11*
X79443Y-76413D02*
X79443Y-75813D01*
X79586Y-75813D01*
X79671Y-75841D01*
X79729Y-75899D01*
X79757Y-75956D01*
X79786Y-76070D01*
X79786Y-76156D01*
X79757Y-76270D01*
X79729Y-76327D01*
X79671Y-76384D01*
X79586Y-76413D01*
X79443Y-76413D01*
X80300Y-76413D02*
X80300Y-76099D01*
X80271Y-76041D01*
X80214Y-76013D01*
X80100Y-76013D01*
X80043Y-76041D01*
X80300Y-76384D02*
X80243Y-76413D01*
X80100Y-76413D01*
X80043Y-76384D01*
X80014Y-76327D01*
X80014Y-76270D01*
X80043Y-76213D01*
X80100Y-76184D01*
X80243Y-76184D01*
X80300Y-76156D01*
X80500Y-76013D02*
X80729Y-76013D01*
X80586Y-75813D02*
X80586Y-76327D01*
X80614Y-76384D01*
X80672Y-76413D01*
X80729Y-76413D01*
X81157Y-76384D02*
X81100Y-76413D01*
X80986Y-76413D01*
X80929Y-76384D01*
X80900Y-76327D01*
X80900Y-76099D01*
X80929Y-76041D01*
X80986Y-76013D01*
X81100Y-76013D01*
X81157Y-76041D01*
X81186Y-76099D01*
X81186Y-76156D01*
X80900Y-76213D01*
X81443Y-76356D02*
X81471Y-76384D01*
X81443Y-76413D01*
X81414Y-76384D01*
X81443Y-76356D01*
X81443Y-76413D01*
X81443Y-76041D02*
X81471Y-76070D01*
X81443Y-76099D01*
X81414Y-76070D01*
X81443Y-76041D01*
X81443Y-76099D01*
X82157Y-75870D02*
X82186Y-75841D01*
X82243Y-75813D01*
X82386Y-75813D01*
X82443Y-75841D01*
X82472Y-75870D01*
X82500Y-75927D01*
X82500Y-75984D01*
X82472Y-76070D01*
X82129Y-76413D01*
X82500Y-76413D01*
X82700Y-75813D02*
X83100Y-75813D01*
X82843Y-76413D01*
X84042Y-76413D02*
X84042Y-75813D01*
X84042Y-76384D02*
X83985Y-76413D01*
X83871Y-76413D01*
X83813Y-76384D01*
X83785Y-76356D01*
X83756Y-76299D01*
X83756Y-76127D01*
X83785Y-76070D01*
X83813Y-76041D01*
X83871Y-76013D01*
X83985Y-76013D01*
X84042Y-76041D01*
X84556Y-76384D02*
X84499Y-76413D01*
X84385Y-76413D01*
X84328Y-76384D01*
X84299Y-76327D01*
X84299Y-76099D01*
X84328Y-76041D01*
X84385Y-76013D01*
X84499Y-76013D01*
X84556Y-76041D01*
X84585Y-76099D01*
X84585Y-76156D01*
X84299Y-76213D01*
X85099Y-76384D02*
X85042Y-76413D01*
X84928Y-76413D01*
X84870Y-76384D01*
X84842Y-76356D01*
X84813Y-76299D01*
X84813Y-76127D01*
X84842Y-76070D01*
X84870Y-76041D01*
X84928Y-76013D01*
X85042Y-76013D01*
X85099Y-76041D01*
X85784Y-75870D02*
X85813Y-75841D01*
X85870Y-75813D01*
X86013Y-75813D01*
X86070Y-75841D01*
X86099Y-75870D01*
X86127Y-75927D01*
X86127Y-75984D01*
X86099Y-76070D01*
X85756Y-76413D01*
X86127Y-76413D01*
X86498Y-75813D02*
X86555Y-75813D01*
X86612Y-75841D01*
X86641Y-75870D01*
X86670Y-75927D01*
X86698Y-76041D01*
X86698Y-76184D01*
X86670Y-76299D01*
X86641Y-76356D01*
X86612Y-76384D01*
X86555Y-76413D01*
X86498Y-76413D01*
X86441Y-76384D01*
X86412Y-76356D01*
X86384Y-76299D01*
X86355Y-76184D01*
X86355Y-76041D01*
X86384Y-75927D01*
X86412Y-75870D01*
X86441Y-75841D01*
X86498Y-75813D01*
X87269Y-76413D02*
X86926Y-76413D01*
X87098Y-76413D02*
X87098Y-75813D01*
X87041Y-75899D01*
X86983Y-75956D01*
X86926Y-75984D01*
X87497Y-75870D02*
X87526Y-75841D01*
X87583Y-75813D01*
X87726Y-75813D01*
X87783Y-75841D01*
X87812Y-75870D01*
X87840Y-75927D01*
X87840Y-75984D01*
X87812Y-76070D01*
X87469Y-76413D01*
X87840Y-76413D01*
G54D10*
X71043Y-77613D02*
X71043Y-77013D01*
X71386Y-77613D02*
X71129Y-77270D01*
X71386Y-77013D02*
X71043Y-77356D01*
X71643Y-77613D02*
X71643Y-77213D01*
X71643Y-77013D02*
X71614Y-77041D01*
X71643Y-77070D01*
X71671Y-77041D01*
X71643Y-77013D01*
X71643Y-77070D01*
X72272Y-77556D02*
X72243Y-77584D01*
X72157Y-77613D01*
X72100Y-77613D01*
X72015Y-77584D01*
X71957Y-77527D01*
X71929Y-77470D01*
X71900Y-77356D01*
X71900Y-77270D01*
X71929Y-77156D01*
X71957Y-77099D01*
X72015Y-77041D01*
X72100Y-77013D01*
X72157Y-77013D01*
X72243Y-77041D01*
X72272Y-77070D01*
X72786Y-77613D02*
X72786Y-77299D01*
X72757Y-77241D01*
X72700Y-77213D01*
X72586Y-77213D01*
X72529Y-77241D01*
X72786Y-77584D02*
X72729Y-77613D01*
X72586Y-77613D01*
X72529Y-77584D01*
X72500Y-77527D01*
X72500Y-77470D01*
X72529Y-77413D01*
X72586Y-77384D01*
X72729Y-77384D01*
X72786Y-77356D01*
X73329Y-77613D02*
X73329Y-77013D01*
X73329Y-77584D02*
X73272Y-77613D01*
X73158Y-77613D01*
X73100Y-77584D01*
X73072Y-77556D01*
X73043Y-77499D01*
X73043Y-77327D01*
X73072Y-77270D01*
X73100Y-77241D01*
X73158Y-77213D01*
X73272Y-77213D01*
X73329Y-77241D01*
X74072Y-77299D02*
X74272Y-77299D01*
X74358Y-77613D02*
X74072Y-77613D01*
X74072Y-77013D01*
X74358Y-77013D01*
X74615Y-77556D02*
X74643Y-77584D01*
X74615Y-77613D01*
X74586Y-77584D01*
X74615Y-77556D01*
X74615Y-77613D01*
X74901Y-77613D02*
X74901Y-77013D01*
X75044Y-77013D01*
X75129Y-77041D01*
X75187Y-77099D01*
X75215Y-77156D01*
X75244Y-77270D01*
X75244Y-77356D01*
X75215Y-77470D01*
X75187Y-77527D01*
X75129Y-77584D01*
X75044Y-77613D01*
X74901Y-77613D01*
X75501Y-77556D02*
X75529Y-77584D01*
X75501Y-77613D01*
X75472Y-77584D01*
X75501Y-77556D01*
X75501Y-77613D01*
X75758Y-77441D02*
X76044Y-77441D01*
X75701Y-77613D02*
X75901Y-77013D01*
X76101Y-77613D01*
X76301Y-77556D02*
X76329Y-77584D01*
X76301Y-77613D01*
X76272Y-77584D01*
X76301Y-77556D01*
X76301Y-77613D01*
G54D11*
X104586Y-76413D02*
X104386Y-76127D01*
X104243Y-76413D02*
X104243Y-75813D01*
X104471Y-75813D01*
X104529Y-75841D01*
X104557Y-75870D01*
X104586Y-75927D01*
X104586Y-76013D01*
X104557Y-76070D01*
X104529Y-76099D01*
X104471Y-76127D01*
X104243Y-76127D01*
X105071Y-76384D02*
X105014Y-76413D01*
X104900Y-76413D01*
X104843Y-76384D01*
X104814Y-76327D01*
X104814Y-76099D01*
X104843Y-76041D01*
X104900Y-76013D01*
X105014Y-76013D01*
X105071Y-76041D01*
X105100Y-76099D01*
X105100Y-76156D01*
X104814Y-76213D01*
X105300Y-76013D02*
X105443Y-76413D01*
X105585Y-76013D01*
X105814Y-76356D02*
X105842Y-76384D01*
X105814Y-76413D01*
X105785Y-76384D01*
X105814Y-76356D01*
X105814Y-76413D01*
X105814Y-76041D02*
X105842Y-76070D01*
X105814Y-76099D01*
X105785Y-76070D01*
X105814Y-76041D01*
X105814Y-76099D01*
G54D10*
X71014Y-76384D02*
X71100Y-76413D01*
X71243Y-76413D01*
X71300Y-76384D01*
X71329Y-76356D01*
X71357Y-76299D01*
X71357Y-76241D01*
X71329Y-76184D01*
X71300Y-76156D01*
X71243Y-76127D01*
X71129Y-76099D01*
X71071Y-76070D01*
X71043Y-76041D01*
X71014Y-75984D01*
X71014Y-75927D01*
X71043Y-75870D01*
X71071Y-75841D01*
X71129Y-75813D01*
X71271Y-75813D01*
X71357Y-75841D01*
X71614Y-76413D02*
X71614Y-76013D01*
X71614Y-75813D02*
X71585Y-75841D01*
X71614Y-75870D01*
X71642Y-75841D01*
X71614Y-75813D01*
X71614Y-75870D01*
X71843Y-76013D02*
X72157Y-76013D01*
X71843Y-76413D01*
X72157Y-76413D01*
X72614Y-76384D02*
X72557Y-76413D01*
X72443Y-76413D01*
X72386Y-76384D01*
X72357Y-76327D01*
X72357Y-76099D01*
X72386Y-76041D01*
X72443Y-76013D01*
X72557Y-76013D01*
X72614Y-76041D01*
X72643Y-76099D01*
X72643Y-76156D01*
X72357Y-76213D01*
X72900Y-76356D02*
X72928Y-76384D01*
X72900Y-76413D01*
X72871Y-76384D01*
X72900Y-76356D01*
X72900Y-76413D01*
X72900Y-76041D02*
X72928Y-76070D01*
X72900Y-76099D01*
X72871Y-76070D01*
X72900Y-76041D01*
X72900Y-76099D01*
X73614Y-76241D02*
X73900Y-76241D01*
X73557Y-76413D02*
X73757Y-75813D01*
X73957Y-76413D01*
X74414Y-76013D02*
X74414Y-76413D01*
X74271Y-75784D02*
X74128Y-76213D01*
X74500Y-76213D01*
X104243Y-77613D02*
X104243Y-77013D01*
X104786Y-77613D02*
X104786Y-77013D01*
X104786Y-77584D02*
X104729Y-77613D01*
X104615Y-77613D01*
X104557Y-77584D01*
X104529Y-77556D01*
X104500Y-77499D01*
X104500Y-77327D01*
X104529Y-77270D01*
X104557Y-77241D01*
X104615Y-77213D01*
X104729Y-77213D01*
X104786Y-77241D01*
X105072Y-77556D02*
X105100Y-77584D01*
X105072Y-77613D01*
X105043Y-77584D01*
X105072Y-77556D01*
X105072Y-77613D01*
X105072Y-77241D02*
X105100Y-77270D01*
X105072Y-77299D01*
X105043Y-77270D01*
X105072Y-77241D01*
X105072Y-77299D01*
X106129Y-77613D02*
X105786Y-77613D01*
X105958Y-77613D02*
X105958Y-77013D01*
X105901Y-77099D01*
X105843Y-77156D01*
X105786Y-77184D01*
X106814Y-76984D02*
X106300Y-77756D01*
X107329Y-77613D02*
X106986Y-77613D01*
X107158Y-77613D02*
X107158Y-77013D01*
X107101Y-77099D01*
X107043Y-77156D01*
X106986Y-77184D01*
G54D11*
X70957Y-74613D02*
X71300Y-74613D01*
X71129Y-75213D02*
X71129Y-74613D01*
X71500Y-75213D02*
X71500Y-74813D01*
X71500Y-74613D02*
X71471Y-74641D01*
X71500Y-74670D01*
X71528Y-74641D01*
X71500Y-74613D01*
X71500Y-74670D01*
X71700Y-74813D02*
X71929Y-74813D01*
X71786Y-74613D02*
X71786Y-75127D01*
X71814Y-75184D01*
X71872Y-75213D01*
X71929Y-75213D01*
X72215Y-75213D02*
X72157Y-75184D01*
X72129Y-75127D01*
X72129Y-74613D01*
X72671Y-75184D02*
X72614Y-75213D01*
X72500Y-75213D01*
X72443Y-75184D01*
X72414Y-75127D01*
X72414Y-74899D01*
X72443Y-74841D01*
X72500Y-74813D01*
X72614Y-74813D01*
X72671Y-74841D01*
X72700Y-74899D01*
X72700Y-74956D01*
X72414Y-75013D01*
X72957Y-75156D02*
X72985Y-75184D01*
X72957Y-75213D01*
X72928Y-75184D01*
X72957Y-75156D01*
X72957Y-75213D01*
X72957Y-74841D02*
X72985Y-74870D01*
X72957Y-74899D01*
X72928Y-74870D01*
X72957Y-74841D01*
X72957Y-74899D01*
G54D10*
X71243Y-72499D02*
X71043Y-72499D01*
X71043Y-72813D02*
X71043Y-72213D01*
X71329Y-72213D01*
X71557Y-72813D02*
X71557Y-72413D01*
X71557Y-72213D02*
X71528Y-72241D01*
X71557Y-72270D01*
X71585Y-72241D01*
X71557Y-72213D01*
X71557Y-72270D01*
X71929Y-72813D02*
X71871Y-72784D01*
X71843Y-72727D01*
X71843Y-72213D01*
X72385Y-72784D02*
X72328Y-72813D01*
X72214Y-72813D01*
X72157Y-72784D01*
X72128Y-72727D01*
X72128Y-72499D01*
X72157Y-72441D01*
X72214Y-72413D01*
X72328Y-72413D01*
X72385Y-72441D01*
X72414Y-72499D01*
X72414Y-72556D01*
X72128Y-72613D01*
X72671Y-72756D02*
X72699Y-72784D01*
X72671Y-72813D01*
X72642Y-72784D01*
X72671Y-72756D01*
X72671Y-72813D01*
X72671Y-72441D02*
X72699Y-72470D01*
X72671Y-72499D01*
X72642Y-72470D01*
X72671Y-72441D01*
X72671Y-72499D01*
X73414Y-72813D02*
X73414Y-72213D01*
X73642Y-72213D01*
X73700Y-72241D01*
X73728Y-72270D01*
X73757Y-72327D01*
X73757Y-72413D01*
X73728Y-72470D01*
X73700Y-72499D01*
X73642Y-72527D01*
X73414Y-72527D01*
X74100Y-72813D02*
X74042Y-72784D01*
X74014Y-72756D01*
X73985Y-72699D01*
X73985Y-72527D01*
X74014Y-72470D01*
X74042Y-72441D01*
X74100Y-72413D01*
X74185Y-72413D01*
X74242Y-72441D01*
X74271Y-72470D01*
X74300Y-72527D01*
X74300Y-72699D01*
X74271Y-72756D01*
X74242Y-72784D01*
X74185Y-72813D01*
X74100Y-72813D01*
X74557Y-72813D02*
X74557Y-72413D01*
X74557Y-72527D02*
X74585Y-72470D01*
X74614Y-72441D01*
X74671Y-72413D01*
X74728Y-72413D01*
X74842Y-72413D02*
X75071Y-72413D01*
X74928Y-72213D02*
X74928Y-72727D01*
X74956Y-72784D01*
X75014Y-72813D01*
X75071Y-72813D01*
X75271Y-72813D02*
X75271Y-72213D01*
X75471Y-72641D01*
X75671Y-72213D01*
X75671Y-72813D01*
X76214Y-72413D02*
X76214Y-72813D01*
X75957Y-72413D02*
X75957Y-72727D01*
X75985Y-72784D01*
X76043Y-72813D01*
X76128Y-72813D01*
X76185Y-72784D01*
X76214Y-72756D01*
X76586Y-72813D02*
X76528Y-72784D01*
X76500Y-72727D01*
X76500Y-72213D01*
X76728Y-72413D02*
X76957Y-72413D01*
X76814Y-72213D02*
X76814Y-72727D01*
X76842Y-72784D01*
X76900Y-72813D01*
X76957Y-72813D01*
X77157Y-72813D02*
X77157Y-72413D01*
X77157Y-72213D02*
X77128Y-72241D01*
X77157Y-72270D01*
X77185Y-72241D01*
X77157Y-72213D01*
X77157Y-72270D01*
X77443Y-72413D02*
X77443Y-73013D01*
X77443Y-72441D02*
X77500Y-72413D01*
X77614Y-72413D01*
X77671Y-72441D01*
X77700Y-72470D01*
X77729Y-72527D01*
X77729Y-72699D01*
X77700Y-72756D01*
X77671Y-72784D01*
X77614Y-72813D01*
X77500Y-72813D01*
X77443Y-72784D01*
X78072Y-72813D02*
X78014Y-72784D01*
X77986Y-72727D01*
X77986Y-72213D01*
X78300Y-72813D02*
X78300Y-72413D01*
X78300Y-72213D02*
X78271Y-72241D01*
X78300Y-72270D01*
X78328Y-72241D01*
X78300Y-72213D01*
X78300Y-72270D01*
X78814Y-72784D02*
X78757Y-72813D01*
X78643Y-72813D01*
X78586Y-72784D01*
X78557Y-72727D01*
X78557Y-72499D01*
X78586Y-72441D01*
X78643Y-72413D01*
X78757Y-72413D01*
X78814Y-72441D01*
X78843Y-72499D01*
X78843Y-72556D01*
X78557Y-72613D01*
X79100Y-72813D02*
X79100Y-72413D01*
X79100Y-72527D02*
X79128Y-72470D01*
X79157Y-72441D01*
X79214Y-72413D01*
X79271Y-72413D01*
X79471Y-72756D02*
X79499Y-72784D01*
X79471Y-72813D01*
X79442Y-72784D01*
X79471Y-72756D01*
X79471Y-72813D01*
X79757Y-72813D02*
X79757Y-72213D01*
X79757Y-72441D02*
X79814Y-72413D01*
X79928Y-72413D01*
X79985Y-72441D01*
X80014Y-72470D01*
X80043Y-72527D01*
X80043Y-72699D01*
X80014Y-72756D01*
X79985Y-72784D01*
X79928Y-72813D01*
X79814Y-72813D01*
X79757Y-72784D01*
X80300Y-72813D02*
X80300Y-72413D01*
X80300Y-72527D02*
X80328Y-72470D01*
X80357Y-72441D01*
X80414Y-72413D01*
X80471Y-72413D01*
X80928Y-72813D02*
X80928Y-72213D01*
X80928Y-72784D02*
X80871Y-72813D01*
X80757Y-72813D01*
X80699Y-72784D01*
X80671Y-72756D01*
X80642Y-72699D01*
X80642Y-72527D01*
X80671Y-72470D01*
X80699Y-72441D01*
X80757Y-72413D01*
X80871Y-72413D01*
X80928Y-72441D01*
X71014Y-73984D02*
X71100Y-74013D01*
X71243Y-74013D01*
X71300Y-73984D01*
X71329Y-73956D01*
X71357Y-73899D01*
X71357Y-73841D01*
X71329Y-73784D01*
X71300Y-73756D01*
X71243Y-73727D01*
X71129Y-73699D01*
X71071Y-73670D01*
X71043Y-73641D01*
X71014Y-73584D01*
X71014Y-73527D01*
X71043Y-73470D01*
X71071Y-73441D01*
X71129Y-73413D01*
X71271Y-73413D01*
X71357Y-73441D01*
X71614Y-74013D02*
X71614Y-73413D01*
X71871Y-74013D02*
X71871Y-73699D01*
X71842Y-73641D01*
X71785Y-73613D01*
X71700Y-73613D01*
X71642Y-73641D01*
X71614Y-73670D01*
X72385Y-73984D02*
X72328Y-74013D01*
X72214Y-74013D01*
X72157Y-73984D01*
X72128Y-73927D01*
X72128Y-73699D01*
X72157Y-73641D01*
X72214Y-73613D01*
X72328Y-73613D01*
X72385Y-73641D01*
X72414Y-73699D01*
X72414Y-73756D01*
X72128Y-73813D01*
X72899Y-73984D02*
X72842Y-74013D01*
X72728Y-74013D01*
X72671Y-73984D01*
X72642Y-73927D01*
X72642Y-73699D01*
X72671Y-73641D01*
X72728Y-73613D01*
X72842Y-73613D01*
X72899Y-73641D01*
X72928Y-73699D01*
X72928Y-73756D01*
X72642Y-73813D01*
X73099Y-73613D02*
X73328Y-73613D01*
X73185Y-73413D02*
X73185Y-73927D01*
X73213Y-73984D01*
X73271Y-74013D01*
X73328Y-74013D01*
X73528Y-73956D02*
X73556Y-73984D01*
X73528Y-74013D01*
X73499Y-73984D01*
X73528Y-73956D01*
X73528Y-74013D01*
X73528Y-73641D02*
X73556Y-73670D01*
X73528Y-73699D01*
X73499Y-73670D01*
X73528Y-73641D01*
X73528Y-73699D01*
X74585Y-74013D02*
X74242Y-74013D01*
X74414Y-74013D02*
X74414Y-73413D01*
X74357Y-73499D01*
X74299Y-73556D01*
X74242Y-73584D01*
X75270Y-73384D02*
X74756Y-74156D01*
X75785Y-74013D02*
X75442Y-74013D01*
X75614Y-74013D02*
X75614Y-73413D01*
X75557Y-73499D01*
X75499Y-73556D01*
X75442Y-73584D01*
X70300Y-71970D02*
X70300Y-77970D01*
X70300Y-71970D02*
X112300Y-71970D01*
X70300Y-71970D02*
X112300Y-71970D01*
X70300Y-74370D02*
X112300Y-74370D01*
X103500Y-75570D02*
X103500Y-77970D01*
X70300Y-76770D02*
X112300Y-76770D01*
X70300Y-75570D02*
X112300Y-75570D01*
X76900Y-75570D02*
X76900Y-76770D01*
G54D12*
X70472Y-57480D02*
X33071Y-57480D01*
X70472Y-28740D02*
X70472Y-57480D01*
X65354Y-28740D02*
X70472Y-28740D01*
X27559Y-57480D02*
X33071Y-57480D01*
X27559Y-28740D02*
X27559Y-57480D01*
X55512Y-32679D02*
X55496Y-32832D01*
X55452Y-32979D01*
X55380Y-33115D01*
X55283Y-33234D01*
X55164Y-33332D01*
X55029Y-33405D01*
X54882Y-33450D01*
X54729Y-33466D01*
X54577Y-33453D01*
X54429Y-33409D01*
X54293Y-33338D01*
X54173Y-33242D01*
X54074Y-33124D01*
X54000Y-32989D01*
X53954Y-32842D01*
X53937Y-32690D01*
X53949Y-32537D01*
X53992Y-32389D01*
X54062Y-32253D01*
X54158Y-32132D01*
X54275Y-32032D01*
X54409Y-31957D01*
X54555Y-31910D01*
X54708Y-31892D01*
X54860Y-31903D01*
X55008Y-31945D01*
X55146Y-32014D01*
X55267Y-32109D01*
X55367Y-32225D01*
X55443Y-32359D01*
X55492Y-32505D01*
X55511Y-32657D01*
X55512Y-32679D01*
X60631Y-50395D02*
X60615Y-50548D01*
X60571Y-50695D01*
X60499Y-50831D01*
X60402Y-50950D01*
X60283Y-51048D01*
X60148Y-51121D01*
X60001Y-51166D01*
X59848Y-51182D01*
X59696Y-51169D01*
X59548Y-51125D01*
X59412Y-51054D01*
X59292Y-50958D01*
X59193Y-50840D01*
X59119Y-50705D01*
X59073Y-50558D01*
X59056Y-50406D01*
X59068Y-50253D01*
X59111Y-50105D01*
X59181Y-49969D01*
X59277Y-49848D01*
X59394Y-49748D01*
X59528Y-49673D01*
X59674Y-49626D01*
X59827Y-49608D01*
X59979Y-49619D01*
X60127Y-49661D01*
X60265Y-49730D01*
X60386Y-49825D01*
X60486Y-49941D01*
X60562Y-50075D01*
X60611Y-50221D01*
X60630Y-50373D01*
X60631Y-50395D01*
X30710Y-31101D02*
X30694Y-31254D01*
X30650Y-31401D01*
X30578Y-31537D01*
X30481Y-31656D01*
X30362Y-31754D01*
X30227Y-31827D01*
X30080Y-31872D01*
X29927Y-31888D01*
X29775Y-31875D01*
X29627Y-31831D01*
X29491Y-31760D01*
X29371Y-31664D01*
X29272Y-31546D01*
X29198Y-31411D01*
X29152Y-31264D01*
X29135Y-31112D01*
X29147Y-30959D01*
X29190Y-30811D01*
X29260Y-30675D01*
X29356Y-30554D01*
X29473Y-30454D01*
X29607Y-30379D01*
X29753Y-30332D01*
X29906Y-30314D01*
X30058Y-30325D01*
X30206Y-30367D01*
X30344Y-30436D01*
X30465Y-30531D01*
X30565Y-30647D01*
X30641Y-30781D01*
X30690Y-30927D01*
X30709Y-31079D01*
X30710Y-31101D01*
X30709Y-50394D02*
X30693Y-50547D01*
X30649Y-50694D01*
X30577Y-50830D01*
X30480Y-50949D01*
X30361Y-51047D01*
X30226Y-51120D01*
X30079Y-51165D01*
X29926Y-51181D01*
X29774Y-51168D01*
X29626Y-51124D01*
X29490Y-51053D01*
X29370Y-50957D01*
X29271Y-50839D01*
X29197Y-50704D01*
X29151Y-50557D01*
X29134Y-50405D01*
X29146Y-50252D01*
X29189Y-50104D01*
X29259Y-49968D01*
X29355Y-49847D01*
X29472Y-49747D01*
X29606Y-49672D01*
X29752Y-49625D01*
X29905Y-49607D01*
X30057Y-49618D01*
X30205Y-49660D01*
X30343Y-49729D01*
X30464Y-49824D01*
X30564Y-49940D01*
X30640Y-50074D01*
X30689Y-50220D01*
X30708Y-50372D01*
X30709Y-50394D01*
X65354Y-28740D02*
X27559Y-28740D01*
M02*
