G04 (created by PCBNEW-RS274X (2012-apr-16-27)-stable) date Thu 27 Dec 2012 11:36:06 GMT*
G01*
G70*
G90*
%MOIN*%
G04 Gerber Fmt 3.4, Leading zero omitted, Abs format*
%FSLAX34Y34*%
G04 APERTURE LIST*
%ADD10C,0.006000*%
%ADD11C,0.012000*%
%ADD12R,0.029500X0.118100*%
%ADD13R,0.220500X0.252000*%
%ADD14R,0.055100X0.023600*%
%ADD15R,0.050000X0.030000*%
%ADD16R,0.080000X0.060000*%
%ADD17R,0.060000X0.080000*%
%ADD18R,0.055000X0.055000*%
%ADD19C,0.055000*%
%ADD20C,0.070000*%
%ADD21R,0.060000X0.060000*%
%ADD22C,0.060000*%
%ADD23R,0.012000X0.039000*%
%ADD24R,0.059000X0.017700*%
%ADD25R,0.070000X0.070000*%
%ADD26C,0.035000*%
%ADD27C,0.029500*%
%ADD28C,0.008000*%
G04 APERTURE END LIST*
G54D10*
X04000Y-04000D02*
X113000Y-04000D01*
X113000Y-78670D01*
X04000Y-78670D01*
X04000Y-04000D01*
X04700Y-04700D02*
X112300Y-04700D01*
X112300Y-77970D01*
X04700Y-77970D01*
X04700Y-04700D01*
X25800Y-04000D02*
X25800Y-04700D01*
X15043Y-04552D02*
X14757Y-04552D01*
X14900Y-04552D02*
X14900Y-04052D01*
X14852Y-04124D01*
X14805Y-04171D01*
X14757Y-04195D01*
X25800Y-78670D02*
X25800Y-77970D01*
X15043Y-78522D02*
X14757Y-78522D01*
X14900Y-78522D02*
X14900Y-78022D01*
X14852Y-78094D01*
X14805Y-78141D01*
X14757Y-78165D01*
X47600Y-04000D02*
X47600Y-04700D01*
X36557Y-04100D02*
X36581Y-04076D01*
X36629Y-04052D01*
X36748Y-04052D01*
X36795Y-04076D01*
X36819Y-04100D01*
X36843Y-04148D01*
X36843Y-04195D01*
X36819Y-04267D01*
X36533Y-04552D01*
X36843Y-04552D01*
X47600Y-78670D02*
X47600Y-77970D01*
X36557Y-78070D02*
X36581Y-78046D01*
X36629Y-78022D01*
X36748Y-78022D01*
X36795Y-78046D01*
X36819Y-78070D01*
X36843Y-78118D01*
X36843Y-78165D01*
X36819Y-78237D01*
X36533Y-78522D01*
X36843Y-78522D01*
X69400Y-04000D02*
X69400Y-04700D01*
X58333Y-04052D02*
X58643Y-04052D01*
X58476Y-04243D01*
X58548Y-04243D01*
X58595Y-04267D01*
X58619Y-04290D01*
X58643Y-04338D01*
X58643Y-04457D01*
X58619Y-04505D01*
X58595Y-04529D01*
X58548Y-04552D01*
X58405Y-04552D01*
X58357Y-04529D01*
X58333Y-04505D01*
X69400Y-78670D02*
X69400Y-77970D01*
X58333Y-78022D02*
X58643Y-78022D01*
X58476Y-78213D01*
X58548Y-78213D01*
X58595Y-78237D01*
X58619Y-78260D01*
X58643Y-78308D01*
X58643Y-78427D01*
X58619Y-78475D01*
X58595Y-78499D01*
X58548Y-78522D01*
X58405Y-78522D01*
X58357Y-78499D01*
X58333Y-78475D01*
X91200Y-04000D02*
X91200Y-04700D01*
X80395Y-04219D02*
X80395Y-04552D01*
X80276Y-04029D02*
X80157Y-04386D01*
X80467Y-04386D01*
X91200Y-78670D02*
X91200Y-77970D01*
X80395Y-78189D02*
X80395Y-78522D01*
X80276Y-77999D02*
X80157Y-78356D01*
X80467Y-78356D01*
X102219Y-04052D02*
X101981Y-04052D01*
X101957Y-04290D01*
X101981Y-04267D01*
X102029Y-04243D01*
X102148Y-04243D01*
X102195Y-04267D01*
X102219Y-04290D01*
X102243Y-04338D01*
X102243Y-04457D01*
X102219Y-04505D01*
X102195Y-04529D01*
X102148Y-04552D01*
X102029Y-04552D01*
X101981Y-04529D01*
X101957Y-04505D01*
X102219Y-78022D02*
X101981Y-78022D01*
X101957Y-78260D01*
X101981Y-78237D01*
X102029Y-78213D01*
X102148Y-78213D01*
X102195Y-78237D01*
X102219Y-78260D01*
X102243Y-78308D01*
X102243Y-78427D01*
X102219Y-78475D01*
X102195Y-78499D01*
X102148Y-78522D01*
X102029Y-78522D01*
X101981Y-78499D01*
X101957Y-78475D01*
X04000Y-28890D02*
X04700Y-28890D01*
X04231Y-16510D02*
X04469Y-16510D01*
X04184Y-16652D02*
X04350Y-16152D01*
X04517Y-16652D01*
X113000Y-28890D02*
X112300Y-28890D01*
X112531Y-16510D02*
X112769Y-16510D01*
X112484Y-16652D02*
X112650Y-16152D01*
X112817Y-16652D01*
X04000Y-53780D02*
X04700Y-53780D01*
X04386Y-41280D02*
X04457Y-41304D01*
X04481Y-41328D01*
X04505Y-41376D01*
X04505Y-41447D01*
X04481Y-41495D01*
X04457Y-41519D01*
X04410Y-41542D01*
X04219Y-41542D01*
X04219Y-41042D01*
X04386Y-41042D01*
X04433Y-41066D01*
X04457Y-41090D01*
X04481Y-41138D01*
X04481Y-41185D01*
X04457Y-41233D01*
X04433Y-41257D01*
X04386Y-41280D01*
X04219Y-41280D01*
X113000Y-53780D02*
X112300Y-53780D01*
X112686Y-41280D02*
X112757Y-41304D01*
X112781Y-41328D01*
X112805Y-41376D01*
X112805Y-41447D01*
X112781Y-41495D01*
X112757Y-41519D01*
X112710Y-41542D01*
X112519Y-41542D01*
X112519Y-41042D01*
X112686Y-41042D01*
X112733Y-41066D01*
X112757Y-41090D01*
X112781Y-41138D01*
X112781Y-41185D01*
X112757Y-41233D01*
X112733Y-41257D01*
X112686Y-41280D01*
X112519Y-41280D01*
X04505Y-66385D02*
X04481Y-66409D01*
X04410Y-66432D01*
X04362Y-66432D01*
X04290Y-66409D01*
X04243Y-66361D01*
X04219Y-66313D01*
X04195Y-66218D01*
X04195Y-66147D01*
X04219Y-66051D01*
X04243Y-66004D01*
X04290Y-65956D01*
X04362Y-65932D01*
X04410Y-65932D01*
X04481Y-65956D01*
X04505Y-65980D01*
X112805Y-66385D02*
X112781Y-66409D01*
X112710Y-66432D01*
X112662Y-66432D01*
X112590Y-66409D01*
X112543Y-66361D01*
X112519Y-66313D01*
X112495Y-66218D01*
X112495Y-66147D01*
X112519Y-66051D01*
X112543Y-66004D01*
X112590Y-65956D01*
X112662Y-65932D01*
X112710Y-65932D01*
X112781Y-65956D01*
X112805Y-65980D01*
G54D11*
X79443Y-76413D02*
X79443Y-75813D01*
X79586Y-75813D01*
X79671Y-75841D01*
X79729Y-75899D01*
X79757Y-75956D01*
X79786Y-76070D01*
X79786Y-76156D01*
X79757Y-76270D01*
X79729Y-76327D01*
X79671Y-76384D01*
X79586Y-76413D01*
X79443Y-76413D01*
X80300Y-76413D02*
X80300Y-76099D01*
X80271Y-76041D01*
X80214Y-76013D01*
X80100Y-76013D01*
X80043Y-76041D01*
X80300Y-76384D02*
X80243Y-76413D01*
X80100Y-76413D01*
X80043Y-76384D01*
X80014Y-76327D01*
X80014Y-76270D01*
X80043Y-76213D01*
X80100Y-76184D01*
X80243Y-76184D01*
X80300Y-76156D01*
X80500Y-76013D02*
X80729Y-76013D01*
X80586Y-75813D02*
X80586Y-76327D01*
X80614Y-76384D01*
X80672Y-76413D01*
X80729Y-76413D01*
X81157Y-76384D02*
X81100Y-76413D01*
X80986Y-76413D01*
X80929Y-76384D01*
X80900Y-76327D01*
X80900Y-76099D01*
X80929Y-76041D01*
X80986Y-76013D01*
X81100Y-76013D01*
X81157Y-76041D01*
X81186Y-76099D01*
X81186Y-76156D01*
X80900Y-76213D01*
X81443Y-76356D02*
X81471Y-76384D01*
X81443Y-76413D01*
X81414Y-76384D01*
X81443Y-76356D01*
X81443Y-76413D01*
X81443Y-76041D02*
X81471Y-76070D01*
X81443Y-76099D01*
X81414Y-76070D01*
X81443Y-76041D01*
X81443Y-76099D01*
X82157Y-75870D02*
X82186Y-75841D01*
X82243Y-75813D01*
X82386Y-75813D01*
X82443Y-75841D01*
X82472Y-75870D01*
X82500Y-75927D01*
X82500Y-75984D01*
X82472Y-76070D01*
X82129Y-76413D01*
X82500Y-76413D01*
X82700Y-75813D02*
X83100Y-75813D01*
X82843Y-76413D01*
X84042Y-76413D02*
X84042Y-75813D01*
X84042Y-76384D02*
X83985Y-76413D01*
X83871Y-76413D01*
X83813Y-76384D01*
X83785Y-76356D01*
X83756Y-76299D01*
X83756Y-76127D01*
X83785Y-76070D01*
X83813Y-76041D01*
X83871Y-76013D01*
X83985Y-76013D01*
X84042Y-76041D01*
X84556Y-76384D02*
X84499Y-76413D01*
X84385Y-76413D01*
X84328Y-76384D01*
X84299Y-76327D01*
X84299Y-76099D01*
X84328Y-76041D01*
X84385Y-76013D01*
X84499Y-76013D01*
X84556Y-76041D01*
X84585Y-76099D01*
X84585Y-76156D01*
X84299Y-76213D01*
X85099Y-76384D02*
X85042Y-76413D01*
X84928Y-76413D01*
X84870Y-76384D01*
X84842Y-76356D01*
X84813Y-76299D01*
X84813Y-76127D01*
X84842Y-76070D01*
X84870Y-76041D01*
X84928Y-76013D01*
X85042Y-76013D01*
X85099Y-76041D01*
X85784Y-75870D02*
X85813Y-75841D01*
X85870Y-75813D01*
X86013Y-75813D01*
X86070Y-75841D01*
X86099Y-75870D01*
X86127Y-75927D01*
X86127Y-75984D01*
X86099Y-76070D01*
X85756Y-76413D01*
X86127Y-76413D01*
X86498Y-75813D02*
X86555Y-75813D01*
X86612Y-75841D01*
X86641Y-75870D01*
X86670Y-75927D01*
X86698Y-76041D01*
X86698Y-76184D01*
X86670Y-76299D01*
X86641Y-76356D01*
X86612Y-76384D01*
X86555Y-76413D01*
X86498Y-76413D01*
X86441Y-76384D01*
X86412Y-76356D01*
X86384Y-76299D01*
X86355Y-76184D01*
X86355Y-76041D01*
X86384Y-75927D01*
X86412Y-75870D01*
X86441Y-75841D01*
X86498Y-75813D01*
X87269Y-76413D02*
X86926Y-76413D01*
X87098Y-76413D02*
X87098Y-75813D01*
X87041Y-75899D01*
X86983Y-75956D01*
X86926Y-75984D01*
X87497Y-75870D02*
X87526Y-75841D01*
X87583Y-75813D01*
X87726Y-75813D01*
X87783Y-75841D01*
X87812Y-75870D01*
X87840Y-75927D01*
X87840Y-75984D01*
X87812Y-76070D01*
X87469Y-76413D01*
X87840Y-76413D01*
G54D10*
X71043Y-77613D02*
X71043Y-77013D01*
X71386Y-77613D02*
X71129Y-77270D01*
X71386Y-77013D02*
X71043Y-77356D01*
X71643Y-77613D02*
X71643Y-77213D01*
X71643Y-77013D02*
X71614Y-77041D01*
X71643Y-77070D01*
X71671Y-77041D01*
X71643Y-77013D01*
X71643Y-77070D01*
X72272Y-77556D02*
X72243Y-77584D01*
X72157Y-77613D01*
X72100Y-77613D01*
X72015Y-77584D01*
X71957Y-77527D01*
X71929Y-77470D01*
X71900Y-77356D01*
X71900Y-77270D01*
X71929Y-77156D01*
X71957Y-77099D01*
X72015Y-77041D01*
X72100Y-77013D01*
X72157Y-77013D01*
X72243Y-77041D01*
X72272Y-77070D01*
X72786Y-77613D02*
X72786Y-77299D01*
X72757Y-77241D01*
X72700Y-77213D01*
X72586Y-77213D01*
X72529Y-77241D01*
X72786Y-77584D02*
X72729Y-77613D01*
X72586Y-77613D01*
X72529Y-77584D01*
X72500Y-77527D01*
X72500Y-77470D01*
X72529Y-77413D01*
X72586Y-77384D01*
X72729Y-77384D01*
X72786Y-77356D01*
X73329Y-77613D02*
X73329Y-77013D01*
X73329Y-77584D02*
X73272Y-77613D01*
X73158Y-77613D01*
X73100Y-77584D01*
X73072Y-77556D01*
X73043Y-77499D01*
X73043Y-77327D01*
X73072Y-77270D01*
X73100Y-77241D01*
X73158Y-77213D01*
X73272Y-77213D01*
X73329Y-77241D01*
X74072Y-77299D02*
X74272Y-77299D01*
X74358Y-77613D02*
X74072Y-77613D01*
X74072Y-77013D01*
X74358Y-77013D01*
X74615Y-77556D02*
X74643Y-77584D01*
X74615Y-77613D01*
X74586Y-77584D01*
X74615Y-77556D01*
X74615Y-77613D01*
X74901Y-77613D02*
X74901Y-77013D01*
X75044Y-77013D01*
X75129Y-77041D01*
X75187Y-77099D01*
X75215Y-77156D01*
X75244Y-77270D01*
X75244Y-77356D01*
X75215Y-77470D01*
X75187Y-77527D01*
X75129Y-77584D01*
X75044Y-77613D01*
X74901Y-77613D01*
X75501Y-77556D02*
X75529Y-77584D01*
X75501Y-77613D01*
X75472Y-77584D01*
X75501Y-77556D01*
X75501Y-77613D01*
X75758Y-77441D02*
X76044Y-77441D01*
X75701Y-77613D02*
X75901Y-77013D01*
X76101Y-77613D01*
X76301Y-77556D02*
X76329Y-77584D01*
X76301Y-77613D01*
X76272Y-77584D01*
X76301Y-77556D01*
X76301Y-77613D01*
G54D11*
X104586Y-76413D02*
X104386Y-76127D01*
X104243Y-76413D02*
X104243Y-75813D01*
X104471Y-75813D01*
X104529Y-75841D01*
X104557Y-75870D01*
X104586Y-75927D01*
X104586Y-76013D01*
X104557Y-76070D01*
X104529Y-76099D01*
X104471Y-76127D01*
X104243Y-76127D01*
X105071Y-76384D02*
X105014Y-76413D01*
X104900Y-76413D01*
X104843Y-76384D01*
X104814Y-76327D01*
X104814Y-76099D01*
X104843Y-76041D01*
X104900Y-76013D01*
X105014Y-76013D01*
X105071Y-76041D01*
X105100Y-76099D01*
X105100Y-76156D01*
X104814Y-76213D01*
X105300Y-76013D02*
X105443Y-76413D01*
X105585Y-76013D01*
X105814Y-76356D02*
X105842Y-76384D01*
X105814Y-76413D01*
X105785Y-76384D01*
X105814Y-76356D01*
X105814Y-76413D01*
X105814Y-76041D02*
X105842Y-76070D01*
X105814Y-76099D01*
X105785Y-76070D01*
X105814Y-76041D01*
X105814Y-76099D01*
G54D10*
X71014Y-76384D02*
X71100Y-76413D01*
X71243Y-76413D01*
X71300Y-76384D01*
X71329Y-76356D01*
X71357Y-76299D01*
X71357Y-76241D01*
X71329Y-76184D01*
X71300Y-76156D01*
X71243Y-76127D01*
X71129Y-76099D01*
X71071Y-76070D01*
X71043Y-76041D01*
X71014Y-75984D01*
X71014Y-75927D01*
X71043Y-75870D01*
X71071Y-75841D01*
X71129Y-75813D01*
X71271Y-75813D01*
X71357Y-75841D01*
X71614Y-76413D02*
X71614Y-76013D01*
X71614Y-75813D02*
X71585Y-75841D01*
X71614Y-75870D01*
X71642Y-75841D01*
X71614Y-75813D01*
X71614Y-75870D01*
X71843Y-76013D02*
X72157Y-76013D01*
X71843Y-76413D01*
X72157Y-76413D01*
X72614Y-76384D02*
X72557Y-76413D01*
X72443Y-76413D01*
X72386Y-76384D01*
X72357Y-76327D01*
X72357Y-76099D01*
X72386Y-76041D01*
X72443Y-76013D01*
X72557Y-76013D01*
X72614Y-76041D01*
X72643Y-76099D01*
X72643Y-76156D01*
X72357Y-76213D01*
X72900Y-76356D02*
X72928Y-76384D01*
X72900Y-76413D01*
X72871Y-76384D01*
X72900Y-76356D01*
X72900Y-76413D01*
X72900Y-76041D02*
X72928Y-76070D01*
X72900Y-76099D01*
X72871Y-76070D01*
X72900Y-76041D01*
X72900Y-76099D01*
X73614Y-76241D02*
X73900Y-76241D01*
X73557Y-76413D02*
X73757Y-75813D01*
X73957Y-76413D01*
X74414Y-76013D02*
X74414Y-76413D01*
X74271Y-75784D02*
X74128Y-76213D01*
X74500Y-76213D01*
X104243Y-77613D02*
X104243Y-77013D01*
X104786Y-77613D02*
X104786Y-77013D01*
X104786Y-77584D02*
X104729Y-77613D01*
X104615Y-77613D01*
X104557Y-77584D01*
X104529Y-77556D01*
X104500Y-77499D01*
X104500Y-77327D01*
X104529Y-77270D01*
X104557Y-77241D01*
X104615Y-77213D01*
X104729Y-77213D01*
X104786Y-77241D01*
X105072Y-77556D02*
X105100Y-77584D01*
X105072Y-77613D01*
X105043Y-77584D01*
X105072Y-77556D01*
X105072Y-77613D01*
X105072Y-77241D02*
X105100Y-77270D01*
X105072Y-77299D01*
X105043Y-77270D01*
X105072Y-77241D01*
X105072Y-77299D01*
X106129Y-77613D02*
X105786Y-77613D01*
X105958Y-77613D02*
X105958Y-77013D01*
X105901Y-77099D01*
X105843Y-77156D01*
X105786Y-77184D01*
X106814Y-76984D02*
X106300Y-77756D01*
X107329Y-77613D02*
X106986Y-77613D01*
X107158Y-77613D02*
X107158Y-77013D01*
X107101Y-77099D01*
X107043Y-77156D01*
X106986Y-77184D01*
G54D11*
X70957Y-74613D02*
X71300Y-74613D01*
X71129Y-75213D02*
X71129Y-74613D01*
X71500Y-75213D02*
X71500Y-74813D01*
X71500Y-74613D02*
X71471Y-74641D01*
X71500Y-74670D01*
X71528Y-74641D01*
X71500Y-74613D01*
X71500Y-74670D01*
X71700Y-74813D02*
X71929Y-74813D01*
X71786Y-74613D02*
X71786Y-75127D01*
X71814Y-75184D01*
X71872Y-75213D01*
X71929Y-75213D01*
X72215Y-75213D02*
X72157Y-75184D01*
X72129Y-75127D01*
X72129Y-74613D01*
X72671Y-75184D02*
X72614Y-75213D01*
X72500Y-75213D01*
X72443Y-75184D01*
X72414Y-75127D01*
X72414Y-74899D01*
X72443Y-74841D01*
X72500Y-74813D01*
X72614Y-74813D01*
X72671Y-74841D01*
X72700Y-74899D01*
X72700Y-74956D01*
X72414Y-75013D01*
X72957Y-75156D02*
X72985Y-75184D01*
X72957Y-75213D01*
X72928Y-75184D01*
X72957Y-75156D01*
X72957Y-75213D01*
X72957Y-74841D02*
X72985Y-74870D01*
X72957Y-74899D01*
X72928Y-74870D01*
X72957Y-74841D01*
X72957Y-74899D01*
G54D10*
X71243Y-72499D02*
X71043Y-72499D01*
X71043Y-72813D02*
X71043Y-72213D01*
X71329Y-72213D01*
X71557Y-72813D02*
X71557Y-72413D01*
X71557Y-72213D02*
X71528Y-72241D01*
X71557Y-72270D01*
X71585Y-72241D01*
X71557Y-72213D01*
X71557Y-72270D01*
X71929Y-72813D02*
X71871Y-72784D01*
X71843Y-72727D01*
X71843Y-72213D01*
X72385Y-72784D02*
X72328Y-72813D01*
X72214Y-72813D01*
X72157Y-72784D01*
X72128Y-72727D01*
X72128Y-72499D01*
X72157Y-72441D01*
X72214Y-72413D01*
X72328Y-72413D01*
X72385Y-72441D01*
X72414Y-72499D01*
X72414Y-72556D01*
X72128Y-72613D01*
X72671Y-72756D02*
X72699Y-72784D01*
X72671Y-72813D01*
X72642Y-72784D01*
X72671Y-72756D01*
X72671Y-72813D01*
X72671Y-72441D02*
X72699Y-72470D01*
X72671Y-72499D01*
X72642Y-72470D01*
X72671Y-72441D01*
X72671Y-72499D01*
X73414Y-72813D02*
X73414Y-72213D01*
X73642Y-72213D01*
X73700Y-72241D01*
X73728Y-72270D01*
X73757Y-72327D01*
X73757Y-72413D01*
X73728Y-72470D01*
X73700Y-72499D01*
X73642Y-72527D01*
X73414Y-72527D01*
X74100Y-72813D02*
X74042Y-72784D01*
X74014Y-72756D01*
X73985Y-72699D01*
X73985Y-72527D01*
X74014Y-72470D01*
X74042Y-72441D01*
X74100Y-72413D01*
X74185Y-72413D01*
X74242Y-72441D01*
X74271Y-72470D01*
X74300Y-72527D01*
X74300Y-72699D01*
X74271Y-72756D01*
X74242Y-72784D01*
X74185Y-72813D01*
X74100Y-72813D01*
X74557Y-72813D02*
X74557Y-72413D01*
X74557Y-72527D02*
X74585Y-72470D01*
X74614Y-72441D01*
X74671Y-72413D01*
X74728Y-72413D01*
X74842Y-72413D02*
X75071Y-72413D01*
X74928Y-72213D02*
X74928Y-72727D01*
X74956Y-72784D01*
X75014Y-72813D01*
X75071Y-72813D01*
X75271Y-72813D02*
X75271Y-72213D01*
X75471Y-72641D01*
X75671Y-72213D01*
X75671Y-72813D01*
X76214Y-72413D02*
X76214Y-72813D01*
X75957Y-72413D02*
X75957Y-72727D01*
X75985Y-72784D01*
X76043Y-72813D01*
X76128Y-72813D01*
X76185Y-72784D01*
X76214Y-72756D01*
X76586Y-72813D02*
X76528Y-72784D01*
X76500Y-72727D01*
X76500Y-72213D01*
X76728Y-72413D02*
X76957Y-72413D01*
X76814Y-72213D02*
X76814Y-72727D01*
X76842Y-72784D01*
X76900Y-72813D01*
X76957Y-72813D01*
X77157Y-72813D02*
X77157Y-72413D01*
X77157Y-72213D02*
X77128Y-72241D01*
X77157Y-72270D01*
X77185Y-72241D01*
X77157Y-72213D01*
X77157Y-72270D01*
X77443Y-72413D02*
X77443Y-73013D01*
X77443Y-72441D02*
X77500Y-72413D01*
X77614Y-72413D01*
X77671Y-72441D01*
X77700Y-72470D01*
X77729Y-72527D01*
X77729Y-72699D01*
X77700Y-72756D01*
X77671Y-72784D01*
X77614Y-72813D01*
X77500Y-72813D01*
X77443Y-72784D01*
X78072Y-72813D02*
X78014Y-72784D01*
X77986Y-72727D01*
X77986Y-72213D01*
X78300Y-72813D02*
X78300Y-72413D01*
X78300Y-72213D02*
X78271Y-72241D01*
X78300Y-72270D01*
X78328Y-72241D01*
X78300Y-72213D01*
X78300Y-72270D01*
X78814Y-72784D02*
X78757Y-72813D01*
X78643Y-72813D01*
X78586Y-72784D01*
X78557Y-72727D01*
X78557Y-72499D01*
X78586Y-72441D01*
X78643Y-72413D01*
X78757Y-72413D01*
X78814Y-72441D01*
X78843Y-72499D01*
X78843Y-72556D01*
X78557Y-72613D01*
X79100Y-72813D02*
X79100Y-72413D01*
X79100Y-72527D02*
X79128Y-72470D01*
X79157Y-72441D01*
X79214Y-72413D01*
X79271Y-72413D01*
X79471Y-72756D02*
X79499Y-72784D01*
X79471Y-72813D01*
X79442Y-72784D01*
X79471Y-72756D01*
X79471Y-72813D01*
X79757Y-72813D02*
X79757Y-72213D01*
X79757Y-72441D02*
X79814Y-72413D01*
X79928Y-72413D01*
X79985Y-72441D01*
X80014Y-72470D01*
X80043Y-72527D01*
X80043Y-72699D01*
X80014Y-72756D01*
X79985Y-72784D01*
X79928Y-72813D01*
X79814Y-72813D01*
X79757Y-72784D01*
X80300Y-72813D02*
X80300Y-72413D01*
X80300Y-72527D02*
X80328Y-72470D01*
X80357Y-72441D01*
X80414Y-72413D01*
X80471Y-72413D01*
X80928Y-72813D02*
X80928Y-72213D01*
X80928Y-72784D02*
X80871Y-72813D01*
X80757Y-72813D01*
X80699Y-72784D01*
X80671Y-72756D01*
X80642Y-72699D01*
X80642Y-72527D01*
X80671Y-72470D01*
X80699Y-72441D01*
X80757Y-72413D01*
X80871Y-72413D01*
X80928Y-72441D01*
X71014Y-73984D02*
X71100Y-74013D01*
X71243Y-74013D01*
X71300Y-73984D01*
X71329Y-73956D01*
X71357Y-73899D01*
X71357Y-73841D01*
X71329Y-73784D01*
X71300Y-73756D01*
X71243Y-73727D01*
X71129Y-73699D01*
X71071Y-73670D01*
X71043Y-73641D01*
X71014Y-73584D01*
X71014Y-73527D01*
X71043Y-73470D01*
X71071Y-73441D01*
X71129Y-73413D01*
X71271Y-73413D01*
X71357Y-73441D01*
X71614Y-74013D02*
X71614Y-73413D01*
X71871Y-74013D02*
X71871Y-73699D01*
X71842Y-73641D01*
X71785Y-73613D01*
X71700Y-73613D01*
X71642Y-73641D01*
X71614Y-73670D01*
X72385Y-73984D02*
X72328Y-74013D01*
X72214Y-74013D01*
X72157Y-73984D01*
X72128Y-73927D01*
X72128Y-73699D01*
X72157Y-73641D01*
X72214Y-73613D01*
X72328Y-73613D01*
X72385Y-73641D01*
X72414Y-73699D01*
X72414Y-73756D01*
X72128Y-73813D01*
X72899Y-73984D02*
X72842Y-74013D01*
X72728Y-74013D01*
X72671Y-73984D01*
X72642Y-73927D01*
X72642Y-73699D01*
X72671Y-73641D01*
X72728Y-73613D01*
X72842Y-73613D01*
X72899Y-73641D01*
X72928Y-73699D01*
X72928Y-73756D01*
X72642Y-73813D01*
X73099Y-73613D02*
X73328Y-73613D01*
X73185Y-73413D02*
X73185Y-73927D01*
X73213Y-73984D01*
X73271Y-74013D01*
X73328Y-74013D01*
X73528Y-73956D02*
X73556Y-73984D01*
X73528Y-74013D01*
X73499Y-73984D01*
X73528Y-73956D01*
X73528Y-74013D01*
X73528Y-73641D02*
X73556Y-73670D01*
X73528Y-73699D01*
X73499Y-73670D01*
X73528Y-73641D01*
X73528Y-73699D01*
X74585Y-74013D02*
X74242Y-74013D01*
X74414Y-74013D02*
X74414Y-73413D01*
X74357Y-73499D01*
X74299Y-73556D01*
X74242Y-73584D01*
X75270Y-73384D02*
X74756Y-74156D01*
X75785Y-74013D02*
X75442Y-74013D01*
X75614Y-74013D02*
X75614Y-73413D01*
X75557Y-73499D01*
X75499Y-73556D01*
X75442Y-73584D01*
X70300Y-71970D02*
X70300Y-77970D01*
X70300Y-71970D02*
X112300Y-71970D01*
X70300Y-71970D02*
X112300Y-71970D01*
X70300Y-74370D02*
X112300Y-74370D01*
X103500Y-75570D02*
X103500Y-77970D01*
X70300Y-76770D02*
X112300Y-76770D01*
X70300Y-75570D02*
X112300Y-75570D01*
X76900Y-75570D02*
X76900Y-76770D01*
G54D12*
X57943Y-35169D03*
X58967Y-35169D03*
X58455Y-35169D03*
X59990Y-35169D03*
X59478Y-35169D03*
X60502Y-35169D03*
X61014Y-35169D03*
G54D13*
X59518Y-38201D03*
G54D12*
X44743Y-35244D03*
X45767Y-35244D03*
X45255Y-35244D03*
X46790Y-35244D03*
X46278Y-35244D03*
X47302Y-35244D03*
X47814Y-35244D03*
G54D13*
X46318Y-38276D03*
G54D14*
X61550Y-46750D03*
X59450Y-46750D03*
X61550Y-47250D03*
X61550Y-47750D03*
X61550Y-48250D03*
X59450Y-47250D03*
X59450Y-47750D03*
X59450Y-48250D03*
G54D15*
X52765Y-45036D03*
X52765Y-45536D03*
X52765Y-46036D03*
X52765Y-46536D03*
X52765Y-47036D03*
X52765Y-47536D03*
X52765Y-48036D03*
X52765Y-48536D03*
X52765Y-49036D03*
X52765Y-49536D03*
X52765Y-50036D03*
X52765Y-50536D03*
X56565Y-45036D03*
X56565Y-45536D03*
X56565Y-46036D03*
X56565Y-46536D03*
X56565Y-47036D03*
X56565Y-47536D03*
X56565Y-48036D03*
X56565Y-48536D03*
X56565Y-49036D03*
X56565Y-49536D03*
X56565Y-50036D03*
X56565Y-50536D03*
G54D16*
X62275Y-31200D03*
X62275Y-29900D03*
X43575Y-35775D03*
X43575Y-34475D03*
X64050Y-31200D03*
X64050Y-29900D03*
X57525Y-33225D03*
X57525Y-31925D03*
X56725Y-42725D03*
X56725Y-41425D03*
X45350Y-31675D03*
X45350Y-32975D03*
G54D17*
X68900Y-52750D03*
X67600Y-52750D03*
G54D16*
X50923Y-44494D03*
X50923Y-45794D03*
X49673Y-44494D03*
X49673Y-45794D03*
X48423Y-45794D03*
X48423Y-44494D03*
X47173Y-45794D03*
X47173Y-44494D03*
X44200Y-32975D03*
X44200Y-31675D03*
X58675Y-31925D03*
X58675Y-33225D03*
G54D17*
X68900Y-55250D03*
X67600Y-55250D03*
G54D16*
X62225Y-34725D03*
X62225Y-33425D03*
X49100Y-34825D03*
X49100Y-33525D03*
G54D17*
X68900Y-54000D03*
X67600Y-54000D03*
G54D18*
X67500Y-48000D03*
G54D19*
X67500Y-47000D03*
X67500Y-46000D03*
X67500Y-45000D03*
X67500Y-44000D03*
G54D18*
X39750Y-34850D03*
G54D19*
X38750Y-34850D03*
X37750Y-34850D03*
X36750Y-34850D03*
G54D18*
X31850Y-34800D03*
G54D19*
X30850Y-34800D03*
X29850Y-34800D03*
X28850Y-34800D03*
G54D18*
X65725Y-30075D03*
G54D19*
X65725Y-31075D03*
G54D18*
X28850Y-37050D03*
G54D19*
X28850Y-38050D03*
X28850Y-39050D03*
X28850Y-40050D03*
X28850Y-41050D03*
X28850Y-42050D03*
X28850Y-43050D03*
X28850Y-44050D03*
X28850Y-45050D03*
X28850Y-46050D03*
X28850Y-47050D03*
X28850Y-48050D03*
G54D18*
X36750Y-37000D03*
G54D19*
X36750Y-38000D03*
X36750Y-39000D03*
X36750Y-40000D03*
X36750Y-41000D03*
X36750Y-42000D03*
X36750Y-43000D03*
X36750Y-44000D03*
X36750Y-45000D03*
X36750Y-46000D03*
X36750Y-47000D03*
X36750Y-48000D03*
G54D18*
X28875Y-55125D03*
G54D19*
X29875Y-55125D03*
X30875Y-55125D03*
X31875Y-55125D03*
X32875Y-55125D03*
X33875Y-55125D03*
X34875Y-55125D03*
X35875Y-55125D03*
X36875Y-55125D03*
X37875Y-55125D03*
X38875Y-55125D03*
X39875Y-55125D03*
G54D18*
X43250Y-55250D03*
G54D19*
X44250Y-55250D03*
X45250Y-55250D03*
X46250Y-55250D03*
X47250Y-55250D03*
X48250Y-55250D03*
X49250Y-55250D03*
X50250Y-55250D03*
X51250Y-55250D03*
X52250Y-55250D03*
X53250Y-55250D03*
X54250Y-55250D03*
G54D20*
X53150Y-34375D03*
X53150Y-41375D03*
X65725Y-34375D03*
X65725Y-41375D03*
G54D21*
X66000Y-56000D03*
G54D22*
X65000Y-56000D03*
X66000Y-55000D03*
X65000Y-55000D03*
X66000Y-54000D03*
X65000Y-54000D03*
X66000Y-53000D03*
X65000Y-53000D03*
X66000Y-52000D03*
X65000Y-52000D03*
X66000Y-51000D03*
X65000Y-51000D03*
X66000Y-50000D03*
X65000Y-50000D03*
X66000Y-49000D03*
X65000Y-49000D03*
X66000Y-48000D03*
X65000Y-48000D03*
X66000Y-47000D03*
X65000Y-47000D03*
X66000Y-46000D03*
X65000Y-46000D03*
X66000Y-45000D03*
X65000Y-45000D03*
X66000Y-44000D03*
X65000Y-44000D03*
G54D23*
X33507Y-37652D03*
X33251Y-37652D03*
X32995Y-37652D03*
X32739Y-37652D03*
X32483Y-37652D03*
X32227Y-37652D03*
X31973Y-37652D03*
X31717Y-37652D03*
X31461Y-37652D03*
X31205Y-37652D03*
X30949Y-37652D03*
X30693Y-37652D03*
X30693Y-39948D03*
X30949Y-39948D03*
X31205Y-39948D03*
X31461Y-39948D03*
X31717Y-39948D03*
X31973Y-39948D03*
X32227Y-39948D03*
X32483Y-39948D03*
X32739Y-39948D03*
X32995Y-39948D03*
X33251Y-39948D03*
X33507Y-39948D03*
X41407Y-38102D03*
X41151Y-38102D03*
X40895Y-38102D03*
X40639Y-38102D03*
X40383Y-38102D03*
X40127Y-38102D03*
X39873Y-38102D03*
X39617Y-38102D03*
X39361Y-38102D03*
X39105Y-38102D03*
X38849Y-38102D03*
X38593Y-38102D03*
X38593Y-40398D03*
X38849Y-40398D03*
X39105Y-40398D03*
X39361Y-40398D03*
X39617Y-40398D03*
X39873Y-40398D03*
X40127Y-40398D03*
X40383Y-40398D03*
X40639Y-40398D03*
X40895Y-40398D03*
X41151Y-40398D03*
X41407Y-40398D03*
G54D24*
X37016Y-51900D03*
X37016Y-52150D03*
X37016Y-52400D03*
X37016Y-52650D03*
X37016Y-52900D03*
X37016Y-53150D03*
X37016Y-53400D03*
X37016Y-53650D03*
X39134Y-53650D03*
X39134Y-53400D03*
X39134Y-53150D03*
X39134Y-52900D03*
X39134Y-52650D03*
X39134Y-52400D03*
X39134Y-52150D03*
X39134Y-51900D03*
X51441Y-51875D03*
X51441Y-52125D03*
X51441Y-52375D03*
X51441Y-52625D03*
X51441Y-52875D03*
X51441Y-53125D03*
X51441Y-53375D03*
X51441Y-53625D03*
X53559Y-53625D03*
X53559Y-53375D03*
X53559Y-53125D03*
X53559Y-52875D03*
X53559Y-52625D03*
X53559Y-52375D03*
X53559Y-52125D03*
X53559Y-51875D03*
G54D21*
X62205Y-41626D03*
G54D22*
X62205Y-42626D03*
G54D21*
X53150Y-42807D03*
G54D22*
X53150Y-43807D03*
G54D25*
X58550Y-42700D03*
G54D20*
X60550Y-42700D03*
G54D25*
X45300Y-41400D03*
G54D20*
X45300Y-43400D03*
G54D18*
X63250Y-32500D03*
G54D19*
X63250Y-35500D03*
G54D18*
X50200Y-32750D03*
G54D19*
X50200Y-35750D03*
G54D26*
X62000Y-54250D03*
X30350Y-37800D03*
X50050Y-42700D03*
X63250Y-43800D03*
X40500Y-52500D03*
X59750Y-37450D03*
X52006Y-44947D03*
X40500Y-38750D03*
X38000Y-38250D03*
X55650Y-50550D03*
X63250Y-48250D03*
X46300Y-37675D03*
X56000Y-53250D03*
X32850Y-38300D03*
X63250Y-54000D03*
X50037Y-40222D03*
X53900Y-50550D03*
X63250Y-40000D03*
X34050Y-40450D03*
X62750Y-44750D03*
X55750Y-52750D03*
X47150Y-43550D03*
X60150Y-47750D03*
X40000Y-52000D03*
X39850Y-39750D03*
X63780Y-42520D03*
X41450Y-49150D03*
X57518Y-46128D03*
X44450Y-46150D03*
X44250Y-45350D03*
X40850Y-48750D03*
X58000Y-54750D03*
X57518Y-45341D03*
X57250Y-55500D03*
X54500Y-53750D03*
X54500Y-52500D03*
X59000Y-48250D03*
X64250Y-48750D03*
X45200Y-48850D03*
X44600Y-44850D03*
X48750Y-48500D03*
X48750Y-46750D03*
X32600Y-37050D03*
X32350Y-38300D03*
X41000Y-37500D03*
X40500Y-37500D03*
X39250Y-38750D03*
X55250Y-52500D03*
X55250Y-53500D03*
X60575Y-31075D03*
X58875Y-31075D03*
G54D27*
X61599Y-38201D02*
X59518Y-38201D01*
X63250Y-36550D02*
X61599Y-38201D01*
X60550Y-43200D02*
X61150Y-43800D01*
X45650Y-42700D02*
X50050Y-42700D01*
X45300Y-43050D02*
X45650Y-42700D01*
X60550Y-42700D02*
X60550Y-43200D01*
X61150Y-43800D02*
X63250Y-43800D01*
X48117Y-40075D02*
X46318Y-38276D01*
G54D28*
X46275Y-31675D02*
X46278Y-31675D01*
G54D27*
X59518Y-37682D02*
X59518Y-38201D01*
X59750Y-37450D02*
X59518Y-37682D01*
X49175Y-40075D02*
X48117Y-40075D01*
X52765Y-46036D02*
X55036Y-46036D01*
X59478Y-38161D02*
X59518Y-38201D01*
G54D28*
X30693Y-37652D02*
X30498Y-37652D01*
X32850Y-38350D02*
X32950Y-38450D01*
X40350Y-53150D02*
X40500Y-53000D01*
G54D27*
X44200Y-31675D02*
X45350Y-31675D01*
G54D28*
X30498Y-37652D02*
X30350Y-37800D01*
G54D27*
X55036Y-46036D02*
X55536Y-46536D01*
G54D28*
X53559Y-53125D02*
X55875Y-53125D01*
G54D27*
X63250Y-54000D02*
X65000Y-54000D01*
G54D28*
X32995Y-38195D02*
X32995Y-37652D01*
G54D27*
X55850Y-46536D02*
X56565Y-46536D01*
X55536Y-46536D02*
X55850Y-46536D01*
G54D28*
X38000Y-38250D02*
X38148Y-38102D01*
G54D27*
X40895Y-38750D02*
X41550Y-38750D01*
X53886Y-50536D02*
X53900Y-50550D01*
G54D28*
X52006Y-44947D02*
X52095Y-45036D01*
G54D27*
X59453Y-31925D02*
X59453Y-31575D01*
G54D28*
X40895Y-38102D02*
X40895Y-38750D01*
G54D27*
X59453Y-35144D02*
X59478Y-35169D01*
X46278Y-31675D02*
X46278Y-30697D01*
X50200Y-35750D02*
X50200Y-36650D01*
X40895Y-38750D02*
X40500Y-38750D01*
X55650Y-50550D02*
X55850Y-50350D01*
X53886Y-50536D02*
X53900Y-50550D01*
X45350Y-31675D02*
X46278Y-31675D01*
X46278Y-35244D02*
X46278Y-31675D01*
X59453Y-31575D02*
X59453Y-30847D01*
X59725Y-38458D02*
X59493Y-38226D01*
X49890Y-40075D02*
X50037Y-40222D01*
G54D28*
X64400Y-30075D02*
X64998Y-30075D01*
G54D27*
X62250Y-54000D02*
X63250Y-54000D01*
X41900Y-38400D02*
X41900Y-32050D01*
X41900Y-32050D02*
X42275Y-31675D01*
G54D28*
X38148Y-38102D02*
X38593Y-38102D01*
X40500Y-53000D02*
X40500Y-52500D01*
G54D27*
X49175Y-40075D02*
X49890Y-40075D01*
G54D28*
X64998Y-30075D02*
X65725Y-30075D01*
G54D27*
X55850Y-50350D02*
X55850Y-46536D01*
G54D28*
X39134Y-53150D02*
X40350Y-53150D01*
G54D27*
X41550Y-38750D02*
X41900Y-38400D01*
X62000Y-54250D02*
X62250Y-54000D01*
G54D28*
X46300Y-37675D02*
X46318Y-37693D01*
G54D27*
X60225Y-30075D02*
X65725Y-30075D01*
X59478Y-35169D02*
X59478Y-38161D01*
X52765Y-45536D02*
X52765Y-46036D01*
X59453Y-31925D02*
X59453Y-35144D01*
X58675Y-31925D02*
X59453Y-31925D01*
X48574Y-38276D02*
X46318Y-38276D01*
X50200Y-36650D02*
X48574Y-38276D01*
X52765Y-50536D02*
X53886Y-50536D01*
G54D28*
X32739Y-38661D02*
X32850Y-38300D01*
G54D27*
X61550Y-48250D02*
X63250Y-48250D01*
G54D28*
X32950Y-38450D02*
X37800Y-38450D01*
G54D27*
X46278Y-38236D02*
X46318Y-38276D01*
X46278Y-35244D02*
X46278Y-38236D01*
X42275Y-31675D02*
X44200Y-31675D01*
X59725Y-40000D02*
X59725Y-38458D01*
X46875Y-30100D02*
X60200Y-30100D01*
G54D28*
X32850Y-38300D02*
X32995Y-38195D01*
X46278Y-31675D02*
X46275Y-31675D01*
G54D27*
X52095Y-45036D02*
X52765Y-45036D01*
X60200Y-30100D02*
X60225Y-30075D01*
G54D28*
X55875Y-53125D02*
X56000Y-53250D01*
X59453Y-38186D02*
X59493Y-38226D01*
X64400Y-30075D02*
X64050Y-29900D01*
X64050Y-29900D02*
X64225Y-29900D01*
G54D27*
X45300Y-43400D02*
X45300Y-43050D01*
X59453Y-30847D02*
X60200Y-30100D01*
G54D28*
X62275Y-29900D02*
X62425Y-29900D01*
G54D27*
X59725Y-40000D02*
X63250Y-40000D01*
X57525Y-31925D02*
X58675Y-31925D01*
G54D28*
X32739Y-39948D02*
X32739Y-38661D01*
G54D27*
X59453Y-31975D02*
X59453Y-31925D01*
X46278Y-30697D02*
X46875Y-30100D01*
G54D28*
X62600Y-30075D02*
X65725Y-30075D01*
X37800Y-38450D02*
X38000Y-38250D01*
G54D27*
X52765Y-45036D02*
X52765Y-45536D01*
G54D28*
X64225Y-29900D02*
X64400Y-30075D01*
X62425Y-29900D02*
X62600Y-30075D01*
X32850Y-38300D02*
X32850Y-38350D01*
X46318Y-37693D02*
X46318Y-38276D01*
X64225Y-29900D02*
X64400Y-30075D01*
G54D27*
X63250Y-35500D02*
X63250Y-36550D01*
X49673Y-44494D02*
X50923Y-44494D01*
G54D28*
X40639Y-40398D02*
X40639Y-39861D01*
X33650Y-40450D02*
X33507Y-40307D01*
X33507Y-40307D02*
X33507Y-39948D01*
G54D27*
X53522Y-44494D02*
X53528Y-44500D01*
G54D28*
X40000Y-52750D02*
X40000Y-52000D01*
X41407Y-40398D02*
X41407Y-41157D01*
G54D27*
X58750Y-44500D02*
X56565Y-44500D01*
G54D28*
X53559Y-52875D02*
X55625Y-52875D01*
X41250Y-39750D02*
X41407Y-39907D01*
X40750Y-39750D02*
X41250Y-39750D01*
X41407Y-39907D02*
X41407Y-40398D01*
X68900Y-55250D02*
X68150Y-56000D01*
X40750Y-39750D02*
X39850Y-39750D01*
X39134Y-52900D02*
X39850Y-52900D01*
G54D27*
X53150Y-43807D02*
X53150Y-44122D01*
G54D28*
X40639Y-39861D02*
X40750Y-39750D01*
X39850Y-52900D02*
X40000Y-52750D01*
G54D27*
X56565Y-45036D02*
X56565Y-44500D01*
X53150Y-44122D02*
X53522Y-44494D01*
G54D28*
X68900Y-54000D02*
X68900Y-55250D01*
G54D27*
X47173Y-43573D02*
X47173Y-44494D01*
X47150Y-43550D02*
X47173Y-43573D01*
X50923Y-44494D02*
X53522Y-44494D01*
X48423Y-44494D02*
X47173Y-44494D01*
G54D28*
X68150Y-56000D02*
X66000Y-56000D01*
X34050Y-40450D02*
X33650Y-40450D01*
X68900Y-52750D02*
X68900Y-54000D01*
X41407Y-41157D02*
X41407Y-41557D01*
G54D27*
X58750Y-44500D02*
X62500Y-44500D01*
G54D28*
X55625Y-52875D02*
X55750Y-52750D01*
G54D27*
X62500Y-44500D02*
X62750Y-44750D01*
X56565Y-44500D02*
X53528Y-44500D01*
G54D28*
X41407Y-41557D02*
X44344Y-44494D01*
X44344Y-44494D02*
X47173Y-44494D01*
G54D27*
X59450Y-47750D02*
X60150Y-47750D01*
X49673Y-44494D02*
X48423Y-44494D01*
X63674Y-42626D02*
X62205Y-42626D01*
X63780Y-42520D02*
X63674Y-42626D01*
G54D28*
X66000Y-54000D02*
X67600Y-54000D01*
X57426Y-46036D02*
X57518Y-46128D01*
X32995Y-48995D02*
X33150Y-49150D01*
X63250Y-54500D02*
X62500Y-55250D01*
X57518Y-46128D02*
X57750Y-46500D01*
X57750Y-46500D02*
X57750Y-54500D01*
X40895Y-42595D02*
X44450Y-46150D01*
X32995Y-39948D02*
X32995Y-48995D01*
X57500Y-54750D02*
X57500Y-55000D01*
X65500Y-54500D02*
X66000Y-54000D01*
X56565Y-46036D02*
X57426Y-46036D01*
X57750Y-55250D02*
X61250Y-55250D01*
X65500Y-54500D02*
X63250Y-54500D01*
X33150Y-49150D02*
X41450Y-49150D01*
X40895Y-40398D02*
X40895Y-42595D01*
X62500Y-55250D02*
X61250Y-55250D01*
X57500Y-55000D02*
X57750Y-55250D01*
X57750Y-54500D02*
X57500Y-54750D01*
X41151Y-42251D02*
X44250Y-45350D01*
X65500Y-55500D02*
X61000Y-55500D01*
X57591Y-45341D02*
X57518Y-45341D01*
X58000Y-54750D02*
X58000Y-45750D01*
X40652Y-48948D02*
X40850Y-48750D01*
X33450Y-48948D02*
X40652Y-48948D01*
X33251Y-39948D02*
X33251Y-48749D01*
X67350Y-55000D02*
X67600Y-55250D01*
X41151Y-40398D02*
X41151Y-42251D01*
X66000Y-55000D02*
X67350Y-55000D01*
X61000Y-55500D02*
X57250Y-55500D01*
X58000Y-45750D02*
X57591Y-45341D01*
X66000Y-55000D02*
X65500Y-55500D01*
X33251Y-48749D02*
X33450Y-48948D01*
X57323Y-45536D02*
X56565Y-45536D01*
X57518Y-45341D02*
X57323Y-45536D01*
X43250Y-52250D02*
X43250Y-55250D01*
X43625Y-51875D02*
X43250Y-52250D01*
X51441Y-51875D02*
X43625Y-51875D01*
X44625Y-52125D02*
X44250Y-52500D01*
X44250Y-52500D02*
X44250Y-55250D01*
X51441Y-52125D02*
X44625Y-52125D01*
X45625Y-52375D02*
X45250Y-52750D01*
X51441Y-52375D02*
X45625Y-52375D01*
X45250Y-52750D02*
X45250Y-55250D01*
X46250Y-53000D02*
X46250Y-55250D01*
X46625Y-52625D02*
X46250Y-53000D01*
X51441Y-52625D02*
X46625Y-52625D01*
X47250Y-53250D02*
X47250Y-55250D01*
X51441Y-52875D02*
X47625Y-52875D01*
X47625Y-52875D02*
X47250Y-53250D01*
X48250Y-53500D02*
X48250Y-55250D01*
X48625Y-53125D02*
X48250Y-53500D01*
X51441Y-53125D02*
X48625Y-53125D01*
X51441Y-53375D02*
X49625Y-53375D01*
X49625Y-53375D02*
X49250Y-53750D01*
X49250Y-53750D02*
X49250Y-55250D01*
X50250Y-54000D02*
X50250Y-55250D01*
X50625Y-53625D02*
X50250Y-54000D01*
X51441Y-53625D02*
X50625Y-53625D01*
X53559Y-52625D02*
X53125Y-52625D01*
X53000Y-54000D02*
X54250Y-55250D01*
X53125Y-52625D02*
X53000Y-52750D01*
X53000Y-52750D02*
X53000Y-54000D01*
X52750Y-54750D02*
X53250Y-55250D01*
X52750Y-52500D02*
X52750Y-54750D01*
X52875Y-52375D02*
X52750Y-52500D01*
X53559Y-52375D02*
X52875Y-52375D01*
X52500Y-55000D02*
X52250Y-55250D01*
X53559Y-52125D02*
X52625Y-52125D01*
X52625Y-52125D02*
X52500Y-52250D01*
X52500Y-52250D02*
X52500Y-55000D01*
X52250Y-52000D02*
X52250Y-54250D01*
X53559Y-51875D02*
X52375Y-51875D01*
X52375Y-51875D02*
X52250Y-52000D01*
X52250Y-54250D02*
X51250Y-55250D01*
X29350Y-51900D02*
X28875Y-52375D01*
X37016Y-51900D02*
X29350Y-51900D01*
X28875Y-52375D02*
X28875Y-55125D01*
X36350Y-53650D02*
X35875Y-54125D01*
X37016Y-53650D02*
X36350Y-53650D01*
X35875Y-54125D02*
X35875Y-55125D01*
X37750Y-54250D02*
X36875Y-55125D01*
X37850Y-51900D02*
X37750Y-52000D01*
X37750Y-52000D02*
X37750Y-54250D01*
X39134Y-51900D02*
X37850Y-51900D01*
X39134Y-52150D02*
X38100Y-52150D01*
X38000Y-52250D02*
X38000Y-55000D01*
X38000Y-55000D02*
X37875Y-55125D01*
X38100Y-52150D02*
X38000Y-52250D01*
X38250Y-52500D02*
X38250Y-54500D01*
X38350Y-52400D02*
X38250Y-52500D01*
X39134Y-52400D02*
X38350Y-52400D01*
X38250Y-54500D02*
X38875Y-55125D01*
X39134Y-52650D02*
X38600Y-52650D01*
X39875Y-54125D02*
X39875Y-55125D01*
X39750Y-54000D02*
X39875Y-54125D01*
X38750Y-54000D02*
X39750Y-54000D01*
X38500Y-53750D02*
X38750Y-54000D01*
X38600Y-52650D02*
X38500Y-52750D01*
X38500Y-52750D02*
X38500Y-53750D01*
X37016Y-52150D02*
X30350Y-52150D01*
X30350Y-52150D02*
X29875Y-52625D01*
X29875Y-52625D02*
X29875Y-55125D01*
X30875Y-52875D02*
X30875Y-55125D01*
X37016Y-52400D02*
X31350Y-52400D01*
X31350Y-52400D02*
X30875Y-52875D01*
X37016Y-52650D02*
X32350Y-52650D01*
X31875Y-53125D02*
X31875Y-55125D01*
X32350Y-52650D02*
X31875Y-53125D01*
X37016Y-52900D02*
X33350Y-52900D01*
X32875Y-53375D02*
X32875Y-55125D01*
X33350Y-52900D02*
X32875Y-53375D01*
X37016Y-53150D02*
X34350Y-53150D01*
X33875Y-53625D02*
X33875Y-55125D01*
X34350Y-53150D02*
X33875Y-53625D01*
X35350Y-53400D02*
X34875Y-53875D01*
X34875Y-53875D02*
X34875Y-55125D01*
X37016Y-53400D02*
X35350Y-53400D01*
X54500Y-47250D02*
X54500Y-52500D01*
X49673Y-45794D02*
X49673Y-46644D01*
X54286Y-47036D02*
X54500Y-47250D01*
X54500Y-47250D02*
X54500Y-47250D01*
X49673Y-46644D02*
X50065Y-47036D01*
X54500Y-53750D02*
X54375Y-53625D01*
X54375Y-53625D02*
X53559Y-53625D01*
X52765Y-47036D02*
X54286Y-47036D01*
X50065Y-47036D02*
X52765Y-47036D01*
X60000Y-48250D02*
X59450Y-48250D01*
X66000Y-53000D02*
X67350Y-53000D01*
X60500Y-48750D02*
X60000Y-48250D01*
X44600Y-44850D02*
X45200Y-45450D01*
X59450Y-48250D02*
X59000Y-48250D01*
X64250Y-48750D02*
X60500Y-48750D01*
X67350Y-53000D02*
X67600Y-52750D01*
X45200Y-45450D02*
X45200Y-48850D01*
X48750Y-46750D02*
X48423Y-46750D01*
X41500Y-50250D02*
X48500Y-50250D01*
X48815Y-47536D02*
X52765Y-47536D01*
X48500Y-50250D02*
X48750Y-50000D01*
X48423Y-47144D02*
X48815Y-47536D01*
X40850Y-53400D02*
X41250Y-53000D01*
X48423Y-45794D02*
X48423Y-46750D01*
X48750Y-50000D02*
X48750Y-48500D01*
X41250Y-53000D02*
X41250Y-50500D01*
X39134Y-53400D02*
X40850Y-53400D01*
X48423Y-46750D02*
X48423Y-47144D01*
X41250Y-50500D02*
X41500Y-50250D01*
X31717Y-37652D02*
X31717Y-36667D01*
X31717Y-36667D02*
X29850Y-34800D01*
X31461Y-37161D02*
X29100Y-34800D01*
X29100Y-34800D02*
X28850Y-34800D01*
X31461Y-37652D02*
X31461Y-37161D01*
X31973Y-37652D02*
X31973Y-35923D01*
X31973Y-35923D02*
X30850Y-34800D01*
X31850Y-47050D02*
X28850Y-47050D01*
X32227Y-46673D02*
X31850Y-47050D01*
X32227Y-39948D02*
X32227Y-46673D01*
X31100Y-37300D02*
X29850Y-37300D01*
X29850Y-37300D02*
X29600Y-37550D01*
X29600Y-37550D02*
X29600Y-38300D01*
X31205Y-37405D02*
X31100Y-37300D01*
X29600Y-38300D02*
X28850Y-39050D01*
X31205Y-37652D02*
X31205Y-37405D01*
X30949Y-38201D02*
X30850Y-38300D01*
X29600Y-39800D02*
X29350Y-40050D01*
X30949Y-37652D02*
X30949Y-38201D01*
X30100Y-38300D02*
X29600Y-38800D01*
X30850Y-38300D02*
X30100Y-38300D01*
X29600Y-38800D02*
X29600Y-39800D01*
X29350Y-40050D02*
X28850Y-40050D01*
X30693Y-40957D02*
X30600Y-41050D01*
X30600Y-41050D02*
X28850Y-41050D01*
X30693Y-39948D02*
X30693Y-40957D01*
X30949Y-41701D02*
X30600Y-42050D01*
X30600Y-42050D02*
X28850Y-42050D01*
X30949Y-39948D02*
X30949Y-41701D01*
X31205Y-39948D02*
X31205Y-42695D01*
X30850Y-43050D02*
X28850Y-43050D01*
X31205Y-42695D02*
X30850Y-43050D01*
X31461Y-43689D02*
X31100Y-44050D01*
X31100Y-44050D02*
X28850Y-44050D01*
X31461Y-39948D02*
X31461Y-43689D01*
X31717Y-44683D02*
X31350Y-45050D01*
X31350Y-45050D02*
X28850Y-45050D01*
X31717Y-39948D02*
X31717Y-44683D01*
X31600Y-46050D02*
X28850Y-46050D01*
X31973Y-45677D02*
X31600Y-46050D01*
X31973Y-39948D02*
X31973Y-45677D01*
X32483Y-47667D02*
X32100Y-48050D01*
X32483Y-39948D02*
X32483Y-47667D01*
X32100Y-48050D02*
X28850Y-48050D01*
X32739Y-37652D02*
X32739Y-37189D01*
X32739Y-37189D02*
X32600Y-37050D01*
X32483Y-37652D02*
X32483Y-38167D01*
X32483Y-38167D02*
X32350Y-38300D01*
X32227Y-35177D02*
X31850Y-34800D01*
X32227Y-37652D02*
X32227Y-35177D01*
X40639Y-37861D02*
X41000Y-37500D01*
X40639Y-38102D02*
X40639Y-37861D01*
X40383Y-38102D02*
X40383Y-37617D01*
X40383Y-37617D02*
X40500Y-37500D01*
X39105Y-38102D02*
X39105Y-38605D01*
X39105Y-38605D02*
X39250Y-38750D01*
X39361Y-37461D02*
X36750Y-34850D01*
X39361Y-38102D02*
X39361Y-37461D01*
G54D27*
X62205Y-41626D02*
X65474Y-41626D01*
X56750Y-42700D02*
X56725Y-42725D01*
X58550Y-42700D02*
X56750Y-42700D01*
X59624Y-41626D02*
X58550Y-42700D01*
X65474Y-41626D02*
X65725Y-41375D01*
X62205Y-41626D02*
X59624Y-41626D01*
G54D28*
X39617Y-36717D02*
X37750Y-34850D01*
X39617Y-38102D02*
X39617Y-36717D01*
G54D27*
X58967Y-33517D02*
X58675Y-33225D01*
X58967Y-35169D02*
X58967Y-33517D01*
G54D28*
X40383Y-47617D02*
X40000Y-48000D01*
X40000Y-48000D02*
X36750Y-48000D01*
X40383Y-40398D02*
X40383Y-47617D01*
X38250Y-40000D02*
X36750Y-40000D01*
X38849Y-39401D02*
X38250Y-40000D01*
X38849Y-38102D02*
X38849Y-39401D01*
X38593Y-40398D02*
X38593Y-40907D01*
X38593Y-40907D02*
X38500Y-41000D01*
X38500Y-41000D02*
X36750Y-41000D01*
X38849Y-41651D02*
X38500Y-42000D01*
X38849Y-40398D02*
X38849Y-41651D01*
X38500Y-42000D02*
X36750Y-42000D01*
X39105Y-42645D02*
X38750Y-43000D01*
X39105Y-40398D02*
X39105Y-42645D01*
X38750Y-43000D02*
X36750Y-43000D01*
X39361Y-40398D02*
X39361Y-43639D01*
X39361Y-43639D02*
X39000Y-44000D01*
X39000Y-44000D02*
X36750Y-44000D01*
X39250Y-45000D02*
X36750Y-45000D01*
X39617Y-44633D02*
X39250Y-45000D01*
X39617Y-40398D02*
X39617Y-44633D01*
X39500Y-46000D02*
X36750Y-46000D01*
X39873Y-45627D02*
X39500Y-46000D01*
X39873Y-40398D02*
X39873Y-45627D01*
X39750Y-47000D02*
X36750Y-47000D01*
X40127Y-46623D02*
X39750Y-47000D01*
X40127Y-40398D02*
X40127Y-46623D01*
X40127Y-35227D02*
X39750Y-34850D01*
X40127Y-38102D02*
X40127Y-35227D01*
X39873Y-35973D02*
X38750Y-34850D01*
X39873Y-38102D02*
X39873Y-35973D01*
X49000Y-36175D02*
X46850Y-36175D01*
X46850Y-36175D02*
X46790Y-36115D01*
X46790Y-36115D02*
X46790Y-35244D01*
X49100Y-34825D02*
X49100Y-36075D01*
X49100Y-36075D02*
X49000Y-36175D01*
X45767Y-35244D02*
X45767Y-33392D01*
X45767Y-33392D02*
X45350Y-32975D01*
G54D27*
X52300Y-33525D02*
X53150Y-34375D01*
X50200Y-32750D02*
X50200Y-33525D01*
X50650Y-33525D02*
X52300Y-33525D01*
X47814Y-33611D02*
X47900Y-33525D01*
X47814Y-33611D02*
X47814Y-35244D01*
X49100Y-33525D02*
X47900Y-33525D01*
X50200Y-33525D02*
X50650Y-33525D01*
X49100Y-33525D02*
X50200Y-33525D01*
G54D28*
X47173Y-47644D02*
X47565Y-48036D01*
X41500Y-50750D02*
X41750Y-50500D01*
X41500Y-53250D02*
X41500Y-50750D01*
X41100Y-53650D02*
X41500Y-53250D01*
X51000Y-50250D02*
X51000Y-48036D01*
X51000Y-48036D02*
X52765Y-48036D01*
X47173Y-45794D02*
X47173Y-47644D01*
X50750Y-50500D02*
X51000Y-50250D01*
X39134Y-53650D02*
X41100Y-53650D01*
X41750Y-50500D02*
X50750Y-50500D01*
X47565Y-48036D02*
X51000Y-48036D01*
X50923Y-45794D02*
X50923Y-46144D01*
X53559Y-53375D02*
X55125Y-53375D01*
X55125Y-53375D02*
X55250Y-53500D01*
X51315Y-46536D02*
X52765Y-46536D01*
X52801Y-46500D02*
X52765Y-46536D01*
X50923Y-46144D02*
X51315Y-46536D01*
X55250Y-52500D02*
X55250Y-46750D01*
X55250Y-46750D02*
X55000Y-46500D01*
X55000Y-46500D02*
X52801Y-46500D01*
X59990Y-35169D02*
X59990Y-35990D01*
X60250Y-36250D02*
X62000Y-36250D01*
X59990Y-35990D02*
X60250Y-36250D01*
X62225Y-36025D02*
X62225Y-34725D01*
X62000Y-36250D02*
X62225Y-36025D01*
G54D27*
X43575Y-40600D02*
X43575Y-41075D01*
X43575Y-35775D02*
X43575Y-40600D01*
X43900Y-41400D02*
X45300Y-41400D01*
X43575Y-41075D02*
X43900Y-41400D01*
X53150Y-41375D02*
X45325Y-41375D01*
X53150Y-41375D02*
X53150Y-42807D01*
X63300Y-32550D02*
X63250Y-32500D01*
X63300Y-33425D02*
X63300Y-32550D01*
X61014Y-33736D02*
X61325Y-33425D01*
X63725Y-33425D02*
X63875Y-33575D01*
X62225Y-33425D02*
X63300Y-33425D01*
X63875Y-33575D02*
X64925Y-33575D01*
X63300Y-33425D02*
X63725Y-33425D01*
X64925Y-33575D02*
X65725Y-34375D01*
X61325Y-33425D02*
X62225Y-33425D01*
X61014Y-35169D02*
X61014Y-33736D01*
G54D28*
X45255Y-35244D02*
X45255Y-34055D01*
X43575Y-34475D02*
X43575Y-34400D01*
X44325Y-33900D02*
X44200Y-33775D01*
X43575Y-34400D02*
X44200Y-33775D01*
X45100Y-33900D02*
X44325Y-33900D01*
X44200Y-33775D02*
X44200Y-32975D01*
X45255Y-34055D02*
X45100Y-33900D01*
X58455Y-35169D02*
X58455Y-34205D01*
X57525Y-33775D02*
X57525Y-33225D01*
X56950Y-36250D02*
X56725Y-36475D01*
X58455Y-34205D02*
X58250Y-34000D01*
X56725Y-36475D02*
X56725Y-41425D01*
X58250Y-36250D02*
X56950Y-36250D01*
X57750Y-34000D02*
X57525Y-33775D01*
X58455Y-36045D02*
X58250Y-36250D01*
X58250Y-34000D02*
X57750Y-34000D01*
X58455Y-35169D02*
X58455Y-36045D01*
G54D27*
X65725Y-31075D02*
X61225Y-31075D01*
X64375Y-31075D02*
X65725Y-31075D01*
X64250Y-31200D02*
X64375Y-31075D01*
X47725Y-31075D02*
X47302Y-31498D01*
X61225Y-31075D02*
X60575Y-31075D01*
X62500Y-31200D02*
X62625Y-31075D01*
X58875Y-31075D02*
X47725Y-31075D01*
X62625Y-31075D02*
X65725Y-31075D01*
X47302Y-31498D02*
X47302Y-35244D01*
X62275Y-31200D02*
X62500Y-31200D01*
X64050Y-31200D02*
X64250Y-31200D01*
X61225Y-31075D02*
X60477Y-31823D01*
X60477Y-31823D02*
X60477Y-35144D01*
X60477Y-35144D02*
X60502Y-35169D01*
M02*
