M48
;DRILL file {Pcbnew (2012-apr-16-27)-stable} date Fri 25 Jan 2013 17:48:41 GMT
;FORMAT={-:-/ absolute / metric / decimal}
FMAT,2
METRIC,TZ
T1C0.635
T2C0.813
T3C1.016
%
G90
G05
M71
T1
X138.303Y86.233
X140.223Y102.504
X149.606Y68.072
X150.495Y68.961
X152.654Y111.506
X162.814Y110.744
X163.703Y112.141
X171.450Y104.775
X173.355Y105.791
T2
X130.810Y98.425
X156.464Y66.802
X162.306Y66.802
X168.148Y66.802
X172.720Y100.965
T3
X128.270Y67.945
X128.270Y70.485
X128.270Y73.025
X128.270Y75.565
X128.270Y78.105
X128.270Y80.645
X128.270Y83.185
X128.270Y85.725
X128.270Y88.265
X128.270Y90.805
X128.270Y93.345
X128.270Y95.885
X128.270Y98.425
X128.270Y109.220
X128.270Y111.760
X130.810Y67.945
X130.810Y70.485
X130.810Y73.025
X130.810Y75.565
X130.810Y78.105
X130.810Y80.645
X130.810Y83.185
X130.810Y85.725
X130.810Y88.265
X130.810Y90.805
X130.810Y93.345
X130.810Y95.885
X130.810Y109.220
X130.810Y111.760
X133.350Y109.220
X133.350Y111.760
X135.890Y109.220
X135.890Y111.760
X138.430Y109.220
X138.430Y111.760
X140.970Y109.220
X140.970Y111.760
X143.510Y109.220
X143.510Y111.760
X144.780Y98.425
X144.780Y100.965
X144.780Y103.505
X146.050Y109.220
X146.050Y111.760
X147.320Y98.425
X147.320Y100.965
X147.320Y103.505
X149.860Y98.425
X149.860Y100.965
X149.860Y103.505
X152.400Y98.425
X152.400Y100.965
X152.400Y103.505
X154.940Y98.425
X154.940Y100.965
X154.940Y103.505
X156.464Y69.342
X156.464Y71.882
X156.464Y74.422
X156.464Y76.962
X156.464Y79.502
X156.464Y82.042
X156.464Y84.582
X156.464Y87.122
X156.464Y89.662
X156.464Y92.202
X156.464Y94.742
X157.480Y98.425
X157.480Y100.965
X157.480Y103.505
X159.004Y66.802
X159.004Y69.342
X159.004Y71.882
X159.004Y74.422
X159.004Y76.962
X159.004Y79.502
X159.004Y82.042
X159.004Y84.582
X159.004Y87.122
X159.004Y89.662
X159.004Y92.202
X159.004Y94.742
X160.020Y98.425
X160.020Y100.965
X160.020Y103.505
X162.306Y69.342
X162.306Y71.882
X162.306Y74.422
X162.306Y76.962
X162.306Y79.502
X162.306Y82.042
X162.306Y84.582
X162.306Y87.122
X162.306Y89.662
X162.306Y92.202
X162.306Y94.742
X162.560Y98.425
X162.560Y100.965
X162.560Y103.505
X164.846Y66.802
X164.846Y69.342
X164.846Y71.882
X164.846Y74.422
X164.846Y76.962
X164.846Y79.502
X164.846Y82.042
X164.846Y84.582
X164.846Y87.122
X164.846Y89.662
X164.846Y92.202
X164.846Y94.742
X165.100Y98.425
X165.100Y100.965
X165.100Y103.505
X165.608Y107.569
X165.608Y110.109
X165.608Y112.649
X167.640Y98.425
X167.640Y100.965
X167.640Y103.505
X168.148Y69.342
X168.148Y71.882
X168.148Y74.422
X168.148Y76.962
X168.148Y79.502
X168.148Y82.042
X168.148Y84.582
X168.148Y87.122
X168.148Y89.662
X168.148Y92.202
X168.148Y94.742
X168.148Y107.569
X168.148Y110.109
X168.148Y112.649
X170.180Y98.425
X170.180Y100.965
X170.180Y103.505
X170.688Y66.802
X170.688Y69.342
X170.688Y71.882
X170.688Y74.422
X170.688Y76.962
X170.688Y79.502
X170.688Y82.042
X170.688Y84.582
X170.688Y87.122
X170.688Y89.662
X170.688Y92.202
X170.688Y94.742
X170.688Y107.569
X170.688Y110.109
X170.688Y112.649
X172.720Y98.425
X172.720Y103.505
X173.228Y107.569
X173.228Y110.109
X173.228Y112.649
X173.355Y66.802
X173.355Y69.342
X173.355Y71.882
X173.355Y74.422
X173.355Y76.962
X173.355Y79.502
X173.355Y82.042
X173.355Y84.582
X173.355Y87.122
X173.355Y89.662
X173.355Y92.202
X173.355Y94.742
T0
M30
