G04 (created by PCBNEW-RS274X (2012-apr-16-27)-stable) date Fri 25 Jan 2013 18:12:53 GMT*
G01*
G70*
G90*
%MOIN*%
G04 Gerber Fmt 3.4, Leading zero omitted, Abs format*
%FSLAX34Y34*%
G04 APERTURE LIST*
%ADD10C,0.006000*%
%ADD11C,0.012000*%
%ADD12C,0.005000*%
%ADD13C,0.008000*%
%ADD14C,0.010000*%
%ADD15C,0.015000*%
%ADD16C,0.002600*%
%ADD17C,0.000100*%
%ADD18C,0.002000*%
%ADD19C,0.003000*%
%ADD20C,0.003500*%
G04 APERTURE END LIST*
G54D10*
X04000Y-04000D02*
X113000Y-04000D01*
X113000Y-78670D01*
X04000Y-78670D01*
X04000Y-04000D01*
X04700Y-04700D02*
X112300Y-04700D01*
X112300Y-77970D01*
X04700Y-77970D01*
X04700Y-04700D01*
X25800Y-04000D02*
X25800Y-04700D01*
X15043Y-04552D02*
X14757Y-04552D01*
X14900Y-04552D02*
X14900Y-04052D01*
X14852Y-04124D01*
X14805Y-04171D01*
X14757Y-04195D01*
X25800Y-78670D02*
X25800Y-77970D01*
X15043Y-78522D02*
X14757Y-78522D01*
X14900Y-78522D02*
X14900Y-78022D01*
X14852Y-78094D01*
X14805Y-78141D01*
X14757Y-78165D01*
X47600Y-04000D02*
X47600Y-04700D01*
X36557Y-04100D02*
X36581Y-04076D01*
X36629Y-04052D01*
X36748Y-04052D01*
X36795Y-04076D01*
X36819Y-04100D01*
X36843Y-04148D01*
X36843Y-04195D01*
X36819Y-04267D01*
X36533Y-04552D01*
X36843Y-04552D01*
X47600Y-78670D02*
X47600Y-77970D01*
X36557Y-78070D02*
X36581Y-78046D01*
X36629Y-78022D01*
X36748Y-78022D01*
X36795Y-78046D01*
X36819Y-78070D01*
X36843Y-78118D01*
X36843Y-78165D01*
X36819Y-78237D01*
X36533Y-78522D01*
X36843Y-78522D01*
X69400Y-04000D02*
X69400Y-04700D01*
X58333Y-04052D02*
X58643Y-04052D01*
X58476Y-04243D01*
X58548Y-04243D01*
X58595Y-04267D01*
X58619Y-04290D01*
X58643Y-04338D01*
X58643Y-04457D01*
X58619Y-04505D01*
X58595Y-04529D01*
X58548Y-04552D01*
X58405Y-04552D01*
X58357Y-04529D01*
X58333Y-04505D01*
X69400Y-78670D02*
X69400Y-77970D01*
X58333Y-78022D02*
X58643Y-78022D01*
X58476Y-78213D01*
X58548Y-78213D01*
X58595Y-78237D01*
X58619Y-78260D01*
X58643Y-78308D01*
X58643Y-78427D01*
X58619Y-78475D01*
X58595Y-78499D01*
X58548Y-78522D01*
X58405Y-78522D01*
X58357Y-78499D01*
X58333Y-78475D01*
X91200Y-04000D02*
X91200Y-04700D01*
X80395Y-04219D02*
X80395Y-04552D01*
X80276Y-04029D02*
X80157Y-04386D01*
X80467Y-04386D01*
X91200Y-78670D02*
X91200Y-77970D01*
X80395Y-78189D02*
X80395Y-78522D01*
X80276Y-77999D02*
X80157Y-78356D01*
X80467Y-78356D01*
X102219Y-04052D02*
X101981Y-04052D01*
X101957Y-04290D01*
X101981Y-04267D01*
X102029Y-04243D01*
X102148Y-04243D01*
X102195Y-04267D01*
X102219Y-04290D01*
X102243Y-04338D01*
X102243Y-04457D01*
X102219Y-04505D01*
X102195Y-04529D01*
X102148Y-04552D01*
X102029Y-04552D01*
X101981Y-04529D01*
X101957Y-04505D01*
X102219Y-78022D02*
X101981Y-78022D01*
X101957Y-78260D01*
X101981Y-78237D01*
X102029Y-78213D01*
X102148Y-78213D01*
X102195Y-78237D01*
X102219Y-78260D01*
X102243Y-78308D01*
X102243Y-78427D01*
X102219Y-78475D01*
X102195Y-78499D01*
X102148Y-78522D01*
X102029Y-78522D01*
X101981Y-78499D01*
X101957Y-78475D01*
X04000Y-28890D02*
X04700Y-28890D01*
X04231Y-16510D02*
X04469Y-16510D01*
X04184Y-16652D02*
X04350Y-16152D01*
X04517Y-16652D01*
X113000Y-28890D02*
X112300Y-28890D01*
X112531Y-16510D02*
X112769Y-16510D01*
X112484Y-16652D02*
X112650Y-16152D01*
X112817Y-16652D01*
X04000Y-53780D02*
X04700Y-53780D01*
X04386Y-41280D02*
X04457Y-41304D01*
X04481Y-41328D01*
X04505Y-41376D01*
X04505Y-41447D01*
X04481Y-41495D01*
X04457Y-41519D01*
X04410Y-41542D01*
X04219Y-41542D01*
X04219Y-41042D01*
X04386Y-41042D01*
X04433Y-41066D01*
X04457Y-41090D01*
X04481Y-41138D01*
X04481Y-41185D01*
X04457Y-41233D01*
X04433Y-41257D01*
X04386Y-41280D01*
X04219Y-41280D01*
X113000Y-53780D02*
X112300Y-53780D01*
X112686Y-41280D02*
X112757Y-41304D01*
X112781Y-41328D01*
X112805Y-41376D01*
X112805Y-41447D01*
X112781Y-41495D01*
X112757Y-41519D01*
X112710Y-41542D01*
X112519Y-41542D01*
X112519Y-41042D01*
X112686Y-41042D01*
X112733Y-41066D01*
X112757Y-41090D01*
X112781Y-41138D01*
X112781Y-41185D01*
X112757Y-41233D01*
X112733Y-41257D01*
X112686Y-41280D01*
X112519Y-41280D01*
X04505Y-66385D02*
X04481Y-66409D01*
X04410Y-66432D01*
X04362Y-66432D01*
X04290Y-66409D01*
X04243Y-66361D01*
X04219Y-66313D01*
X04195Y-66218D01*
X04195Y-66147D01*
X04219Y-66051D01*
X04243Y-66004D01*
X04290Y-65956D01*
X04362Y-65932D01*
X04410Y-65932D01*
X04481Y-65956D01*
X04505Y-65980D01*
X112805Y-66385D02*
X112781Y-66409D01*
X112710Y-66432D01*
X112662Y-66432D01*
X112590Y-66409D01*
X112543Y-66361D01*
X112519Y-66313D01*
X112495Y-66218D01*
X112495Y-66147D01*
X112519Y-66051D01*
X112543Y-66004D01*
X112590Y-65956D01*
X112662Y-65932D01*
X112710Y-65932D01*
X112781Y-65956D01*
X112805Y-65980D01*
G54D11*
X79443Y-76413D02*
X79443Y-75813D01*
X79586Y-75813D01*
X79671Y-75841D01*
X79729Y-75899D01*
X79757Y-75956D01*
X79786Y-76070D01*
X79786Y-76156D01*
X79757Y-76270D01*
X79729Y-76327D01*
X79671Y-76384D01*
X79586Y-76413D01*
X79443Y-76413D01*
X80300Y-76413D02*
X80300Y-76099D01*
X80271Y-76041D01*
X80214Y-76013D01*
X80100Y-76013D01*
X80043Y-76041D01*
X80300Y-76384D02*
X80243Y-76413D01*
X80100Y-76413D01*
X80043Y-76384D01*
X80014Y-76327D01*
X80014Y-76270D01*
X80043Y-76213D01*
X80100Y-76184D01*
X80243Y-76184D01*
X80300Y-76156D01*
X80500Y-76013D02*
X80729Y-76013D01*
X80586Y-75813D02*
X80586Y-76327D01*
X80614Y-76384D01*
X80672Y-76413D01*
X80729Y-76413D01*
X81157Y-76384D02*
X81100Y-76413D01*
X80986Y-76413D01*
X80929Y-76384D01*
X80900Y-76327D01*
X80900Y-76099D01*
X80929Y-76041D01*
X80986Y-76013D01*
X81100Y-76013D01*
X81157Y-76041D01*
X81186Y-76099D01*
X81186Y-76156D01*
X80900Y-76213D01*
X81443Y-76356D02*
X81471Y-76384D01*
X81443Y-76413D01*
X81414Y-76384D01*
X81443Y-76356D01*
X81443Y-76413D01*
X81443Y-76041D02*
X81471Y-76070D01*
X81443Y-76099D01*
X81414Y-76070D01*
X81443Y-76041D01*
X81443Y-76099D01*
X82157Y-75870D02*
X82186Y-75841D01*
X82243Y-75813D01*
X82386Y-75813D01*
X82443Y-75841D01*
X82472Y-75870D01*
X82500Y-75927D01*
X82500Y-75984D01*
X82472Y-76070D01*
X82129Y-76413D01*
X82500Y-76413D01*
X83043Y-75813D02*
X82757Y-75813D01*
X82728Y-76099D01*
X82757Y-76070D01*
X82814Y-76041D01*
X82957Y-76041D01*
X83014Y-76070D01*
X83043Y-76099D01*
X83071Y-76156D01*
X83071Y-76299D01*
X83043Y-76356D01*
X83014Y-76384D01*
X82957Y-76413D01*
X82814Y-76413D01*
X82757Y-76384D01*
X82728Y-76356D01*
X83785Y-76013D02*
X83785Y-76527D01*
X83756Y-76584D01*
X83699Y-76613D01*
X83671Y-76613D01*
X83785Y-75813D02*
X83756Y-75841D01*
X83785Y-75870D01*
X83813Y-75841D01*
X83785Y-75813D01*
X83785Y-75870D01*
X84328Y-76413D02*
X84328Y-76099D01*
X84299Y-76041D01*
X84242Y-76013D01*
X84128Y-76013D01*
X84071Y-76041D01*
X84328Y-76384D02*
X84271Y-76413D01*
X84128Y-76413D01*
X84071Y-76384D01*
X84042Y-76327D01*
X84042Y-76270D01*
X84071Y-76213D01*
X84128Y-76184D01*
X84271Y-76184D01*
X84328Y-76156D01*
X84614Y-76013D02*
X84614Y-76413D01*
X84614Y-76070D02*
X84642Y-76041D01*
X84700Y-76013D01*
X84785Y-76013D01*
X84842Y-76041D01*
X84871Y-76099D01*
X84871Y-76413D01*
X85585Y-75870D02*
X85614Y-75841D01*
X85671Y-75813D01*
X85814Y-75813D01*
X85871Y-75841D01*
X85900Y-75870D01*
X85928Y-75927D01*
X85928Y-75984D01*
X85900Y-76070D01*
X85557Y-76413D01*
X85928Y-76413D01*
X86299Y-75813D02*
X86356Y-75813D01*
X86413Y-75841D01*
X86442Y-75870D01*
X86471Y-75927D01*
X86499Y-76041D01*
X86499Y-76184D01*
X86471Y-76299D01*
X86442Y-76356D01*
X86413Y-76384D01*
X86356Y-76413D01*
X86299Y-76413D01*
X86242Y-76384D01*
X86213Y-76356D01*
X86185Y-76299D01*
X86156Y-76184D01*
X86156Y-76041D01*
X86185Y-75927D01*
X86213Y-75870D01*
X86242Y-75841D01*
X86299Y-75813D01*
X87070Y-76413D02*
X86727Y-76413D01*
X86899Y-76413D02*
X86899Y-75813D01*
X86842Y-75899D01*
X86784Y-75956D01*
X86727Y-75984D01*
X87270Y-75813D02*
X87641Y-75813D01*
X87441Y-76041D01*
X87527Y-76041D01*
X87584Y-76070D01*
X87613Y-76099D01*
X87641Y-76156D01*
X87641Y-76299D01*
X87613Y-76356D01*
X87584Y-76384D01*
X87527Y-76413D01*
X87355Y-76413D01*
X87298Y-76384D01*
X87270Y-76356D01*
G54D10*
X71043Y-77613D02*
X71043Y-77013D01*
X71386Y-77613D02*
X71129Y-77270D01*
X71386Y-77013D02*
X71043Y-77356D01*
X71643Y-77613D02*
X71643Y-77213D01*
X71643Y-77013D02*
X71614Y-77041D01*
X71643Y-77070D01*
X71671Y-77041D01*
X71643Y-77013D01*
X71643Y-77070D01*
X72272Y-77556D02*
X72243Y-77584D01*
X72157Y-77613D01*
X72100Y-77613D01*
X72015Y-77584D01*
X71957Y-77527D01*
X71929Y-77470D01*
X71900Y-77356D01*
X71900Y-77270D01*
X71929Y-77156D01*
X71957Y-77099D01*
X72015Y-77041D01*
X72100Y-77013D01*
X72157Y-77013D01*
X72243Y-77041D01*
X72272Y-77070D01*
X72786Y-77613D02*
X72786Y-77299D01*
X72757Y-77241D01*
X72700Y-77213D01*
X72586Y-77213D01*
X72529Y-77241D01*
X72786Y-77584D02*
X72729Y-77613D01*
X72586Y-77613D01*
X72529Y-77584D01*
X72500Y-77527D01*
X72500Y-77470D01*
X72529Y-77413D01*
X72586Y-77384D01*
X72729Y-77384D01*
X72786Y-77356D01*
X73329Y-77613D02*
X73329Y-77013D01*
X73329Y-77584D02*
X73272Y-77613D01*
X73158Y-77613D01*
X73100Y-77584D01*
X73072Y-77556D01*
X73043Y-77499D01*
X73043Y-77327D01*
X73072Y-77270D01*
X73100Y-77241D01*
X73158Y-77213D01*
X73272Y-77213D01*
X73329Y-77241D01*
X74072Y-77299D02*
X74272Y-77299D01*
X74358Y-77613D02*
X74072Y-77613D01*
X74072Y-77013D01*
X74358Y-77013D01*
X74615Y-77556D02*
X74643Y-77584D01*
X74615Y-77613D01*
X74586Y-77584D01*
X74615Y-77556D01*
X74615Y-77613D01*
X74901Y-77613D02*
X74901Y-77013D01*
X75044Y-77013D01*
X75129Y-77041D01*
X75187Y-77099D01*
X75215Y-77156D01*
X75244Y-77270D01*
X75244Y-77356D01*
X75215Y-77470D01*
X75187Y-77527D01*
X75129Y-77584D01*
X75044Y-77613D01*
X74901Y-77613D01*
X75501Y-77556D02*
X75529Y-77584D01*
X75501Y-77613D01*
X75472Y-77584D01*
X75501Y-77556D01*
X75501Y-77613D01*
X75758Y-77441D02*
X76044Y-77441D01*
X75701Y-77613D02*
X75901Y-77013D01*
X76101Y-77613D01*
X76301Y-77556D02*
X76329Y-77584D01*
X76301Y-77613D01*
X76272Y-77584D01*
X76301Y-77556D01*
X76301Y-77613D01*
G54D11*
X104586Y-76413D02*
X104386Y-76127D01*
X104243Y-76413D02*
X104243Y-75813D01*
X104471Y-75813D01*
X104529Y-75841D01*
X104557Y-75870D01*
X104586Y-75927D01*
X104586Y-76013D01*
X104557Y-76070D01*
X104529Y-76099D01*
X104471Y-76127D01*
X104243Y-76127D01*
X105071Y-76384D02*
X105014Y-76413D01*
X104900Y-76413D01*
X104843Y-76384D01*
X104814Y-76327D01*
X104814Y-76099D01*
X104843Y-76041D01*
X104900Y-76013D01*
X105014Y-76013D01*
X105071Y-76041D01*
X105100Y-76099D01*
X105100Y-76156D01*
X104814Y-76213D01*
X105300Y-76013D02*
X105443Y-76413D01*
X105585Y-76013D01*
X105814Y-76356D02*
X105842Y-76384D01*
X105814Y-76413D01*
X105785Y-76384D01*
X105814Y-76356D01*
X105814Y-76413D01*
X105814Y-76041D02*
X105842Y-76070D01*
X105814Y-76099D01*
X105785Y-76070D01*
X105814Y-76041D01*
X105814Y-76099D01*
G54D10*
X71014Y-76384D02*
X71100Y-76413D01*
X71243Y-76413D01*
X71300Y-76384D01*
X71329Y-76356D01*
X71357Y-76299D01*
X71357Y-76241D01*
X71329Y-76184D01*
X71300Y-76156D01*
X71243Y-76127D01*
X71129Y-76099D01*
X71071Y-76070D01*
X71043Y-76041D01*
X71014Y-75984D01*
X71014Y-75927D01*
X71043Y-75870D01*
X71071Y-75841D01*
X71129Y-75813D01*
X71271Y-75813D01*
X71357Y-75841D01*
X71614Y-76413D02*
X71614Y-76013D01*
X71614Y-75813D02*
X71585Y-75841D01*
X71614Y-75870D01*
X71642Y-75841D01*
X71614Y-75813D01*
X71614Y-75870D01*
X71843Y-76013D02*
X72157Y-76013D01*
X71843Y-76413D01*
X72157Y-76413D01*
X72614Y-76384D02*
X72557Y-76413D01*
X72443Y-76413D01*
X72386Y-76384D01*
X72357Y-76327D01*
X72357Y-76099D01*
X72386Y-76041D01*
X72443Y-76013D01*
X72557Y-76013D01*
X72614Y-76041D01*
X72643Y-76099D01*
X72643Y-76156D01*
X72357Y-76213D01*
X72900Y-76356D02*
X72928Y-76384D01*
X72900Y-76413D01*
X72871Y-76384D01*
X72900Y-76356D01*
X72900Y-76413D01*
X72900Y-76041D02*
X72928Y-76070D01*
X72900Y-76099D01*
X72871Y-76070D01*
X72900Y-76041D01*
X72900Y-76099D01*
X73614Y-76241D02*
X73900Y-76241D01*
X73557Y-76413D02*
X73757Y-75813D01*
X73957Y-76413D01*
X74414Y-76013D02*
X74414Y-76413D01*
X74271Y-75784D02*
X74128Y-76213D01*
X74500Y-76213D01*
X104243Y-77613D02*
X104243Y-77013D01*
X104786Y-77613D02*
X104786Y-77013D01*
X104786Y-77584D02*
X104729Y-77613D01*
X104615Y-77613D01*
X104557Y-77584D01*
X104529Y-77556D01*
X104500Y-77499D01*
X104500Y-77327D01*
X104529Y-77270D01*
X104557Y-77241D01*
X104615Y-77213D01*
X104729Y-77213D01*
X104786Y-77241D01*
X105072Y-77556D02*
X105100Y-77584D01*
X105072Y-77613D01*
X105043Y-77584D01*
X105072Y-77556D01*
X105072Y-77613D01*
X105072Y-77241D02*
X105100Y-77270D01*
X105072Y-77299D01*
X105043Y-77270D01*
X105072Y-77241D01*
X105072Y-77299D01*
X106129Y-77613D02*
X105786Y-77613D01*
X105958Y-77613D02*
X105958Y-77013D01*
X105901Y-77099D01*
X105843Y-77156D01*
X105786Y-77184D01*
X106814Y-76984D02*
X106300Y-77756D01*
X107329Y-77613D02*
X106986Y-77613D01*
X107158Y-77613D02*
X107158Y-77013D01*
X107101Y-77099D01*
X107043Y-77156D01*
X106986Y-77184D01*
G54D11*
X70957Y-74613D02*
X71300Y-74613D01*
X71129Y-75213D02*
X71129Y-74613D01*
X71500Y-75213D02*
X71500Y-74813D01*
X71500Y-74613D02*
X71471Y-74641D01*
X71500Y-74670D01*
X71528Y-74641D01*
X71500Y-74613D01*
X71500Y-74670D01*
X71700Y-74813D02*
X71929Y-74813D01*
X71786Y-74613D02*
X71786Y-75127D01*
X71814Y-75184D01*
X71872Y-75213D01*
X71929Y-75213D01*
X72215Y-75213D02*
X72157Y-75184D01*
X72129Y-75127D01*
X72129Y-74613D01*
X72671Y-75184D02*
X72614Y-75213D01*
X72500Y-75213D01*
X72443Y-75184D01*
X72414Y-75127D01*
X72414Y-74899D01*
X72443Y-74841D01*
X72500Y-74813D01*
X72614Y-74813D01*
X72671Y-74841D01*
X72700Y-74899D01*
X72700Y-74956D01*
X72414Y-75013D01*
X72957Y-75156D02*
X72985Y-75184D01*
X72957Y-75213D01*
X72928Y-75184D01*
X72957Y-75156D01*
X72957Y-75213D01*
X72957Y-74841D02*
X72985Y-74870D01*
X72957Y-74899D01*
X72928Y-74870D01*
X72957Y-74841D01*
X72957Y-74899D01*
G54D10*
X71243Y-72499D02*
X71043Y-72499D01*
X71043Y-72813D02*
X71043Y-72213D01*
X71329Y-72213D01*
X71557Y-72813D02*
X71557Y-72413D01*
X71557Y-72213D02*
X71528Y-72241D01*
X71557Y-72270D01*
X71585Y-72241D01*
X71557Y-72213D01*
X71557Y-72270D01*
X71929Y-72813D02*
X71871Y-72784D01*
X71843Y-72727D01*
X71843Y-72213D01*
X72385Y-72784D02*
X72328Y-72813D01*
X72214Y-72813D01*
X72157Y-72784D01*
X72128Y-72727D01*
X72128Y-72499D01*
X72157Y-72441D01*
X72214Y-72413D01*
X72328Y-72413D01*
X72385Y-72441D01*
X72414Y-72499D01*
X72414Y-72556D01*
X72128Y-72613D01*
X72671Y-72756D02*
X72699Y-72784D01*
X72671Y-72813D01*
X72642Y-72784D01*
X72671Y-72756D01*
X72671Y-72813D01*
X72671Y-72441D02*
X72699Y-72470D01*
X72671Y-72499D01*
X72642Y-72470D01*
X72671Y-72441D01*
X72671Y-72499D01*
X73414Y-72813D02*
X73414Y-72213D01*
X73671Y-72270D02*
X73700Y-72241D01*
X73757Y-72213D01*
X73900Y-72213D01*
X73957Y-72241D01*
X73986Y-72270D01*
X74014Y-72327D01*
X74014Y-72384D01*
X73986Y-72470D01*
X73643Y-72813D01*
X74014Y-72813D01*
X74614Y-72756D02*
X74585Y-72784D01*
X74499Y-72813D01*
X74442Y-72813D01*
X74357Y-72784D01*
X74299Y-72727D01*
X74271Y-72670D01*
X74242Y-72556D01*
X74242Y-72470D01*
X74271Y-72356D01*
X74299Y-72299D01*
X74357Y-72241D01*
X74442Y-72213D01*
X74499Y-72213D01*
X74585Y-72241D01*
X74614Y-72270D01*
X74728Y-72870D02*
X75185Y-72870D01*
X75328Y-72813D02*
X75328Y-72213D01*
X75728Y-72213D02*
X75842Y-72213D01*
X75900Y-72241D01*
X75957Y-72299D01*
X75985Y-72413D01*
X75985Y-72613D01*
X75957Y-72727D01*
X75900Y-72784D01*
X75842Y-72813D01*
X75728Y-72813D01*
X75671Y-72784D01*
X75614Y-72727D01*
X75585Y-72613D01*
X75585Y-72413D01*
X75614Y-72299D01*
X75671Y-72241D01*
X75728Y-72213D01*
X76243Y-72756D02*
X76271Y-72784D01*
X76243Y-72813D01*
X76214Y-72784D01*
X76243Y-72756D01*
X76243Y-72813D01*
X76529Y-72813D02*
X76529Y-72213D01*
X76529Y-72441D02*
X76586Y-72413D01*
X76700Y-72413D01*
X76757Y-72441D01*
X76786Y-72470D01*
X76815Y-72527D01*
X76815Y-72699D01*
X76786Y-72756D01*
X76757Y-72784D01*
X76700Y-72813D01*
X76586Y-72813D01*
X76529Y-72784D01*
X77072Y-72813D02*
X77072Y-72413D01*
X77072Y-72527D02*
X77100Y-72470D01*
X77129Y-72441D01*
X77186Y-72413D01*
X77243Y-72413D01*
X77700Y-72813D02*
X77700Y-72213D01*
X77700Y-72784D02*
X77643Y-72813D01*
X77529Y-72813D01*
X77471Y-72784D01*
X77443Y-72756D01*
X77414Y-72699D01*
X77414Y-72527D01*
X77443Y-72470D01*
X77471Y-72441D01*
X77529Y-72413D01*
X77643Y-72413D01*
X77700Y-72441D01*
X71014Y-73984D02*
X71100Y-74013D01*
X71243Y-74013D01*
X71300Y-73984D01*
X71329Y-73956D01*
X71357Y-73899D01*
X71357Y-73841D01*
X71329Y-73784D01*
X71300Y-73756D01*
X71243Y-73727D01*
X71129Y-73699D01*
X71071Y-73670D01*
X71043Y-73641D01*
X71014Y-73584D01*
X71014Y-73527D01*
X71043Y-73470D01*
X71071Y-73441D01*
X71129Y-73413D01*
X71271Y-73413D01*
X71357Y-73441D01*
X71614Y-74013D02*
X71614Y-73413D01*
X71871Y-74013D02*
X71871Y-73699D01*
X71842Y-73641D01*
X71785Y-73613D01*
X71700Y-73613D01*
X71642Y-73641D01*
X71614Y-73670D01*
X72385Y-73984D02*
X72328Y-74013D01*
X72214Y-74013D01*
X72157Y-73984D01*
X72128Y-73927D01*
X72128Y-73699D01*
X72157Y-73641D01*
X72214Y-73613D01*
X72328Y-73613D01*
X72385Y-73641D01*
X72414Y-73699D01*
X72414Y-73756D01*
X72128Y-73813D01*
X72899Y-73984D02*
X72842Y-74013D01*
X72728Y-74013D01*
X72671Y-73984D01*
X72642Y-73927D01*
X72642Y-73699D01*
X72671Y-73641D01*
X72728Y-73613D01*
X72842Y-73613D01*
X72899Y-73641D01*
X72928Y-73699D01*
X72928Y-73756D01*
X72642Y-73813D01*
X73099Y-73613D02*
X73328Y-73613D01*
X73185Y-73413D02*
X73185Y-73927D01*
X73213Y-73984D01*
X73271Y-74013D01*
X73328Y-74013D01*
X73528Y-73956D02*
X73556Y-73984D01*
X73528Y-74013D01*
X73499Y-73984D01*
X73528Y-73956D01*
X73528Y-74013D01*
X73528Y-73641D02*
X73556Y-73670D01*
X73528Y-73699D01*
X73499Y-73670D01*
X73528Y-73641D01*
X73528Y-73699D01*
X74585Y-74013D02*
X74242Y-74013D01*
X74414Y-74013D02*
X74414Y-73413D01*
X74357Y-73499D01*
X74299Y-73556D01*
X74242Y-73584D01*
X75270Y-73384D02*
X74756Y-74156D01*
X75785Y-74013D02*
X75442Y-74013D01*
X75614Y-74013D02*
X75614Y-73413D01*
X75557Y-73499D01*
X75499Y-73556D01*
X75442Y-73584D01*
X70300Y-71970D02*
X70300Y-77970D01*
X70300Y-71970D02*
X112300Y-71970D01*
X70300Y-71970D02*
X112300Y-71970D01*
X70300Y-74370D02*
X112300Y-74370D01*
X103500Y-75570D02*
X103500Y-77970D01*
X70300Y-76770D02*
X112300Y-76770D01*
X70300Y-75570D02*
X112300Y-75570D01*
X76900Y-75570D02*
X76900Y-76770D01*
G54D11*
X50100Y-44400D02*
X50100Y-42600D01*
X50100Y-42600D02*
X57900Y-42600D01*
X57900Y-42600D02*
X57900Y-44400D01*
X57900Y-44400D02*
X50100Y-44400D01*
G54D12*
X54800Y-35950D02*
X54800Y-35050D01*
X54800Y-35050D02*
X54150Y-35050D01*
X53450Y-35950D02*
X52800Y-35950D01*
X52800Y-35950D02*
X52800Y-35050D01*
X52800Y-35050D02*
X53450Y-35050D01*
X54150Y-35950D02*
X54800Y-35950D01*
X54800Y-38450D02*
X54800Y-37550D01*
X54800Y-37550D02*
X54150Y-37550D01*
X53450Y-38450D02*
X52800Y-38450D01*
X52800Y-38450D02*
X52800Y-37550D01*
X52800Y-37550D02*
X53450Y-37550D01*
X54150Y-38450D02*
X54800Y-38450D01*
X54800Y-37200D02*
X54800Y-36300D01*
X54800Y-36300D02*
X54150Y-36300D01*
X53450Y-37200D02*
X52800Y-37200D01*
X52800Y-37200D02*
X52800Y-36300D01*
X52800Y-36300D02*
X53450Y-36300D01*
X54150Y-37200D02*
X54800Y-37200D01*
G54D13*
X52000Y-39250D02*
X52000Y-26250D01*
X50000Y-26250D02*
X50000Y-39250D01*
X50000Y-39250D02*
X52000Y-39250D01*
X52000Y-26250D02*
X50000Y-26250D01*
G54D12*
X56200Y-35000D02*
X56200Y-35050D01*
X56200Y-35050D02*
X58300Y-35050D01*
X58300Y-33550D02*
X56200Y-33550D01*
X56200Y-33550D02*
X56200Y-35000D01*
X56200Y-34100D02*
X56400Y-34100D01*
X56400Y-34100D02*
X56400Y-34500D01*
X56400Y-34500D02*
X56200Y-34500D01*
X58300Y-33550D02*
X58300Y-35050D01*
G54D14*
X68700Y-42850D02*
X64700Y-42850D01*
X68700Y-41850D02*
X64700Y-41850D01*
X64700Y-41850D02*
X64700Y-42850D01*
X68700Y-42850D02*
X68700Y-41850D01*
G54D15*
X68500Y-41250D02*
X68500Y-39250D01*
X68500Y-39250D02*
X56500Y-39250D01*
X56500Y-39250D02*
X56500Y-41250D01*
X56500Y-41250D02*
X68500Y-41250D01*
X63100Y-25800D02*
X61100Y-25800D01*
X61100Y-25800D02*
X61100Y-37800D01*
X61100Y-37800D02*
X63100Y-37800D01*
X63100Y-37800D02*
X63100Y-25800D01*
X65400Y-25800D02*
X63400Y-25800D01*
X63400Y-25800D02*
X63400Y-37800D01*
X63400Y-37800D02*
X65400Y-37800D01*
X65400Y-37800D02*
X65400Y-25800D01*
X67700Y-25800D02*
X65700Y-25800D01*
X65700Y-25800D02*
X65700Y-37800D01*
X65700Y-37800D02*
X67700Y-37800D01*
X67700Y-37800D02*
X67700Y-25800D01*
G54D16*
X57266Y-30420D02*
X57385Y-30420D01*
X57385Y-30420D02*
X57385Y-29908D01*
X57266Y-29908D02*
X57385Y-29908D01*
X57266Y-30420D02*
X57266Y-29908D01*
X57516Y-30420D02*
X57635Y-30420D01*
X57635Y-30420D02*
X57635Y-29908D01*
X57516Y-29908D02*
X57635Y-29908D01*
X57516Y-30420D02*
X57516Y-29908D01*
X57766Y-30420D02*
X57885Y-30420D01*
X57885Y-30420D02*
X57885Y-29908D01*
X57766Y-29908D02*
X57885Y-29908D01*
X57766Y-30420D02*
X57766Y-29908D01*
X58016Y-30420D02*
X58135Y-30420D01*
X58135Y-30420D02*
X58135Y-29908D01*
X58016Y-29908D02*
X58135Y-29908D01*
X58016Y-30420D02*
X58016Y-29908D01*
X58265Y-30420D02*
X58384Y-30420D01*
X58384Y-30420D02*
X58384Y-29908D01*
X58265Y-29908D02*
X58384Y-29908D01*
X58265Y-30420D02*
X58265Y-29908D01*
X58515Y-30420D02*
X58634Y-30420D01*
X58634Y-30420D02*
X58634Y-29908D01*
X58515Y-29908D02*
X58634Y-29908D01*
X58515Y-30420D02*
X58515Y-29908D01*
X58765Y-30420D02*
X58884Y-30420D01*
X58884Y-30420D02*
X58884Y-29908D01*
X58765Y-29908D02*
X58884Y-29908D01*
X58765Y-30420D02*
X58765Y-29908D01*
X59015Y-30420D02*
X59134Y-30420D01*
X59134Y-30420D02*
X59134Y-29908D01*
X59015Y-29908D02*
X59134Y-29908D01*
X59015Y-30420D02*
X59015Y-29908D01*
X59015Y-28492D02*
X59134Y-28492D01*
X59134Y-28492D02*
X59134Y-27980D01*
X59015Y-27980D02*
X59134Y-27980D01*
X59015Y-28492D02*
X59015Y-27980D01*
X58765Y-28492D02*
X58884Y-28492D01*
X58884Y-28492D02*
X58884Y-27980D01*
X58765Y-27980D02*
X58884Y-27980D01*
X58765Y-28492D02*
X58765Y-27980D01*
X58515Y-28492D02*
X58634Y-28492D01*
X58634Y-28492D02*
X58634Y-27980D01*
X58515Y-27980D02*
X58634Y-27980D01*
X58515Y-28492D02*
X58515Y-27980D01*
X58265Y-28492D02*
X58384Y-28492D01*
X58384Y-28492D02*
X58384Y-27980D01*
X58265Y-27980D02*
X58384Y-27980D01*
X58265Y-28492D02*
X58265Y-27980D01*
X58016Y-28492D02*
X58135Y-28492D01*
X58135Y-28492D02*
X58135Y-27980D01*
X58016Y-27980D02*
X58135Y-27980D01*
X58016Y-28492D02*
X58016Y-27980D01*
X57766Y-28492D02*
X57885Y-28492D01*
X57885Y-28492D02*
X57885Y-27980D01*
X57766Y-27980D02*
X57885Y-27980D01*
X57766Y-28492D02*
X57766Y-27980D01*
X57516Y-28492D02*
X57635Y-28492D01*
X57635Y-28492D02*
X57635Y-27980D01*
X57516Y-27980D02*
X57635Y-27980D01*
X57516Y-28492D02*
X57516Y-27980D01*
X57266Y-28492D02*
X57385Y-28492D01*
X57385Y-28492D02*
X57385Y-27980D01*
X57266Y-27980D02*
X57385Y-27980D01*
X57266Y-28492D02*
X57266Y-27980D01*
G54D13*
X57228Y-29928D02*
X57228Y-28472D01*
X59172Y-28472D02*
X59172Y-29928D01*
X57228Y-29928D02*
X59172Y-29928D01*
X59172Y-28472D02*
X57228Y-28472D01*
G54D17*
X57634Y-29613D02*
X57632Y-29629D01*
X57627Y-29644D01*
X57620Y-29658D01*
X57609Y-29671D01*
X57597Y-29681D01*
X57583Y-29689D01*
X57567Y-29694D01*
X57551Y-29695D01*
X57536Y-29694D01*
X57520Y-29689D01*
X57506Y-29682D01*
X57493Y-29672D01*
X57483Y-29659D01*
X57475Y-29645D01*
X57470Y-29630D01*
X57469Y-29614D01*
X57470Y-29599D01*
X57474Y-29583D01*
X57482Y-29569D01*
X57492Y-29556D01*
X57504Y-29545D01*
X57518Y-29537D01*
X57534Y-29532D01*
X57550Y-29531D01*
X57565Y-29532D01*
X57581Y-29536D01*
X57595Y-29543D01*
X57608Y-29553D01*
X57618Y-29566D01*
X57626Y-29580D01*
X57631Y-29595D01*
X57633Y-29611D01*
X57634Y-29613D01*
G54D16*
X63128Y-44597D02*
X63128Y-44517D01*
X63128Y-44517D02*
X62798Y-44517D01*
X62798Y-44597D02*
X62798Y-44517D01*
X63128Y-44597D02*
X62798Y-44597D01*
X63128Y-44341D02*
X63128Y-44261D01*
X63128Y-44261D02*
X62798Y-44261D01*
X62798Y-44341D02*
X62798Y-44261D01*
X63128Y-44341D02*
X62798Y-44341D01*
X63128Y-44085D02*
X63128Y-44005D01*
X63128Y-44005D02*
X62798Y-44005D01*
X62798Y-44085D02*
X62798Y-44005D01*
X63128Y-44085D02*
X62798Y-44085D01*
X63128Y-43829D02*
X63128Y-43749D01*
X63128Y-43749D02*
X62798Y-43749D01*
X62798Y-43829D02*
X62798Y-43749D01*
X63128Y-43829D02*
X62798Y-43829D01*
X63128Y-43573D02*
X63128Y-43493D01*
X63128Y-43493D02*
X62798Y-43493D01*
X62798Y-43573D02*
X62798Y-43493D01*
X63128Y-43573D02*
X62798Y-43573D01*
X63128Y-43317D02*
X63128Y-43237D01*
X63128Y-43237D02*
X62798Y-43237D01*
X62798Y-43317D02*
X62798Y-43237D01*
X63128Y-43317D02*
X62798Y-43317D01*
X63128Y-43063D02*
X63128Y-42983D01*
X63128Y-42983D02*
X62798Y-42983D01*
X62798Y-43063D02*
X62798Y-42983D01*
X63128Y-43063D02*
X62798Y-43063D01*
X63128Y-42807D02*
X63128Y-42727D01*
X63128Y-42727D02*
X62798Y-42727D01*
X62798Y-42807D02*
X62798Y-42727D01*
X63128Y-42807D02*
X62798Y-42807D01*
X63128Y-42551D02*
X63128Y-42471D01*
X63128Y-42471D02*
X62798Y-42471D01*
X62798Y-42551D02*
X62798Y-42471D01*
X63128Y-42551D02*
X62798Y-42551D01*
X63128Y-42295D02*
X63128Y-42215D01*
X63128Y-42215D02*
X62798Y-42215D01*
X62798Y-42295D02*
X62798Y-42215D01*
X63128Y-42295D02*
X62798Y-42295D01*
X63128Y-42039D02*
X63128Y-41959D01*
X63128Y-41959D02*
X62798Y-41959D01*
X62798Y-42039D02*
X62798Y-41959D01*
X63128Y-42039D02*
X62798Y-42039D01*
X63128Y-41783D02*
X63128Y-41703D01*
X63128Y-41703D02*
X62798Y-41703D01*
X62798Y-41783D02*
X62798Y-41703D01*
X63128Y-41783D02*
X62798Y-41783D01*
X61002Y-41783D02*
X61002Y-41703D01*
X61002Y-41703D02*
X60672Y-41703D01*
X60672Y-41783D02*
X60672Y-41703D01*
X61002Y-41783D02*
X60672Y-41783D01*
X61002Y-42039D02*
X61002Y-41959D01*
X61002Y-41959D02*
X60672Y-41959D01*
X60672Y-42039D02*
X60672Y-41959D01*
X61002Y-42039D02*
X60672Y-42039D01*
X61002Y-42295D02*
X61002Y-42215D01*
X61002Y-42215D02*
X60672Y-42215D01*
X60672Y-42295D02*
X60672Y-42215D01*
X61002Y-42295D02*
X60672Y-42295D01*
X61002Y-42551D02*
X61002Y-42471D01*
X61002Y-42471D02*
X60672Y-42471D01*
X60672Y-42551D02*
X60672Y-42471D01*
X61002Y-42551D02*
X60672Y-42551D01*
X61002Y-42807D02*
X61002Y-42727D01*
X61002Y-42727D02*
X60672Y-42727D01*
X60672Y-42807D02*
X60672Y-42727D01*
X61002Y-42807D02*
X60672Y-42807D01*
X61002Y-43063D02*
X61002Y-42983D01*
X61002Y-42983D02*
X60672Y-42983D01*
X60672Y-43063D02*
X60672Y-42983D01*
X61002Y-43063D02*
X60672Y-43063D01*
X61002Y-43317D02*
X61002Y-43237D01*
X61002Y-43237D02*
X60672Y-43237D01*
X60672Y-43317D02*
X60672Y-43237D01*
X61002Y-43317D02*
X60672Y-43317D01*
X61002Y-43573D02*
X61002Y-43493D01*
X61002Y-43493D02*
X60672Y-43493D01*
X60672Y-43573D02*
X60672Y-43493D01*
X61002Y-43573D02*
X60672Y-43573D01*
X61002Y-43829D02*
X61002Y-43749D01*
X61002Y-43749D02*
X60672Y-43749D01*
X60672Y-43829D02*
X60672Y-43749D01*
X61002Y-43829D02*
X60672Y-43829D01*
X61002Y-44085D02*
X61002Y-44005D01*
X61002Y-44005D02*
X60672Y-44005D01*
X60672Y-44085D02*
X60672Y-44005D01*
X61002Y-44085D02*
X60672Y-44085D01*
X61002Y-44341D02*
X61002Y-44261D01*
X61002Y-44261D02*
X60672Y-44261D01*
X60672Y-44341D02*
X60672Y-44261D01*
X61002Y-44341D02*
X60672Y-44341D01*
X61002Y-44597D02*
X61002Y-44517D01*
X61002Y-44517D02*
X60672Y-44517D01*
X60672Y-44597D02*
X60672Y-44517D01*
X61002Y-44597D02*
X60672Y-44597D01*
G54D10*
X62798Y-44651D02*
X62798Y-41649D01*
X61002Y-41649D02*
X62798Y-41649D01*
X61002Y-41649D02*
X61002Y-44651D01*
X62798Y-44651D02*
X61002Y-44651D01*
G54D18*
X62708Y-44561D02*
X62708Y-41739D01*
X61092Y-41739D02*
X62708Y-41739D01*
X61092Y-41739D02*
X61092Y-44561D01*
X62708Y-44561D02*
X61092Y-44561D01*
G54D19*
X62507Y-44301D02*
X62504Y-44325D01*
X62497Y-44349D01*
X62485Y-44371D01*
X62470Y-44390D01*
X62451Y-44406D01*
X62429Y-44418D01*
X62405Y-44425D01*
X62380Y-44427D01*
X62357Y-44425D01*
X62333Y-44418D01*
X62311Y-44407D01*
X62292Y-44391D01*
X62276Y-44372D01*
X62264Y-44351D01*
X62256Y-44327D01*
X62254Y-44302D01*
X62256Y-44279D01*
X62262Y-44255D01*
X62274Y-44233D01*
X62289Y-44213D01*
X62308Y-44197D01*
X62330Y-44185D01*
X62353Y-44177D01*
X62378Y-44175D01*
X62402Y-44176D01*
X62425Y-44183D01*
X62448Y-44194D01*
X62467Y-44210D01*
X62483Y-44228D01*
X62496Y-44250D01*
X62503Y-44273D01*
X62506Y-44298D01*
X62507Y-44301D01*
G54D11*
X68500Y-38250D02*
X68500Y-39250D01*
X68500Y-39250D02*
X62500Y-39250D01*
X62500Y-39250D02*
X62500Y-38250D01*
X62500Y-38250D02*
X68500Y-38250D01*
X67500Y-38250D02*
X67500Y-39250D01*
X67750Y-31800D02*
X68750Y-31800D01*
X68750Y-31800D02*
X68750Y-37800D01*
X68750Y-37800D02*
X67750Y-37800D01*
X67750Y-37800D02*
X67750Y-31800D01*
X67750Y-32800D02*
X68750Y-32800D01*
X64700Y-42850D02*
X68700Y-42850D01*
X68700Y-42850D02*
X68700Y-44850D01*
X68700Y-44850D02*
X64700Y-44850D01*
X64700Y-44850D02*
X64700Y-42850D01*
X62500Y-38250D02*
X62500Y-39250D01*
X62500Y-39250D02*
X56500Y-39250D01*
X56500Y-39250D02*
X56500Y-38250D01*
X56500Y-38250D02*
X62500Y-38250D01*
X61500Y-38250D02*
X61500Y-39250D01*
X67750Y-25800D02*
X68750Y-25800D01*
X68750Y-25800D02*
X68750Y-31800D01*
X68750Y-31800D02*
X67750Y-31800D01*
X67750Y-31800D02*
X67750Y-25800D01*
X67750Y-26800D02*
X68750Y-26800D01*
G54D13*
X58205Y-43662D02*
X58205Y-43262D01*
X58358Y-43262D01*
X58396Y-43281D01*
X58415Y-43300D01*
X58434Y-43338D01*
X58434Y-43395D01*
X58415Y-43433D01*
X58396Y-43452D01*
X58358Y-43471D01*
X58205Y-43471D01*
X58567Y-43262D02*
X58815Y-43262D01*
X58681Y-43414D01*
X58739Y-43414D01*
X58777Y-43433D01*
X58796Y-43452D01*
X58815Y-43490D01*
X58815Y-43586D01*
X58796Y-43624D01*
X58777Y-43643D01*
X58739Y-43662D01*
X58624Y-43662D01*
X58586Y-43643D01*
X58567Y-43624D01*
X52772Y-44924D02*
X52753Y-44943D01*
X52696Y-44962D01*
X52658Y-44962D01*
X52600Y-44943D01*
X52562Y-44905D01*
X52543Y-44867D01*
X52524Y-44790D01*
X52524Y-44733D01*
X52543Y-44657D01*
X52562Y-44619D01*
X52600Y-44581D01*
X52658Y-44562D01*
X52696Y-44562D01*
X52753Y-44581D01*
X52772Y-44600D01*
X53019Y-44562D02*
X53096Y-44562D01*
X53134Y-44581D01*
X53172Y-44619D01*
X53191Y-44695D01*
X53191Y-44829D01*
X53172Y-44905D01*
X53134Y-44943D01*
X53096Y-44962D01*
X53019Y-44962D01*
X52981Y-44943D01*
X52943Y-44905D01*
X52924Y-44829D01*
X52924Y-44695D01*
X52943Y-44619D01*
X52981Y-44581D01*
X53019Y-44562D01*
X53362Y-44962D02*
X53362Y-44562D01*
X53591Y-44962D01*
X53591Y-44562D01*
X53781Y-44962D02*
X53781Y-44562D01*
X54010Y-44962D01*
X54010Y-44562D01*
X54105Y-45000D02*
X54410Y-45000D01*
X54562Y-44733D02*
X54524Y-44714D01*
X54505Y-44695D01*
X54486Y-44657D01*
X54486Y-44638D01*
X54505Y-44600D01*
X54524Y-44581D01*
X54562Y-44562D01*
X54639Y-44562D01*
X54677Y-44581D01*
X54696Y-44600D01*
X54715Y-44638D01*
X54715Y-44657D01*
X54696Y-44695D01*
X54677Y-44714D01*
X54639Y-44733D01*
X54562Y-44733D01*
X54524Y-44752D01*
X54505Y-44771D01*
X54486Y-44810D01*
X54486Y-44886D01*
X54505Y-44924D01*
X54524Y-44943D01*
X54562Y-44962D01*
X54639Y-44962D01*
X54677Y-44943D01*
X54696Y-44924D01*
X54715Y-44886D01*
X54715Y-44810D01*
X54696Y-44771D01*
X54677Y-44752D01*
X54639Y-44733D01*
X54848Y-44562D02*
X55115Y-44962D01*
X55115Y-44562D02*
X54848Y-44962D01*
X55248Y-44600D02*
X55267Y-44581D01*
X55305Y-44562D01*
X55401Y-44562D01*
X55439Y-44581D01*
X55458Y-44600D01*
X55477Y-44638D01*
X55477Y-44676D01*
X55458Y-44733D01*
X55229Y-44962D01*
X55477Y-44962D01*
G54D12*
X55150Y-35321D02*
X55050Y-35179D01*
X54978Y-35321D02*
X54978Y-35021D01*
X55093Y-35021D01*
X55121Y-35036D01*
X55136Y-35050D01*
X55150Y-35079D01*
X55150Y-35121D01*
X55136Y-35150D01*
X55121Y-35164D01*
X55093Y-35179D01*
X54978Y-35179D01*
X55250Y-35021D02*
X55450Y-35021D01*
X55321Y-35321D01*
X55150Y-37871D02*
X55050Y-37729D01*
X54978Y-37871D02*
X54978Y-37571D01*
X55093Y-37571D01*
X55121Y-37586D01*
X55136Y-37600D01*
X55150Y-37629D01*
X55150Y-37671D01*
X55136Y-37700D01*
X55121Y-37714D01*
X55093Y-37729D01*
X54978Y-37729D01*
X55264Y-37600D02*
X55278Y-37586D01*
X55307Y-37571D01*
X55378Y-37571D01*
X55407Y-37586D01*
X55421Y-37600D01*
X55436Y-37629D01*
X55436Y-37657D01*
X55421Y-37700D01*
X55250Y-37871D01*
X55436Y-37871D01*
X55150Y-36671D02*
X55050Y-36529D01*
X54978Y-36671D02*
X54978Y-36371D01*
X55093Y-36371D01*
X55121Y-36386D01*
X55136Y-36400D01*
X55150Y-36429D01*
X55150Y-36471D01*
X55136Y-36500D01*
X55121Y-36514D01*
X55093Y-36529D01*
X54978Y-36529D01*
X55436Y-36671D02*
X55264Y-36671D01*
X55350Y-36671D02*
X55350Y-36371D01*
X55321Y-36414D01*
X55293Y-36443D01*
X55264Y-36457D01*
G54D13*
X52612Y-34045D02*
X52212Y-34045D01*
X52212Y-33892D01*
X52231Y-33854D01*
X52250Y-33835D01*
X52288Y-33816D01*
X52345Y-33816D01*
X52383Y-33835D01*
X52402Y-33854D01*
X52421Y-33892D01*
X52421Y-34045D01*
X52250Y-33664D02*
X52231Y-33645D01*
X52212Y-33607D01*
X52212Y-33511D01*
X52231Y-33473D01*
X52250Y-33454D01*
X52288Y-33435D01*
X52326Y-33435D01*
X52383Y-33454D01*
X52612Y-33683D01*
X52612Y-33435D01*
X52424Y-32619D02*
X52443Y-32638D01*
X52462Y-32695D01*
X52462Y-32733D01*
X52443Y-32791D01*
X52405Y-32829D01*
X52367Y-32848D01*
X52290Y-32867D01*
X52233Y-32867D01*
X52157Y-32848D01*
X52119Y-32829D01*
X52081Y-32791D01*
X52062Y-32733D01*
X52062Y-32695D01*
X52081Y-32638D01*
X52100Y-32619D01*
X52062Y-32372D02*
X52062Y-32295D01*
X52081Y-32257D01*
X52119Y-32219D01*
X52195Y-32200D01*
X52329Y-32200D01*
X52405Y-32219D01*
X52443Y-32257D01*
X52462Y-32295D01*
X52462Y-32372D01*
X52443Y-32410D01*
X52405Y-32448D01*
X52329Y-32467D01*
X52195Y-32467D01*
X52119Y-32448D01*
X52081Y-32410D01*
X52062Y-32372D01*
X52462Y-32029D02*
X52062Y-32029D01*
X52462Y-31800D01*
X52062Y-31800D01*
X52462Y-31610D02*
X52062Y-31610D01*
X52462Y-31381D01*
X52062Y-31381D01*
X52500Y-31286D02*
X52500Y-30981D01*
X52462Y-30676D02*
X52462Y-30905D01*
X52462Y-30791D02*
X52062Y-30791D01*
X52119Y-30829D01*
X52157Y-30867D01*
X52176Y-30905D01*
X52062Y-30543D02*
X52062Y-30295D01*
X52214Y-30429D01*
X52214Y-30371D01*
X52233Y-30333D01*
X52252Y-30314D01*
X52290Y-30295D01*
X52386Y-30295D01*
X52424Y-30314D01*
X52443Y-30333D01*
X52462Y-30371D01*
X52462Y-30486D01*
X52443Y-30524D01*
X52424Y-30543D01*
X52062Y-30162D02*
X52462Y-29895D01*
X52062Y-29895D02*
X52462Y-30162D01*
X52100Y-29762D02*
X52081Y-29743D01*
X52062Y-29705D01*
X52062Y-29609D01*
X52081Y-29571D01*
X52100Y-29552D01*
X52138Y-29533D01*
X52176Y-29533D01*
X52233Y-29552D01*
X52462Y-29781D01*
X52462Y-29533D01*
G54D10*
X55582Y-34243D02*
X55946Y-34243D01*
X55989Y-34221D01*
X56011Y-34200D01*
X56032Y-34157D01*
X56032Y-34071D01*
X56011Y-34029D01*
X55989Y-34007D01*
X55946Y-33986D01*
X55582Y-33986D01*
X55775Y-33708D02*
X55754Y-33750D01*
X55732Y-33772D01*
X55689Y-33793D01*
X55668Y-33793D01*
X55625Y-33772D01*
X55604Y-33750D01*
X55582Y-33708D01*
X55582Y-33622D01*
X55604Y-33579D01*
X55625Y-33558D01*
X55668Y-33536D01*
X55689Y-33536D01*
X55732Y-33558D01*
X55754Y-33579D01*
X55775Y-33622D01*
X55775Y-33708D01*
X55796Y-33750D01*
X55818Y-33772D01*
X55861Y-33793D01*
X55946Y-33793D01*
X55989Y-33772D01*
X56011Y-33750D01*
X56032Y-33708D01*
X56032Y-33622D01*
X56011Y-33579D01*
X55989Y-33558D01*
X55946Y-33536D01*
X55861Y-33536D01*
X55818Y-33558D01*
X55796Y-33579D01*
X55775Y-33622D01*
X56151Y-34842D02*
X56151Y-34492D01*
X56235Y-34492D01*
X56285Y-34508D01*
X56318Y-34542D01*
X56335Y-34575D01*
X56351Y-34642D01*
X56351Y-34692D01*
X56335Y-34758D01*
X56318Y-34792D01*
X56285Y-34825D01*
X56235Y-34842D01*
X56151Y-34842D01*
X56485Y-34825D02*
X56535Y-34842D01*
X56618Y-34842D01*
X56651Y-34825D01*
X56668Y-34808D01*
X56685Y-34775D01*
X56685Y-34742D01*
X56668Y-34708D01*
X56651Y-34692D01*
X56618Y-34675D01*
X56551Y-34658D01*
X56518Y-34642D01*
X56501Y-34625D01*
X56485Y-34592D01*
X56485Y-34558D01*
X56501Y-34525D01*
X56518Y-34508D01*
X56551Y-34492D01*
X56635Y-34492D01*
X56685Y-34508D01*
X57018Y-34842D02*
X56818Y-34842D01*
X56918Y-34842D02*
X56918Y-34492D01*
X56884Y-34542D01*
X56851Y-34575D01*
X56818Y-34592D01*
X57217Y-34642D02*
X57184Y-34625D01*
X57167Y-34608D01*
X57151Y-34575D01*
X57151Y-34558D01*
X57167Y-34525D01*
X57184Y-34508D01*
X57217Y-34492D01*
X57284Y-34492D01*
X57317Y-34508D01*
X57334Y-34525D01*
X57351Y-34558D01*
X57351Y-34575D01*
X57334Y-34608D01*
X57317Y-34625D01*
X57284Y-34642D01*
X57217Y-34642D01*
X57184Y-34658D01*
X57167Y-34675D01*
X57151Y-34708D01*
X57151Y-34775D01*
X57167Y-34808D01*
X57184Y-34825D01*
X57217Y-34842D01*
X57284Y-34842D01*
X57317Y-34825D01*
X57334Y-34808D01*
X57351Y-34775D01*
X57351Y-34708D01*
X57334Y-34675D01*
X57317Y-34658D01*
X57284Y-34642D01*
X57617Y-34658D02*
X57667Y-34675D01*
X57684Y-34692D01*
X57700Y-34725D01*
X57700Y-34775D01*
X57684Y-34808D01*
X57667Y-34825D01*
X57634Y-34842D01*
X57500Y-34842D01*
X57500Y-34492D01*
X57617Y-34492D01*
X57650Y-34508D01*
X57667Y-34525D01*
X57684Y-34558D01*
X57684Y-34592D01*
X57667Y-34625D01*
X57650Y-34642D01*
X57617Y-34658D01*
X57500Y-34658D01*
X57834Y-34525D02*
X57850Y-34508D01*
X57884Y-34492D01*
X57967Y-34492D01*
X58000Y-34508D01*
X58017Y-34525D01*
X58034Y-34558D01*
X58034Y-34592D01*
X58017Y-34642D01*
X57817Y-34842D01*
X58034Y-34842D01*
X58250Y-34492D02*
X58283Y-34492D01*
X58317Y-34508D01*
X58333Y-34525D01*
X58350Y-34558D01*
X58367Y-34625D01*
X58367Y-34708D01*
X58350Y-34775D01*
X58333Y-34808D01*
X58317Y-34825D01*
X58283Y-34842D01*
X58250Y-34842D01*
X58217Y-34825D01*
X58200Y-34808D01*
X58183Y-34775D01*
X58167Y-34708D01*
X58167Y-34625D01*
X58183Y-34558D01*
X58200Y-34525D01*
X58217Y-34508D01*
X58250Y-34492D01*
X54768Y-40582D02*
X54768Y-40132D01*
X54940Y-40132D01*
X54982Y-40154D01*
X55004Y-40175D01*
X55025Y-40218D01*
X55025Y-40282D01*
X55004Y-40325D01*
X54982Y-40346D01*
X54940Y-40368D01*
X54768Y-40368D01*
X55411Y-40132D02*
X55325Y-40132D01*
X55282Y-40154D01*
X55261Y-40175D01*
X55218Y-40239D01*
X55197Y-40325D01*
X55197Y-40496D01*
X55218Y-40539D01*
X55240Y-40561D01*
X55282Y-40582D01*
X55368Y-40582D01*
X55411Y-40561D01*
X55432Y-40539D01*
X55454Y-40496D01*
X55454Y-40389D01*
X55432Y-40346D01*
X55411Y-40325D01*
X55368Y-40304D01*
X55282Y-40304D01*
X55240Y-40325D01*
X55218Y-40346D01*
X55197Y-40389D01*
X50675Y-41960D02*
X50659Y-41977D01*
X50609Y-41994D01*
X50575Y-41994D01*
X50525Y-41977D01*
X50492Y-41944D01*
X50475Y-41910D01*
X50459Y-41844D01*
X50459Y-41794D01*
X50475Y-41727D01*
X50492Y-41694D01*
X50525Y-41660D01*
X50575Y-41644D01*
X50609Y-41644D01*
X50659Y-41660D01*
X50675Y-41677D01*
X50892Y-41644D02*
X50959Y-41644D01*
X50992Y-41660D01*
X51025Y-41694D01*
X51042Y-41760D01*
X51042Y-41877D01*
X51025Y-41944D01*
X50992Y-41977D01*
X50959Y-41994D01*
X50892Y-41994D01*
X50859Y-41977D01*
X50825Y-41944D01*
X50809Y-41877D01*
X50809Y-41760D01*
X50825Y-41694D01*
X50859Y-41660D01*
X50892Y-41644D01*
X51192Y-41994D02*
X51192Y-41644D01*
X51392Y-41994D01*
X51392Y-41644D01*
X51559Y-41994D02*
X51559Y-41644D01*
X51759Y-41994D01*
X51759Y-41644D01*
X51843Y-42027D02*
X52110Y-42027D01*
X52210Y-41994D02*
X52277Y-41994D01*
X52310Y-41977D01*
X52327Y-41960D01*
X52360Y-41910D01*
X52377Y-41844D01*
X52377Y-41710D01*
X52360Y-41677D01*
X52343Y-41660D01*
X52310Y-41644D01*
X52243Y-41644D01*
X52210Y-41660D01*
X52193Y-41677D01*
X52177Y-41710D01*
X52177Y-41794D01*
X52193Y-41827D01*
X52210Y-41844D01*
X52243Y-41860D01*
X52310Y-41860D01*
X52343Y-41844D01*
X52360Y-41827D01*
X52377Y-41794D01*
X52493Y-41644D02*
X52726Y-41994D01*
X52726Y-41644D02*
X52493Y-41994D01*
X52843Y-41677D02*
X52859Y-41660D01*
X52893Y-41644D01*
X52976Y-41644D01*
X53009Y-41660D01*
X53026Y-41677D01*
X53043Y-41710D01*
X53043Y-41744D01*
X53026Y-41794D01*
X52826Y-41994D01*
X53043Y-41994D01*
G54D13*
X66405Y-41512D02*
X66405Y-41112D01*
X66558Y-41112D01*
X66596Y-41131D01*
X66615Y-41150D01*
X66634Y-41188D01*
X66634Y-41245D01*
X66615Y-41283D01*
X66596Y-41302D01*
X66558Y-41321D01*
X66405Y-41321D01*
X66767Y-41112D02*
X67034Y-41112D01*
X66862Y-41512D01*
G54D14*
X62205Y-41912D02*
X62205Y-41512D01*
X62358Y-41512D01*
X62396Y-41531D01*
X62415Y-41550D01*
X62434Y-41588D01*
X62434Y-41645D01*
X62415Y-41683D01*
X62396Y-41702D01*
X62358Y-41721D01*
X62205Y-41721D01*
X62662Y-41683D02*
X62624Y-41664D01*
X62605Y-41645D01*
X62586Y-41607D01*
X62586Y-41588D01*
X62605Y-41550D01*
X62624Y-41531D01*
X62662Y-41512D01*
X62739Y-41512D01*
X62777Y-41531D01*
X62796Y-41550D01*
X62815Y-41588D01*
X62815Y-41607D01*
X62796Y-41645D01*
X62777Y-41664D01*
X62739Y-41683D01*
X62662Y-41683D01*
X62624Y-41702D01*
X62605Y-41721D01*
X62586Y-41760D01*
X62586Y-41836D01*
X62605Y-41874D01*
X62624Y-41893D01*
X62662Y-41912D01*
X62739Y-41912D01*
X62777Y-41893D01*
X62796Y-41874D01*
X62815Y-41836D01*
X62815Y-41760D01*
X62796Y-41721D01*
X62777Y-41702D01*
X62739Y-41683D01*
G54D13*
X61081Y-38874D02*
X61062Y-38893D01*
X61005Y-38912D01*
X60967Y-38912D01*
X60909Y-38893D01*
X60871Y-38855D01*
X60852Y-38817D01*
X60833Y-38740D01*
X60833Y-38683D01*
X60852Y-38607D01*
X60871Y-38569D01*
X60909Y-38531D01*
X60967Y-38512D01*
X61005Y-38512D01*
X61062Y-38531D01*
X61081Y-38550D01*
X61328Y-38512D02*
X61405Y-38512D01*
X61443Y-38531D01*
X61481Y-38569D01*
X61500Y-38645D01*
X61500Y-38779D01*
X61481Y-38855D01*
X61443Y-38893D01*
X61405Y-38912D01*
X61328Y-38912D01*
X61290Y-38893D01*
X61252Y-38855D01*
X61233Y-38779D01*
X61233Y-38645D01*
X61252Y-38569D01*
X61290Y-38531D01*
X61328Y-38512D01*
X61671Y-38912D02*
X61671Y-38512D01*
X61900Y-38912D01*
X61900Y-38512D01*
X62090Y-38912D02*
X62090Y-38512D01*
X62319Y-38912D01*
X62319Y-38512D01*
X62414Y-38950D02*
X62719Y-38950D01*
X63024Y-38912D02*
X62795Y-38912D01*
X62909Y-38912D02*
X62909Y-38512D01*
X62871Y-38569D01*
X62833Y-38607D01*
X62795Y-38626D01*
X63176Y-38550D02*
X63195Y-38531D01*
X63233Y-38512D01*
X63329Y-38512D01*
X63367Y-38531D01*
X63386Y-38550D01*
X63405Y-38588D01*
X63405Y-38626D01*
X63386Y-38683D01*
X63157Y-38912D01*
X63405Y-38912D01*
X63538Y-38512D02*
X63805Y-38912D01*
X63805Y-38512D02*
X63538Y-38912D01*
X63938Y-38550D02*
X63957Y-38531D01*
X63995Y-38512D01*
X64091Y-38512D01*
X64129Y-38531D01*
X64148Y-38550D01*
X64167Y-38588D01*
X64167Y-38626D01*
X64148Y-38683D01*
X63919Y-38912D01*
X64167Y-38912D01*
G54D14*
X63762Y-32286D02*
X63362Y-32286D01*
X63362Y-32133D01*
X63381Y-32095D01*
X63400Y-32076D01*
X63438Y-32057D01*
X63495Y-32057D01*
X63533Y-32076D01*
X63552Y-32095D01*
X63571Y-32133D01*
X63571Y-32286D01*
X63762Y-31676D02*
X63762Y-31905D01*
X63762Y-31791D02*
X63362Y-31791D01*
X63419Y-31829D01*
X63457Y-31867D01*
X63476Y-31905D01*
X63362Y-31429D02*
X63362Y-31390D01*
X63381Y-31352D01*
X63400Y-31333D01*
X63438Y-31314D01*
X63514Y-31295D01*
X63610Y-31295D01*
X63686Y-31314D01*
X63724Y-31333D01*
X63743Y-31352D01*
X63762Y-31390D01*
X63762Y-31429D01*
X63743Y-31467D01*
X63724Y-31486D01*
X63686Y-31505D01*
X63610Y-31524D01*
X63514Y-31524D01*
X63438Y-31505D01*
X63400Y-31486D01*
X63381Y-31467D01*
X63362Y-31429D01*
G54D13*
X60724Y-33219D02*
X60743Y-33238D01*
X60762Y-33295D01*
X60762Y-33333D01*
X60743Y-33391D01*
X60705Y-33429D01*
X60667Y-33448D01*
X60590Y-33467D01*
X60533Y-33467D01*
X60457Y-33448D01*
X60419Y-33429D01*
X60381Y-33391D01*
X60362Y-33333D01*
X60362Y-33295D01*
X60381Y-33238D01*
X60400Y-33219D01*
X60362Y-32972D02*
X60362Y-32895D01*
X60381Y-32857D01*
X60419Y-32819D01*
X60495Y-32800D01*
X60629Y-32800D01*
X60705Y-32819D01*
X60743Y-32857D01*
X60762Y-32895D01*
X60762Y-32972D01*
X60743Y-33010D01*
X60705Y-33048D01*
X60629Y-33067D01*
X60495Y-33067D01*
X60419Y-33048D01*
X60381Y-33010D01*
X60362Y-32972D01*
X60762Y-32629D02*
X60362Y-32629D01*
X60762Y-32400D01*
X60362Y-32400D01*
X60762Y-32210D02*
X60362Y-32210D01*
X60762Y-31981D01*
X60362Y-31981D01*
X60800Y-31886D02*
X60800Y-31581D01*
X60762Y-31276D02*
X60762Y-31505D01*
X60762Y-31391D02*
X60362Y-31391D01*
X60419Y-31429D01*
X60457Y-31467D01*
X60476Y-31505D01*
X60400Y-31124D02*
X60381Y-31105D01*
X60362Y-31067D01*
X60362Y-30971D01*
X60381Y-30933D01*
X60400Y-30914D01*
X60438Y-30895D01*
X60476Y-30895D01*
X60533Y-30914D01*
X60762Y-31143D01*
X60762Y-30895D01*
X60362Y-30762D02*
X60762Y-30495D01*
X60362Y-30495D02*
X60762Y-30762D01*
X60400Y-30362D02*
X60381Y-30343D01*
X60362Y-30305D01*
X60362Y-30209D01*
X60381Y-30171D01*
X60400Y-30152D01*
X60438Y-30133D01*
X60476Y-30133D01*
X60533Y-30152D01*
X60762Y-30381D01*
X60762Y-30133D01*
G54D14*
X66062Y-32286D02*
X65662Y-32286D01*
X65662Y-32133D01*
X65681Y-32095D01*
X65700Y-32076D01*
X65738Y-32057D01*
X65795Y-32057D01*
X65833Y-32076D01*
X65852Y-32095D01*
X65871Y-32133D01*
X65871Y-32286D01*
X66062Y-31676D02*
X66062Y-31905D01*
X66062Y-31791D02*
X65662Y-31791D01*
X65719Y-31829D01*
X65757Y-31867D01*
X65776Y-31905D01*
X66062Y-31295D02*
X66062Y-31524D01*
X66062Y-31410D02*
X65662Y-31410D01*
X65719Y-31448D01*
X65757Y-31486D01*
X65776Y-31524D01*
G54D13*
X63024Y-33219D02*
X63043Y-33238D01*
X63062Y-33295D01*
X63062Y-33333D01*
X63043Y-33391D01*
X63005Y-33429D01*
X62967Y-33448D01*
X62890Y-33467D01*
X62833Y-33467D01*
X62757Y-33448D01*
X62719Y-33429D01*
X62681Y-33391D01*
X62662Y-33333D01*
X62662Y-33295D01*
X62681Y-33238D01*
X62700Y-33219D01*
X62662Y-32972D02*
X62662Y-32895D01*
X62681Y-32857D01*
X62719Y-32819D01*
X62795Y-32800D01*
X62929Y-32800D01*
X63005Y-32819D01*
X63043Y-32857D01*
X63062Y-32895D01*
X63062Y-32972D01*
X63043Y-33010D01*
X63005Y-33048D01*
X62929Y-33067D01*
X62795Y-33067D01*
X62719Y-33048D01*
X62681Y-33010D01*
X62662Y-32972D01*
X63062Y-32629D02*
X62662Y-32629D01*
X63062Y-32400D01*
X62662Y-32400D01*
X63062Y-32210D02*
X62662Y-32210D01*
X63062Y-31981D01*
X62662Y-31981D01*
X63100Y-31886D02*
X63100Y-31581D01*
X63062Y-31276D02*
X63062Y-31505D01*
X63062Y-31391D02*
X62662Y-31391D01*
X62719Y-31429D01*
X62757Y-31467D01*
X62776Y-31505D01*
X62700Y-31124D02*
X62681Y-31105D01*
X62662Y-31067D01*
X62662Y-30971D01*
X62681Y-30933D01*
X62700Y-30914D01*
X62738Y-30895D01*
X62776Y-30895D01*
X62833Y-30914D01*
X63062Y-31143D01*
X63062Y-30895D01*
X62662Y-30762D02*
X63062Y-30495D01*
X62662Y-30495D02*
X63062Y-30762D01*
X62700Y-30362D02*
X62681Y-30343D01*
X62662Y-30305D01*
X62662Y-30209D01*
X62681Y-30171D01*
X62700Y-30152D01*
X62738Y-30133D01*
X62776Y-30133D01*
X62833Y-30152D01*
X63062Y-30381D01*
X63062Y-30133D01*
G54D14*
X68362Y-32286D02*
X67962Y-32286D01*
X67962Y-32133D01*
X67981Y-32095D01*
X68000Y-32076D01*
X68038Y-32057D01*
X68095Y-32057D01*
X68133Y-32076D01*
X68152Y-32095D01*
X68171Y-32133D01*
X68171Y-32286D01*
X68362Y-31676D02*
X68362Y-31905D01*
X68362Y-31791D02*
X67962Y-31791D01*
X68019Y-31829D01*
X68057Y-31867D01*
X68076Y-31905D01*
X68000Y-31524D02*
X67981Y-31505D01*
X67962Y-31467D01*
X67962Y-31371D01*
X67981Y-31333D01*
X68000Y-31314D01*
X68038Y-31295D01*
X68076Y-31295D01*
X68133Y-31314D01*
X68362Y-31543D01*
X68362Y-31295D01*
G54D13*
X65324Y-33219D02*
X65343Y-33238D01*
X65362Y-33295D01*
X65362Y-33333D01*
X65343Y-33391D01*
X65305Y-33429D01*
X65267Y-33448D01*
X65190Y-33467D01*
X65133Y-33467D01*
X65057Y-33448D01*
X65019Y-33429D01*
X64981Y-33391D01*
X64962Y-33333D01*
X64962Y-33295D01*
X64981Y-33238D01*
X65000Y-33219D01*
X64962Y-32972D02*
X64962Y-32895D01*
X64981Y-32857D01*
X65019Y-32819D01*
X65095Y-32800D01*
X65229Y-32800D01*
X65305Y-32819D01*
X65343Y-32857D01*
X65362Y-32895D01*
X65362Y-32972D01*
X65343Y-33010D01*
X65305Y-33048D01*
X65229Y-33067D01*
X65095Y-33067D01*
X65019Y-33048D01*
X64981Y-33010D01*
X64962Y-32972D01*
X65362Y-32629D02*
X64962Y-32629D01*
X65362Y-32400D01*
X64962Y-32400D01*
X65362Y-32210D02*
X64962Y-32210D01*
X65362Y-31981D01*
X64962Y-31981D01*
X65400Y-31886D02*
X65400Y-31581D01*
X65362Y-31276D02*
X65362Y-31505D01*
X65362Y-31391D02*
X64962Y-31391D01*
X65019Y-31429D01*
X65057Y-31467D01*
X65076Y-31505D01*
X65000Y-31124D02*
X64981Y-31105D01*
X64962Y-31067D01*
X64962Y-30971D01*
X64981Y-30933D01*
X65000Y-30914D01*
X65038Y-30895D01*
X65076Y-30895D01*
X65133Y-30914D01*
X65362Y-31143D01*
X65362Y-30895D01*
X64962Y-30762D02*
X65362Y-30495D01*
X64962Y-30495D02*
X65362Y-30762D01*
X65000Y-30362D02*
X64981Y-30343D01*
X64962Y-30305D01*
X64962Y-30209D01*
X64981Y-30171D01*
X65000Y-30152D01*
X65038Y-30133D01*
X65076Y-30133D01*
X65133Y-30152D01*
X65362Y-30381D01*
X65362Y-30133D01*
G54D20*
X59402Y-30031D02*
X59807Y-30031D01*
X59855Y-30007D01*
X59879Y-29983D01*
X59902Y-29936D01*
X59902Y-29840D01*
X59879Y-29793D01*
X59855Y-29769D01*
X59807Y-29745D01*
X59402Y-29745D01*
X59450Y-29531D02*
X59426Y-29507D01*
X59402Y-29459D01*
X59402Y-29340D01*
X59426Y-29293D01*
X59450Y-29269D01*
X59498Y-29245D01*
X59545Y-29245D01*
X59617Y-29269D01*
X59902Y-29555D01*
X59902Y-29245D01*
X57043Y-30984D02*
X56543Y-30984D01*
X56901Y-30817D01*
X56543Y-30651D01*
X57043Y-30651D01*
X56901Y-30437D02*
X56901Y-30199D01*
X57043Y-30484D02*
X56543Y-30318D01*
X57043Y-30151D01*
X56543Y-30032D02*
X57043Y-29698D01*
X56543Y-29698D02*
X57043Y-30032D01*
X57043Y-29508D02*
X56543Y-29508D01*
X57043Y-29270D02*
X56543Y-29270D01*
X56901Y-29103D01*
X56543Y-28937D01*
X57043Y-28937D01*
X57091Y-28818D02*
X57091Y-28437D01*
X57043Y-28056D02*
X57043Y-28342D01*
X57043Y-28199D02*
X56543Y-28199D01*
X56615Y-28247D01*
X56662Y-28294D01*
X56686Y-28342D01*
X56591Y-27866D02*
X56567Y-27842D01*
X56543Y-27794D01*
X56543Y-27675D01*
X56567Y-27628D01*
X56591Y-27604D01*
X56639Y-27580D01*
X56686Y-27580D01*
X56758Y-27604D01*
X57043Y-27890D01*
X57043Y-27580D01*
X56543Y-27414D02*
X56543Y-27104D01*
X56734Y-27271D01*
X56734Y-27199D01*
X56758Y-27152D01*
X56781Y-27128D01*
X56829Y-27104D01*
X56948Y-27104D01*
X56996Y-27128D01*
X57020Y-27152D01*
X57043Y-27199D01*
X57043Y-27342D01*
X57020Y-27390D01*
X56996Y-27414D01*
X57043Y-26866D02*
X57043Y-26771D01*
X57020Y-26723D01*
X56996Y-26699D01*
X56924Y-26652D01*
X56829Y-26628D01*
X56639Y-26628D01*
X56591Y-26652D01*
X56567Y-26676D01*
X56543Y-26723D01*
X56543Y-26819D01*
X56567Y-26866D01*
X56591Y-26890D01*
X56639Y-26914D01*
X56758Y-26914D01*
X56805Y-26890D01*
X56829Y-26866D01*
X56853Y-26819D01*
X56853Y-26723D01*
X56829Y-26676D01*
X56805Y-26652D01*
X56758Y-26628D01*
X59695Y-44462D02*
X59695Y-44786D01*
X59714Y-44824D01*
X59733Y-44843D01*
X59771Y-44862D01*
X59848Y-44862D01*
X59886Y-44843D01*
X59905Y-44824D01*
X59924Y-44786D01*
X59924Y-44462D01*
X60324Y-44862D02*
X60095Y-44862D01*
X60209Y-44862D02*
X60209Y-44462D01*
X60171Y-44519D01*
X60133Y-44557D01*
X60095Y-44576D01*
X59787Y-41471D02*
X59787Y-41071D01*
X59921Y-41357D01*
X60054Y-41071D01*
X60054Y-41471D01*
X60225Y-41357D02*
X60416Y-41357D01*
X60187Y-41471D02*
X60320Y-41071D01*
X60454Y-41471D01*
X60549Y-41071D02*
X60816Y-41471D01*
X60816Y-41071D02*
X60549Y-41471D01*
X60968Y-41471D02*
X60968Y-41071D01*
X61158Y-41471D02*
X61158Y-41071D01*
X61292Y-41357D01*
X61425Y-41071D01*
X61425Y-41471D01*
X61520Y-41509D02*
X61825Y-41509D01*
X61882Y-41071D02*
X62149Y-41071D01*
X61977Y-41471D01*
X62263Y-41071D02*
X62511Y-41071D01*
X62377Y-41223D01*
X62435Y-41223D01*
X62473Y-41242D01*
X62492Y-41261D01*
X62511Y-41299D01*
X62511Y-41395D01*
X62492Y-41433D01*
X62473Y-41452D01*
X62435Y-41471D01*
X62320Y-41471D01*
X62282Y-41452D01*
X62263Y-41433D01*
X62663Y-41109D02*
X62682Y-41090D01*
X62720Y-41071D01*
X62816Y-41071D01*
X62854Y-41090D01*
X62873Y-41109D01*
X62892Y-41147D01*
X62892Y-41185D01*
X62873Y-41242D01*
X62644Y-41471D01*
X62892Y-41471D01*
X63235Y-41071D02*
X63158Y-41071D01*
X63120Y-41090D01*
X63101Y-41109D01*
X63063Y-41166D01*
X63044Y-41242D01*
X63044Y-41395D01*
X63063Y-41433D01*
X63082Y-41452D01*
X63120Y-41471D01*
X63197Y-41471D01*
X63235Y-41452D01*
X63254Y-41433D01*
X63273Y-41395D01*
X63273Y-41299D01*
X63254Y-41261D01*
X63235Y-41242D01*
X63197Y-41223D01*
X63120Y-41223D01*
X63082Y-41242D01*
X63063Y-41261D01*
X63044Y-41299D01*
G54D13*
X65205Y-39762D02*
X65205Y-39362D01*
X65358Y-39362D01*
X65396Y-39381D01*
X65415Y-39400D01*
X65434Y-39438D01*
X65434Y-39495D01*
X65415Y-39533D01*
X65396Y-39552D01*
X65358Y-39571D01*
X65205Y-39571D01*
X65624Y-39762D02*
X65700Y-39762D01*
X65739Y-39743D01*
X65758Y-39724D01*
X65796Y-39667D01*
X65815Y-39590D01*
X65815Y-39438D01*
X65796Y-39400D01*
X65777Y-39381D01*
X65739Y-39362D01*
X65662Y-39362D01*
X65624Y-39381D01*
X65605Y-39400D01*
X65586Y-39438D01*
X65586Y-39533D01*
X65605Y-39571D01*
X65624Y-39590D01*
X65662Y-39610D01*
X65739Y-39610D01*
X65777Y-39590D01*
X65796Y-39571D01*
X65815Y-39533D01*
X69262Y-35286D02*
X68862Y-35286D01*
X68862Y-35133D01*
X68881Y-35095D01*
X68900Y-35076D01*
X68938Y-35057D01*
X68995Y-35057D01*
X69033Y-35076D01*
X69052Y-35095D01*
X69071Y-35133D01*
X69071Y-35286D01*
X69262Y-34676D02*
X69262Y-34905D01*
X69262Y-34791D02*
X68862Y-34791D01*
X68919Y-34829D01*
X68957Y-34867D01*
X68976Y-34905D01*
X68995Y-34333D02*
X69262Y-34333D01*
X68843Y-34429D02*
X69129Y-34524D01*
X69129Y-34276D01*
X66405Y-42512D02*
X66405Y-42112D01*
X66558Y-42112D01*
X66596Y-42131D01*
X66615Y-42150D01*
X66634Y-42188D01*
X66634Y-42245D01*
X66615Y-42283D01*
X66596Y-42302D01*
X66558Y-42321D01*
X66405Y-42321D01*
X67015Y-42512D02*
X66786Y-42512D01*
X66900Y-42512D02*
X66900Y-42112D01*
X66862Y-42169D01*
X66824Y-42207D01*
X66786Y-42226D01*
X59205Y-39762D02*
X59205Y-39362D01*
X59358Y-39362D01*
X59396Y-39381D01*
X59415Y-39400D01*
X59434Y-39438D01*
X59434Y-39495D01*
X59415Y-39533D01*
X59396Y-39552D01*
X59358Y-39571D01*
X59205Y-39571D01*
X59777Y-39495D02*
X59777Y-39762D01*
X59681Y-39343D02*
X59586Y-39629D01*
X59834Y-39629D01*
X69262Y-29286D02*
X68862Y-29286D01*
X68862Y-29133D01*
X68881Y-29095D01*
X68900Y-29076D01*
X68938Y-29057D01*
X68995Y-29057D01*
X69033Y-29076D01*
X69052Y-29095D01*
X69071Y-29133D01*
X69071Y-29286D01*
X69262Y-28676D02*
X69262Y-28905D01*
X69262Y-28791D02*
X68862Y-28791D01*
X68919Y-28829D01*
X68957Y-28867D01*
X68976Y-28905D01*
X68862Y-28543D02*
X68862Y-28295D01*
X69014Y-28429D01*
X69014Y-28371D01*
X69033Y-28333D01*
X69052Y-28314D01*
X69090Y-28295D01*
X69186Y-28295D01*
X69224Y-28314D01*
X69243Y-28333D01*
X69262Y-28371D01*
X69262Y-28486D01*
X69243Y-28524D01*
X69224Y-28543D01*
M02*
