G04 (created by PCBNEW-RS274X (2012-apr-16-27)-stable) date Fri 25 Jan 2013 18:12:53 GMT*
G01*
G70*
G90*
%MOIN*%
G04 Gerber Fmt 3.4, Leading zero omitted, Abs format*
%FSLAX34Y34*%
G04 APERTURE LIST*
%ADD10C,0.006000*%
%ADD11C,0.012000*%
%ADD12C,0.003900*%
G04 APERTURE END LIST*
G54D10*
X04000Y-04000D02*
X113000Y-04000D01*
X113000Y-78670D01*
X04000Y-78670D01*
X04000Y-04000D01*
X04700Y-04700D02*
X112300Y-04700D01*
X112300Y-77970D01*
X04700Y-77970D01*
X04700Y-04700D01*
X25800Y-04000D02*
X25800Y-04700D01*
X15043Y-04552D02*
X14757Y-04552D01*
X14900Y-04552D02*
X14900Y-04052D01*
X14852Y-04124D01*
X14805Y-04171D01*
X14757Y-04195D01*
X25800Y-78670D02*
X25800Y-77970D01*
X15043Y-78522D02*
X14757Y-78522D01*
X14900Y-78522D02*
X14900Y-78022D01*
X14852Y-78094D01*
X14805Y-78141D01*
X14757Y-78165D01*
X47600Y-04000D02*
X47600Y-04700D01*
X36557Y-04100D02*
X36581Y-04076D01*
X36629Y-04052D01*
X36748Y-04052D01*
X36795Y-04076D01*
X36819Y-04100D01*
X36843Y-04148D01*
X36843Y-04195D01*
X36819Y-04267D01*
X36533Y-04552D01*
X36843Y-04552D01*
X47600Y-78670D02*
X47600Y-77970D01*
X36557Y-78070D02*
X36581Y-78046D01*
X36629Y-78022D01*
X36748Y-78022D01*
X36795Y-78046D01*
X36819Y-78070D01*
X36843Y-78118D01*
X36843Y-78165D01*
X36819Y-78237D01*
X36533Y-78522D01*
X36843Y-78522D01*
X69400Y-04000D02*
X69400Y-04700D01*
X58333Y-04052D02*
X58643Y-04052D01*
X58476Y-04243D01*
X58548Y-04243D01*
X58595Y-04267D01*
X58619Y-04290D01*
X58643Y-04338D01*
X58643Y-04457D01*
X58619Y-04505D01*
X58595Y-04529D01*
X58548Y-04552D01*
X58405Y-04552D01*
X58357Y-04529D01*
X58333Y-04505D01*
X69400Y-78670D02*
X69400Y-77970D01*
X58333Y-78022D02*
X58643Y-78022D01*
X58476Y-78213D01*
X58548Y-78213D01*
X58595Y-78237D01*
X58619Y-78260D01*
X58643Y-78308D01*
X58643Y-78427D01*
X58619Y-78475D01*
X58595Y-78499D01*
X58548Y-78522D01*
X58405Y-78522D01*
X58357Y-78499D01*
X58333Y-78475D01*
X91200Y-04000D02*
X91200Y-04700D01*
X80395Y-04219D02*
X80395Y-04552D01*
X80276Y-04029D02*
X80157Y-04386D01*
X80467Y-04386D01*
X91200Y-78670D02*
X91200Y-77970D01*
X80395Y-78189D02*
X80395Y-78522D01*
X80276Y-77999D02*
X80157Y-78356D01*
X80467Y-78356D01*
X102219Y-04052D02*
X101981Y-04052D01*
X101957Y-04290D01*
X101981Y-04267D01*
X102029Y-04243D01*
X102148Y-04243D01*
X102195Y-04267D01*
X102219Y-04290D01*
X102243Y-04338D01*
X102243Y-04457D01*
X102219Y-04505D01*
X102195Y-04529D01*
X102148Y-04552D01*
X102029Y-04552D01*
X101981Y-04529D01*
X101957Y-04505D01*
X102219Y-78022D02*
X101981Y-78022D01*
X101957Y-78260D01*
X101981Y-78237D01*
X102029Y-78213D01*
X102148Y-78213D01*
X102195Y-78237D01*
X102219Y-78260D01*
X102243Y-78308D01*
X102243Y-78427D01*
X102219Y-78475D01*
X102195Y-78499D01*
X102148Y-78522D01*
X102029Y-78522D01*
X101981Y-78499D01*
X101957Y-78475D01*
X04000Y-28890D02*
X04700Y-28890D01*
X04231Y-16510D02*
X04469Y-16510D01*
X04184Y-16652D02*
X04350Y-16152D01*
X04517Y-16652D01*
X113000Y-28890D02*
X112300Y-28890D01*
X112531Y-16510D02*
X112769Y-16510D01*
X112484Y-16652D02*
X112650Y-16152D01*
X112817Y-16652D01*
X04000Y-53780D02*
X04700Y-53780D01*
X04386Y-41280D02*
X04457Y-41304D01*
X04481Y-41328D01*
X04505Y-41376D01*
X04505Y-41447D01*
X04481Y-41495D01*
X04457Y-41519D01*
X04410Y-41542D01*
X04219Y-41542D01*
X04219Y-41042D01*
X04386Y-41042D01*
X04433Y-41066D01*
X04457Y-41090D01*
X04481Y-41138D01*
X04481Y-41185D01*
X04457Y-41233D01*
X04433Y-41257D01*
X04386Y-41280D01*
X04219Y-41280D01*
X113000Y-53780D02*
X112300Y-53780D01*
X112686Y-41280D02*
X112757Y-41304D01*
X112781Y-41328D01*
X112805Y-41376D01*
X112805Y-41447D01*
X112781Y-41495D01*
X112757Y-41519D01*
X112710Y-41542D01*
X112519Y-41542D01*
X112519Y-41042D01*
X112686Y-41042D01*
X112733Y-41066D01*
X112757Y-41090D01*
X112781Y-41138D01*
X112781Y-41185D01*
X112757Y-41233D01*
X112733Y-41257D01*
X112686Y-41280D01*
X112519Y-41280D01*
X04505Y-66385D02*
X04481Y-66409D01*
X04410Y-66432D01*
X04362Y-66432D01*
X04290Y-66409D01*
X04243Y-66361D01*
X04219Y-66313D01*
X04195Y-66218D01*
X04195Y-66147D01*
X04219Y-66051D01*
X04243Y-66004D01*
X04290Y-65956D01*
X04362Y-65932D01*
X04410Y-65932D01*
X04481Y-65956D01*
X04505Y-65980D01*
X112805Y-66385D02*
X112781Y-66409D01*
X112710Y-66432D01*
X112662Y-66432D01*
X112590Y-66409D01*
X112543Y-66361D01*
X112519Y-66313D01*
X112495Y-66218D01*
X112495Y-66147D01*
X112519Y-66051D01*
X112543Y-66004D01*
X112590Y-65956D01*
X112662Y-65932D01*
X112710Y-65932D01*
X112781Y-65956D01*
X112805Y-65980D01*
G54D11*
X79443Y-76413D02*
X79443Y-75813D01*
X79586Y-75813D01*
X79671Y-75841D01*
X79729Y-75899D01*
X79757Y-75956D01*
X79786Y-76070D01*
X79786Y-76156D01*
X79757Y-76270D01*
X79729Y-76327D01*
X79671Y-76384D01*
X79586Y-76413D01*
X79443Y-76413D01*
X80300Y-76413D02*
X80300Y-76099D01*
X80271Y-76041D01*
X80214Y-76013D01*
X80100Y-76013D01*
X80043Y-76041D01*
X80300Y-76384D02*
X80243Y-76413D01*
X80100Y-76413D01*
X80043Y-76384D01*
X80014Y-76327D01*
X80014Y-76270D01*
X80043Y-76213D01*
X80100Y-76184D01*
X80243Y-76184D01*
X80300Y-76156D01*
X80500Y-76013D02*
X80729Y-76013D01*
X80586Y-75813D02*
X80586Y-76327D01*
X80614Y-76384D01*
X80672Y-76413D01*
X80729Y-76413D01*
X81157Y-76384D02*
X81100Y-76413D01*
X80986Y-76413D01*
X80929Y-76384D01*
X80900Y-76327D01*
X80900Y-76099D01*
X80929Y-76041D01*
X80986Y-76013D01*
X81100Y-76013D01*
X81157Y-76041D01*
X81186Y-76099D01*
X81186Y-76156D01*
X80900Y-76213D01*
X81443Y-76356D02*
X81471Y-76384D01*
X81443Y-76413D01*
X81414Y-76384D01*
X81443Y-76356D01*
X81443Y-76413D01*
X81443Y-76041D02*
X81471Y-76070D01*
X81443Y-76099D01*
X81414Y-76070D01*
X81443Y-76041D01*
X81443Y-76099D01*
X82157Y-75870D02*
X82186Y-75841D01*
X82243Y-75813D01*
X82386Y-75813D01*
X82443Y-75841D01*
X82472Y-75870D01*
X82500Y-75927D01*
X82500Y-75984D01*
X82472Y-76070D01*
X82129Y-76413D01*
X82500Y-76413D01*
X83043Y-75813D02*
X82757Y-75813D01*
X82728Y-76099D01*
X82757Y-76070D01*
X82814Y-76041D01*
X82957Y-76041D01*
X83014Y-76070D01*
X83043Y-76099D01*
X83071Y-76156D01*
X83071Y-76299D01*
X83043Y-76356D01*
X83014Y-76384D01*
X82957Y-76413D01*
X82814Y-76413D01*
X82757Y-76384D01*
X82728Y-76356D01*
X83785Y-76013D02*
X83785Y-76527D01*
X83756Y-76584D01*
X83699Y-76613D01*
X83671Y-76613D01*
X83785Y-75813D02*
X83756Y-75841D01*
X83785Y-75870D01*
X83813Y-75841D01*
X83785Y-75813D01*
X83785Y-75870D01*
X84328Y-76413D02*
X84328Y-76099D01*
X84299Y-76041D01*
X84242Y-76013D01*
X84128Y-76013D01*
X84071Y-76041D01*
X84328Y-76384D02*
X84271Y-76413D01*
X84128Y-76413D01*
X84071Y-76384D01*
X84042Y-76327D01*
X84042Y-76270D01*
X84071Y-76213D01*
X84128Y-76184D01*
X84271Y-76184D01*
X84328Y-76156D01*
X84614Y-76013D02*
X84614Y-76413D01*
X84614Y-76070D02*
X84642Y-76041D01*
X84700Y-76013D01*
X84785Y-76013D01*
X84842Y-76041D01*
X84871Y-76099D01*
X84871Y-76413D01*
X85585Y-75870D02*
X85614Y-75841D01*
X85671Y-75813D01*
X85814Y-75813D01*
X85871Y-75841D01*
X85900Y-75870D01*
X85928Y-75927D01*
X85928Y-75984D01*
X85900Y-76070D01*
X85557Y-76413D01*
X85928Y-76413D01*
X86299Y-75813D02*
X86356Y-75813D01*
X86413Y-75841D01*
X86442Y-75870D01*
X86471Y-75927D01*
X86499Y-76041D01*
X86499Y-76184D01*
X86471Y-76299D01*
X86442Y-76356D01*
X86413Y-76384D01*
X86356Y-76413D01*
X86299Y-76413D01*
X86242Y-76384D01*
X86213Y-76356D01*
X86185Y-76299D01*
X86156Y-76184D01*
X86156Y-76041D01*
X86185Y-75927D01*
X86213Y-75870D01*
X86242Y-75841D01*
X86299Y-75813D01*
X87070Y-76413D02*
X86727Y-76413D01*
X86899Y-76413D02*
X86899Y-75813D01*
X86842Y-75899D01*
X86784Y-75956D01*
X86727Y-75984D01*
X87270Y-75813D02*
X87641Y-75813D01*
X87441Y-76041D01*
X87527Y-76041D01*
X87584Y-76070D01*
X87613Y-76099D01*
X87641Y-76156D01*
X87641Y-76299D01*
X87613Y-76356D01*
X87584Y-76384D01*
X87527Y-76413D01*
X87355Y-76413D01*
X87298Y-76384D01*
X87270Y-76356D01*
G54D10*
X71043Y-77613D02*
X71043Y-77013D01*
X71386Y-77613D02*
X71129Y-77270D01*
X71386Y-77013D02*
X71043Y-77356D01*
X71643Y-77613D02*
X71643Y-77213D01*
X71643Y-77013D02*
X71614Y-77041D01*
X71643Y-77070D01*
X71671Y-77041D01*
X71643Y-77013D01*
X71643Y-77070D01*
X72272Y-77556D02*
X72243Y-77584D01*
X72157Y-77613D01*
X72100Y-77613D01*
X72015Y-77584D01*
X71957Y-77527D01*
X71929Y-77470D01*
X71900Y-77356D01*
X71900Y-77270D01*
X71929Y-77156D01*
X71957Y-77099D01*
X72015Y-77041D01*
X72100Y-77013D01*
X72157Y-77013D01*
X72243Y-77041D01*
X72272Y-77070D01*
X72786Y-77613D02*
X72786Y-77299D01*
X72757Y-77241D01*
X72700Y-77213D01*
X72586Y-77213D01*
X72529Y-77241D01*
X72786Y-77584D02*
X72729Y-77613D01*
X72586Y-77613D01*
X72529Y-77584D01*
X72500Y-77527D01*
X72500Y-77470D01*
X72529Y-77413D01*
X72586Y-77384D01*
X72729Y-77384D01*
X72786Y-77356D01*
X73329Y-77613D02*
X73329Y-77013D01*
X73329Y-77584D02*
X73272Y-77613D01*
X73158Y-77613D01*
X73100Y-77584D01*
X73072Y-77556D01*
X73043Y-77499D01*
X73043Y-77327D01*
X73072Y-77270D01*
X73100Y-77241D01*
X73158Y-77213D01*
X73272Y-77213D01*
X73329Y-77241D01*
X74072Y-77299D02*
X74272Y-77299D01*
X74358Y-77613D02*
X74072Y-77613D01*
X74072Y-77013D01*
X74358Y-77013D01*
X74615Y-77556D02*
X74643Y-77584D01*
X74615Y-77613D01*
X74586Y-77584D01*
X74615Y-77556D01*
X74615Y-77613D01*
X74901Y-77613D02*
X74901Y-77013D01*
X75044Y-77013D01*
X75129Y-77041D01*
X75187Y-77099D01*
X75215Y-77156D01*
X75244Y-77270D01*
X75244Y-77356D01*
X75215Y-77470D01*
X75187Y-77527D01*
X75129Y-77584D01*
X75044Y-77613D01*
X74901Y-77613D01*
X75501Y-77556D02*
X75529Y-77584D01*
X75501Y-77613D01*
X75472Y-77584D01*
X75501Y-77556D01*
X75501Y-77613D01*
X75758Y-77441D02*
X76044Y-77441D01*
X75701Y-77613D02*
X75901Y-77013D01*
X76101Y-77613D01*
X76301Y-77556D02*
X76329Y-77584D01*
X76301Y-77613D01*
X76272Y-77584D01*
X76301Y-77556D01*
X76301Y-77613D01*
G54D11*
X104586Y-76413D02*
X104386Y-76127D01*
X104243Y-76413D02*
X104243Y-75813D01*
X104471Y-75813D01*
X104529Y-75841D01*
X104557Y-75870D01*
X104586Y-75927D01*
X104586Y-76013D01*
X104557Y-76070D01*
X104529Y-76099D01*
X104471Y-76127D01*
X104243Y-76127D01*
X105071Y-76384D02*
X105014Y-76413D01*
X104900Y-76413D01*
X104843Y-76384D01*
X104814Y-76327D01*
X104814Y-76099D01*
X104843Y-76041D01*
X104900Y-76013D01*
X105014Y-76013D01*
X105071Y-76041D01*
X105100Y-76099D01*
X105100Y-76156D01*
X104814Y-76213D01*
X105300Y-76013D02*
X105443Y-76413D01*
X105585Y-76013D01*
X105814Y-76356D02*
X105842Y-76384D01*
X105814Y-76413D01*
X105785Y-76384D01*
X105814Y-76356D01*
X105814Y-76413D01*
X105814Y-76041D02*
X105842Y-76070D01*
X105814Y-76099D01*
X105785Y-76070D01*
X105814Y-76041D01*
X105814Y-76099D01*
G54D10*
X71014Y-76384D02*
X71100Y-76413D01*
X71243Y-76413D01*
X71300Y-76384D01*
X71329Y-76356D01*
X71357Y-76299D01*
X71357Y-76241D01*
X71329Y-76184D01*
X71300Y-76156D01*
X71243Y-76127D01*
X71129Y-76099D01*
X71071Y-76070D01*
X71043Y-76041D01*
X71014Y-75984D01*
X71014Y-75927D01*
X71043Y-75870D01*
X71071Y-75841D01*
X71129Y-75813D01*
X71271Y-75813D01*
X71357Y-75841D01*
X71614Y-76413D02*
X71614Y-76013D01*
X71614Y-75813D02*
X71585Y-75841D01*
X71614Y-75870D01*
X71642Y-75841D01*
X71614Y-75813D01*
X71614Y-75870D01*
X71843Y-76013D02*
X72157Y-76013D01*
X71843Y-76413D01*
X72157Y-76413D01*
X72614Y-76384D02*
X72557Y-76413D01*
X72443Y-76413D01*
X72386Y-76384D01*
X72357Y-76327D01*
X72357Y-76099D01*
X72386Y-76041D01*
X72443Y-76013D01*
X72557Y-76013D01*
X72614Y-76041D01*
X72643Y-76099D01*
X72643Y-76156D01*
X72357Y-76213D01*
X72900Y-76356D02*
X72928Y-76384D01*
X72900Y-76413D01*
X72871Y-76384D01*
X72900Y-76356D01*
X72900Y-76413D01*
X72900Y-76041D02*
X72928Y-76070D01*
X72900Y-76099D01*
X72871Y-76070D01*
X72900Y-76041D01*
X72900Y-76099D01*
X73614Y-76241D02*
X73900Y-76241D01*
X73557Y-76413D02*
X73757Y-75813D01*
X73957Y-76413D01*
X74414Y-76013D02*
X74414Y-76413D01*
X74271Y-75784D02*
X74128Y-76213D01*
X74500Y-76213D01*
X104243Y-77613D02*
X104243Y-77013D01*
X104786Y-77613D02*
X104786Y-77013D01*
X104786Y-77584D02*
X104729Y-77613D01*
X104615Y-77613D01*
X104557Y-77584D01*
X104529Y-77556D01*
X104500Y-77499D01*
X104500Y-77327D01*
X104529Y-77270D01*
X104557Y-77241D01*
X104615Y-77213D01*
X104729Y-77213D01*
X104786Y-77241D01*
X105072Y-77556D02*
X105100Y-77584D01*
X105072Y-77613D01*
X105043Y-77584D01*
X105072Y-77556D01*
X105072Y-77613D01*
X105072Y-77241D02*
X105100Y-77270D01*
X105072Y-77299D01*
X105043Y-77270D01*
X105072Y-77241D01*
X105072Y-77299D01*
X106129Y-77613D02*
X105786Y-77613D01*
X105958Y-77613D02*
X105958Y-77013D01*
X105901Y-77099D01*
X105843Y-77156D01*
X105786Y-77184D01*
X106814Y-76984D02*
X106300Y-77756D01*
X107329Y-77613D02*
X106986Y-77613D01*
X107158Y-77613D02*
X107158Y-77013D01*
X107101Y-77099D01*
X107043Y-77156D01*
X106986Y-77184D01*
G54D11*
X70957Y-74613D02*
X71300Y-74613D01*
X71129Y-75213D02*
X71129Y-74613D01*
X71500Y-75213D02*
X71500Y-74813D01*
X71500Y-74613D02*
X71471Y-74641D01*
X71500Y-74670D01*
X71528Y-74641D01*
X71500Y-74613D01*
X71500Y-74670D01*
X71700Y-74813D02*
X71929Y-74813D01*
X71786Y-74613D02*
X71786Y-75127D01*
X71814Y-75184D01*
X71872Y-75213D01*
X71929Y-75213D01*
X72215Y-75213D02*
X72157Y-75184D01*
X72129Y-75127D01*
X72129Y-74613D01*
X72671Y-75184D02*
X72614Y-75213D01*
X72500Y-75213D01*
X72443Y-75184D01*
X72414Y-75127D01*
X72414Y-74899D01*
X72443Y-74841D01*
X72500Y-74813D01*
X72614Y-74813D01*
X72671Y-74841D01*
X72700Y-74899D01*
X72700Y-74956D01*
X72414Y-75013D01*
X72957Y-75156D02*
X72985Y-75184D01*
X72957Y-75213D01*
X72928Y-75184D01*
X72957Y-75156D01*
X72957Y-75213D01*
X72957Y-74841D02*
X72985Y-74870D01*
X72957Y-74899D01*
X72928Y-74870D01*
X72957Y-74841D01*
X72957Y-74899D01*
G54D10*
X71243Y-72499D02*
X71043Y-72499D01*
X71043Y-72813D02*
X71043Y-72213D01*
X71329Y-72213D01*
X71557Y-72813D02*
X71557Y-72413D01*
X71557Y-72213D02*
X71528Y-72241D01*
X71557Y-72270D01*
X71585Y-72241D01*
X71557Y-72213D01*
X71557Y-72270D01*
X71929Y-72813D02*
X71871Y-72784D01*
X71843Y-72727D01*
X71843Y-72213D01*
X72385Y-72784D02*
X72328Y-72813D01*
X72214Y-72813D01*
X72157Y-72784D01*
X72128Y-72727D01*
X72128Y-72499D01*
X72157Y-72441D01*
X72214Y-72413D01*
X72328Y-72413D01*
X72385Y-72441D01*
X72414Y-72499D01*
X72414Y-72556D01*
X72128Y-72613D01*
X72671Y-72756D02*
X72699Y-72784D01*
X72671Y-72813D01*
X72642Y-72784D01*
X72671Y-72756D01*
X72671Y-72813D01*
X72671Y-72441D02*
X72699Y-72470D01*
X72671Y-72499D01*
X72642Y-72470D01*
X72671Y-72441D01*
X72671Y-72499D01*
X73414Y-72813D02*
X73414Y-72213D01*
X73671Y-72270D02*
X73700Y-72241D01*
X73757Y-72213D01*
X73900Y-72213D01*
X73957Y-72241D01*
X73986Y-72270D01*
X74014Y-72327D01*
X74014Y-72384D01*
X73986Y-72470D01*
X73643Y-72813D01*
X74014Y-72813D01*
X74614Y-72756D02*
X74585Y-72784D01*
X74499Y-72813D01*
X74442Y-72813D01*
X74357Y-72784D01*
X74299Y-72727D01*
X74271Y-72670D01*
X74242Y-72556D01*
X74242Y-72470D01*
X74271Y-72356D01*
X74299Y-72299D01*
X74357Y-72241D01*
X74442Y-72213D01*
X74499Y-72213D01*
X74585Y-72241D01*
X74614Y-72270D01*
X74728Y-72870D02*
X75185Y-72870D01*
X75328Y-72813D02*
X75328Y-72213D01*
X75728Y-72213D02*
X75842Y-72213D01*
X75900Y-72241D01*
X75957Y-72299D01*
X75985Y-72413D01*
X75985Y-72613D01*
X75957Y-72727D01*
X75900Y-72784D01*
X75842Y-72813D01*
X75728Y-72813D01*
X75671Y-72784D01*
X75614Y-72727D01*
X75585Y-72613D01*
X75585Y-72413D01*
X75614Y-72299D01*
X75671Y-72241D01*
X75728Y-72213D01*
X76243Y-72756D02*
X76271Y-72784D01*
X76243Y-72813D01*
X76214Y-72784D01*
X76243Y-72756D01*
X76243Y-72813D01*
X76529Y-72813D02*
X76529Y-72213D01*
X76529Y-72441D02*
X76586Y-72413D01*
X76700Y-72413D01*
X76757Y-72441D01*
X76786Y-72470D01*
X76815Y-72527D01*
X76815Y-72699D01*
X76786Y-72756D01*
X76757Y-72784D01*
X76700Y-72813D01*
X76586Y-72813D01*
X76529Y-72784D01*
X77072Y-72813D02*
X77072Y-72413D01*
X77072Y-72527D02*
X77100Y-72470D01*
X77129Y-72441D01*
X77186Y-72413D01*
X77243Y-72413D01*
X77700Y-72813D02*
X77700Y-72213D01*
X77700Y-72784D02*
X77643Y-72813D01*
X77529Y-72813D01*
X77471Y-72784D01*
X77443Y-72756D01*
X77414Y-72699D01*
X77414Y-72527D01*
X77443Y-72470D01*
X77471Y-72441D01*
X77529Y-72413D01*
X77643Y-72413D01*
X77700Y-72441D01*
X71014Y-73984D02*
X71100Y-74013D01*
X71243Y-74013D01*
X71300Y-73984D01*
X71329Y-73956D01*
X71357Y-73899D01*
X71357Y-73841D01*
X71329Y-73784D01*
X71300Y-73756D01*
X71243Y-73727D01*
X71129Y-73699D01*
X71071Y-73670D01*
X71043Y-73641D01*
X71014Y-73584D01*
X71014Y-73527D01*
X71043Y-73470D01*
X71071Y-73441D01*
X71129Y-73413D01*
X71271Y-73413D01*
X71357Y-73441D01*
X71614Y-74013D02*
X71614Y-73413D01*
X71871Y-74013D02*
X71871Y-73699D01*
X71842Y-73641D01*
X71785Y-73613D01*
X71700Y-73613D01*
X71642Y-73641D01*
X71614Y-73670D01*
X72385Y-73984D02*
X72328Y-74013D01*
X72214Y-74013D01*
X72157Y-73984D01*
X72128Y-73927D01*
X72128Y-73699D01*
X72157Y-73641D01*
X72214Y-73613D01*
X72328Y-73613D01*
X72385Y-73641D01*
X72414Y-73699D01*
X72414Y-73756D01*
X72128Y-73813D01*
X72899Y-73984D02*
X72842Y-74013D01*
X72728Y-74013D01*
X72671Y-73984D01*
X72642Y-73927D01*
X72642Y-73699D01*
X72671Y-73641D01*
X72728Y-73613D01*
X72842Y-73613D01*
X72899Y-73641D01*
X72928Y-73699D01*
X72928Y-73756D01*
X72642Y-73813D01*
X73099Y-73613D02*
X73328Y-73613D01*
X73185Y-73413D02*
X73185Y-73927D01*
X73213Y-73984D01*
X73271Y-74013D01*
X73328Y-74013D01*
X73528Y-73956D02*
X73556Y-73984D01*
X73528Y-74013D01*
X73499Y-73984D01*
X73528Y-73956D01*
X73528Y-74013D01*
X73528Y-73641D02*
X73556Y-73670D01*
X73528Y-73699D01*
X73499Y-73670D01*
X73528Y-73641D01*
X73528Y-73699D01*
X74585Y-74013D02*
X74242Y-74013D01*
X74414Y-74013D02*
X74414Y-73413D01*
X74357Y-73499D01*
X74299Y-73556D01*
X74242Y-73584D01*
X75270Y-73384D02*
X74756Y-74156D01*
X75785Y-74013D02*
X75442Y-74013D01*
X75614Y-74013D02*
X75614Y-73413D01*
X75557Y-73499D01*
X75499Y-73556D01*
X75442Y-73584D01*
X70300Y-71970D02*
X70300Y-77970D01*
X70300Y-71970D02*
X112300Y-71970D01*
X70300Y-71970D02*
X112300Y-71970D01*
X70300Y-74370D02*
X112300Y-74370D01*
X103500Y-75570D02*
X103500Y-77970D01*
X70300Y-76770D02*
X112300Y-76770D01*
X70300Y-75570D02*
X112300Y-75570D01*
X76900Y-75570D02*
X76900Y-76770D01*
G54D12*
X55561Y-29670D02*
X55955Y-29670D01*
X55561Y-29839D02*
X55767Y-29839D01*
X55804Y-29820D01*
X55823Y-29782D01*
X55823Y-29726D01*
X55804Y-29689D01*
X55786Y-29670D01*
X55823Y-29970D02*
X55823Y-30120D01*
X55955Y-30026D02*
X55617Y-30026D01*
X55579Y-30045D01*
X55561Y-30082D01*
X55561Y-30120D01*
X55823Y-30195D02*
X55823Y-30345D01*
X55955Y-30251D02*
X55617Y-30251D01*
X55579Y-30270D01*
X55561Y-30307D01*
X55561Y-30345D01*
X55823Y-30476D02*
X55429Y-30476D01*
X55804Y-30476D02*
X55823Y-30513D01*
X55823Y-30588D01*
X55804Y-30626D01*
X55786Y-30645D01*
X55748Y-30663D01*
X55636Y-30663D01*
X55598Y-30645D01*
X55579Y-30626D01*
X55561Y-30588D01*
X55561Y-30513D01*
X55579Y-30476D01*
X55579Y-30813D02*
X55561Y-30851D01*
X55561Y-30926D01*
X55579Y-30963D01*
X55617Y-30982D01*
X55636Y-30982D01*
X55673Y-30963D01*
X55692Y-30926D01*
X55692Y-30869D01*
X55711Y-30832D01*
X55748Y-30813D01*
X55767Y-30813D01*
X55804Y-30832D01*
X55823Y-30869D01*
X55823Y-30926D01*
X55804Y-30963D01*
X55598Y-31151D02*
X55579Y-31170D01*
X55561Y-31151D01*
X55579Y-31132D01*
X55598Y-31151D01*
X55561Y-31151D01*
X55804Y-31151D02*
X55786Y-31170D01*
X55767Y-31151D01*
X55786Y-31132D01*
X55804Y-31151D01*
X55767Y-31151D01*
X55973Y-31620D02*
X55467Y-31283D01*
X55973Y-32033D02*
X55467Y-31696D01*
X55823Y-32334D02*
X55504Y-32334D01*
X55467Y-32315D01*
X55448Y-32296D01*
X55429Y-32259D01*
X55429Y-32202D01*
X55448Y-32165D01*
X55579Y-32334D02*
X55561Y-32296D01*
X55561Y-32221D01*
X55579Y-32184D01*
X55598Y-32165D01*
X55636Y-32146D01*
X55748Y-32146D01*
X55786Y-32165D01*
X55804Y-32184D01*
X55823Y-32221D01*
X55823Y-32296D01*
X55804Y-32334D01*
X55561Y-32521D02*
X55823Y-32521D01*
X55955Y-32521D02*
X55936Y-32502D01*
X55917Y-32521D01*
X55936Y-32540D01*
X55955Y-32521D01*
X55917Y-32521D01*
X55823Y-32653D02*
X55823Y-32803D01*
X55955Y-32709D02*
X55617Y-32709D01*
X55579Y-32728D01*
X55561Y-32765D01*
X55561Y-32803D01*
X55561Y-32934D02*
X55955Y-32934D01*
X55561Y-33103D02*
X55767Y-33103D01*
X55804Y-33084D01*
X55823Y-33046D01*
X55823Y-32990D01*
X55804Y-32953D01*
X55786Y-32934D01*
X55823Y-33459D02*
X55561Y-33459D01*
X55823Y-33290D02*
X55617Y-33290D01*
X55579Y-33309D01*
X55561Y-33346D01*
X55561Y-33402D01*
X55579Y-33440D01*
X55598Y-33459D01*
X55561Y-33646D02*
X55955Y-33646D01*
X55804Y-33646D02*
X55823Y-33683D01*
X55823Y-33758D01*
X55804Y-33796D01*
X55786Y-33815D01*
X55748Y-33833D01*
X55636Y-33833D01*
X55598Y-33815D01*
X55579Y-33796D01*
X55561Y-33758D01*
X55561Y-33683D01*
X55579Y-33646D01*
X55598Y-34002D02*
X55579Y-34021D01*
X55561Y-34002D01*
X55579Y-33983D01*
X55598Y-34002D01*
X55561Y-34002D01*
X55579Y-34359D02*
X55561Y-34321D01*
X55561Y-34246D01*
X55579Y-34209D01*
X55598Y-34190D01*
X55636Y-34171D01*
X55748Y-34171D01*
X55786Y-34190D01*
X55804Y-34209D01*
X55823Y-34246D01*
X55823Y-34321D01*
X55804Y-34359D01*
X55561Y-34584D02*
X55579Y-34547D01*
X55598Y-34528D01*
X55636Y-34509D01*
X55748Y-34509D01*
X55786Y-34528D01*
X55804Y-34547D01*
X55823Y-34584D01*
X55823Y-34640D01*
X55804Y-34678D01*
X55786Y-34697D01*
X55748Y-34715D01*
X55636Y-34715D01*
X55598Y-34697D01*
X55579Y-34678D01*
X55561Y-34640D01*
X55561Y-34584D01*
X55561Y-34884D02*
X55823Y-34884D01*
X55786Y-34884D02*
X55804Y-34903D01*
X55823Y-34940D01*
X55823Y-34996D01*
X55804Y-35034D01*
X55767Y-35053D01*
X55561Y-35053D01*
X55767Y-35053D02*
X55804Y-35071D01*
X55823Y-35109D01*
X55823Y-35165D01*
X55804Y-35203D01*
X55767Y-35222D01*
X55561Y-35222D01*
X55973Y-35690D02*
X55467Y-35353D01*
X55955Y-35766D02*
X55955Y-35991D01*
X55561Y-35878D02*
X55955Y-35878D01*
X55561Y-36122D02*
X55823Y-36122D01*
X55955Y-36122D02*
X55936Y-36103D01*
X55917Y-36122D01*
X55936Y-36141D01*
X55955Y-36122D01*
X55917Y-36122D01*
X55561Y-36310D02*
X55823Y-36310D01*
X55786Y-36310D02*
X55804Y-36329D01*
X55823Y-36366D01*
X55823Y-36422D01*
X55804Y-36460D01*
X55767Y-36479D01*
X55561Y-36479D01*
X55767Y-36479D02*
X55804Y-36497D01*
X55823Y-36535D01*
X55823Y-36591D01*
X55804Y-36629D01*
X55767Y-36648D01*
X55561Y-36648D01*
X55767Y-36966D02*
X55748Y-37022D01*
X55729Y-37041D01*
X55692Y-37060D01*
X55636Y-37060D01*
X55598Y-37041D01*
X55579Y-37022D01*
X55561Y-36985D01*
X55561Y-36835D01*
X55955Y-36835D01*
X55955Y-36966D01*
X55936Y-37004D01*
X55917Y-37022D01*
X55879Y-37041D01*
X55842Y-37041D01*
X55804Y-37022D01*
X55786Y-37004D01*
X55767Y-36966D01*
X55767Y-36835D01*
X55711Y-37229D02*
X55711Y-37529D01*
X55523Y-37979D02*
X55542Y-37942D01*
X55579Y-37904D01*
X55636Y-37848D01*
X55654Y-37811D01*
X55654Y-37773D01*
X55561Y-37792D02*
X55579Y-37754D01*
X55617Y-37717D01*
X55692Y-37698D01*
X55823Y-37698D01*
X55898Y-37717D01*
X55936Y-37754D01*
X55955Y-37792D01*
X55955Y-37867D01*
X55936Y-37904D01*
X55898Y-37942D01*
X55823Y-37961D01*
X55692Y-37961D01*
X55617Y-37942D01*
X55579Y-37904D01*
X55561Y-37867D01*
X55561Y-37792D01*
X55561Y-38130D02*
X55955Y-38130D01*
X55561Y-38355D01*
X55955Y-38355D01*
X55673Y-38524D02*
X55673Y-38712D01*
X55561Y-38487D02*
X55955Y-38618D01*
X55561Y-38749D01*
X55973Y-39162D02*
X55467Y-38825D01*
X55767Y-39294D02*
X55767Y-39425D01*
X55561Y-39481D02*
X55561Y-39294D01*
X55955Y-39294D01*
X55955Y-39481D01*
X55561Y-39706D02*
X55579Y-39669D01*
X55617Y-39650D01*
X55955Y-39650D01*
X55579Y-40006D02*
X55561Y-39968D01*
X55561Y-39893D01*
X55579Y-39856D01*
X55617Y-39837D01*
X55767Y-39837D01*
X55804Y-39856D01*
X55823Y-39893D01*
X55823Y-39968D01*
X55804Y-40006D01*
X55767Y-40025D01*
X55729Y-40025D01*
X55692Y-39837D01*
X55579Y-40363D02*
X55561Y-40325D01*
X55561Y-40250D01*
X55579Y-40213D01*
X55598Y-40194D01*
X55636Y-40175D01*
X55748Y-40175D01*
X55786Y-40194D01*
X55804Y-40213D01*
X55823Y-40250D01*
X55823Y-40325D01*
X55804Y-40363D01*
X55823Y-40476D02*
X55823Y-40626D01*
X55955Y-40532D02*
X55617Y-40532D01*
X55579Y-40551D01*
X55561Y-40588D01*
X55561Y-40626D01*
X55561Y-40757D02*
X55823Y-40757D01*
X55748Y-40757D02*
X55786Y-40776D01*
X55804Y-40794D01*
X55823Y-40832D01*
X55823Y-40869D01*
X55561Y-41057D02*
X55579Y-41020D01*
X55598Y-41001D01*
X55636Y-40982D01*
X55748Y-40982D01*
X55786Y-41001D01*
X55804Y-41020D01*
X55823Y-41057D01*
X55823Y-41113D01*
X55804Y-41151D01*
X55786Y-41170D01*
X55748Y-41188D01*
X55636Y-41188D01*
X55598Y-41170D01*
X55579Y-41151D01*
X55561Y-41113D01*
X55561Y-41057D01*
X55823Y-41357D02*
X55561Y-41357D01*
X55786Y-41357D02*
X55804Y-41376D01*
X55823Y-41413D01*
X55823Y-41469D01*
X55804Y-41507D01*
X55767Y-41526D01*
X55561Y-41526D01*
X55561Y-41713D02*
X55823Y-41713D01*
X55955Y-41713D02*
X55936Y-41694D01*
X55917Y-41713D01*
X55936Y-41732D01*
X55955Y-41713D01*
X55917Y-41713D01*
X55579Y-42070D02*
X55561Y-42032D01*
X55561Y-41957D01*
X55579Y-41920D01*
X55598Y-41901D01*
X55636Y-41882D01*
X55748Y-41882D01*
X55786Y-41901D01*
X55804Y-41920D01*
X55823Y-41957D01*
X55823Y-42032D01*
X55804Y-42070D01*
X55579Y-42220D02*
X55561Y-42258D01*
X55561Y-42333D01*
X55579Y-42370D01*
X55617Y-42389D01*
X55636Y-42389D01*
X55673Y-42370D01*
X55692Y-42333D01*
X55692Y-42276D01*
X55711Y-42239D01*
X55748Y-42220D01*
X55767Y-42220D01*
X55804Y-42239D01*
X55823Y-42276D01*
X55823Y-42333D01*
X55804Y-42370D01*
G54D11*
X52409Y-28264D02*
X52609Y-29064D01*
X52809Y-28264D01*
X53237Y-29026D02*
X53180Y-29064D01*
X53066Y-29064D01*
X53009Y-29026D01*
X52980Y-28950D01*
X52980Y-28645D01*
X53009Y-28569D01*
X53066Y-28530D01*
X53180Y-28530D01*
X53237Y-28569D01*
X53266Y-28645D01*
X53266Y-28721D01*
X52980Y-28797D01*
X53523Y-29064D02*
X53523Y-28530D01*
X53523Y-28683D02*
X53551Y-28607D01*
X53580Y-28569D01*
X53637Y-28530D01*
X53694Y-28530D01*
X53865Y-29026D02*
X53922Y-29064D01*
X54037Y-29064D01*
X54094Y-29026D01*
X54122Y-28950D01*
X54122Y-28911D01*
X54094Y-28835D01*
X54037Y-28797D01*
X53951Y-28797D01*
X53894Y-28759D01*
X53865Y-28683D01*
X53865Y-28645D01*
X53894Y-28569D01*
X53951Y-28530D01*
X54037Y-28530D01*
X54094Y-28569D01*
X54380Y-29064D02*
X54380Y-28530D01*
X54380Y-28264D02*
X54351Y-28302D01*
X54380Y-28340D01*
X54408Y-28302D01*
X54380Y-28264D01*
X54380Y-28340D01*
X54752Y-29064D02*
X54694Y-29026D01*
X54666Y-28988D01*
X54637Y-28911D01*
X54637Y-28683D01*
X54666Y-28607D01*
X54694Y-28569D01*
X54752Y-28530D01*
X54837Y-28530D01*
X54894Y-28569D01*
X54923Y-28607D01*
X54952Y-28683D01*
X54952Y-28911D01*
X54923Y-28988D01*
X54894Y-29026D01*
X54837Y-29064D01*
X54752Y-29064D01*
X55209Y-28530D02*
X55209Y-29064D01*
X55209Y-28607D02*
X55237Y-28569D01*
X55295Y-28530D01*
X55380Y-28530D01*
X55437Y-28569D01*
X55466Y-28645D01*
X55466Y-29064D01*
X56523Y-29064D02*
X56180Y-29064D01*
X56352Y-29064D02*
X56352Y-28264D01*
X56295Y-28378D01*
X56237Y-28454D01*
X56180Y-28492D01*
X56780Y-28988D02*
X56808Y-29026D01*
X56780Y-29064D01*
X56751Y-29026D01*
X56780Y-28988D01*
X56780Y-29064D01*
X57180Y-28264D02*
X57237Y-28264D01*
X57294Y-28302D01*
X57323Y-28340D01*
X57352Y-28416D01*
X57380Y-28569D01*
X57380Y-28759D01*
X57352Y-28911D01*
X57323Y-28988D01*
X57294Y-29026D01*
X57237Y-29064D01*
X57180Y-29064D01*
X57123Y-29026D01*
X57094Y-28988D01*
X57066Y-28911D01*
X57037Y-28759D01*
X57037Y-28569D01*
X57066Y-28416D01*
X57094Y-28340D01*
X57123Y-28302D01*
X57180Y-28264D01*
X57637Y-28759D02*
X58094Y-28759D01*
X58494Y-28264D02*
X58551Y-28264D01*
X58608Y-28302D01*
X58637Y-28340D01*
X58666Y-28416D01*
X58694Y-28569D01*
X58694Y-28759D01*
X58666Y-28911D01*
X58637Y-28988D01*
X58608Y-29026D01*
X58551Y-29064D01*
X58494Y-29064D01*
X58437Y-29026D01*
X58408Y-28988D01*
X58380Y-28911D01*
X58351Y-28759D01*
X58351Y-28569D01*
X58380Y-28416D01*
X58408Y-28340D01*
X58437Y-28302D01*
X58494Y-28264D01*
X52831Y-26484D02*
X52631Y-26103D01*
X52488Y-26484D02*
X52488Y-25684D01*
X52716Y-25684D01*
X52774Y-25722D01*
X52802Y-25760D01*
X52831Y-25836D01*
X52831Y-25950D01*
X52802Y-26027D01*
X52774Y-26065D01*
X52716Y-26103D01*
X52488Y-26103D01*
X53345Y-26484D02*
X53345Y-26065D01*
X53316Y-25989D01*
X53259Y-25950D01*
X53145Y-25950D01*
X53088Y-25989D01*
X53345Y-26446D02*
X53288Y-26484D01*
X53145Y-26484D01*
X53088Y-26446D01*
X53059Y-26370D01*
X53059Y-26293D01*
X53088Y-26217D01*
X53145Y-26179D01*
X53288Y-26179D01*
X53345Y-26141D01*
X53602Y-26446D02*
X53659Y-26484D01*
X53774Y-26484D01*
X53831Y-26446D01*
X53859Y-26370D01*
X53859Y-26331D01*
X53831Y-26255D01*
X53774Y-26217D01*
X53688Y-26217D01*
X53631Y-26179D01*
X53602Y-26103D01*
X53602Y-26065D01*
X53631Y-25989D01*
X53688Y-25950D01*
X53774Y-25950D01*
X53831Y-25989D01*
X54117Y-25950D02*
X54117Y-26750D01*
X54117Y-25989D02*
X54174Y-25950D01*
X54288Y-25950D01*
X54345Y-25989D01*
X54374Y-26027D01*
X54403Y-26103D01*
X54403Y-26331D01*
X54374Y-26408D01*
X54345Y-26446D01*
X54288Y-26484D01*
X54174Y-26484D01*
X54117Y-26446D01*
X54660Y-26484D02*
X54660Y-25684D01*
X54660Y-25989D02*
X54717Y-25950D01*
X54831Y-25950D01*
X54888Y-25989D01*
X54917Y-26027D01*
X54946Y-26103D01*
X54946Y-26331D01*
X54917Y-26408D01*
X54888Y-26446D01*
X54831Y-26484D01*
X54717Y-26484D01*
X54660Y-26446D01*
X55431Y-26446D02*
X55374Y-26484D01*
X55260Y-26484D01*
X55203Y-26446D01*
X55174Y-26370D01*
X55174Y-26065D01*
X55203Y-25989D01*
X55260Y-25950D01*
X55374Y-25950D01*
X55431Y-25989D01*
X55460Y-26065D01*
X55460Y-26141D01*
X55174Y-26217D01*
X55717Y-26484D02*
X55717Y-25950D01*
X55717Y-26103D02*
X55745Y-26027D01*
X55774Y-25989D01*
X55831Y-25950D01*
X55888Y-25950D01*
X56088Y-26484D02*
X56088Y-25950D01*
X56088Y-26103D02*
X56116Y-26027D01*
X56145Y-25989D01*
X56202Y-25950D01*
X56259Y-25950D01*
X56402Y-25950D02*
X56545Y-26484D01*
X56687Y-25950D02*
X56545Y-26484D01*
X56487Y-26674D01*
X56459Y-26712D01*
X56402Y-26750D01*
X57373Y-26484D02*
X57373Y-25684D01*
X57601Y-25684D01*
X57659Y-25722D01*
X57687Y-25760D01*
X57716Y-25836D01*
X57716Y-25950D01*
X57687Y-26027D01*
X57659Y-26065D01*
X57601Y-26103D01*
X57373Y-26103D01*
X57973Y-26484D02*
X57973Y-25684D01*
X53387Y-27724D02*
X53387Y-26924D01*
X53787Y-26924D02*
X53901Y-26924D01*
X53959Y-26962D01*
X54016Y-27038D01*
X54044Y-27190D01*
X54044Y-27457D01*
X54016Y-27610D01*
X53959Y-27686D01*
X53901Y-27724D01*
X53787Y-27724D01*
X53730Y-27686D01*
X53673Y-27610D01*
X53644Y-27457D01*
X53644Y-27190D01*
X53673Y-27038D01*
X53730Y-26962D01*
X53787Y-26924D01*
X54959Y-27305D02*
X55045Y-27343D01*
X55073Y-27381D01*
X55102Y-27457D01*
X55102Y-27571D01*
X55073Y-27648D01*
X55045Y-27686D01*
X54987Y-27724D01*
X54759Y-27724D01*
X54759Y-26924D01*
X54959Y-26924D01*
X55016Y-26962D01*
X55045Y-27000D01*
X55073Y-27076D01*
X55073Y-27152D01*
X55045Y-27229D01*
X55016Y-27267D01*
X54959Y-27305D01*
X54759Y-27305D01*
X55445Y-27724D02*
X55387Y-27686D01*
X55359Y-27648D01*
X55330Y-27571D01*
X55330Y-27343D01*
X55359Y-27267D01*
X55387Y-27229D01*
X55445Y-27190D01*
X55530Y-27190D01*
X55587Y-27229D01*
X55616Y-27267D01*
X55645Y-27343D01*
X55645Y-27571D01*
X55616Y-27648D01*
X55587Y-27686D01*
X55530Y-27724D01*
X55445Y-27724D01*
X56159Y-27724D02*
X56159Y-27305D01*
X56130Y-27229D01*
X56073Y-27190D01*
X55959Y-27190D01*
X55902Y-27229D01*
X56159Y-27686D02*
X56102Y-27724D01*
X55959Y-27724D01*
X55902Y-27686D01*
X55873Y-27610D01*
X55873Y-27533D01*
X55902Y-27457D01*
X55959Y-27419D01*
X56102Y-27419D01*
X56159Y-27381D01*
X56445Y-27724D02*
X56445Y-27190D01*
X56445Y-27343D02*
X56473Y-27267D01*
X56502Y-27229D01*
X56559Y-27190D01*
X56616Y-27190D01*
X57073Y-27724D02*
X57073Y-26924D01*
X57073Y-27686D02*
X57016Y-27724D01*
X56902Y-27724D01*
X56844Y-27686D01*
X56816Y-27648D01*
X56787Y-27571D01*
X56787Y-27343D01*
X56816Y-27267D01*
X56844Y-27229D01*
X56902Y-27190D01*
X57016Y-27190D01*
X57073Y-27229D01*
G54D10*
X55432Y-41482D02*
X55432Y-41032D01*
X55260Y-41032D01*
X55218Y-41054D01*
X55196Y-41075D01*
X55175Y-41118D01*
X55175Y-41182D01*
X55196Y-41225D01*
X55218Y-41246D01*
X55260Y-41268D01*
X55432Y-41268D01*
X54768Y-41032D02*
X54982Y-41032D01*
X55003Y-41246D01*
X54982Y-41225D01*
X54939Y-41204D01*
X54832Y-41204D01*
X54789Y-41225D01*
X54768Y-41246D01*
X54746Y-41289D01*
X54746Y-41396D01*
X54768Y-41439D01*
X54789Y-41461D01*
X54832Y-41482D01*
X54939Y-41482D01*
X54982Y-41461D01*
X55003Y-41439D01*
X52825Y-40006D02*
X52841Y-40023D01*
X52891Y-40040D01*
X52925Y-40040D01*
X52975Y-40023D01*
X53008Y-39990D01*
X53025Y-39956D01*
X53041Y-39890D01*
X53041Y-39840D01*
X53025Y-39773D01*
X53008Y-39740D01*
X52975Y-39706D01*
X52925Y-39690D01*
X52891Y-39690D01*
X52841Y-39706D01*
X52825Y-39723D01*
X52608Y-39690D02*
X52541Y-39690D01*
X52508Y-39706D01*
X52475Y-39740D01*
X52458Y-39806D01*
X52458Y-39923D01*
X52475Y-39990D01*
X52508Y-40023D01*
X52541Y-40040D01*
X52608Y-40040D01*
X52641Y-40023D01*
X52675Y-39990D01*
X52691Y-39923D01*
X52691Y-39806D01*
X52675Y-39740D01*
X52641Y-39706D01*
X52608Y-39690D01*
X52308Y-40040D02*
X52308Y-39690D01*
X52108Y-40040D01*
X52108Y-39690D01*
X51941Y-40040D02*
X51941Y-39690D01*
X51741Y-40040D01*
X51741Y-39690D01*
X51657Y-40073D02*
X51390Y-40073D01*
X51290Y-40040D02*
X51223Y-40040D01*
X51190Y-40023D01*
X51173Y-40006D01*
X51140Y-39956D01*
X51123Y-39890D01*
X51123Y-39756D01*
X51140Y-39723D01*
X51157Y-39706D01*
X51190Y-39690D01*
X51257Y-39690D01*
X51290Y-39706D01*
X51307Y-39723D01*
X51323Y-39756D01*
X51323Y-39840D01*
X51307Y-39873D01*
X51290Y-39890D01*
X51257Y-39906D01*
X51190Y-39906D01*
X51157Y-39890D01*
X51140Y-39873D01*
X51123Y-39840D01*
X51007Y-39690D02*
X50774Y-40040D01*
X50774Y-39690D02*
X51007Y-40040D01*
X50657Y-39723D02*
X50641Y-39706D01*
X50607Y-39690D01*
X50524Y-39690D01*
X50491Y-39706D01*
X50474Y-39723D01*
X50457Y-39756D01*
X50457Y-39790D01*
X50474Y-39840D01*
X50674Y-40040D01*
X50457Y-40040D01*
M02*
