G04 (created by PCBNEW (2012-apr-16-27)-stable) date Thu 27 Dec 2012 11:36:26 GMT*
G01*
G70*
G90*
%MOIN*%
G04 Gerber Fmt 3.4, Leading zero omitted, Abs format*
%FSLAX34Y34*%
G04 APERTURE LIST*
%ADD10C,0.001000*%
%ADD11C,0.015000*%
%ADD12C,0.008000*%
G04 APERTURE END LIST*
G54D10*
G54D11*
X70472Y-57480D02*
X33071Y-57480D01*
X70472Y-28740D02*
X70472Y-57480D01*
X65354Y-28740D02*
X70472Y-28740D01*
X27559Y-57480D02*
X33071Y-57480D01*
X27559Y-28740D02*
X27559Y-57480D01*
X55512Y-32679D02*
X55496Y-32832D01*
X55452Y-32979D01*
X55380Y-33115D01*
X55283Y-33234D01*
X55164Y-33332D01*
X55029Y-33405D01*
X54882Y-33450D01*
X54729Y-33466D01*
X54577Y-33453D01*
X54429Y-33409D01*
X54293Y-33338D01*
X54173Y-33242D01*
X54074Y-33124D01*
X54000Y-32989D01*
X53954Y-32842D01*
X53937Y-32690D01*
X53949Y-32537D01*
X53992Y-32389D01*
X54062Y-32253D01*
X54158Y-32132D01*
X54275Y-32032D01*
X54409Y-31957D01*
X54555Y-31910D01*
X54708Y-31892D01*
X54860Y-31903D01*
X55008Y-31945D01*
X55146Y-32014D01*
X55267Y-32109D01*
X55367Y-32225D01*
X55443Y-32359D01*
X55492Y-32505D01*
X55511Y-32657D01*
X55512Y-32679D01*
X60631Y-50395D02*
X60615Y-50548D01*
X60571Y-50695D01*
X60499Y-50831D01*
X60402Y-50950D01*
X60283Y-51048D01*
X60148Y-51121D01*
X60001Y-51166D01*
X59848Y-51182D01*
X59696Y-51169D01*
X59548Y-51125D01*
X59412Y-51054D01*
X59292Y-50958D01*
X59193Y-50840D01*
X59119Y-50705D01*
X59073Y-50558D01*
X59056Y-50406D01*
X59068Y-50253D01*
X59111Y-50105D01*
X59181Y-49969D01*
X59277Y-49848D01*
X59394Y-49748D01*
X59528Y-49673D01*
X59674Y-49626D01*
X59827Y-49608D01*
X59979Y-49619D01*
X60127Y-49661D01*
X60265Y-49730D01*
X60386Y-49825D01*
X60486Y-49941D01*
X60562Y-50075D01*
X60611Y-50221D01*
X60630Y-50373D01*
X60631Y-50395D01*
X30710Y-31101D02*
X30694Y-31254D01*
X30650Y-31401D01*
X30578Y-31537D01*
X30481Y-31656D01*
X30362Y-31754D01*
X30227Y-31827D01*
X30080Y-31872D01*
X29927Y-31888D01*
X29775Y-31875D01*
X29627Y-31831D01*
X29491Y-31760D01*
X29371Y-31664D01*
X29272Y-31546D01*
X29198Y-31411D01*
X29152Y-31264D01*
X29135Y-31112D01*
X29147Y-30959D01*
X29190Y-30811D01*
X29260Y-30675D01*
X29356Y-30554D01*
X29473Y-30454D01*
X29607Y-30379D01*
X29753Y-30332D01*
X29906Y-30314D01*
X30058Y-30325D01*
X30206Y-30367D01*
X30344Y-30436D01*
X30465Y-30531D01*
X30565Y-30647D01*
X30641Y-30781D01*
X30690Y-30927D01*
X30709Y-31079D01*
X30710Y-31101D01*
X30709Y-50394D02*
X30693Y-50547D01*
X30649Y-50694D01*
X30577Y-50830D01*
X30480Y-50949D01*
X30361Y-51047D01*
X30226Y-51120D01*
X30079Y-51165D01*
X29926Y-51181D01*
X29774Y-51168D01*
X29626Y-51124D01*
X29490Y-51053D01*
X29370Y-50957D01*
X29271Y-50839D01*
X29197Y-50704D01*
X29151Y-50557D01*
X29134Y-50405D01*
X29146Y-50252D01*
X29189Y-50104D01*
X29259Y-49968D01*
X29355Y-49847D01*
X29472Y-49747D01*
X29606Y-49672D01*
X29752Y-49625D01*
X29905Y-49607D01*
X30057Y-49618D01*
X30205Y-49660D01*
X30343Y-49729D01*
X30464Y-49824D01*
X30564Y-49940D01*
X30640Y-50074D01*
X30689Y-50220D01*
X30708Y-50372D01*
X30709Y-50394D01*
X65354Y-28740D02*
X27559Y-28740D01*
G54D10*
X30225Y-37675D02*
X30475Y-37925D01*
X30475Y-37675D02*
X30225Y-37925D01*
X32225Y-38175D02*
X32475Y-38425D01*
X32475Y-38175D02*
X32225Y-38425D01*
X32475Y-36925D02*
X32725Y-37175D01*
X32725Y-36925D02*
X32475Y-37175D01*
X32725Y-38175D02*
X32975Y-38425D01*
X32975Y-38175D02*
X32725Y-38425D01*
X33925Y-40325D02*
X34175Y-40575D01*
X34175Y-40325D02*
X33925Y-40575D01*
X37875Y-38125D02*
X38125Y-38375D01*
X38125Y-38125D02*
X37875Y-38375D01*
X39125Y-38625D02*
X39375Y-38875D01*
X39375Y-38625D02*
X39125Y-38875D01*
X39725Y-39625D02*
X39975Y-39875D01*
X39975Y-39625D02*
X39725Y-39875D01*
X39875Y-51875D02*
X40125Y-52125D01*
X40125Y-51875D02*
X39875Y-52125D01*
X40375Y-37375D02*
X40625Y-37625D01*
X40625Y-37375D02*
X40375Y-37625D01*
X40375Y-38625D02*
X40625Y-38875D01*
X40625Y-38625D02*
X40375Y-38875D01*
X40375Y-52375D02*
X40625Y-52625D01*
X40625Y-52375D02*
X40375Y-52625D01*
X40725Y-48625D02*
X40975Y-48875D01*
X40975Y-48625D02*
X40725Y-48875D01*
X40875Y-37375D02*
X41125Y-37625D01*
X41125Y-37375D02*
X40875Y-37625D01*
X41325Y-49025D02*
X41575Y-49275D01*
X41575Y-49025D02*
X41325Y-49275D01*
X44125Y-45225D02*
X44375Y-45475D01*
X44375Y-45225D02*
X44125Y-45475D01*
X44325Y-46025D02*
X44575Y-46275D01*
X44575Y-46025D02*
X44325Y-46275D01*
X44475Y-44725D02*
X44725Y-44975D01*
X44725Y-44725D02*
X44475Y-44975D01*
X45075Y-48725D02*
X45325Y-48975D01*
X45325Y-48725D02*
X45075Y-48975D01*
X46175Y-37550D02*
X46425Y-37800D01*
X46425Y-37550D02*
X46175Y-37800D01*
X47025Y-43425D02*
X47275Y-43675D01*
X47275Y-43425D02*
X47025Y-43675D01*
X48625Y-46625D02*
X48875Y-46875D01*
X48875Y-46625D02*
X48625Y-46875D01*
X48625Y-48375D02*
X48875Y-48625D01*
X48875Y-48375D02*
X48625Y-48625D01*
X49912Y-40097D02*
X50162Y-40347D01*
X50162Y-40097D02*
X49912Y-40347D01*
X49925Y-42575D02*
X50175Y-42825D01*
X50175Y-42575D02*
X49925Y-42825D01*
X51881Y-44822D02*
X52131Y-45072D01*
X52131Y-44822D02*
X51881Y-45072D01*
X53775Y-50425D02*
X54025Y-50675D01*
X54025Y-50425D02*
X53775Y-50675D01*
X54375Y-52375D02*
X54625Y-52625D01*
X54625Y-52375D02*
X54375Y-52625D01*
X54375Y-53625D02*
X54625Y-53875D01*
X54625Y-53625D02*
X54375Y-53875D01*
X55125Y-52375D02*
X55375Y-52625D01*
X55375Y-52375D02*
X55125Y-52625D01*
X55125Y-53375D02*
X55375Y-53625D01*
X55375Y-53375D02*
X55125Y-53625D01*
X55525Y-50425D02*
X55775Y-50675D01*
X55775Y-50425D02*
X55525Y-50675D01*
X55625Y-52625D02*
X55875Y-52875D01*
X55875Y-52625D02*
X55625Y-52875D01*
X55875Y-53125D02*
X56125Y-53375D01*
X56125Y-53125D02*
X55875Y-53375D01*
X57125Y-55375D02*
X57375Y-55625D01*
X57375Y-55375D02*
X57125Y-55625D01*
X57393Y-45216D02*
X57643Y-45466D01*
X57643Y-45216D02*
X57393Y-45466D01*
X57393Y-46003D02*
X57643Y-46253D01*
X57643Y-46003D02*
X57393Y-46253D01*
X57875Y-54625D02*
X58125Y-54875D01*
X58125Y-54625D02*
X57875Y-54875D01*
X58750Y-30950D02*
X59000Y-31200D01*
X59000Y-30950D02*
X58750Y-31200D01*
X58875Y-48125D02*
X59125Y-48375D01*
X59125Y-48125D02*
X58875Y-48375D01*
X59625Y-37325D02*
X59875Y-37575D01*
X59875Y-37325D02*
X59625Y-37575D01*
X60025Y-47625D02*
X60275Y-47875D01*
X60275Y-47625D02*
X60025Y-47875D01*
X60450Y-30950D02*
X60700Y-31200D01*
X60700Y-30950D02*
X60450Y-31200D01*
X61875Y-54125D02*
X62125Y-54375D01*
X62125Y-54125D02*
X61875Y-54375D01*
X62625Y-44625D02*
X62875Y-44875D01*
X62875Y-44625D02*
X62625Y-44875D01*
X63125Y-39875D02*
X63375Y-40125D01*
X63375Y-39875D02*
X63125Y-40125D01*
X63125Y-43675D02*
X63375Y-43925D01*
X63375Y-43675D02*
X63125Y-43925D01*
X63125Y-48125D02*
X63375Y-48375D01*
X63375Y-48125D02*
X63125Y-48375D01*
X63125Y-53875D02*
X63375Y-54125D01*
X63375Y-53875D02*
X63125Y-54125D01*
X63655Y-42395D02*
X63905Y-42645D01*
X63905Y-42395D02*
X63655Y-42645D01*
X64125Y-48625D02*
X64375Y-48875D01*
X64375Y-48625D02*
X64125Y-48875D01*
X29010Y-34800D02*
X29006Y-34831D01*
X28997Y-34860D01*
X28983Y-34888D01*
X28963Y-34912D01*
X28939Y-34932D01*
X28912Y-34947D01*
X28882Y-34956D01*
X28851Y-34959D01*
X28821Y-34957D01*
X28791Y-34948D01*
X28763Y-34933D01*
X28739Y-34914D01*
X28718Y-34890D01*
X28703Y-34863D01*
X28694Y-34833D01*
X28691Y-34802D01*
X28693Y-34772D01*
X28702Y-34742D01*
X28716Y-34714D01*
X28735Y-34689D01*
X28759Y-34669D01*
X28786Y-34654D01*
X28816Y-34644D01*
X28847Y-34641D01*
X28877Y-34643D01*
X28907Y-34651D01*
X28935Y-34665D01*
X28960Y-34685D01*
X28980Y-34708D01*
X28996Y-34735D01*
X29006Y-34765D01*
X29009Y-34796D01*
X29010Y-34800D01*
X29010Y-37050D02*
X29006Y-37081D01*
X28997Y-37110D01*
X28983Y-37138D01*
X28963Y-37162D01*
X28939Y-37182D01*
X28912Y-37197D01*
X28882Y-37206D01*
X28851Y-37209D01*
X28821Y-37207D01*
X28791Y-37198D01*
X28763Y-37183D01*
X28739Y-37164D01*
X28718Y-37140D01*
X28703Y-37113D01*
X28694Y-37083D01*
X28691Y-37052D01*
X28693Y-37022D01*
X28702Y-36992D01*
X28716Y-36964D01*
X28735Y-36939D01*
X28759Y-36919D01*
X28786Y-36904D01*
X28816Y-36894D01*
X28847Y-36891D01*
X28877Y-36893D01*
X28907Y-36901D01*
X28935Y-36915D01*
X28960Y-36935D01*
X28980Y-36958D01*
X28996Y-36985D01*
X29006Y-37015D01*
X29009Y-37046D01*
X29010Y-37050D01*
X29010Y-38050D02*
X29006Y-38081D01*
X28997Y-38110D01*
X28983Y-38138D01*
X28963Y-38162D01*
X28939Y-38182D01*
X28912Y-38197D01*
X28882Y-38206D01*
X28851Y-38209D01*
X28821Y-38207D01*
X28791Y-38198D01*
X28763Y-38183D01*
X28739Y-38164D01*
X28718Y-38140D01*
X28703Y-38113D01*
X28694Y-38083D01*
X28691Y-38052D01*
X28693Y-38022D01*
X28702Y-37992D01*
X28716Y-37964D01*
X28735Y-37939D01*
X28759Y-37919D01*
X28786Y-37904D01*
X28816Y-37894D01*
X28847Y-37891D01*
X28877Y-37893D01*
X28907Y-37901D01*
X28935Y-37915D01*
X28960Y-37935D01*
X28980Y-37958D01*
X28996Y-37985D01*
X29006Y-38015D01*
X29009Y-38046D01*
X29010Y-38050D01*
X29010Y-39050D02*
X29006Y-39081D01*
X28997Y-39110D01*
X28983Y-39138D01*
X28963Y-39162D01*
X28939Y-39182D01*
X28912Y-39197D01*
X28882Y-39206D01*
X28851Y-39209D01*
X28821Y-39207D01*
X28791Y-39198D01*
X28763Y-39183D01*
X28739Y-39164D01*
X28718Y-39140D01*
X28703Y-39113D01*
X28694Y-39083D01*
X28691Y-39052D01*
X28693Y-39022D01*
X28702Y-38992D01*
X28716Y-38964D01*
X28735Y-38939D01*
X28759Y-38919D01*
X28786Y-38904D01*
X28816Y-38894D01*
X28847Y-38891D01*
X28877Y-38893D01*
X28907Y-38901D01*
X28935Y-38915D01*
X28960Y-38935D01*
X28980Y-38958D01*
X28996Y-38985D01*
X29006Y-39015D01*
X29009Y-39046D01*
X29010Y-39050D01*
X29010Y-40050D02*
X29006Y-40081D01*
X28997Y-40110D01*
X28983Y-40138D01*
X28963Y-40162D01*
X28939Y-40182D01*
X28912Y-40197D01*
X28882Y-40206D01*
X28851Y-40209D01*
X28821Y-40207D01*
X28791Y-40198D01*
X28763Y-40183D01*
X28739Y-40164D01*
X28718Y-40140D01*
X28703Y-40113D01*
X28694Y-40083D01*
X28691Y-40052D01*
X28693Y-40022D01*
X28702Y-39992D01*
X28716Y-39964D01*
X28735Y-39939D01*
X28759Y-39919D01*
X28786Y-39904D01*
X28816Y-39894D01*
X28847Y-39891D01*
X28877Y-39893D01*
X28907Y-39901D01*
X28935Y-39915D01*
X28960Y-39935D01*
X28980Y-39958D01*
X28996Y-39985D01*
X29006Y-40015D01*
X29009Y-40046D01*
X29010Y-40050D01*
X29010Y-41050D02*
X29006Y-41081D01*
X28997Y-41110D01*
X28983Y-41138D01*
X28963Y-41162D01*
X28939Y-41182D01*
X28912Y-41197D01*
X28882Y-41206D01*
X28851Y-41209D01*
X28821Y-41207D01*
X28791Y-41198D01*
X28763Y-41183D01*
X28739Y-41164D01*
X28718Y-41140D01*
X28703Y-41113D01*
X28694Y-41083D01*
X28691Y-41052D01*
X28693Y-41022D01*
X28702Y-40992D01*
X28716Y-40964D01*
X28735Y-40939D01*
X28759Y-40919D01*
X28786Y-40904D01*
X28816Y-40894D01*
X28847Y-40891D01*
X28877Y-40893D01*
X28907Y-40901D01*
X28935Y-40915D01*
X28960Y-40935D01*
X28980Y-40958D01*
X28996Y-40985D01*
X29006Y-41015D01*
X29009Y-41046D01*
X29010Y-41050D01*
X29010Y-42050D02*
X29006Y-42081D01*
X28997Y-42110D01*
X28983Y-42138D01*
X28963Y-42162D01*
X28939Y-42182D01*
X28912Y-42197D01*
X28882Y-42206D01*
X28851Y-42209D01*
X28821Y-42207D01*
X28791Y-42198D01*
X28763Y-42183D01*
X28739Y-42164D01*
X28718Y-42140D01*
X28703Y-42113D01*
X28694Y-42083D01*
X28691Y-42052D01*
X28693Y-42022D01*
X28702Y-41992D01*
X28716Y-41964D01*
X28735Y-41939D01*
X28759Y-41919D01*
X28786Y-41904D01*
X28816Y-41894D01*
X28847Y-41891D01*
X28877Y-41893D01*
X28907Y-41901D01*
X28935Y-41915D01*
X28960Y-41935D01*
X28980Y-41958D01*
X28996Y-41985D01*
X29006Y-42015D01*
X29009Y-42046D01*
X29010Y-42050D01*
X29010Y-43050D02*
X29006Y-43081D01*
X28997Y-43110D01*
X28983Y-43138D01*
X28963Y-43162D01*
X28939Y-43182D01*
X28912Y-43197D01*
X28882Y-43206D01*
X28851Y-43209D01*
X28821Y-43207D01*
X28791Y-43198D01*
X28763Y-43183D01*
X28739Y-43164D01*
X28718Y-43140D01*
X28703Y-43113D01*
X28694Y-43083D01*
X28691Y-43052D01*
X28693Y-43022D01*
X28702Y-42992D01*
X28716Y-42964D01*
X28735Y-42939D01*
X28759Y-42919D01*
X28786Y-42904D01*
X28816Y-42894D01*
X28847Y-42891D01*
X28877Y-42893D01*
X28907Y-42901D01*
X28935Y-42915D01*
X28960Y-42935D01*
X28980Y-42958D01*
X28996Y-42985D01*
X29006Y-43015D01*
X29009Y-43046D01*
X29010Y-43050D01*
X29010Y-44050D02*
X29006Y-44081D01*
X28997Y-44110D01*
X28983Y-44138D01*
X28963Y-44162D01*
X28939Y-44182D01*
X28912Y-44197D01*
X28882Y-44206D01*
X28851Y-44209D01*
X28821Y-44207D01*
X28791Y-44198D01*
X28763Y-44183D01*
X28739Y-44164D01*
X28718Y-44140D01*
X28703Y-44113D01*
X28694Y-44083D01*
X28691Y-44052D01*
X28693Y-44022D01*
X28702Y-43992D01*
X28716Y-43964D01*
X28735Y-43939D01*
X28759Y-43919D01*
X28786Y-43904D01*
X28816Y-43894D01*
X28847Y-43891D01*
X28877Y-43893D01*
X28907Y-43901D01*
X28935Y-43915D01*
X28960Y-43935D01*
X28980Y-43958D01*
X28996Y-43985D01*
X29006Y-44015D01*
X29009Y-44046D01*
X29010Y-44050D01*
X29010Y-45050D02*
X29006Y-45081D01*
X28997Y-45110D01*
X28983Y-45138D01*
X28963Y-45162D01*
X28939Y-45182D01*
X28912Y-45197D01*
X28882Y-45206D01*
X28851Y-45209D01*
X28821Y-45207D01*
X28791Y-45198D01*
X28763Y-45183D01*
X28739Y-45164D01*
X28718Y-45140D01*
X28703Y-45113D01*
X28694Y-45083D01*
X28691Y-45052D01*
X28693Y-45022D01*
X28702Y-44992D01*
X28716Y-44964D01*
X28735Y-44939D01*
X28759Y-44919D01*
X28786Y-44904D01*
X28816Y-44894D01*
X28847Y-44891D01*
X28877Y-44893D01*
X28907Y-44901D01*
X28935Y-44915D01*
X28960Y-44935D01*
X28980Y-44958D01*
X28996Y-44985D01*
X29006Y-45015D01*
X29009Y-45046D01*
X29010Y-45050D01*
X29010Y-46050D02*
X29006Y-46081D01*
X28997Y-46110D01*
X28983Y-46138D01*
X28963Y-46162D01*
X28939Y-46182D01*
X28912Y-46197D01*
X28882Y-46206D01*
X28851Y-46209D01*
X28821Y-46207D01*
X28791Y-46198D01*
X28763Y-46183D01*
X28739Y-46164D01*
X28718Y-46140D01*
X28703Y-46113D01*
X28694Y-46083D01*
X28691Y-46052D01*
X28693Y-46022D01*
X28702Y-45992D01*
X28716Y-45964D01*
X28735Y-45939D01*
X28759Y-45919D01*
X28786Y-45904D01*
X28816Y-45894D01*
X28847Y-45891D01*
X28877Y-45893D01*
X28907Y-45901D01*
X28935Y-45915D01*
X28960Y-45935D01*
X28980Y-45958D01*
X28996Y-45985D01*
X29006Y-46015D01*
X29009Y-46046D01*
X29010Y-46050D01*
X29010Y-47050D02*
X29006Y-47081D01*
X28997Y-47110D01*
X28983Y-47138D01*
X28963Y-47162D01*
X28939Y-47182D01*
X28912Y-47197D01*
X28882Y-47206D01*
X28851Y-47209D01*
X28821Y-47207D01*
X28791Y-47198D01*
X28763Y-47183D01*
X28739Y-47164D01*
X28718Y-47140D01*
X28703Y-47113D01*
X28694Y-47083D01*
X28691Y-47052D01*
X28693Y-47022D01*
X28702Y-46992D01*
X28716Y-46964D01*
X28735Y-46939D01*
X28759Y-46919D01*
X28786Y-46904D01*
X28816Y-46894D01*
X28847Y-46891D01*
X28877Y-46893D01*
X28907Y-46901D01*
X28935Y-46915D01*
X28960Y-46935D01*
X28980Y-46958D01*
X28996Y-46985D01*
X29006Y-47015D01*
X29009Y-47046D01*
X29010Y-47050D01*
X29010Y-48050D02*
X29006Y-48081D01*
X28997Y-48110D01*
X28983Y-48138D01*
X28963Y-48162D01*
X28939Y-48182D01*
X28912Y-48197D01*
X28882Y-48206D01*
X28851Y-48209D01*
X28821Y-48207D01*
X28791Y-48198D01*
X28763Y-48183D01*
X28739Y-48164D01*
X28718Y-48140D01*
X28703Y-48113D01*
X28694Y-48083D01*
X28691Y-48052D01*
X28693Y-48022D01*
X28702Y-47992D01*
X28716Y-47964D01*
X28735Y-47939D01*
X28759Y-47919D01*
X28786Y-47904D01*
X28816Y-47894D01*
X28847Y-47891D01*
X28877Y-47893D01*
X28907Y-47901D01*
X28935Y-47915D01*
X28960Y-47935D01*
X28980Y-47958D01*
X28996Y-47985D01*
X29006Y-48015D01*
X29009Y-48046D01*
X29010Y-48050D01*
X29035Y-55125D02*
X29031Y-55156D01*
X29022Y-55185D01*
X29008Y-55213D01*
X28988Y-55237D01*
X28964Y-55257D01*
X28937Y-55272D01*
X28907Y-55281D01*
X28876Y-55284D01*
X28846Y-55282D01*
X28816Y-55273D01*
X28788Y-55258D01*
X28764Y-55239D01*
X28743Y-55215D01*
X28728Y-55188D01*
X28719Y-55158D01*
X28716Y-55127D01*
X28718Y-55097D01*
X28727Y-55067D01*
X28741Y-55039D01*
X28760Y-55014D01*
X28784Y-54994D01*
X28811Y-54979D01*
X28841Y-54969D01*
X28872Y-54966D01*
X28902Y-54968D01*
X28932Y-54976D01*
X28960Y-54990D01*
X28985Y-55010D01*
X29005Y-55033D01*
X29021Y-55060D01*
X29031Y-55090D01*
X29034Y-55121D01*
X29035Y-55125D01*
X30010Y-34800D02*
X30006Y-34831D01*
X29997Y-34860D01*
X29983Y-34888D01*
X29963Y-34912D01*
X29939Y-34932D01*
X29912Y-34947D01*
X29882Y-34956D01*
X29851Y-34959D01*
X29821Y-34957D01*
X29791Y-34948D01*
X29763Y-34933D01*
X29739Y-34914D01*
X29718Y-34890D01*
X29703Y-34863D01*
X29694Y-34833D01*
X29691Y-34802D01*
X29693Y-34772D01*
X29702Y-34742D01*
X29716Y-34714D01*
X29735Y-34689D01*
X29759Y-34669D01*
X29786Y-34654D01*
X29816Y-34644D01*
X29847Y-34641D01*
X29877Y-34643D01*
X29907Y-34651D01*
X29935Y-34665D01*
X29960Y-34685D01*
X29980Y-34708D01*
X29996Y-34735D01*
X30006Y-34765D01*
X30009Y-34796D01*
X30010Y-34800D01*
X30035Y-55125D02*
X30031Y-55156D01*
X30022Y-55185D01*
X30008Y-55213D01*
X29988Y-55237D01*
X29964Y-55257D01*
X29937Y-55272D01*
X29907Y-55281D01*
X29876Y-55284D01*
X29846Y-55282D01*
X29816Y-55273D01*
X29788Y-55258D01*
X29764Y-55239D01*
X29743Y-55215D01*
X29728Y-55188D01*
X29719Y-55158D01*
X29716Y-55127D01*
X29718Y-55097D01*
X29727Y-55067D01*
X29741Y-55039D01*
X29760Y-55014D01*
X29784Y-54994D01*
X29811Y-54979D01*
X29841Y-54969D01*
X29872Y-54966D01*
X29902Y-54968D01*
X29932Y-54976D01*
X29960Y-54990D01*
X29985Y-55010D01*
X30005Y-55033D01*
X30021Y-55060D01*
X30031Y-55090D01*
X30034Y-55121D01*
X30035Y-55125D01*
X31010Y-34800D02*
X31006Y-34831D01*
X30997Y-34860D01*
X30983Y-34888D01*
X30963Y-34912D01*
X30939Y-34932D01*
X30912Y-34947D01*
X30882Y-34956D01*
X30851Y-34959D01*
X30821Y-34957D01*
X30791Y-34948D01*
X30763Y-34933D01*
X30739Y-34914D01*
X30718Y-34890D01*
X30703Y-34863D01*
X30694Y-34833D01*
X30691Y-34802D01*
X30693Y-34772D01*
X30702Y-34742D01*
X30716Y-34714D01*
X30735Y-34689D01*
X30759Y-34669D01*
X30786Y-34654D01*
X30816Y-34644D01*
X30847Y-34641D01*
X30877Y-34643D01*
X30907Y-34651D01*
X30935Y-34665D01*
X30960Y-34685D01*
X30980Y-34708D01*
X30996Y-34735D01*
X31006Y-34765D01*
X31009Y-34796D01*
X31010Y-34800D01*
X31035Y-55125D02*
X31031Y-55156D01*
X31022Y-55185D01*
X31008Y-55213D01*
X30988Y-55237D01*
X30964Y-55257D01*
X30937Y-55272D01*
X30907Y-55281D01*
X30876Y-55284D01*
X30846Y-55282D01*
X30816Y-55273D01*
X30788Y-55258D01*
X30764Y-55239D01*
X30743Y-55215D01*
X30728Y-55188D01*
X30719Y-55158D01*
X30716Y-55127D01*
X30718Y-55097D01*
X30727Y-55067D01*
X30741Y-55039D01*
X30760Y-55014D01*
X30784Y-54994D01*
X30811Y-54979D01*
X30841Y-54969D01*
X30872Y-54966D01*
X30902Y-54968D01*
X30932Y-54976D01*
X30960Y-54990D01*
X30985Y-55010D01*
X31005Y-55033D01*
X31021Y-55060D01*
X31031Y-55090D01*
X31034Y-55121D01*
X31035Y-55125D01*
X32010Y-34800D02*
X32006Y-34831D01*
X31997Y-34860D01*
X31983Y-34888D01*
X31963Y-34912D01*
X31939Y-34932D01*
X31912Y-34947D01*
X31882Y-34956D01*
X31851Y-34959D01*
X31821Y-34957D01*
X31791Y-34948D01*
X31763Y-34933D01*
X31739Y-34914D01*
X31718Y-34890D01*
X31703Y-34863D01*
X31694Y-34833D01*
X31691Y-34802D01*
X31693Y-34772D01*
X31702Y-34742D01*
X31716Y-34714D01*
X31735Y-34689D01*
X31759Y-34669D01*
X31786Y-34654D01*
X31816Y-34644D01*
X31847Y-34641D01*
X31877Y-34643D01*
X31907Y-34651D01*
X31935Y-34665D01*
X31960Y-34685D01*
X31980Y-34708D01*
X31996Y-34735D01*
X32006Y-34765D01*
X32009Y-34796D01*
X32010Y-34800D01*
X32035Y-55125D02*
X32031Y-55156D01*
X32022Y-55185D01*
X32008Y-55213D01*
X31988Y-55237D01*
X31964Y-55257D01*
X31937Y-55272D01*
X31907Y-55281D01*
X31876Y-55284D01*
X31846Y-55282D01*
X31816Y-55273D01*
X31788Y-55258D01*
X31764Y-55239D01*
X31743Y-55215D01*
X31728Y-55188D01*
X31719Y-55158D01*
X31716Y-55127D01*
X31718Y-55097D01*
X31727Y-55067D01*
X31741Y-55039D01*
X31760Y-55014D01*
X31784Y-54994D01*
X31811Y-54979D01*
X31841Y-54969D01*
X31872Y-54966D01*
X31902Y-54968D01*
X31932Y-54976D01*
X31960Y-54990D01*
X31985Y-55010D01*
X32005Y-55033D01*
X32021Y-55060D01*
X32031Y-55090D01*
X32034Y-55121D01*
X32035Y-55125D01*
X33035Y-55125D02*
X33031Y-55156D01*
X33022Y-55185D01*
X33008Y-55213D01*
X32988Y-55237D01*
X32964Y-55257D01*
X32937Y-55272D01*
X32907Y-55281D01*
X32876Y-55284D01*
X32846Y-55282D01*
X32816Y-55273D01*
X32788Y-55258D01*
X32764Y-55239D01*
X32743Y-55215D01*
X32728Y-55188D01*
X32719Y-55158D01*
X32716Y-55127D01*
X32718Y-55097D01*
X32727Y-55067D01*
X32741Y-55039D01*
X32760Y-55014D01*
X32784Y-54994D01*
X32811Y-54979D01*
X32841Y-54969D01*
X32872Y-54966D01*
X32902Y-54968D01*
X32932Y-54976D01*
X32960Y-54990D01*
X32985Y-55010D01*
X33005Y-55033D01*
X33021Y-55060D01*
X33031Y-55090D01*
X33034Y-55121D01*
X33035Y-55125D01*
X34035Y-55125D02*
X34031Y-55156D01*
X34022Y-55185D01*
X34008Y-55213D01*
X33988Y-55237D01*
X33964Y-55257D01*
X33937Y-55272D01*
X33907Y-55281D01*
X33876Y-55284D01*
X33846Y-55282D01*
X33816Y-55273D01*
X33788Y-55258D01*
X33764Y-55239D01*
X33743Y-55215D01*
X33728Y-55188D01*
X33719Y-55158D01*
X33716Y-55127D01*
X33718Y-55097D01*
X33727Y-55067D01*
X33741Y-55039D01*
X33760Y-55014D01*
X33784Y-54994D01*
X33811Y-54979D01*
X33841Y-54969D01*
X33872Y-54966D01*
X33902Y-54968D01*
X33932Y-54976D01*
X33960Y-54990D01*
X33985Y-55010D01*
X34005Y-55033D01*
X34021Y-55060D01*
X34031Y-55090D01*
X34034Y-55121D01*
X34035Y-55125D01*
X35035Y-55125D02*
X35031Y-55156D01*
X35022Y-55185D01*
X35008Y-55213D01*
X34988Y-55237D01*
X34964Y-55257D01*
X34937Y-55272D01*
X34907Y-55281D01*
X34876Y-55284D01*
X34846Y-55282D01*
X34816Y-55273D01*
X34788Y-55258D01*
X34764Y-55239D01*
X34743Y-55215D01*
X34728Y-55188D01*
X34719Y-55158D01*
X34716Y-55127D01*
X34718Y-55097D01*
X34727Y-55067D01*
X34741Y-55039D01*
X34760Y-55014D01*
X34784Y-54994D01*
X34811Y-54979D01*
X34841Y-54969D01*
X34872Y-54966D01*
X34902Y-54968D01*
X34932Y-54976D01*
X34960Y-54990D01*
X34985Y-55010D01*
X35005Y-55033D01*
X35021Y-55060D01*
X35031Y-55090D01*
X35034Y-55121D01*
X35035Y-55125D01*
X36035Y-55125D02*
X36031Y-55156D01*
X36022Y-55185D01*
X36008Y-55213D01*
X35988Y-55237D01*
X35964Y-55257D01*
X35937Y-55272D01*
X35907Y-55281D01*
X35876Y-55284D01*
X35846Y-55282D01*
X35816Y-55273D01*
X35788Y-55258D01*
X35764Y-55239D01*
X35743Y-55215D01*
X35728Y-55188D01*
X35719Y-55158D01*
X35716Y-55127D01*
X35718Y-55097D01*
X35727Y-55067D01*
X35741Y-55039D01*
X35760Y-55014D01*
X35784Y-54994D01*
X35811Y-54979D01*
X35841Y-54969D01*
X35872Y-54966D01*
X35902Y-54968D01*
X35932Y-54976D01*
X35960Y-54990D01*
X35985Y-55010D01*
X36005Y-55033D01*
X36021Y-55060D01*
X36031Y-55090D01*
X36034Y-55121D01*
X36035Y-55125D01*
X36910Y-34850D02*
X36906Y-34881D01*
X36897Y-34910D01*
X36883Y-34938D01*
X36863Y-34962D01*
X36839Y-34982D01*
X36812Y-34997D01*
X36782Y-35006D01*
X36751Y-35009D01*
X36721Y-35007D01*
X36691Y-34998D01*
X36663Y-34983D01*
X36639Y-34964D01*
X36618Y-34940D01*
X36603Y-34913D01*
X36594Y-34883D01*
X36591Y-34852D01*
X36593Y-34822D01*
X36602Y-34792D01*
X36616Y-34764D01*
X36635Y-34739D01*
X36659Y-34719D01*
X36686Y-34704D01*
X36716Y-34694D01*
X36747Y-34691D01*
X36777Y-34693D01*
X36807Y-34701D01*
X36835Y-34715D01*
X36860Y-34735D01*
X36880Y-34758D01*
X36896Y-34785D01*
X36906Y-34815D01*
X36909Y-34846D01*
X36910Y-34850D01*
X36910Y-37000D02*
X36906Y-37031D01*
X36897Y-37060D01*
X36883Y-37088D01*
X36863Y-37112D01*
X36839Y-37132D01*
X36812Y-37147D01*
X36782Y-37156D01*
X36751Y-37159D01*
X36721Y-37157D01*
X36691Y-37148D01*
X36663Y-37133D01*
X36639Y-37114D01*
X36618Y-37090D01*
X36603Y-37063D01*
X36594Y-37033D01*
X36591Y-37002D01*
X36593Y-36972D01*
X36602Y-36942D01*
X36616Y-36914D01*
X36635Y-36889D01*
X36659Y-36869D01*
X36686Y-36854D01*
X36716Y-36844D01*
X36747Y-36841D01*
X36777Y-36843D01*
X36807Y-36851D01*
X36835Y-36865D01*
X36860Y-36885D01*
X36880Y-36908D01*
X36896Y-36935D01*
X36906Y-36965D01*
X36909Y-36996D01*
X36910Y-37000D01*
X36910Y-38000D02*
X36906Y-38031D01*
X36897Y-38060D01*
X36883Y-38088D01*
X36863Y-38112D01*
X36839Y-38132D01*
X36812Y-38147D01*
X36782Y-38156D01*
X36751Y-38159D01*
X36721Y-38157D01*
X36691Y-38148D01*
X36663Y-38133D01*
X36639Y-38114D01*
X36618Y-38090D01*
X36603Y-38063D01*
X36594Y-38033D01*
X36591Y-38002D01*
X36593Y-37972D01*
X36602Y-37942D01*
X36616Y-37914D01*
X36635Y-37889D01*
X36659Y-37869D01*
X36686Y-37854D01*
X36716Y-37844D01*
X36747Y-37841D01*
X36777Y-37843D01*
X36807Y-37851D01*
X36835Y-37865D01*
X36860Y-37885D01*
X36880Y-37908D01*
X36896Y-37935D01*
X36906Y-37965D01*
X36909Y-37996D01*
X36910Y-38000D01*
X36910Y-39000D02*
X36906Y-39031D01*
X36897Y-39060D01*
X36883Y-39088D01*
X36863Y-39112D01*
X36839Y-39132D01*
X36812Y-39147D01*
X36782Y-39156D01*
X36751Y-39159D01*
X36721Y-39157D01*
X36691Y-39148D01*
X36663Y-39133D01*
X36639Y-39114D01*
X36618Y-39090D01*
X36603Y-39063D01*
X36594Y-39033D01*
X36591Y-39002D01*
X36593Y-38972D01*
X36602Y-38942D01*
X36616Y-38914D01*
X36635Y-38889D01*
X36659Y-38869D01*
X36686Y-38854D01*
X36716Y-38844D01*
X36747Y-38841D01*
X36777Y-38843D01*
X36807Y-38851D01*
X36835Y-38865D01*
X36860Y-38885D01*
X36880Y-38908D01*
X36896Y-38935D01*
X36906Y-38965D01*
X36909Y-38996D01*
X36910Y-39000D01*
X36910Y-40000D02*
X36906Y-40031D01*
X36897Y-40060D01*
X36883Y-40088D01*
X36863Y-40112D01*
X36839Y-40132D01*
X36812Y-40147D01*
X36782Y-40156D01*
X36751Y-40159D01*
X36721Y-40157D01*
X36691Y-40148D01*
X36663Y-40133D01*
X36639Y-40114D01*
X36618Y-40090D01*
X36603Y-40063D01*
X36594Y-40033D01*
X36591Y-40002D01*
X36593Y-39972D01*
X36602Y-39942D01*
X36616Y-39914D01*
X36635Y-39889D01*
X36659Y-39869D01*
X36686Y-39854D01*
X36716Y-39844D01*
X36747Y-39841D01*
X36777Y-39843D01*
X36807Y-39851D01*
X36835Y-39865D01*
X36860Y-39885D01*
X36880Y-39908D01*
X36896Y-39935D01*
X36906Y-39965D01*
X36909Y-39996D01*
X36910Y-40000D01*
X36910Y-41000D02*
X36906Y-41031D01*
X36897Y-41060D01*
X36883Y-41088D01*
X36863Y-41112D01*
X36839Y-41132D01*
X36812Y-41147D01*
X36782Y-41156D01*
X36751Y-41159D01*
X36721Y-41157D01*
X36691Y-41148D01*
X36663Y-41133D01*
X36639Y-41114D01*
X36618Y-41090D01*
X36603Y-41063D01*
X36594Y-41033D01*
X36591Y-41002D01*
X36593Y-40972D01*
X36602Y-40942D01*
X36616Y-40914D01*
X36635Y-40889D01*
X36659Y-40869D01*
X36686Y-40854D01*
X36716Y-40844D01*
X36747Y-40841D01*
X36777Y-40843D01*
X36807Y-40851D01*
X36835Y-40865D01*
X36860Y-40885D01*
X36880Y-40908D01*
X36896Y-40935D01*
X36906Y-40965D01*
X36909Y-40996D01*
X36910Y-41000D01*
X36910Y-42000D02*
X36906Y-42031D01*
X36897Y-42060D01*
X36883Y-42088D01*
X36863Y-42112D01*
X36839Y-42132D01*
X36812Y-42147D01*
X36782Y-42156D01*
X36751Y-42159D01*
X36721Y-42157D01*
X36691Y-42148D01*
X36663Y-42133D01*
X36639Y-42114D01*
X36618Y-42090D01*
X36603Y-42063D01*
X36594Y-42033D01*
X36591Y-42002D01*
X36593Y-41972D01*
X36602Y-41942D01*
X36616Y-41914D01*
X36635Y-41889D01*
X36659Y-41869D01*
X36686Y-41854D01*
X36716Y-41844D01*
X36747Y-41841D01*
X36777Y-41843D01*
X36807Y-41851D01*
X36835Y-41865D01*
X36860Y-41885D01*
X36880Y-41908D01*
X36896Y-41935D01*
X36906Y-41965D01*
X36909Y-41996D01*
X36910Y-42000D01*
X36910Y-43000D02*
X36906Y-43031D01*
X36897Y-43060D01*
X36883Y-43088D01*
X36863Y-43112D01*
X36839Y-43132D01*
X36812Y-43147D01*
X36782Y-43156D01*
X36751Y-43159D01*
X36721Y-43157D01*
X36691Y-43148D01*
X36663Y-43133D01*
X36639Y-43114D01*
X36618Y-43090D01*
X36603Y-43063D01*
X36594Y-43033D01*
X36591Y-43002D01*
X36593Y-42972D01*
X36602Y-42942D01*
X36616Y-42914D01*
X36635Y-42889D01*
X36659Y-42869D01*
X36686Y-42854D01*
X36716Y-42844D01*
X36747Y-42841D01*
X36777Y-42843D01*
X36807Y-42851D01*
X36835Y-42865D01*
X36860Y-42885D01*
X36880Y-42908D01*
X36896Y-42935D01*
X36906Y-42965D01*
X36909Y-42996D01*
X36910Y-43000D01*
X36910Y-44000D02*
X36906Y-44031D01*
X36897Y-44060D01*
X36883Y-44088D01*
X36863Y-44112D01*
X36839Y-44132D01*
X36812Y-44147D01*
X36782Y-44156D01*
X36751Y-44159D01*
X36721Y-44157D01*
X36691Y-44148D01*
X36663Y-44133D01*
X36639Y-44114D01*
X36618Y-44090D01*
X36603Y-44063D01*
X36594Y-44033D01*
X36591Y-44002D01*
X36593Y-43972D01*
X36602Y-43942D01*
X36616Y-43914D01*
X36635Y-43889D01*
X36659Y-43869D01*
X36686Y-43854D01*
X36716Y-43844D01*
X36747Y-43841D01*
X36777Y-43843D01*
X36807Y-43851D01*
X36835Y-43865D01*
X36860Y-43885D01*
X36880Y-43908D01*
X36896Y-43935D01*
X36906Y-43965D01*
X36909Y-43996D01*
X36910Y-44000D01*
X36910Y-45000D02*
X36906Y-45031D01*
X36897Y-45060D01*
X36883Y-45088D01*
X36863Y-45112D01*
X36839Y-45132D01*
X36812Y-45147D01*
X36782Y-45156D01*
X36751Y-45159D01*
X36721Y-45157D01*
X36691Y-45148D01*
X36663Y-45133D01*
X36639Y-45114D01*
X36618Y-45090D01*
X36603Y-45063D01*
X36594Y-45033D01*
X36591Y-45002D01*
X36593Y-44972D01*
X36602Y-44942D01*
X36616Y-44914D01*
X36635Y-44889D01*
X36659Y-44869D01*
X36686Y-44854D01*
X36716Y-44844D01*
X36747Y-44841D01*
X36777Y-44843D01*
X36807Y-44851D01*
X36835Y-44865D01*
X36860Y-44885D01*
X36880Y-44908D01*
X36896Y-44935D01*
X36906Y-44965D01*
X36909Y-44996D01*
X36910Y-45000D01*
X36910Y-46000D02*
X36906Y-46031D01*
X36897Y-46060D01*
X36883Y-46088D01*
X36863Y-46112D01*
X36839Y-46132D01*
X36812Y-46147D01*
X36782Y-46156D01*
X36751Y-46159D01*
X36721Y-46157D01*
X36691Y-46148D01*
X36663Y-46133D01*
X36639Y-46114D01*
X36618Y-46090D01*
X36603Y-46063D01*
X36594Y-46033D01*
X36591Y-46002D01*
X36593Y-45972D01*
X36602Y-45942D01*
X36616Y-45914D01*
X36635Y-45889D01*
X36659Y-45869D01*
X36686Y-45854D01*
X36716Y-45844D01*
X36747Y-45841D01*
X36777Y-45843D01*
X36807Y-45851D01*
X36835Y-45865D01*
X36860Y-45885D01*
X36880Y-45908D01*
X36896Y-45935D01*
X36906Y-45965D01*
X36909Y-45996D01*
X36910Y-46000D01*
X36910Y-47000D02*
X36906Y-47031D01*
X36897Y-47060D01*
X36883Y-47088D01*
X36863Y-47112D01*
X36839Y-47132D01*
X36812Y-47147D01*
X36782Y-47156D01*
X36751Y-47159D01*
X36721Y-47157D01*
X36691Y-47148D01*
X36663Y-47133D01*
X36639Y-47114D01*
X36618Y-47090D01*
X36603Y-47063D01*
X36594Y-47033D01*
X36591Y-47002D01*
X36593Y-46972D01*
X36602Y-46942D01*
X36616Y-46914D01*
X36635Y-46889D01*
X36659Y-46869D01*
X36686Y-46854D01*
X36716Y-46844D01*
X36747Y-46841D01*
X36777Y-46843D01*
X36807Y-46851D01*
X36835Y-46865D01*
X36860Y-46885D01*
X36880Y-46908D01*
X36896Y-46935D01*
X36906Y-46965D01*
X36909Y-46996D01*
X36910Y-47000D01*
X36910Y-48000D02*
X36906Y-48031D01*
X36897Y-48060D01*
X36883Y-48088D01*
X36863Y-48112D01*
X36839Y-48132D01*
X36812Y-48147D01*
X36782Y-48156D01*
X36751Y-48159D01*
X36721Y-48157D01*
X36691Y-48148D01*
X36663Y-48133D01*
X36639Y-48114D01*
X36618Y-48090D01*
X36603Y-48063D01*
X36594Y-48033D01*
X36591Y-48002D01*
X36593Y-47972D01*
X36602Y-47942D01*
X36616Y-47914D01*
X36635Y-47889D01*
X36659Y-47869D01*
X36686Y-47854D01*
X36716Y-47844D01*
X36747Y-47841D01*
X36777Y-47843D01*
X36807Y-47851D01*
X36835Y-47865D01*
X36860Y-47885D01*
X36880Y-47908D01*
X36896Y-47935D01*
X36906Y-47965D01*
X36909Y-47996D01*
X36910Y-48000D01*
X37035Y-55125D02*
X37031Y-55156D01*
X37022Y-55185D01*
X37008Y-55213D01*
X36988Y-55237D01*
X36964Y-55257D01*
X36937Y-55272D01*
X36907Y-55281D01*
X36876Y-55284D01*
X36846Y-55282D01*
X36816Y-55273D01*
X36788Y-55258D01*
X36764Y-55239D01*
X36743Y-55215D01*
X36728Y-55188D01*
X36719Y-55158D01*
X36716Y-55127D01*
X36718Y-55097D01*
X36727Y-55067D01*
X36741Y-55039D01*
X36760Y-55014D01*
X36784Y-54994D01*
X36811Y-54979D01*
X36841Y-54969D01*
X36872Y-54966D01*
X36902Y-54968D01*
X36932Y-54976D01*
X36960Y-54990D01*
X36985Y-55010D01*
X37005Y-55033D01*
X37021Y-55060D01*
X37031Y-55090D01*
X37034Y-55121D01*
X37035Y-55125D01*
X37910Y-34850D02*
X37906Y-34881D01*
X37897Y-34910D01*
X37883Y-34938D01*
X37863Y-34962D01*
X37839Y-34982D01*
X37812Y-34997D01*
X37782Y-35006D01*
X37751Y-35009D01*
X37721Y-35007D01*
X37691Y-34998D01*
X37663Y-34983D01*
X37639Y-34964D01*
X37618Y-34940D01*
X37603Y-34913D01*
X37594Y-34883D01*
X37591Y-34852D01*
X37593Y-34822D01*
X37602Y-34792D01*
X37616Y-34764D01*
X37635Y-34739D01*
X37659Y-34719D01*
X37686Y-34704D01*
X37716Y-34694D01*
X37747Y-34691D01*
X37777Y-34693D01*
X37807Y-34701D01*
X37835Y-34715D01*
X37860Y-34735D01*
X37880Y-34758D01*
X37896Y-34785D01*
X37906Y-34815D01*
X37909Y-34846D01*
X37910Y-34850D01*
X38035Y-55125D02*
X38031Y-55156D01*
X38022Y-55185D01*
X38008Y-55213D01*
X37988Y-55237D01*
X37964Y-55257D01*
X37937Y-55272D01*
X37907Y-55281D01*
X37876Y-55284D01*
X37846Y-55282D01*
X37816Y-55273D01*
X37788Y-55258D01*
X37764Y-55239D01*
X37743Y-55215D01*
X37728Y-55188D01*
X37719Y-55158D01*
X37716Y-55127D01*
X37718Y-55097D01*
X37727Y-55067D01*
X37741Y-55039D01*
X37760Y-55014D01*
X37784Y-54994D01*
X37811Y-54979D01*
X37841Y-54969D01*
X37872Y-54966D01*
X37902Y-54968D01*
X37932Y-54976D01*
X37960Y-54990D01*
X37985Y-55010D01*
X38005Y-55033D01*
X38021Y-55060D01*
X38031Y-55090D01*
X38034Y-55121D01*
X38035Y-55125D01*
X38910Y-34850D02*
X38906Y-34881D01*
X38897Y-34910D01*
X38883Y-34938D01*
X38863Y-34962D01*
X38839Y-34982D01*
X38812Y-34997D01*
X38782Y-35006D01*
X38751Y-35009D01*
X38721Y-35007D01*
X38691Y-34998D01*
X38663Y-34983D01*
X38639Y-34964D01*
X38618Y-34940D01*
X38603Y-34913D01*
X38594Y-34883D01*
X38591Y-34852D01*
X38593Y-34822D01*
X38602Y-34792D01*
X38616Y-34764D01*
X38635Y-34739D01*
X38659Y-34719D01*
X38686Y-34704D01*
X38716Y-34694D01*
X38747Y-34691D01*
X38777Y-34693D01*
X38807Y-34701D01*
X38835Y-34715D01*
X38860Y-34735D01*
X38880Y-34758D01*
X38896Y-34785D01*
X38906Y-34815D01*
X38909Y-34846D01*
X38910Y-34850D01*
X39035Y-55125D02*
X39031Y-55156D01*
X39022Y-55185D01*
X39008Y-55213D01*
X38988Y-55237D01*
X38964Y-55257D01*
X38937Y-55272D01*
X38907Y-55281D01*
X38876Y-55284D01*
X38846Y-55282D01*
X38816Y-55273D01*
X38788Y-55258D01*
X38764Y-55239D01*
X38743Y-55215D01*
X38728Y-55188D01*
X38719Y-55158D01*
X38716Y-55127D01*
X38718Y-55097D01*
X38727Y-55067D01*
X38741Y-55039D01*
X38760Y-55014D01*
X38784Y-54994D01*
X38811Y-54979D01*
X38841Y-54969D01*
X38872Y-54966D01*
X38902Y-54968D01*
X38932Y-54976D01*
X38960Y-54990D01*
X38985Y-55010D01*
X39005Y-55033D01*
X39021Y-55060D01*
X39031Y-55090D01*
X39034Y-55121D01*
X39035Y-55125D01*
X39910Y-34850D02*
X39906Y-34881D01*
X39897Y-34910D01*
X39883Y-34938D01*
X39863Y-34962D01*
X39839Y-34982D01*
X39812Y-34997D01*
X39782Y-35006D01*
X39751Y-35009D01*
X39721Y-35007D01*
X39691Y-34998D01*
X39663Y-34983D01*
X39639Y-34964D01*
X39618Y-34940D01*
X39603Y-34913D01*
X39594Y-34883D01*
X39591Y-34852D01*
X39593Y-34822D01*
X39602Y-34792D01*
X39616Y-34764D01*
X39635Y-34739D01*
X39659Y-34719D01*
X39686Y-34704D01*
X39716Y-34694D01*
X39747Y-34691D01*
X39777Y-34693D01*
X39807Y-34701D01*
X39835Y-34715D01*
X39860Y-34735D01*
X39880Y-34758D01*
X39896Y-34785D01*
X39906Y-34815D01*
X39909Y-34846D01*
X39910Y-34850D01*
X40035Y-55125D02*
X40031Y-55156D01*
X40022Y-55185D01*
X40008Y-55213D01*
X39988Y-55237D01*
X39964Y-55257D01*
X39937Y-55272D01*
X39907Y-55281D01*
X39876Y-55284D01*
X39846Y-55282D01*
X39816Y-55273D01*
X39788Y-55258D01*
X39764Y-55239D01*
X39743Y-55215D01*
X39728Y-55188D01*
X39719Y-55158D01*
X39716Y-55127D01*
X39718Y-55097D01*
X39727Y-55067D01*
X39741Y-55039D01*
X39760Y-55014D01*
X39784Y-54994D01*
X39811Y-54979D01*
X39841Y-54969D01*
X39872Y-54966D01*
X39902Y-54968D01*
X39932Y-54976D01*
X39960Y-54990D01*
X39985Y-55010D01*
X40005Y-55033D01*
X40021Y-55060D01*
X40031Y-55090D01*
X40034Y-55121D01*
X40035Y-55125D01*
X43410Y-55250D02*
X43406Y-55281D01*
X43397Y-55310D01*
X43383Y-55338D01*
X43363Y-55362D01*
X43339Y-55382D01*
X43312Y-55397D01*
X43282Y-55406D01*
X43251Y-55409D01*
X43221Y-55407D01*
X43191Y-55398D01*
X43163Y-55383D01*
X43139Y-55364D01*
X43118Y-55340D01*
X43103Y-55313D01*
X43094Y-55283D01*
X43091Y-55252D01*
X43093Y-55222D01*
X43102Y-55192D01*
X43116Y-55164D01*
X43135Y-55139D01*
X43159Y-55119D01*
X43186Y-55104D01*
X43216Y-55094D01*
X43247Y-55091D01*
X43277Y-55093D01*
X43307Y-55101D01*
X43335Y-55115D01*
X43360Y-55135D01*
X43380Y-55158D01*
X43396Y-55185D01*
X43406Y-55215D01*
X43409Y-55246D01*
X43410Y-55250D01*
X44410Y-55250D02*
X44406Y-55281D01*
X44397Y-55310D01*
X44383Y-55338D01*
X44363Y-55362D01*
X44339Y-55382D01*
X44312Y-55397D01*
X44282Y-55406D01*
X44251Y-55409D01*
X44221Y-55407D01*
X44191Y-55398D01*
X44163Y-55383D01*
X44139Y-55364D01*
X44118Y-55340D01*
X44103Y-55313D01*
X44094Y-55283D01*
X44091Y-55252D01*
X44093Y-55222D01*
X44102Y-55192D01*
X44116Y-55164D01*
X44135Y-55139D01*
X44159Y-55119D01*
X44186Y-55104D01*
X44216Y-55094D01*
X44247Y-55091D01*
X44277Y-55093D01*
X44307Y-55101D01*
X44335Y-55115D01*
X44360Y-55135D01*
X44380Y-55158D01*
X44396Y-55185D01*
X44406Y-55215D01*
X44409Y-55246D01*
X44410Y-55250D01*
X45410Y-55250D02*
X45406Y-55281D01*
X45397Y-55310D01*
X45383Y-55338D01*
X45363Y-55362D01*
X45339Y-55382D01*
X45312Y-55397D01*
X45282Y-55406D01*
X45251Y-55409D01*
X45221Y-55407D01*
X45191Y-55398D01*
X45163Y-55383D01*
X45139Y-55364D01*
X45118Y-55340D01*
X45103Y-55313D01*
X45094Y-55283D01*
X45091Y-55252D01*
X45093Y-55222D01*
X45102Y-55192D01*
X45116Y-55164D01*
X45135Y-55139D01*
X45159Y-55119D01*
X45186Y-55104D01*
X45216Y-55094D01*
X45247Y-55091D01*
X45277Y-55093D01*
X45307Y-55101D01*
X45335Y-55115D01*
X45360Y-55135D01*
X45380Y-55158D01*
X45396Y-55185D01*
X45406Y-55215D01*
X45409Y-55246D01*
X45410Y-55250D01*
X46410Y-55250D02*
X46406Y-55281D01*
X46397Y-55310D01*
X46383Y-55338D01*
X46363Y-55362D01*
X46339Y-55382D01*
X46312Y-55397D01*
X46282Y-55406D01*
X46251Y-55409D01*
X46221Y-55407D01*
X46191Y-55398D01*
X46163Y-55383D01*
X46139Y-55364D01*
X46118Y-55340D01*
X46103Y-55313D01*
X46094Y-55283D01*
X46091Y-55252D01*
X46093Y-55222D01*
X46102Y-55192D01*
X46116Y-55164D01*
X46135Y-55139D01*
X46159Y-55119D01*
X46186Y-55104D01*
X46216Y-55094D01*
X46247Y-55091D01*
X46277Y-55093D01*
X46307Y-55101D01*
X46335Y-55115D01*
X46360Y-55135D01*
X46380Y-55158D01*
X46396Y-55185D01*
X46406Y-55215D01*
X46409Y-55246D01*
X46410Y-55250D01*
X47410Y-55250D02*
X47406Y-55281D01*
X47397Y-55310D01*
X47383Y-55338D01*
X47363Y-55362D01*
X47339Y-55382D01*
X47312Y-55397D01*
X47282Y-55406D01*
X47251Y-55409D01*
X47221Y-55407D01*
X47191Y-55398D01*
X47163Y-55383D01*
X47139Y-55364D01*
X47118Y-55340D01*
X47103Y-55313D01*
X47094Y-55283D01*
X47091Y-55252D01*
X47093Y-55222D01*
X47102Y-55192D01*
X47116Y-55164D01*
X47135Y-55139D01*
X47159Y-55119D01*
X47186Y-55104D01*
X47216Y-55094D01*
X47247Y-55091D01*
X47277Y-55093D01*
X47307Y-55101D01*
X47335Y-55115D01*
X47360Y-55135D01*
X47380Y-55158D01*
X47396Y-55185D01*
X47406Y-55215D01*
X47409Y-55246D01*
X47410Y-55250D01*
X48410Y-55250D02*
X48406Y-55281D01*
X48397Y-55310D01*
X48383Y-55338D01*
X48363Y-55362D01*
X48339Y-55382D01*
X48312Y-55397D01*
X48282Y-55406D01*
X48251Y-55409D01*
X48221Y-55407D01*
X48191Y-55398D01*
X48163Y-55383D01*
X48139Y-55364D01*
X48118Y-55340D01*
X48103Y-55313D01*
X48094Y-55283D01*
X48091Y-55252D01*
X48093Y-55222D01*
X48102Y-55192D01*
X48116Y-55164D01*
X48135Y-55139D01*
X48159Y-55119D01*
X48186Y-55104D01*
X48216Y-55094D01*
X48247Y-55091D01*
X48277Y-55093D01*
X48307Y-55101D01*
X48335Y-55115D01*
X48360Y-55135D01*
X48380Y-55158D01*
X48396Y-55185D01*
X48406Y-55215D01*
X48409Y-55246D01*
X48410Y-55250D01*
X49410Y-55250D02*
X49406Y-55281D01*
X49397Y-55310D01*
X49383Y-55338D01*
X49363Y-55362D01*
X49339Y-55382D01*
X49312Y-55397D01*
X49282Y-55406D01*
X49251Y-55409D01*
X49221Y-55407D01*
X49191Y-55398D01*
X49163Y-55383D01*
X49139Y-55364D01*
X49118Y-55340D01*
X49103Y-55313D01*
X49094Y-55283D01*
X49091Y-55252D01*
X49093Y-55222D01*
X49102Y-55192D01*
X49116Y-55164D01*
X49135Y-55139D01*
X49159Y-55119D01*
X49186Y-55104D01*
X49216Y-55094D01*
X49247Y-55091D01*
X49277Y-55093D01*
X49307Y-55101D01*
X49335Y-55115D01*
X49360Y-55135D01*
X49380Y-55158D01*
X49396Y-55185D01*
X49406Y-55215D01*
X49409Y-55246D01*
X49410Y-55250D01*
X50360Y-32750D02*
X50356Y-32781D01*
X50347Y-32810D01*
X50333Y-32838D01*
X50313Y-32862D01*
X50289Y-32882D01*
X50262Y-32897D01*
X50232Y-32906D01*
X50201Y-32909D01*
X50171Y-32907D01*
X50141Y-32898D01*
X50113Y-32883D01*
X50089Y-32864D01*
X50068Y-32840D01*
X50053Y-32813D01*
X50044Y-32783D01*
X50041Y-32752D01*
X50043Y-32722D01*
X50052Y-32692D01*
X50066Y-32664D01*
X50085Y-32639D01*
X50109Y-32619D01*
X50136Y-32604D01*
X50166Y-32594D01*
X50197Y-32591D01*
X50227Y-32593D01*
X50257Y-32601D01*
X50285Y-32615D01*
X50310Y-32635D01*
X50330Y-32658D01*
X50346Y-32685D01*
X50356Y-32715D01*
X50359Y-32746D01*
X50360Y-32750D01*
X50360Y-35750D02*
X50356Y-35781D01*
X50347Y-35810D01*
X50333Y-35838D01*
X50313Y-35862D01*
X50289Y-35882D01*
X50262Y-35897D01*
X50232Y-35906D01*
X50201Y-35909D01*
X50171Y-35907D01*
X50141Y-35898D01*
X50113Y-35883D01*
X50089Y-35864D01*
X50068Y-35840D01*
X50053Y-35813D01*
X50044Y-35783D01*
X50041Y-35752D01*
X50043Y-35722D01*
X50052Y-35692D01*
X50066Y-35664D01*
X50085Y-35639D01*
X50109Y-35619D01*
X50136Y-35604D01*
X50166Y-35594D01*
X50197Y-35591D01*
X50227Y-35593D01*
X50257Y-35601D01*
X50285Y-35615D01*
X50310Y-35635D01*
X50330Y-35658D01*
X50346Y-35685D01*
X50356Y-35715D01*
X50359Y-35746D01*
X50360Y-35750D01*
X50410Y-55250D02*
X50406Y-55281D01*
X50397Y-55310D01*
X50383Y-55338D01*
X50363Y-55362D01*
X50339Y-55382D01*
X50312Y-55397D01*
X50282Y-55406D01*
X50251Y-55409D01*
X50221Y-55407D01*
X50191Y-55398D01*
X50163Y-55383D01*
X50139Y-55364D01*
X50118Y-55340D01*
X50103Y-55313D01*
X50094Y-55283D01*
X50091Y-55252D01*
X50093Y-55222D01*
X50102Y-55192D01*
X50116Y-55164D01*
X50135Y-55139D01*
X50159Y-55119D01*
X50186Y-55104D01*
X50216Y-55094D01*
X50247Y-55091D01*
X50277Y-55093D01*
X50307Y-55101D01*
X50335Y-55115D01*
X50360Y-55135D01*
X50380Y-55158D01*
X50396Y-55185D01*
X50406Y-55215D01*
X50409Y-55246D01*
X50410Y-55250D01*
X51410Y-55250D02*
X51406Y-55281D01*
X51397Y-55310D01*
X51383Y-55338D01*
X51363Y-55362D01*
X51339Y-55382D01*
X51312Y-55397D01*
X51282Y-55406D01*
X51251Y-55409D01*
X51221Y-55407D01*
X51191Y-55398D01*
X51163Y-55383D01*
X51139Y-55364D01*
X51118Y-55340D01*
X51103Y-55313D01*
X51094Y-55283D01*
X51091Y-55252D01*
X51093Y-55222D01*
X51102Y-55192D01*
X51116Y-55164D01*
X51135Y-55139D01*
X51159Y-55119D01*
X51186Y-55104D01*
X51216Y-55094D01*
X51247Y-55091D01*
X51277Y-55093D01*
X51307Y-55101D01*
X51335Y-55115D01*
X51360Y-55135D01*
X51380Y-55158D01*
X51396Y-55185D01*
X51406Y-55215D01*
X51409Y-55246D01*
X51410Y-55250D01*
X52410Y-55250D02*
X52406Y-55281D01*
X52397Y-55310D01*
X52383Y-55338D01*
X52363Y-55362D01*
X52339Y-55382D01*
X52312Y-55397D01*
X52282Y-55406D01*
X52251Y-55409D01*
X52221Y-55407D01*
X52191Y-55398D01*
X52163Y-55383D01*
X52139Y-55364D01*
X52118Y-55340D01*
X52103Y-55313D01*
X52094Y-55283D01*
X52091Y-55252D01*
X52093Y-55222D01*
X52102Y-55192D01*
X52116Y-55164D01*
X52135Y-55139D01*
X52159Y-55119D01*
X52186Y-55104D01*
X52216Y-55094D01*
X52247Y-55091D01*
X52277Y-55093D01*
X52307Y-55101D01*
X52335Y-55115D01*
X52360Y-55135D01*
X52380Y-55158D01*
X52396Y-55185D01*
X52406Y-55215D01*
X52409Y-55246D01*
X52410Y-55250D01*
X53410Y-55250D02*
X53406Y-55281D01*
X53397Y-55310D01*
X53383Y-55338D01*
X53363Y-55362D01*
X53339Y-55382D01*
X53312Y-55397D01*
X53282Y-55406D01*
X53251Y-55409D01*
X53221Y-55407D01*
X53191Y-55398D01*
X53163Y-55383D01*
X53139Y-55364D01*
X53118Y-55340D01*
X53103Y-55313D01*
X53094Y-55283D01*
X53091Y-55252D01*
X53093Y-55222D01*
X53102Y-55192D01*
X53116Y-55164D01*
X53135Y-55139D01*
X53159Y-55119D01*
X53186Y-55104D01*
X53216Y-55094D01*
X53247Y-55091D01*
X53277Y-55093D01*
X53307Y-55101D01*
X53335Y-55115D01*
X53360Y-55135D01*
X53380Y-55158D01*
X53396Y-55185D01*
X53406Y-55215D01*
X53409Y-55246D01*
X53410Y-55250D01*
X54410Y-55250D02*
X54406Y-55281D01*
X54397Y-55310D01*
X54383Y-55338D01*
X54363Y-55362D01*
X54339Y-55382D01*
X54312Y-55397D01*
X54282Y-55406D01*
X54251Y-55409D01*
X54221Y-55407D01*
X54191Y-55398D01*
X54163Y-55383D01*
X54139Y-55364D01*
X54118Y-55340D01*
X54103Y-55313D01*
X54094Y-55283D01*
X54091Y-55252D01*
X54093Y-55222D01*
X54102Y-55192D01*
X54116Y-55164D01*
X54135Y-55139D01*
X54159Y-55119D01*
X54186Y-55104D01*
X54216Y-55094D01*
X54247Y-55091D01*
X54277Y-55093D01*
X54307Y-55101D01*
X54335Y-55115D01*
X54360Y-55135D01*
X54380Y-55158D01*
X54396Y-55185D01*
X54406Y-55215D01*
X54409Y-55246D01*
X54410Y-55250D01*
X63410Y-32500D02*
X63406Y-32531D01*
X63397Y-32560D01*
X63383Y-32588D01*
X63363Y-32612D01*
X63339Y-32632D01*
X63312Y-32647D01*
X63282Y-32656D01*
X63251Y-32659D01*
X63221Y-32657D01*
X63191Y-32648D01*
X63163Y-32633D01*
X63139Y-32614D01*
X63118Y-32590D01*
X63103Y-32563D01*
X63094Y-32533D01*
X63091Y-32502D01*
X63093Y-32472D01*
X63102Y-32442D01*
X63116Y-32414D01*
X63135Y-32389D01*
X63159Y-32369D01*
X63186Y-32354D01*
X63216Y-32344D01*
X63247Y-32341D01*
X63277Y-32343D01*
X63307Y-32351D01*
X63335Y-32365D01*
X63360Y-32385D01*
X63380Y-32408D01*
X63396Y-32435D01*
X63406Y-32465D01*
X63409Y-32496D01*
X63410Y-32500D01*
X63410Y-35500D02*
X63406Y-35531D01*
X63397Y-35560D01*
X63383Y-35588D01*
X63363Y-35612D01*
X63339Y-35632D01*
X63312Y-35647D01*
X63282Y-35656D01*
X63251Y-35659D01*
X63221Y-35657D01*
X63191Y-35648D01*
X63163Y-35633D01*
X63139Y-35614D01*
X63118Y-35590D01*
X63103Y-35563D01*
X63094Y-35533D01*
X63091Y-35502D01*
X63093Y-35472D01*
X63102Y-35442D01*
X63116Y-35414D01*
X63135Y-35389D01*
X63159Y-35369D01*
X63186Y-35354D01*
X63216Y-35344D01*
X63247Y-35341D01*
X63277Y-35343D01*
X63307Y-35351D01*
X63335Y-35365D01*
X63360Y-35385D01*
X63380Y-35408D01*
X63396Y-35435D01*
X63406Y-35465D01*
X63409Y-35496D01*
X63410Y-35500D01*
X65885Y-30075D02*
X65881Y-30106D01*
X65872Y-30135D01*
X65858Y-30163D01*
X65838Y-30187D01*
X65814Y-30207D01*
X65787Y-30222D01*
X65757Y-30231D01*
X65726Y-30234D01*
X65696Y-30232D01*
X65666Y-30223D01*
X65638Y-30208D01*
X65614Y-30189D01*
X65593Y-30165D01*
X65578Y-30138D01*
X65569Y-30108D01*
X65566Y-30077D01*
X65568Y-30047D01*
X65577Y-30017D01*
X65591Y-29989D01*
X65610Y-29964D01*
X65634Y-29944D01*
X65661Y-29929D01*
X65691Y-29919D01*
X65722Y-29916D01*
X65752Y-29918D01*
X65782Y-29926D01*
X65810Y-29940D01*
X65835Y-29960D01*
X65855Y-29983D01*
X65871Y-30010D01*
X65881Y-30040D01*
X65884Y-30071D01*
X65885Y-30075D01*
X65885Y-31075D02*
X65881Y-31106D01*
X65872Y-31135D01*
X65858Y-31163D01*
X65838Y-31187D01*
X65814Y-31207D01*
X65787Y-31222D01*
X65757Y-31231D01*
X65726Y-31234D01*
X65696Y-31232D01*
X65666Y-31223D01*
X65638Y-31208D01*
X65614Y-31189D01*
X65593Y-31165D01*
X65578Y-31138D01*
X65569Y-31108D01*
X65566Y-31077D01*
X65568Y-31047D01*
X65577Y-31017D01*
X65591Y-30989D01*
X65610Y-30964D01*
X65634Y-30944D01*
X65661Y-30929D01*
X65691Y-30919D01*
X65722Y-30916D01*
X65752Y-30918D01*
X65782Y-30926D01*
X65810Y-30940D01*
X65835Y-30960D01*
X65855Y-30983D01*
X65871Y-31010D01*
X65881Y-31040D01*
X65884Y-31071D01*
X65885Y-31075D01*
X66160Y-56000D02*
X66156Y-56031D01*
X66147Y-56060D01*
X66133Y-56088D01*
X66113Y-56112D01*
X66089Y-56132D01*
X66062Y-56147D01*
X66032Y-56156D01*
X66001Y-56159D01*
X65971Y-56157D01*
X65941Y-56148D01*
X65913Y-56133D01*
X65889Y-56114D01*
X65868Y-56090D01*
X65853Y-56063D01*
X65844Y-56033D01*
X65841Y-56002D01*
X65843Y-55972D01*
X65852Y-55942D01*
X65866Y-55914D01*
X65885Y-55889D01*
X65909Y-55869D01*
X65936Y-55854D01*
X65966Y-55844D01*
X65997Y-55841D01*
X66027Y-55843D01*
X66057Y-55851D01*
X66085Y-55865D01*
X66110Y-55885D01*
X66130Y-55908D01*
X66146Y-55935D01*
X66156Y-55965D01*
X66159Y-55996D01*
X66160Y-56000D01*
X67660Y-44000D02*
X67656Y-44031D01*
X67647Y-44060D01*
X67633Y-44088D01*
X67613Y-44112D01*
X67589Y-44132D01*
X67562Y-44147D01*
X67532Y-44156D01*
X67501Y-44159D01*
X67471Y-44157D01*
X67441Y-44148D01*
X67413Y-44133D01*
X67389Y-44114D01*
X67368Y-44090D01*
X67353Y-44063D01*
X67344Y-44033D01*
X67341Y-44002D01*
X67343Y-43972D01*
X67352Y-43942D01*
X67366Y-43914D01*
X67385Y-43889D01*
X67409Y-43869D01*
X67436Y-43854D01*
X67466Y-43844D01*
X67497Y-43841D01*
X67527Y-43843D01*
X67557Y-43851D01*
X67585Y-43865D01*
X67610Y-43885D01*
X67630Y-43908D01*
X67646Y-43935D01*
X67656Y-43965D01*
X67659Y-43996D01*
X67660Y-44000D01*
X67660Y-45000D02*
X67656Y-45031D01*
X67647Y-45060D01*
X67633Y-45088D01*
X67613Y-45112D01*
X67589Y-45132D01*
X67562Y-45147D01*
X67532Y-45156D01*
X67501Y-45159D01*
X67471Y-45157D01*
X67441Y-45148D01*
X67413Y-45133D01*
X67389Y-45114D01*
X67368Y-45090D01*
X67353Y-45063D01*
X67344Y-45033D01*
X67341Y-45002D01*
X67343Y-44972D01*
X67352Y-44942D01*
X67366Y-44914D01*
X67385Y-44889D01*
X67409Y-44869D01*
X67436Y-44854D01*
X67466Y-44844D01*
X67497Y-44841D01*
X67527Y-44843D01*
X67557Y-44851D01*
X67585Y-44865D01*
X67610Y-44885D01*
X67630Y-44908D01*
X67646Y-44935D01*
X67656Y-44965D01*
X67659Y-44996D01*
X67660Y-45000D01*
X67660Y-46000D02*
X67656Y-46031D01*
X67647Y-46060D01*
X67633Y-46088D01*
X67613Y-46112D01*
X67589Y-46132D01*
X67562Y-46147D01*
X67532Y-46156D01*
X67501Y-46159D01*
X67471Y-46157D01*
X67441Y-46148D01*
X67413Y-46133D01*
X67389Y-46114D01*
X67368Y-46090D01*
X67353Y-46063D01*
X67344Y-46033D01*
X67341Y-46002D01*
X67343Y-45972D01*
X67352Y-45942D01*
X67366Y-45914D01*
X67385Y-45889D01*
X67409Y-45869D01*
X67436Y-45854D01*
X67466Y-45844D01*
X67497Y-45841D01*
X67527Y-45843D01*
X67557Y-45851D01*
X67585Y-45865D01*
X67610Y-45885D01*
X67630Y-45908D01*
X67646Y-45935D01*
X67656Y-45965D01*
X67659Y-45996D01*
X67660Y-46000D01*
X67660Y-47000D02*
X67656Y-47031D01*
X67647Y-47060D01*
X67633Y-47088D01*
X67613Y-47112D01*
X67589Y-47132D01*
X67562Y-47147D01*
X67532Y-47156D01*
X67501Y-47159D01*
X67471Y-47157D01*
X67441Y-47148D01*
X67413Y-47133D01*
X67389Y-47114D01*
X67368Y-47090D01*
X67353Y-47063D01*
X67344Y-47033D01*
X67341Y-47002D01*
X67343Y-46972D01*
X67352Y-46942D01*
X67366Y-46914D01*
X67385Y-46889D01*
X67409Y-46869D01*
X67436Y-46854D01*
X67466Y-46844D01*
X67497Y-46841D01*
X67527Y-46843D01*
X67557Y-46851D01*
X67585Y-46865D01*
X67610Y-46885D01*
X67630Y-46908D01*
X67646Y-46935D01*
X67656Y-46965D01*
X67659Y-46996D01*
X67660Y-47000D01*
X67660Y-48000D02*
X67656Y-48031D01*
X67647Y-48060D01*
X67633Y-48088D01*
X67613Y-48112D01*
X67589Y-48132D01*
X67562Y-48147D01*
X67532Y-48156D01*
X67501Y-48159D01*
X67471Y-48157D01*
X67441Y-48148D01*
X67413Y-48133D01*
X67389Y-48114D01*
X67368Y-48090D01*
X67353Y-48063D01*
X67344Y-48033D01*
X67341Y-48002D01*
X67343Y-47972D01*
X67352Y-47942D01*
X67366Y-47914D01*
X67385Y-47889D01*
X67409Y-47869D01*
X67436Y-47854D01*
X67466Y-47844D01*
X67497Y-47841D01*
X67527Y-47843D01*
X67557Y-47851D01*
X67585Y-47865D01*
X67610Y-47885D01*
X67630Y-47908D01*
X67646Y-47935D01*
X67656Y-47965D01*
X67659Y-47996D01*
X67660Y-48000D01*
X45300Y-41200D02*
X45300Y-41600D01*
X45500Y-41400D02*
X45100Y-41400D01*
X45300Y-43200D02*
X45300Y-43600D01*
X45500Y-43400D02*
X45100Y-43400D01*
X53150Y-42607D02*
X53150Y-43007D01*
X53350Y-42807D02*
X52950Y-42807D01*
X53150Y-43607D02*
X53150Y-44007D01*
X53350Y-43807D02*
X52950Y-43807D01*
X58550Y-42500D02*
X58550Y-42900D01*
X58750Y-42700D02*
X58350Y-42700D01*
X60550Y-42500D02*
X60550Y-42900D01*
X60750Y-42700D02*
X60350Y-42700D01*
X62205Y-41426D02*
X62205Y-41826D01*
X62405Y-41626D02*
X62005Y-41626D01*
X62205Y-42426D02*
X62205Y-42826D01*
X62405Y-42626D02*
X62005Y-42626D01*
X65000Y-43800D02*
X65000Y-44200D01*
X65200Y-44000D02*
X64800Y-44000D01*
X65000Y-44800D02*
X65000Y-45200D01*
X65200Y-45000D02*
X64800Y-45000D01*
X65000Y-45800D02*
X65000Y-46200D01*
X65200Y-46000D02*
X64800Y-46000D01*
X65000Y-46800D02*
X65000Y-47200D01*
X65200Y-47000D02*
X64800Y-47000D01*
X65000Y-47800D02*
X65000Y-48200D01*
X65200Y-48000D02*
X64800Y-48000D01*
X65000Y-48800D02*
X65000Y-49200D01*
X65200Y-49000D02*
X64800Y-49000D01*
X65000Y-49800D02*
X65000Y-50200D01*
X65200Y-50000D02*
X64800Y-50000D01*
X65000Y-50800D02*
X65000Y-51200D01*
X65200Y-51000D02*
X64800Y-51000D01*
X65000Y-51800D02*
X65000Y-52200D01*
X65200Y-52000D02*
X64800Y-52000D01*
X65000Y-52800D02*
X65000Y-53200D01*
X65200Y-53000D02*
X64800Y-53000D01*
X65000Y-53800D02*
X65000Y-54200D01*
X65200Y-54000D02*
X64800Y-54000D01*
X65000Y-54800D02*
X65000Y-55200D01*
X65200Y-55000D02*
X64800Y-55000D01*
X65000Y-55800D02*
X65000Y-56200D01*
X65200Y-56000D02*
X64800Y-56000D01*
X66000Y-43800D02*
X66000Y-44200D01*
X66200Y-44000D02*
X65800Y-44000D01*
X66000Y-44800D02*
X66000Y-45200D01*
X66200Y-45000D02*
X65800Y-45000D01*
X66000Y-45800D02*
X66000Y-46200D01*
X66200Y-46000D02*
X65800Y-46000D01*
X66000Y-46800D02*
X66000Y-47200D01*
X66200Y-47000D02*
X65800Y-47000D01*
X66000Y-47800D02*
X66000Y-48200D01*
X66200Y-48000D02*
X65800Y-48000D01*
X66000Y-48800D02*
X66000Y-49200D01*
X66200Y-49000D02*
X65800Y-49000D01*
X66000Y-49800D02*
X66000Y-50200D01*
X66200Y-50000D02*
X65800Y-50000D01*
X66000Y-50800D02*
X66000Y-51200D01*
X66200Y-51000D02*
X65800Y-51000D01*
X66000Y-51800D02*
X66000Y-52200D01*
X66200Y-52000D02*
X65800Y-52000D01*
X66000Y-52800D02*
X66000Y-53200D01*
X66200Y-53000D02*
X65800Y-53000D01*
X66000Y-53800D02*
X66000Y-54200D01*
X66200Y-54000D02*
X65800Y-54000D01*
X66000Y-54800D02*
X66000Y-55200D01*
X66200Y-55000D02*
X65800Y-55000D01*
X53400Y-34375D02*
X53395Y-34423D01*
X53381Y-34470D01*
X53358Y-34513D01*
X53327Y-34551D01*
X53289Y-34582D01*
X53246Y-34605D01*
X53200Y-34619D01*
X53151Y-34624D01*
X53104Y-34620D01*
X53057Y-34606D01*
X53014Y-34584D01*
X52976Y-34553D01*
X52944Y-34516D01*
X52921Y-34473D01*
X52906Y-34426D01*
X52901Y-34378D01*
X52905Y-34330D01*
X52918Y-34283D01*
X52940Y-34240D01*
X52971Y-34202D01*
X53008Y-34170D01*
X53050Y-34146D01*
X53097Y-34131D01*
X53145Y-34126D01*
X53193Y-34129D01*
X53240Y-34142D01*
X53283Y-34164D01*
X53322Y-34194D01*
X53354Y-34231D01*
X53378Y-34274D01*
X53393Y-34320D01*
X53399Y-34369D01*
X53400Y-34375D01*
X52900Y-34125D02*
X53400Y-34625D01*
X53400Y-34125D02*
X52900Y-34625D01*
X53400Y-41375D02*
X53395Y-41423D01*
X53381Y-41470D01*
X53358Y-41513D01*
X53327Y-41551D01*
X53289Y-41582D01*
X53246Y-41605D01*
X53200Y-41619D01*
X53151Y-41624D01*
X53104Y-41620D01*
X53057Y-41606D01*
X53014Y-41584D01*
X52976Y-41553D01*
X52944Y-41516D01*
X52921Y-41473D01*
X52906Y-41426D01*
X52901Y-41378D01*
X52905Y-41330D01*
X52918Y-41283D01*
X52940Y-41240D01*
X52971Y-41202D01*
X53008Y-41170D01*
X53050Y-41146D01*
X53097Y-41131D01*
X53145Y-41126D01*
X53193Y-41129D01*
X53240Y-41142D01*
X53283Y-41164D01*
X53322Y-41194D01*
X53354Y-41231D01*
X53378Y-41274D01*
X53393Y-41320D01*
X53399Y-41369D01*
X53400Y-41375D01*
X52900Y-41125D02*
X53400Y-41625D01*
X53400Y-41125D02*
X52900Y-41625D01*
X65975Y-34375D02*
X65970Y-34423D01*
X65956Y-34470D01*
X65933Y-34513D01*
X65902Y-34551D01*
X65864Y-34582D01*
X65821Y-34605D01*
X65775Y-34619D01*
X65726Y-34624D01*
X65679Y-34620D01*
X65632Y-34606D01*
X65589Y-34584D01*
X65551Y-34553D01*
X65519Y-34516D01*
X65496Y-34473D01*
X65481Y-34426D01*
X65476Y-34378D01*
X65480Y-34330D01*
X65493Y-34283D01*
X65515Y-34240D01*
X65546Y-34202D01*
X65583Y-34170D01*
X65625Y-34146D01*
X65672Y-34131D01*
X65720Y-34126D01*
X65768Y-34129D01*
X65815Y-34142D01*
X65858Y-34164D01*
X65897Y-34194D01*
X65929Y-34231D01*
X65953Y-34274D01*
X65968Y-34320D01*
X65974Y-34369D01*
X65975Y-34375D01*
X65475Y-34125D02*
X65975Y-34625D01*
X65975Y-34125D02*
X65475Y-34625D01*
X65975Y-41375D02*
X65970Y-41423D01*
X65956Y-41470D01*
X65933Y-41513D01*
X65902Y-41551D01*
X65864Y-41582D01*
X65821Y-41605D01*
X65775Y-41619D01*
X65726Y-41624D01*
X65679Y-41620D01*
X65632Y-41606D01*
X65589Y-41584D01*
X65551Y-41553D01*
X65519Y-41516D01*
X65496Y-41473D01*
X65481Y-41426D01*
X65476Y-41378D01*
X65480Y-41330D01*
X65493Y-41283D01*
X65515Y-41240D01*
X65546Y-41202D01*
X65583Y-41170D01*
X65625Y-41146D01*
X65672Y-41131D01*
X65720Y-41126D01*
X65768Y-41129D01*
X65815Y-41142D01*
X65858Y-41164D01*
X65897Y-41194D01*
X65929Y-41231D01*
X65953Y-41274D01*
X65968Y-41320D01*
X65974Y-41369D01*
X65975Y-41375D01*
X65475Y-41125D02*
X65975Y-41625D01*
X65975Y-41125D02*
X65475Y-41625D01*
G54D12*
X27798Y-58835D02*
X27798Y-58035D01*
X27989Y-58035D01*
X28103Y-58073D01*
X28179Y-58149D01*
X28218Y-58225D01*
X28256Y-58378D01*
X28256Y-58492D01*
X28218Y-58644D01*
X28179Y-58721D01*
X28103Y-58797D01*
X27989Y-58835D01*
X27798Y-58835D01*
X28598Y-58835D02*
X28598Y-58301D01*
X28598Y-58454D02*
X28637Y-58378D01*
X28675Y-58340D01*
X28751Y-58301D01*
X28827Y-58301D01*
X29093Y-58835D02*
X29093Y-58301D01*
X29093Y-58035D02*
X29055Y-58073D01*
X29093Y-58111D01*
X29132Y-58073D01*
X29093Y-58035D01*
X29093Y-58111D01*
X29589Y-58835D02*
X29513Y-58797D01*
X29474Y-58721D01*
X29474Y-58035D01*
X30008Y-58835D02*
X29932Y-58797D01*
X29893Y-58721D01*
X29893Y-58035D01*
X30922Y-58835D02*
X30922Y-58035D01*
X31189Y-58606D01*
X31456Y-58035D01*
X31456Y-58835D01*
X32179Y-58835D02*
X32179Y-58416D01*
X32141Y-58340D01*
X32065Y-58301D01*
X31913Y-58301D01*
X31836Y-58340D01*
X32179Y-58797D02*
X32103Y-58835D01*
X31913Y-58835D01*
X31836Y-58797D01*
X31798Y-58721D01*
X31798Y-58644D01*
X31836Y-58568D01*
X31913Y-58530D01*
X32103Y-58530D01*
X32179Y-58492D01*
X32560Y-58301D02*
X32560Y-59101D01*
X32560Y-58340D02*
X32637Y-58301D01*
X32789Y-58301D01*
X32865Y-58340D01*
X32903Y-58378D01*
X32941Y-58454D01*
X32941Y-58682D01*
X32903Y-58759D01*
X32865Y-58797D01*
X32789Y-58835D01*
X32637Y-58835D01*
X32560Y-58797D01*
X33284Y-58759D02*
X33323Y-58797D01*
X33284Y-58835D01*
X33246Y-58797D01*
X33284Y-58759D01*
X33284Y-58835D01*
X33284Y-58340D02*
X33323Y-58378D01*
X33284Y-58416D01*
X33246Y-58378D01*
X33284Y-58340D01*
X33284Y-58416D01*
X27158Y-60066D02*
X27408Y-60316D01*
X27408Y-60066D02*
X27158Y-60316D01*
X27951Y-59715D02*
X28027Y-59715D01*
X28103Y-59753D01*
X28141Y-59791D01*
X28179Y-59867D01*
X28218Y-60020D01*
X28218Y-60210D01*
X28179Y-60362D01*
X28141Y-60439D01*
X28103Y-60477D01*
X28027Y-60515D01*
X27951Y-60515D01*
X27875Y-60477D01*
X27837Y-60439D01*
X27798Y-60362D01*
X27760Y-60210D01*
X27760Y-60020D01*
X27798Y-59867D01*
X27837Y-59791D01*
X27875Y-59753D01*
X27951Y-59715D01*
X28560Y-60439D02*
X28599Y-60477D01*
X28560Y-60515D01*
X28522Y-60477D01*
X28560Y-60439D01*
X28560Y-60515D01*
X29094Y-59715D02*
X29170Y-59715D01*
X29246Y-59753D01*
X29284Y-59791D01*
X29322Y-59867D01*
X29361Y-60020D01*
X29361Y-60210D01*
X29322Y-60362D01*
X29284Y-60439D01*
X29246Y-60477D01*
X29170Y-60515D01*
X29094Y-60515D01*
X29018Y-60477D01*
X28980Y-60439D01*
X28941Y-60362D01*
X28903Y-60210D01*
X28903Y-60020D01*
X28941Y-59867D01*
X28980Y-59791D01*
X29018Y-59753D01*
X29094Y-59715D01*
X29665Y-59791D02*
X29703Y-59753D01*
X29780Y-59715D01*
X29970Y-59715D01*
X30046Y-59753D01*
X30084Y-59791D01*
X30123Y-59867D01*
X30123Y-59943D01*
X30084Y-60058D01*
X29627Y-60515D01*
X30123Y-60515D01*
X30846Y-59715D02*
X30465Y-59715D01*
X30427Y-60096D01*
X30465Y-60058D01*
X30542Y-60020D01*
X30732Y-60020D01*
X30808Y-60058D01*
X30846Y-60096D01*
X30885Y-60172D01*
X30885Y-60362D01*
X30846Y-60439D01*
X30808Y-60477D01*
X30732Y-60515D01*
X30542Y-60515D01*
X30465Y-60477D01*
X30427Y-60439D01*
X31189Y-59715D02*
X31189Y-59867D01*
X31494Y-59715D02*
X31494Y-59867D01*
X33019Y-59677D02*
X32333Y-60705D01*
X34048Y-59715D02*
X34124Y-59715D01*
X34200Y-59753D01*
X34238Y-59791D01*
X34276Y-59867D01*
X34315Y-60020D01*
X34315Y-60210D01*
X34276Y-60362D01*
X34238Y-60439D01*
X34200Y-60477D01*
X34124Y-60515D01*
X34048Y-60515D01*
X33972Y-60477D01*
X33934Y-60439D01*
X33895Y-60362D01*
X33857Y-60210D01*
X33857Y-60020D01*
X33895Y-59867D01*
X33934Y-59791D01*
X33972Y-59753D01*
X34048Y-59715D01*
X34657Y-60439D02*
X34696Y-60477D01*
X34657Y-60515D01*
X34619Y-60477D01*
X34657Y-60439D01*
X34657Y-60515D01*
X35381Y-59715D02*
X35229Y-59715D01*
X35153Y-59753D01*
X35115Y-59791D01*
X35038Y-59905D01*
X35000Y-60058D01*
X35000Y-60362D01*
X35038Y-60439D01*
X35077Y-60477D01*
X35153Y-60515D01*
X35305Y-60515D01*
X35381Y-60477D01*
X35419Y-60439D01*
X35458Y-60362D01*
X35458Y-60172D01*
X35419Y-60096D01*
X35381Y-60058D01*
X35305Y-60020D01*
X35153Y-60020D01*
X35077Y-60058D01*
X35038Y-60096D01*
X35000Y-60172D01*
X36143Y-59981D02*
X36143Y-60515D01*
X35953Y-59677D02*
X35762Y-60248D01*
X36258Y-60248D01*
X36562Y-60515D02*
X36562Y-59981D01*
X36562Y-60058D02*
X36601Y-60020D01*
X36677Y-59981D01*
X36791Y-59981D01*
X36867Y-60020D01*
X36905Y-60096D01*
X36905Y-60515D01*
X36905Y-60096D02*
X36943Y-60020D01*
X37020Y-59981D01*
X37134Y-59981D01*
X37210Y-60020D01*
X37248Y-60096D01*
X37248Y-60515D01*
X37629Y-60515D02*
X37629Y-59981D01*
X37629Y-60058D02*
X37668Y-60020D01*
X37744Y-59981D01*
X37858Y-59981D01*
X37934Y-60020D01*
X37972Y-60096D01*
X37972Y-60515D01*
X37972Y-60096D02*
X38010Y-60020D01*
X38087Y-59981D01*
X38201Y-59981D01*
X38277Y-60020D01*
X38315Y-60096D01*
X38315Y-60515D01*
X39535Y-60820D02*
X39497Y-60781D01*
X39421Y-60667D01*
X39383Y-60591D01*
X39345Y-60477D01*
X39306Y-60286D01*
X39306Y-60134D01*
X39345Y-59943D01*
X39383Y-59829D01*
X39421Y-59753D01*
X39497Y-59639D01*
X39535Y-59601D01*
X40220Y-59715D02*
X39839Y-59715D01*
X39801Y-60096D01*
X39839Y-60058D01*
X39916Y-60020D01*
X40106Y-60020D01*
X40182Y-60058D01*
X40220Y-60096D01*
X40259Y-60172D01*
X40259Y-60362D01*
X40220Y-60439D01*
X40182Y-60477D01*
X40106Y-60515D01*
X39916Y-60515D01*
X39839Y-60477D01*
X39801Y-60439D01*
X41021Y-60515D02*
X40563Y-60515D01*
X40792Y-60515D02*
X40792Y-59715D01*
X40716Y-59829D01*
X40640Y-59905D01*
X40563Y-59943D01*
X41973Y-60515D02*
X41973Y-59715D01*
X42316Y-60515D02*
X42316Y-60096D01*
X42278Y-60020D01*
X42202Y-59981D01*
X42088Y-59981D01*
X42012Y-60020D01*
X41973Y-60058D01*
X42812Y-60515D02*
X42736Y-60477D01*
X42697Y-60439D01*
X42659Y-60362D01*
X42659Y-60134D01*
X42697Y-60058D01*
X42736Y-60020D01*
X42812Y-59981D01*
X42926Y-59981D01*
X43002Y-60020D01*
X43040Y-60058D01*
X43078Y-60134D01*
X43078Y-60362D01*
X43040Y-60439D01*
X43002Y-60477D01*
X42926Y-60515D01*
X42812Y-60515D01*
X43536Y-60515D02*
X43460Y-60477D01*
X43421Y-60401D01*
X43421Y-59715D01*
X44145Y-60477D02*
X44069Y-60515D01*
X43917Y-60515D01*
X43840Y-60477D01*
X43802Y-60401D01*
X43802Y-60096D01*
X43840Y-60020D01*
X43917Y-59981D01*
X44069Y-59981D01*
X44145Y-60020D01*
X44183Y-60096D01*
X44183Y-60172D01*
X43802Y-60248D01*
X44488Y-60477D02*
X44565Y-60515D01*
X44717Y-60515D01*
X44793Y-60477D01*
X44831Y-60401D01*
X44831Y-60362D01*
X44793Y-60286D01*
X44717Y-60248D01*
X44603Y-60248D01*
X44526Y-60210D01*
X44488Y-60134D01*
X44488Y-60096D01*
X44526Y-60020D01*
X44603Y-59981D01*
X44717Y-59981D01*
X44793Y-60020D01*
X45098Y-60820D02*
X45136Y-60781D01*
X45213Y-60667D01*
X45251Y-60591D01*
X45289Y-60477D01*
X45327Y-60286D01*
X45327Y-60134D01*
X45289Y-59943D01*
X45251Y-59829D01*
X45213Y-59753D01*
X45136Y-59639D01*
X45098Y-59601D01*
G54D10*
X27408Y-61247D02*
X27404Y-61278D01*
X27395Y-61307D01*
X27381Y-61335D01*
X27361Y-61359D01*
X27337Y-61379D01*
X27310Y-61394D01*
X27280Y-61403D01*
X27249Y-61406D01*
X27219Y-61404D01*
X27189Y-61395D01*
X27161Y-61380D01*
X27137Y-61361D01*
X27116Y-61337D01*
X27101Y-61310D01*
X27092Y-61280D01*
X27089Y-61249D01*
X27091Y-61219D01*
X27100Y-61189D01*
X27114Y-61161D01*
X27133Y-61136D01*
X27157Y-61116D01*
X27184Y-61101D01*
X27214Y-61091D01*
X27245Y-61088D01*
X27275Y-61090D01*
X27305Y-61098D01*
X27333Y-61112D01*
X27358Y-61132D01*
X27378Y-61155D01*
X27394Y-61182D01*
X27404Y-61212D01*
X27407Y-61243D01*
X27408Y-61247D01*
G54D12*
X27951Y-60771D02*
X28027Y-60771D01*
X28103Y-60809D01*
X28141Y-60847D01*
X28179Y-60923D01*
X28218Y-61076D01*
X28218Y-61266D01*
X28179Y-61418D01*
X28141Y-61495D01*
X28103Y-61533D01*
X28027Y-61571D01*
X27951Y-61571D01*
X27875Y-61533D01*
X27837Y-61495D01*
X27798Y-61418D01*
X27760Y-61266D01*
X27760Y-61076D01*
X27798Y-60923D01*
X27837Y-60847D01*
X27875Y-60809D01*
X27951Y-60771D01*
X28560Y-61495D02*
X28599Y-61533D01*
X28560Y-61571D01*
X28522Y-61533D01*
X28560Y-61495D01*
X28560Y-61571D01*
X29094Y-60771D02*
X29170Y-60771D01*
X29246Y-60809D01*
X29284Y-60847D01*
X29322Y-60923D01*
X29361Y-61076D01*
X29361Y-61266D01*
X29322Y-61418D01*
X29284Y-61495D01*
X29246Y-61533D01*
X29170Y-61571D01*
X29094Y-61571D01*
X29018Y-61533D01*
X28980Y-61495D01*
X28941Y-61418D01*
X28903Y-61266D01*
X28903Y-61076D01*
X28941Y-60923D01*
X28980Y-60847D01*
X29018Y-60809D01*
X29094Y-60771D01*
X29627Y-60771D02*
X30123Y-60771D01*
X29856Y-61076D01*
X29970Y-61076D01*
X30046Y-61114D01*
X30084Y-61152D01*
X30123Y-61228D01*
X30123Y-61418D01*
X30084Y-61495D01*
X30046Y-61533D01*
X29970Y-61571D01*
X29742Y-61571D01*
X29665Y-61533D01*
X29627Y-61495D01*
X30427Y-60847D02*
X30465Y-60809D01*
X30542Y-60771D01*
X30732Y-60771D01*
X30808Y-60809D01*
X30846Y-60847D01*
X30885Y-60923D01*
X30885Y-60999D01*
X30846Y-61114D01*
X30389Y-61571D01*
X30885Y-61571D01*
X31189Y-60771D02*
X31189Y-60923D01*
X31494Y-60771D02*
X31494Y-60923D01*
X33019Y-60733D02*
X32333Y-61761D01*
X34048Y-60771D02*
X34124Y-60771D01*
X34200Y-60809D01*
X34238Y-60847D01*
X34276Y-60923D01*
X34315Y-61076D01*
X34315Y-61266D01*
X34276Y-61418D01*
X34238Y-61495D01*
X34200Y-61533D01*
X34124Y-61571D01*
X34048Y-61571D01*
X33972Y-61533D01*
X33934Y-61495D01*
X33895Y-61418D01*
X33857Y-61266D01*
X33857Y-61076D01*
X33895Y-60923D01*
X33934Y-60847D01*
X33972Y-60809D01*
X34048Y-60771D01*
X34657Y-61495D02*
X34696Y-61533D01*
X34657Y-61571D01*
X34619Y-61533D01*
X34657Y-61495D01*
X34657Y-61571D01*
X35153Y-61114D02*
X35077Y-61076D01*
X35038Y-61037D01*
X35000Y-60961D01*
X35000Y-60923D01*
X35038Y-60847D01*
X35077Y-60809D01*
X35153Y-60771D01*
X35305Y-60771D01*
X35381Y-60809D01*
X35419Y-60847D01*
X35458Y-60923D01*
X35458Y-60961D01*
X35419Y-61037D01*
X35381Y-61076D01*
X35305Y-61114D01*
X35153Y-61114D01*
X35077Y-61152D01*
X35038Y-61190D01*
X35000Y-61266D01*
X35000Y-61418D01*
X35038Y-61495D01*
X35077Y-61533D01*
X35153Y-61571D01*
X35305Y-61571D01*
X35381Y-61533D01*
X35419Y-61495D01*
X35458Y-61418D01*
X35458Y-61266D01*
X35419Y-61190D01*
X35381Y-61152D01*
X35305Y-61114D01*
X36220Y-61571D02*
X35762Y-61571D01*
X35991Y-61571D02*
X35991Y-60771D01*
X35915Y-60885D01*
X35839Y-60961D01*
X35762Y-60999D01*
X36562Y-61571D02*
X36562Y-61037D01*
X36562Y-61114D02*
X36601Y-61076D01*
X36677Y-61037D01*
X36791Y-61037D01*
X36867Y-61076D01*
X36905Y-61152D01*
X36905Y-61571D01*
X36905Y-61152D02*
X36943Y-61076D01*
X37020Y-61037D01*
X37134Y-61037D01*
X37210Y-61076D01*
X37248Y-61152D01*
X37248Y-61571D01*
X37629Y-61571D02*
X37629Y-61037D01*
X37629Y-61114D02*
X37668Y-61076D01*
X37744Y-61037D01*
X37858Y-61037D01*
X37934Y-61076D01*
X37972Y-61152D01*
X37972Y-61571D01*
X37972Y-61152D02*
X38010Y-61076D01*
X38087Y-61037D01*
X38201Y-61037D01*
X38277Y-61076D01*
X38315Y-61152D01*
X38315Y-61571D01*
X39535Y-61876D02*
X39497Y-61837D01*
X39421Y-61723D01*
X39383Y-61647D01*
X39345Y-61533D01*
X39306Y-61342D01*
X39306Y-61190D01*
X39345Y-60999D01*
X39383Y-60885D01*
X39421Y-60809D01*
X39497Y-60695D01*
X39535Y-60657D01*
X40182Y-60771D02*
X40030Y-60771D01*
X39954Y-60809D01*
X39916Y-60847D01*
X39839Y-60961D01*
X39801Y-61114D01*
X39801Y-61418D01*
X39839Y-61495D01*
X39878Y-61533D01*
X39954Y-61571D01*
X40106Y-61571D01*
X40182Y-61533D01*
X40220Y-61495D01*
X40259Y-61418D01*
X40259Y-61228D01*
X40220Y-61152D01*
X40182Y-61114D01*
X40106Y-61076D01*
X39954Y-61076D01*
X39878Y-61114D01*
X39839Y-61152D01*
X39801Y-61228D01*
X40716Y-61114D02*
X40640Y-61076D01*
X40601Y-61037D01*
X40563Y-60961D01*
X40563Y-60923D01*
X40601Y-60847D01*
X40640Y-60809D01*
X40716Y-60771D01*
X40868Y-60771D01*
X40944Y-60809D01*
X40982Y-60847D01*
X41021Y-60923D01*
X41021Y-60961D01*
X40982Y-61037D01*
X40944Y-61076D01*
X40868Y-61114D01*
X40716Y-61114D01*
X40640Y-61152D01*
X40601Y-61190D01*
X40563Y-61266D01*
X40563Y-61418D01*
X40601Y-61495D01*
X40640Y-61533D01*
X40716Y-61571D01*
X40868Y-61571D01*
X40944Y-61533D01*
X40982Y-61495D01*
X41021Y-61418D01*
X41021Y-61266D01*
X40982Y-61190D01*
X40944Y-61152D01*
X40868Y-61114D01*
X41973Y-61571D02*
X41973Y-60771D01*
X42316Y-61571D02*
X42316Y-61152D01*
X42278Y-61076D01*
X42202Y-61037D01*
X42088Y-61037D01*
X42012Y-61076D01*
X41973Y-61114D01*
X42812Y-61571D02*
X42736Y-61533D01*
X42697Y-61495D01*
X42659Y-61418D01*
X42659Y-61190D01*
X42697Y-61114D01*
X42736Y-61076D01*
X42812Y-61037D01*
X42926Y-61037D01*
X43002Y-61076D01*
X43040Y-61114D01*
X43078Y-61190D01*
X43078Y-61418D01*
X43040Y-61495D01*
X43002Y-61533D01*
X42926Y-61571D01*
X42812Y-61571D01*
X43536Y-61571D02*
X43460Y-61533D01*
X43421Y-61457D01*
X43421Y-60771D01*
X44145Y-61533D02*
X44069Y-61571D01*
X43917Y-61571D01*
X43840Y-61533D01*
X43802Y-61457D01*
X43802Y-61152D01*
X43840Y-61076D01*
X43917Y-61037D01*
X44069Y-61037D01*
X44145Y-61076D01*
X44183Y-61152D01*
X44183Y-61228D01*
X43802Y-61304D01*
X44488Y-61533D02*
X44565Y-61571D01*
X44717Y-61571D01*
X44793Y-61533D01*
X44831Y-61457D01*
X44831Y-61418D01*
X44793Y-61342D01*
X44717Y-61304D01*
X44603Y-61304D01*
X44526Y-61266D01*
X44488Y-61190D01*
X44488Y-61152D01*
X44526Y-61076D01*
X44603Y-61037D01*
X44717Y-61037D01*
X44793Y-61076D01*
X45098Y-61876D02*
X45136Y-61837D01*
X45213Y-61723D01*
X45251Y-61647D01*
X45289Y-61533D01*
X45327Y-61342D01*
X45327Y-61190D01*
X45289Y-60999D01*
X45251Y-60885D01*
X45213Y-60809D01*
X45136Y-60695D01*
X45098Y-60657D01*
X27208Y-62103D02*
X27208Y-62503D01*
X27408Y-62303D02*
X27008Y-62303D01*
X27951Y-61827D02*
X28027Y-61827D01*
X28103Y-61865D01*
X28141Y-61903D01*
X28179Y-61979D01*
X28218Y-62132D01*
X28218Y-62322D01*
X28179Y-62474D01*
X28141Y-62551D01*
X28103Y-62589D01*
X28027Y-62627D01*
X27951Y-62627D01*
X27875Y-62589D01*
X27837Y-62551D01*
X27798Y-62474D01*
X27760Y-62322D01*
X27760Y-62132D01*
X27798Y-61979D01*
X27837Y-61903D01*
X27875Y-61865D01*
X27951Y-61827D01*
X28560Y-62551D02*
X28599Y-62589D01*
X28560Y-62627D01*
X28522Y-62589D01*
X28560Y-62551D01*
X28560Y-62627D01*
X29094Y-61827D02*
X29170Y-61827D01*
X29246Y-61865D01*
X29284Y-61903D01*
X29322Y-61979D01*
X29361Y-62132D01*
X29361Y-62322D01*
X29322Y-62474D01*
X29284Y-62551D01*
X29246Y-62589D01*
X29170Y-62627D01*
X29094Y-62627D01*
X29018Y-62589D01*
X28980Y-62551D01*
X28941Y-62474D01*
X28903Y-62322D01*
X28903Y-62132D01*
X28941Y-61979D01*
X28980Y-61903D01*
X29018Y-61865D01*
X29094Y-61827D01*
X30046Y-62093D02*
X30046Y-62627D01*
X29856Y-61789D02*
X29665Y-62360D01*
X30161Y-62360D01*
X30618Y-61827D02*
X30694Y-61827D01*
X30770Y-61865D01*
X30808Y-61903D01*
X30846Y-61979D01*
X30885Y-62132D01*
X30885Y-62322D01*
X30846Y-62474D01*
X30808Y-62551D01*
X30770Y-62589D01*
X30694Y-62627D01*
X30618Y-62627D01*
X30542Y-62589D01*
X30504Y-62551D01*
X30465Y-62474D01*
X30427Y-62322D01*
X30427Y-62132D01*
X30465Y-61979D01*
X30504Y-61903D01*
X30542Y-61865D01*
X30618Y-61827D01*
X31189Y-61827D02*
X31189Y-61979D01*
X31494Y-61827D02*
X31494Y-61979D01*
X33019Y-61789D02*
X32333Y-62817D01*
X34315Y-62627D02*
X33857Y-62627D01*
X34086Y-62627D02*
X34086Y-61827D01*
X34010Y-61941D01*
X33934Y-62017D01*
X33857Y-62055D01*
X34657Y-62551D02*
X34696Y-62589D01*
X34657Y-62627D01*
X34619Y-62589D01*
X34657Y-62551D01*
X34657Y-62627D01*
X35191Y-61827D02*
X35267Y-61827D01*
X35343Y-61865D01*
X35381Y-61903D01*
X35419Y-61979D01*
X35458Y-62132D01*
X35458Y-62322D01*
X35419Y-62474D01*
X35381Y-62551D01*
X35343Y-62589D01*
X35267Y-62627D01*
X35191Y-62627D01*
X35115Y-62589D01*
X35077Y-62551D01*
X35038Y-62474D01*
X35000Y-62322D01*
X35000Y-62132D01*
X35038Y-61979D01*
X35077Y-61903D01*
X35115Y-61865D01*
X35191Y-61827D01*
X35762Y-61903D02*
X35800Y-61865D01*
X35877Y-61827D01*
X36067Y-61827D01*
X36143Y-61865D01*
X36181Y-61903D01*
X36220Y-61979D01*
X36220Y-62055D01*
X36181Y-62170D01*
X35724Y-62627D01*
X36220Y-62627D01*
X36562Y-62627D02*
X36562Y-62093D01*
X36562Y-62170D02*
X36601Y-62132D01*
X36677Y-62093D01*
X36791Y-62093D01*
X36867Y-62132D01*
X36905Y-62208D01*
X36905Y-62627D01*
X36905Y-62208D02*
X36943Y-62132D01*
X37020Y-62093D01*
X37134Y-62093D01*
X37210Y-62132D01*
X37248Y-62208D01*
X37248Y-62627D01*
X37629Y-62627D02*
X37629Y-62093D01*
X37629Y-62170D02*
X37668Y-62132D01*
X37744Y-62093D01*
X37858Y-62093D01*
X37934Y-62132D01*
X37972Y-62208D01*
X37972Y-62627D01*
X37972Y-62208D02*
X38010Y-62132D01*
X38087Y-62093D01*
X38201Y-62093D01*
X38277Y-62132D01*
X38315Y-62208D01*
X38315Y-62627D01*
X39535Y-62932D02*
X39497Y-62893D01*
X39421Y-62779D01*
X39383Y-62703D01*
X39345Y-62589D01*
X39306Y-62398D01*
X39306Y-62246D01*
X39345Y-62055D01*
X39383Y-61941D01*
X39421Y-61865D01*
X39497Y-61751D01*
X39535Y-61713D01*
X39763Y-61827D02*
X40259Y-61827D01*
X39992Y-62132D01*
X40106Y-62132D01*
X40182Y-62170D01*
X40220Y-62208D01*
X40259Y-62284D01*
X40259Y-62474D01*
X40220Y-62551D01*
X40182Y-62589D01*
X40106Y-62627D01*
X39878Y-62627D01*
X39801Y-62589D01*
X39763Y-62551D01*
X40525Y-61827D02*
X41021Y-61827D01*
X40754Y-62132D01*
X40868Y-62132D01*
X40944Y-62170D01*
X40982Y-62208D01*
X41021Y-62284D01*
X41021Y-62474D01*
X40982Y-62551D01*
X40944Y-62589D01*
X40868Y-62627D01*
X40640Y-62627D01*
X40563Y-62589D01*
X40525Y-62551D01*
X41973Y-62627D02*
X41973Y-61827D01*
X42316Y-62627D02*
X42316Y-62208D01*
X42278Y-62132D01*
X42202Y-62093D01*
X42088Y-62093D01*
X42012Y-62132D01*
X41973Y-62170D01*
X42812Y-62627D02*
X42736Y-62589D01*
X42697Y-62551D01*
X42659Y-62474D01*
X42659Y-62246D01*
X42697Y-62170D01*
X42736Y-62132D01*
X42812Y-62093D01*
X42926Y-62093D01*
X43002Y-62132D01*
X43040Y-62170D01*
X43078Y-62246D01*
X43078Y-62474D01*
X43040Y-62551D01*
X43002Y-62589D01*
X42926Y-62627D01*
X42812Y-62627D01*
X43536Y-62627D02*
X43460Y-62589D01*
X43421Y-62513D01*
X43421Y-61827D01*
X44145Y-62589D02*
X44069Y-62627D01*
X43917Y-62627D01*
X43840Y-62589D01*
X43802Y-62513D01*
X43802Y-62208D01*
X43840Y-62132D01*
X43917Y-62093D01*
X44069Y-62093D01*
X44145Y-62132D01*
X44183Y-62208D01*
X44183Y-62284D01*
X43802Y-62360D01*
X44488Y-62589D02*
X44565Y-62627D01*
X44717Y-62627D01*
X44793Y-62589D01*
X44831Y-62513D01*
X44831Y-62474D01*
X44793Y-62398D01*
X44717Y-62360D01*
X44603Y-62360D01*
X44526Y-62322D01*
X44488Y-62246D01*
X44488Y-62208D01*
X44526Y-62132D01*
X44603Y-62093D01*
X44717Y-62093D01*
X44793Y-62132D01*
X45098Y-62932D02*
X45136Y-62893D01*
X45213Y-62779D01*
X45251Y-62703D01*
X45289Y-62589D01*
X45327Y-62398D01*
X45327Y-62246D01*
X45289Y-62055D01*
X45251Y-61941D01*
X45213Y-61865D01*
X45136Y-61751D01*
X45098Y-61713D01*
G54D10*
X27408Y-63359D02*
X27403Y-63407D01*
X27389Y-63454D01*
X27366Y-63497D01*
X27335Y-63535D01*
X27297Y-63566D01*
X27254Y-63589D01*
X27208Y-63603D01*
X27159Y-63608D01*
X27112Y-63604D01*
X27065Y-63590D01*
X27022Y-63568D01*
X26984Y-63537D01*
X26952Y-63500D01*
X26929Y-63457D01*
X26914Y-63410D01*
X26909Y-63362D01*
X26913Y-63314D01*
X26926Y-63267D01*
X26948Y-63224D01*
X26979Y-63186D01*
X27016Y-63154D01*
X27058Y-63130D01*
X27105Y-63115D01*
X27153Y-63110D01*
X27201Y-63113D01*
X27248Y-63126D01*
X27291Y-63148D01*
X27330Y-63178D01*
X27362Y-63215D01*
X27386Y-63258D01*
X27401Y-63304D01*
X27407Y-63353D01*
X27408Y-63359D01*
X26908Y-63109D02*
X27408Y-63609D01*
X27408Y-63109D02*
X26908Y-63609D01*
G54D12*
X27951Y-62883D02*
X28027Y-62883D01*
X28103Y-62921D01*
X28141Y-62959D01*
X28179Y-63035D01*
X28218Y-63188D01*
X28218Y-63378D01*
X28179Y-63530D01*
X28141Y-63607D01*
X28103Y-63645D01*
X28027Y-63683D01*
X27951Y-63683D01*
X27875Y-63645D01*
X27837Y-63607D01*
X27798Y-63530D01*
X27760Y-63378D01*
X27760Y-63188D01*
X27798Y-63035D01*
X27837Y-62959D01*
X27875Y-62921D01*
X27951Y-62883D01*
X28560Y-63607D02*
X28599Y-63645D01*
X28560Y-63683D01*
X28522Y-63645D01*
X28560Y-63607D01*
X28560Y-63683D01*
X29094Y-62883D02*
X29170Y-62883D01*
X29246Y-62921D01*
X29284Y-62959D01*
X29322Y-63035D01*
X29361Y-63188D01*
X29361Y-63378D01*
X29322Y-63530D01*
X29284Y-63607D01*
X29246Y-63645D01*
X29170Y-63683D01*
X29094Y-63683D01*
X29018Y-63645D01*
X28980Y-63607D01*
X28941Y-63530D01*
X28903Y-63378D01*
X28903Y-63188D01*
X28941Y-63035D01*
X28980Y-62959D01*
X29018Y-62921D01*
X29094Y-62883D01*
X30084Y-62883D02*
X29703Y-62883D01*
X29665Y-63264D01*
X29703Y-63226D01*
X29780Y-63188D01*
X29970Y-63188D01*
X30046Y-63226D01*
X30084Y-63264D01*
X30123Y-63340D01*
X30123Y-63530D01*
X30084Y-63607D01*
X30046Y-63645D01*
X29970Y-63683D01*
X29780Y-63683D01*
X29703Y-63645D01*
X29665Y-63607D01*
X30618Y-62883D02*
X30694Y-62883D01*
X30770Y-62921D01*
X30808Y-62959D01*
X30846Y-63035D01*
X30885Y-63188D01*
X30885Y-63378D01*
X30846Y-63530D01*
X30808Y-63607D01*
X30770Y-63645D01*
X30694Y-63683D01*
X30618Y-63683D01*
X30542Y-63645D01*
X30504Y-63607D01*
X30465Y-63530D01*
X30427Y-63378D01*
X30427Y-63188D01*
X30465Y-63035D01*
X30504Y-62959D01*
X30542Y-62921D01*
X30618Y-62883D01*
X31189Y-62883D02*
X31189Y-63035D01*
X31494Y-62883D02*
X31494Y-63035D01*
X33019Y-62845D02*
X32333Y-63873D01*
X34315Y-63683D02*
X33857Y-63683D01*
X34086Y-63683D02*
X34086Y-62883D01*
X34010Y-62997D01*
X33934Y-63073D01*
X33857Y-63111D01*
X34657Y-63607D02*
X34696Y-63645D01*
X34657Y-63683D01*
X34619Y-63645D01*
X34657Y-63607D01*
X34657Y-63683D01*
X35000Y-62959D02*
X35038Y-62921D01*
X35115Y-62883D01*
X35305Y-62883D01*
X35381Y-62921D01*
X35419Y-62959D01*
X35458Y-63035D01*
X35458Y-63111D01*
X35419Y-63226D01*
X34962Y-63683D01*
X35458Y-63683D01*
X35724Y-62883D02*
X36258Y-62883D01*
X35915Y-63683D01*
X36562Y-63683D02*
X36562Y-63149D01*
X36562Y-63226D02*
X36601Y-63188D01*
X36677Y-63149D01*
X36791Y-63149D01*
X36867Y-63188D01*
X36905Y-63264D01*
X36905Y-63683D01*
X36905Y-63264D02*
X36943Y-63188D01*
X37020Y-63149D01*
X37134Y-63149D01*
X37210Y-63188D01*
X37248Y-63264D01*
X37248Y-63683D01*
X37629Y-63683D02*
X37629Y-63149D01*
X37629Y-63226D02*
X37668Y-63188D01*
X37744Y-63149D01*
X37858Y-63149D01*
X37934Y-63188D01*
X37972Y-63264D01*
X37972Y-63683D01*
X37972Y-63264D02*
X38010Y-63188D01*
X38087Y-63149D01*
X38201Y-63149D01*
X38277Y-63188D01*
X38315Y-63264D01*
X38315Y-63683D01*
X39535Y-63988D02*
X39497Y-63949D01*
X39421Y-63835D01*
X39383Y-63759D01*
X39345Y-63645D01*
X39306Y-63454D01*
X39306Y-63302D01*
X39345Y-63111D01*
X39383Y-62997D01*
X39421Y-62921D01*
X39497Y-62807D01*
X39535Y-62769D01*
X40182Y-63149D02*
X40182Y-63683D01*
X39992Y-62845D02*
X39801Y-63416D01*
X40297Y-63416D01*
X41211Y-63683D02*
X41211Y-62883D01*
X41554Y-63683D02*
X41554Y-63264D01*
X41516Y-63188D01*
X41440Y-63149D01*
X41326Y-63149D01*
X41250Y-63188D01*
X41211Y-63226D01*
X42050Y-63683D02*
X41974Y-63645D01*
X41935Y-63607D01*
X41897Y-63530D01*
X41897Y-63302D01*
X41935Y-63226D01*
X41974Y-63188D01*
X42050Y-63149D01*
X42164Y-63149D01*
X42240Y-63188D01*
X42278Y-63226D01*
X42316Y-63302D01*
X42316Y-63530D01*
X42278Y-63607D01*
X42240Y-63645D01*
X42164Y-63683D01*
X42050Y-63683D01*
X42774Y-63683D02*
X42698Y-63645D01*
X42659Y-63569D01*
X42659Y-62883D01*
X43383Y-63645D02*
X43307Y-63683D01*
X43155Y-63683D01*
X43078Y-63645D01*
X43040Y-63569D01*
X43040Y-63264D01*
X43078Y-63188D01*
X43155Y-63149D01*
X43307Y-63149D01*
X43383Y-63188D01*
X43421Y-63264D01*
X43421Y-63340D01*
X43040Y-63416D01*
X43726Y-63645D02*
X43803Y-63683D01*
X43955Y-63683D01*
X44031Y-63645D01*
X44069Y-63569D01*
X44069Y-63530D01*
X44031Y-63454D01*
X43955Y-63416D01*
X43841Y-63416D01*
X43764Y-63378D01*
X43726Y-63302D01*
X43726Y-63264D01*
X43764Y-63188D01*
X43841Y-63149D01*
X43955Y-63149D01*
X44031Y-63188D01*
X44336Y-63988D02*
X44374Y-63949D01*
X44451Y-63835D01*
X44489Y-63759D01*
X44527Y-63645D01*
X44565Y-63454D01*
X44565Y-63302D01*
X44527Y-63111D01*
X44489Y-62997D01*
X44451Y-62921D01*
X44374Y-62807D01*
X44336Y-62769D01*
M02*
