M48
;DRILL file {Pcbnew (2012-apr-16-27)-stable} date Thu 27 Dec 2012 11:36:24 GMT
;FORMAT={-:-/ absolute / inch / decimal}
FMAT,2
INCH,TZ
T1C0.025
T2C0.032
T3C0.040
T4C0.050
%
G90
G05
M72
T1
X3.035Y3.780
X3.235Y3.830
X3.260Y3.705
X3.285Y3.830
X3.405Y4.045
X3.800Y3.825
X3.925Y3.875
X3.985Y3.975
X4.000Y5.200
X4.050Y3.750
X4.050Y3.875
X4.050Y5.250
X4.085Y4.875
X4.100Y3.750
X4.145Y4.915
X4.425Y4.535
X4.445Y4.615
X4.460Y4.485
X4.520Y4.885
X4.630Y3.768
X4.715Y4.355
X4.875Y4.675
X4.875Y4.850
X5.004Y4.022
X5.005Y4.270
X5.201Y4.495
X5.390Y5.055
X5.450Y5.250
X5.450Y5.375
X5.525Y5.250
X5.525Y5.350
X5.565Y5.055
X5.575Y5.275
X5.600Y5.325
X5.725Y5.550
X5.752Y4.534
X5.752Y4.613
X5.800Y5.475
X5.888Y3.107
X5.900Y4.825
X5.975Y3.745
X6.015Y4.775
X6.058Y3.107
X6.200Y5.425
X6.275Y4.475
X6.325Y4.000
X6.325Y4.380
X6.325Y4.825
X6.325Y5.400
X6.378Y4.252
X6.425Y4.875
T2
X2.885Y3.480
X2.885Y3.705
X2.885Y3.805
X2.885Y3.905
X2.885Y4.005
X2.885Y4.105
X2.885Y4.205
X2.885Y4.305
X2.885Y4.405
X2.885Y4.505
X2.885Y4.605
X2.885Y4.705
X2.885Y4.805
X2.888Y5.513
X2.985Y3.480
X2.988Y5.513
X3.085Y3.480
X3.088Y5.513
X3.185Y3.480
X3.188Y5.513
X3.288Y5.513
X3.388Y5.513
X3.488Y5.513
X3.588Y5.513
X3.675Y3.485
X3.675Y3.700
X3.675Y3.800
X3.675Y3.900
X3.675Y4.000
X3.675Y4.100
X3.675Y4.200
X3.675Y4.300
X3.675Y4.400
X3.675Y4.500
X3.675Y4.600
X3.675Y4.700
X3.675Y4.800
X3.688Y5.513
X3.775Y3.485
X3.788Y5.513
X3.875Y3.485
X3.888Y5.513
X3.975Y3.485
X3.988Y5.513
X4.325Y5.525
X4.425Y5.525
X4.525Y5.525
X4.625Y5.525
X4.725Y5.525
X4.825Y5.525
X4.925Y5.525
X5.020Y3.275
X5.020Y3.575
X5.025Y5.525
X5.125Y5.525
X5.225Y5.525
X5.325Y5.525
X5.425Y5.525
X6.325Y3.250
X6.325Y3.550
X6.573Y3.008
X6.573Y3.107
X6.600Y5.600
X6.750Y4.400
X6.750Y4.500
X6.750Y4.600
X6.750Y4.700
X6.750Y4.800
T3
X4.530Y4.140
X4.530Y4.340
X5.315Y4.281
X5.315Y4.381
X5.855Y4.270
X6.055Y4.270
X6.221Y4.163
X6.221Y4.263
X6.500Y4.400
X6.500Y4.500
X6.500Y4.600
X6.500Y4.700
X6.500Y4.800
X6.500Y4.900
X6.500Y5.000
X6.500Y5.100
X6.500Y5.200
X6.500Y5.300
X6.500Y5.400
X6.500Y5.500
X6.500Y5.600
X6.600Y4.400
X6.600Y4.500
X6.600Y4.600
X6.600Y4.700
X6.600Y4.800
X6.600Y4.900
X6.600Y5.000
X6.600Y5.100
X6.600Y5.200
X6.600Y5.300
X6.600Y5.400
X6.600Y5.500
T4
X5.315Y3.438
X5.315Y4.138
X6.573Y3.438
X6.573Y4.138
T0
M30
