G04 (created by PCBNEW-RS274X (2012-apr-16-27)-stable) date Thu 27 Dec 2012 11:36:06 GMT*
G01*
G70*
G90*
%MOIN*%
G04 Gerber Fmt 3.4, Leading zero omitted, Abs format*
%FSLAX34Y34*%
G04 APERTURE LIST*
%ADD10C,0.006000*%
%ADD11C,0.012000*%
%ADD12C,0.005000*%
G04 APERTURE END LIST*
G54D10*
X04000Y-04000D02*
X113000Y-04000D01*
X113000Y-78670D01*
X04000Y-78670D01*
X04000Y-04000D01*
X04700Y-04700D02*
X112300Y-04700D01*
X112300Y-77970D01*
X04700Y-77970D01*
X04700Y-04700D01*
X25800Y-04000D02*
X25800Y-04700D01*
X15043Y-04552D02*
X14757Y-04552D01*
X14900Y-04552D02*
X14900Y-04052D01*
X14852Y-04124D01*
X14805Y-04171D01*
X14757Y-04195D01*
X25800Y-78670D02*
X25800Y-77970D01*
X15043Y-78522D02*
X14757Y-78522D01*
X14900Y-78522D02*
X14900Y-78022D01*
X14852Y-78094D01*
X14805Y-78141D01*
X14757Y-78165D01*
X47600Y-04000D02*
X47600Y-04700D01*
X36557Y-04100D02*
X36581Y-04076D01*
X36629Y-04052D01*
X36748Y-04052D01*
X36795Y-04076D01*
X36819Y-04100D01*
X36843Y-04148D01*
X36843Y-04195D01*
X36819Y-04267D01*
X36533Y-04552D01*
X36843Y-04552D01*
X47600Y-78670D02*
X47600Y-77970D01*
X36557Y-78070D02*
X36581Y-78046D01*
X36629Y-78022D01*
X36748Y-78022D01*
X36795Y-78046D01*
X36819Y-78070D01*
X36843Y-78118D01*
X36843Y-78165D01*
X36819Y-78237D01*
X36533Y-78522D01*
X36843Y-78522D01*
X69400Y-04000D02*
X69400Y-04700D01*
X58333Y-04052D02*
X58643Y-04052D01*
X58476Y-04243D01*
X58548Y-04243D01*
X58595Y-04267D01*
X58619Y-04290D01*
X58643Y-04338D01*
X58643Y-04457D01*
X58619Y-04505D01*
X58595Y-04529D01*
X58548Y-04552D01*
X58405Y-04552D01*
X58357Y-04529D01*
X58333Y-04505D01*
X69400Y-78670D02*
X69400Y-77970D01*
X58333Y-78022D02*
X58643Y-78022D01*
X58476Y-78213D01*
X58548Y-78213D01*
X58595Y-78237D01*
X58619Y-78260D01*
X58643Y-78308D01*
X58643Y-78427D01*
X58619Y-78475D01*
X58595Y-78499D01*
X58548Y-78522D01*
X58405Y-78522D01*
X58357Y-78499D01*
X58333Y-78475D01*
X91200Y-04000D02*
X91200Y-04700D01*
X80395Y-04219D02*
X80395Y-04552D01*
X80276Y-04029D02*
X80157Y-04386D01*
X80467Y-04386D01*
X91200Y-78670D02*
X91200Y-77970D01*
X80395Y-78189D02*
X80395Y-78522D01*
X80276Y-77999D02*
X80157Y-78356D01*
X80467Y-78356D01*
X102219Y-04052D02*
X101981Y-04052D01*
X101957Y-04290D01*
X101981Y-04267D01*
X102029Y-04243D01*
X102148Y-04243D01*
X102195Y-04267D01*
X102219Y-04290D01*
X102243Y-04338D01*
X102243Y-04457D01*
X102219Y-04505D01*
X102195Y-04529D01*
X102148Y-04552D01*
X102029Y-04552D01*
X101981Y-04529D01*
X101957Y-04505D01*
X102219Y-78022D02*
X101981Y-78022D01*
X101957Y-78260D01*
X101981Y-78237D01*
X102029Y-78213D01*
X102148Y-78213D01*
X102195Y-78237D01*
X102219Y-78260D01*
X102243Y-78308D01*
X102243Y-78427D01*
X102219Y-78475D01*
X102195Y-78499D01*
X102148Y-78522D01*
X102029Y-78522D01*
X101981Y-78499D01*
X101957Y-78475D01*
X04000Y-28890D02*
X04700Y-28890D01*
X04231Y-16510D02*
X04469Y-16510D01*
X04184Y-16652D02*
X04350Y-16152D01*
X04517Y-16652D01*
X113000Y-28890D02*
X112300Y-28890D01*
X112531Y-16510D02*
X112769Y-16510D01*
X112484Y-16652D02*
X112650Y-16152D01*
X112817Y-16652D01*
X04000Y-53780D02*
X04700Y-53780D01*
X04386Y-41280D02*
X04457Y-41304D01*
X04481Y-41328D01*
X04505Y-41376D01*
X04505Y-41447D01*
X04481Y-41495D01*
X04457Y-41519D01*
X04410Y-41542D01*
X04219Y-41542D01*
X04219Y-41042D01*
X04386Y-41042D01*
X04433Y-41066D01*
X04457Y-41090D01*
X04481Y-41138D01*
X04481Y-41185D01*
X04457Y-41233D01*
X04433Y-41257D01*
X04386Y-41280D01*
X04219Y-41280D01*
X113000Y-53780D02*
X112300Y-53780D01*
X112686Y-41280D02*
X112757Y-41304D01*
X112781Y-41328D01*
X112805Y-41376D01*
X112805Y-41447D01*
X112781Y-41495D01*
X112757Y-41519D01*
X112710Y-41542D01*
X112519Y-41542D01*
X112519Y-41042D01*
X112686Y-41042D01*
X112733Y-41066D01*
X112757Y-41090D01*
X112781Y-41138D01*
X112781Y-41185D01*
X112757Y-41233D01*
X112733Y-41257D01*
X112686Y-41280D01*
X112519Y-41280D01*
X04505Y-66385D02*
X04481Y-66409D01*
X04410Y-66432D01*
X04362Y-66432D01*
X04290Y-66409D01*
X04243Y-66361D01*
X04219Y-66313D01*
X04195Y-66218D01*
X04195Y-66147D01*
X04219Y-66051D01*
X04243Y-66004D01*
X04290Y-65956D01*
X04362Y-65932D01*
X04410Y-65932D01*
X04481Y-65956D01*
X04505Y-65980D01*
X112805Y-66385D02*
X112781Y-66409D01*
X112710Y-66432D01*
X112662Y-66432D01*
X112590Y-66409D01*
X112543Y-66361D01*
X112519Y-66313D01*
X112495Y-66218D01*
X112495Y-66147D01*
X112519Y-66051D01*
X112543Y-66004D01*
X112590Y-65956D01*
X112662Y-65932D01*
X112710Y-65932D01*
X112781Y-65956D01*
X112805Y-65980D01*
G54D11*
X79443Y-76413D02*
X79443Y-75813D01*
X79586Y-75813D01*
X79671Y-75841D01*
X79729Y-75899D01*
X79757Y-75956D01*
X79786Y-76070D01*
X79786Y-76156D01*
X79757Y-76270D01*
X79729Y-76327D01*
X79671Y-76384D01*
X79586Y-76413D01*
X79443Y-76413D01*
X80300Y-76413D02*
X80300Y-76099D01*
X80271Y-76041D01*
X80214Y-76013D01*
X80100Y-76013D01*
X80043Y-76041D01*
X80300Y-76384D02*
X80243Y-76413D01*
X80100Y-76413D01*
X80043Y-76384D01*
X80014Y-76327D01*
X80014Y-76270D01*
X80043Y-76213D01*
X80100Y-76184D01*
X80243Y-76184D01*
X80300Y-76156D01*
X80500Y-76013D02*
X80729Y-76013D01*
X80586Y-75813D02*
X80586Y-76327D01*
X80614Y-76384D01*
X80672Y-76413D01*
X80729Y-76413D01*
X81157Y-76384D02*
X81100Y-76413D01*
X80986Y-76413D01*
X80929Y-76384D01*
X80900Y-76327D01*
X80900Y-76099D01*
X80929Y-76041D01*
X80986Y-76013D01*
X81100Y-76013D01*
X81157Y-76041D01*
X81186Y-76099D01*
X81186Y-76156D01*
X80900Y-76213D01*
X81443Y-76356D02*
X81471Y-76384D01*
X81443Y-76413D01*
X81414Y-76384D01*
X81443Y-76356D01*
X81443Y-76413D01*
X81443Y-76041D02*
X81471Y-76070D01*
X81443Y-76099D01*
X81414Y-76070D01*
X81443Y-76041D01*
X81443Y-76099D01*
X82157Y-75870D02*
X82186Y-75841D01*
X82243Y-75813D01*
X82386Y-75813D01*
X82443Y-75841D01*
X82472Y-75870D01*
X82500Y-75927D01*
X82500Y-75984D01*
X82472Y-76070D01*
X82129Y-76413D01*
X82500Y-76413D01*
X82700Y-75813D02*
X83100Y-75813D01*
X82843Y-76413D01*
X84042Y-76413D02*
X84042Y-75813D01*
X84042Y-76384D02*
X83985Y-76413D01*
X83871Y-76413D01*
X83813Y-76384D01*
X83785Y-76356D01*
X83756Y-76299D01*
X83756Y-76127D01*
X83785Y-76070D01*
X83813Y-76041D01*
X83871Y-76013D01*
X83985Y-76013D01*
X84042Y-76041D01*
X84556Y-76384D02*
X84499Y-76413D01*
X84385Y-76413D01*
X84328Y-76384D01*
X84299Y-76327D01*
X84299Y-76099D01*
X84328Y-76041D01*
X84385Y-76013D01*
X84499Y-76013D01*
X84556Y-76041D01*
X84585Y-76099D01*
X84585Y-76156D01*
X84299Y-76213D01*
X85099Y-76384D02*
X85042Y-76413D01*
X84928Y-76413D01*
X84870Y-76384D01*
X84842Y-76356D01*
X84813Y-76299D01*
X84813Y-76127D01*
X84842Y-76070D01*
X84870Y-76041D01*
X84928Y-76013D01*
X85042Y-76013D01*
X85099Y-76041D01*
X85784Y-75870D02*
X85813Y-75841D01*
X85870Y-75813D01*
X86013Y-75813D01*
X86070Y-75841D01*
X86099Y-75870D01*
X86127Y-75927D01*
X86127Y-75984D01*
X86099Y-76070D01*
X85756Y-76413D01*
X86127Y-76413D01*
X86498Y-75813D02*
X86555Y-75813D01*
X86612Y-75841D01*
X86641Y-75870D01*
X86670Y-75927D01*
X86698Y-76041D01*
X86698Y-76184D01*
X86670Y-76299D01*
X86641Y-76356D01*
X86612Y-76384D01*
X86555Y-76413D01*
X86498Y-76413D01*
X86441Y-76384D01*
X86412Y-76356D01*
X86384Y-76299D01*
X86355Y-76184D01*
X86355Y-76041D01*
X86384Y-75927D01*
X86412Y-75870D01*
X86441Y-75841D01*
X86498Y-75813D01*
X87269Y-76413D02*
X86926Y-76413D01*
X87098Y-76413D02*
X87098Y-75813D01*
X87041Y-75899D01*
X86983Y-75956D01*
X86926Y-75984D01*
X87497Y-75870D02*
X87526Y-75841D01*
X87583Y-75813D01*
X87726Y-75813D01*
X87783Y-75841D01*
X87812Y-75870D01*
X87840Y-75927D01*
X87840Y-75984D01*
X87812Y-76070D01*
X87469Y-76413D01*
X87840Y-76413D01*
G54D10*
X71043Y-77613D02*
X71043Y-77013D01*
X71386Y-77613D02*
X71129Y-77270D01*
X71386Y-77013D02*
X71043Y-77356D01*
X71643Y-77613D02*
X71643Y-77213D01*
X71643Y-77013D02*
X71614Y-77041D01*
X71643Y-77070D01*
X71671Y-77041D01*
X71643Y-77013D01*
X71643Y-77070D01*
X72272Y-77556D02*
X72243Y-77584D01*
X72157Y-77613D01*
X72100Y-77613D01*
X72015Y-77584D01*
X71957Y-77527D01*
X71929Y-77470D01*
X71900Y-77356D01*
X71900Y-77270D01*
X71929Y-77156D01*
X71957Y-77099D01*
X72015Y-77041D01*
X72100Y-77013D01*
X72157Y-77013D01*
X72243Y-77041D01*
X72272Y-77070D01*
X72786Y-77613D02*
X72786Y-77299D01*
X72757Y-77241D01*
X72700Y-77213D01*
X72586Y-77213D01*
X72529Y-77241D01*
X72786Y-77584D02*
X72729Y-77613D01*
X72586Y-77613D01*
X72529Y-77584D01*
X72500Y-77527D01*
X72500Y-77470D01*
X72529Y-77413D01*
X72586Y-77384D01*
X72729Y-77384D01*
X72786Y-77356D01*
X73329Y-77613D02*
X73329Y-77013D01*
X73329Y-77584D02*
X73272Y-77613D01*
X73158Y-77613D01*
X73100Y-77584D01*
X73072Y-77556D01*
X73043Y-77499D01*
X73043Y-77327D01*
X73072Y-77270D01*
X73100Y-77241D01*
X73158Y-77213D01*
X73272Y-77213D01*
X73329Y-77241D01*
X74072Y-77299D02*
X74272Y-77299D01*
X74358Y-77613D02*
X74072Y-77613D01*
X74072Y-77013D01*
X74358Y-77013D01*
X74615Y-77556D02*
X74643Y-77584D01*
X74615Y-77613D01*
X74586Y-77584D01*
X74615Y-77556D01*
X74615Y-77613D01*
X74901Y-77613D02*
X74901Y-77013D01*
X75044Y-77013D01*
X75129Y-77041D01*
X75187Y-77099D01*
X75215Y-77156D01*
X75244Y-77270D01*
X75244Y-77356D01*
X75215Y-77470D01*
X75187Y-77527D01*
X75129Y-77584D01*
X75044Y-77613D01*
X74901Y-77613D01*
X75501Y-77556D02*
X75529Y-77584D01*
X75501Y-77613D01*
X75472Y-77584D01*
X75501Y-77556D01*
X75501Y-77613D01*
X75758Y-77441D02*
X76044Y-77441D01*
X75701Y-77613D02*
X75901Y-77013D01*
X76101Y-77613D01*
X76301Y-77556D02*
X76329Y-77584D01*
X76301Y-77613D01*
X76272Y-77584D01*
X76301Y-77556D01*
X76301Y-77613D01*
G54D11*
X104586Y-76413D02*
X104386Y-76127D01*
X104243Y-76413D02*
X104243Y-75813D01*
X104471Y-75813D01*
X104529Y-75841D01*
X104557Y-75870D01*
X104586Y-75927D01*
X104586Y-76013D01*
X104557Y-76070D01*
X104529Y-76099D01*
X104471Y-76127D01*
X104243Y-76127D01*
X105071Y-76384D02*
X105014Y-76413D01*
X104900Y-76413D01*
X104843Y-76384D01*
X104814Y-76327D01*
X104814Y-76099D01*
X104843Y-76041D01*
X104900Y-76013D01*
X105014Y-76013D01*
X105071Y-76041D01*
X105100Y-76099D01*
X105100Y-76156D01*
X104814Y-76213D01*
X105300Y-76013D02*
X105443Y-76413D01*
X105585Y-76013D01*
X105814Y-76356D02*
X105842Y-76384D01*
X105814Y-76413D01*
X105785Y-76384D01*
X105814Y-76356D01*
X105814Y-76413D01*
X105814Y-76041D02*
X105842Y-76070D01*
X105814Y-76099D01*
X105785Y-76070D01*
X105814Y-76041D01*
X105814Y-76099D01*
G54D10*
X71014Y-76384D02*
X71100Y-76413D01*
X71243Y-76413D01*
X71300Y-76384D01*
X71329Y-76356D01*
X71357Y-76299D01*
X71357Y-76241D01*
X71329Y-76184D01*
X71300Y-76156D01*
X71243Y-76127D01*
X71129Y-76099D01*
X71071Y-76070D01*
X71043Y-76041D01*
X71014Y-75984D01*
X71014Y-75927D01*
X71043Y-75870D01*
X71071Y-75841D01*
X71129Y-75813D01*
X71271Y-75813D01*
X71357Y-75841D01*
X71614Y-76413D02*
X71614Y-76013D01*
X71614Y-75813D02*
X71585Y-75841D01*
X71614Y-75870D01*
X71642Y-75841D01*
X71614Y-75813D01*
X71614Y-75870D01*
X71843Y-76013D02*
X72157Y-76013D01*
X71843Y-76413D01*
X72157Y-76413D01*
X72614Y-76384D02*
X72557Y-76413D01*
X72443Y-76413D01*
X72386Y-76384D01*
X72357Y-76327D01*
X72357Y-76099D01*
X72386Y-76041D01*
X72443Y-76013D01*
X72557Y-76013D01*
X72614Y-76041D01*
X72643Y-76099D01*
X72643Y-76156D01*
X72357Y-76213D01*
X72900Y-76356D02*
X72928Y-76384D01*
X72900Y-76413D01*
X72871Y-76384D01*
X72900Y-76356D01*
X72900Y-76413D01*
X72900Y-76041D02*
X72928Y-76070D01*
X72900Y-76099D01*
X72871Y-76070D01*
X72900Y-76041D01*
X72900Y-76099D01*
X73614Y-76241D02*
X73900Y-76241D01*
X73557Y-76413D02*
X73757Y-75813D01*
X73957Y-76413D01*
X74414Y-76013D02*
X74414Y-76413D01*
X74271Y-75784D02*
X74128Y-76213D01*
X74500Y-76213D01*
X104243Y-77613D02*
X104243Y-77013D01*
X104786Y-77613D02*
X104786Y-77013D01*
X104786Y-77584D02*
X104729Y-77613D01*
X104615Y-77613D01*
X104557Y-77584D01*
X104529Y-77556D01*
X104500Y-77499D01*
X104500Y-77327D01*
X104529Y-77270D01*
X104557Y-77241D01*
X104615Y-77213D01*
X104729Y-77213D01*
X104786Y-77241D01*
X105072Y-77556D02*
X105100Y-77584D01*
X105072Y-77613D01*
X105043Y-77584D01*
X105072Y-77556D01*
X105072Y-77613D01*
X105072Y-77241D02*
X105100Y-77270D01*
X105072Y-77299D01*
X105043Y-77270D01*
X105072Y-77241D01*
X105072Y-77299D01*
X106129Y-77613D02*
X105786Y-77613D01*
X105958Y-77613D02*
X105958Y-77013D01*
X105901Y-77099D01*
X105843Y-77156D01*
X105786Y-77184D01*
X106814Y-76984D02*
X106300Y-77756D01*
X107329Y-77613D02*
X106986Y-77613D01*
X107158Y-77613D02*
X107158Y-77013D01*
X107101Y-77099D01*
X107043Y-77156D01*
X106986Y-77184D01*
G54D11*
X70957Y-74613D02*
X71300Y-74613D01*
X71129Y-75213D02*
X71129Y-74613D01*
X71500Y-75213D02*
X71500Y-74813D01*
X71500Y-74613D02*
X71471Y-74641D01*
X71500Y-74670D01*
X71528Y-74641D01*
X71500Y-74613D01*
X71500Y-74670D01*
X71700Y-74813D02*
X71929Y-74813D01*
X71786Y-74613D02*
X71786Y-75127D01*
X71814Y-75184D01*
X71872Y-75213D01*
X71929Y-75213D01*
X72215Y-75213D02*
X72157Y-75184D01*
X72129Y-75127D01*
X72129Y-74613D01*
X72671Y-75184D02*
X72614Y-75213D01*
X72500Y-75213D01*
X72443Y-75184D01*
X72414Y-75127D01*
X72414Y-74899D01*
X72443Y-74841D01*
X72500Y-74813D01*
X72614Y-74813D01*
X72671Y-74841D01*
X72700Y-74899D01*
X72700Y-74956D01*
X72414Y-75013D01*
X72957Y-75156D02*
X72985Y-75184D01*
X72957Y-75213D01*
X72928Y-75184D01*
X72957Y-75156D01*
X72957Y-75213D01*
X72957Y-74841D02*
X72985Y-74870D01*
X72957Y-74899D01*
X72928Y-74870D01*
X72957Y-74841D01*
X72957Y-74899D01*
G54D10*
X71243Y-72499D02*
X71043Y-72499D01*
X71043Y-72813D02*
X71043Y-72213D01*
X71329Y-72213D01*
X71557Y-72813D02*
X71557Y-72413D01*
X71557Y-72213D02*
X71528Y-72241D01*
X71557Y-72270D01*
X71585Y-72241D01*
X71557Y-72213D01*
X71557Y-72270D01*
X71929Y-72813D02*
X71871Y-72784D01*
X71843Y-72727D01*
X71843Y-72213D01*
X72385Y-72784D02*
X72328Y-72813D01*
X72214Y-72813D01*
X72157Y-72784D01*
X72128Y-72727D01*
X72128Y-72499D01*
X72157Y-72441D01*
X72214Y-72413D01*
X72328Y-72413D01*
X72385Y-72441D01*
X72414Y-72499D01*
X72414Y-72556D01*
X72128Y-72613D01*
X72671Y-72756D02*
X72699Y-72784D01*
X72671Y-72813D01*
X72642Y-72784D01*
X72671Y-72756D01*
X72671Y-72813D01*
X72671Y-72441D02*
X72699Y-72470D01*
X72671Y-72499D01*
X72642Y-72470D01*
X72671Y-72441D01*
X72671Y-72499D01*
X73414Y-72813D02*
X73414Y-72213D01*
X73642Y-72213D01*
X73700Y-72241D01*
X73728Y-72270D01*
X73757Y-72327D01*
X73757Y-72413D01*
X73728Y-72470D01*
X73700Y-72499D01*
X73642Y-72527D01*
X73414Y-72527D01*
X74100Y-72813D02*
X74042Y-72784D01*
X74014Y-72756D01*
X73985Y-72699D01*
X73985Y-72527D01*
X74014Y-72470D01*
X74042Y-72441D01*
X74100Y-72413D01*
X74185Y-72413D01*
X74242Y-72441D01*
X74271Y-72470D01*
X74300Y-72527D01*
X74300Y-72699D01*
X74271Y-72756D01*
X74242Y-72784D01*
X74185Y-72813D01*
X74100Y-72813D01*
X74557Y-72813D02*
X74557Y-72413D01*
X74557Y-72527D02*
X74585Y-72470D01*
X74614Y-72441D01*
X74671Y-72413D01*
X74728Y-72413D01*
X74842Y-72413D02*
X75071Y-72413D01*
X74928Y-72213D02*
X74928Y-72727D01*
X74956Y-72784D01*
X75014Y-72813D01*
X75071Y-72813D01*
X75271Y-72813D02*
X75271Y-72213D01*
X75471Y-72641D01*
X75671Y-72213D01*
X75671Y-72813D01*
X76214Y-72413D02*
X76214Y-72813D01*
X75957Y-72413D02*
X75957Y-72727D01*
X75985Y-72784D01*
X76043Y-72813D01*
X76128Y-72813D01*
X76185Y-72784D01*
X76214Y-72756D01*
X76586Y-72813D02*
X76528Y-72784D01*
X76500Y-72727D01*
X76500Y-72213D01*
X76728Y-72413D02*
X76957Y-72413D01*
X76814Y-72213D02*
X76814Y-72727D01*
X76842Y-72784D01*
X76900Y-72813D01*
X76957Y-72813D01*
X77157Y-72813D02*
X77157Y-72413D01*
X77157Y-72213D02*
X77128Y-72241D01*
X77157Y-72270D01*
X77185Y-72241D01*
X77157Y-72213D01*
X77157Y-72270D01*
X77443Y-72413D02*
X77443Y-73013D01*
X77443Y-72441D02*
X77500Y-72413D01*
X77614Y-72413D01*
X77671Y-72441D01*
X77700Y-72470D01*
X77729Y-72527D01*
X77729Y-72699D01*
X77700Y-72756D01*
X77671Y-72784D01*
X77614Y-72813D01*
X77500Y-72813D01*
X77443Y-72784D01*
X78072Y-72813D02*
X78014Y-72784D01*
X77986Y-72727D01*
X77986Y-72213D01*
X78300Y-72813D02*
X78300Y-72413D01*
X78300Y-72213D02*
X78271Y-72241D01*
X78300Y-72270D01*
X78328Y-72241D01*
X78300Y-72213D01*
X78300Y-72270D01*
X78814Y-72784D02*
X78757Y-72813D01*
X78643Y-72813D01*
X78586Y-72784D01*
X78557Y-72727D01*
X78557Y-72499D01*
X78586Y-72441D01*
X78643Y-72413D01*
X78757Y-72413D01*
X78814Y-72441D01*
X78843Y-72499D01*
X78843Y-72556D01*
X78557Y-72613D01*
X79100Y-72813D02*
X79100Y-72413D01*
X79100Y-72527D02*
X79128Y-72470D01*
X79157Y-72441D01*
X79214Y-72413D01*
X79271Y-72413D01*
X79471Y-72756D02*
X79499Y-72784D01*
X79471Y-72813D01*
X79442Y-72784D01*
X79471Y-72756D01*
X79471Y-72813D01*
X79757Y-72813D02*
X79757Y-72213D01*
X79757Y-72441D02*
X79814Y-72413D01*
X79928Y-72413D01*
X79985Y-72441D01*
X80014Y-72470D01*
X80043Y-72527D01*
X80043Y-72699D01*
X80014Y-72756D01*
X79985Y-72784D01*
X79928Y-72813D01*
X79814Y-72813D01*
X79757Y-72784D01*
X80300Y-72813D02*
X80300Y-72413D01*
X80300Y-72527D02*
X80328Y-72470D01*
X80357Y-72441D01*
X80414Y-72413D01*
X80471Y-72413D01*
X80928Y-72813D02*
X80928Y-72213D01*
X80928Y-72784D02*
X80871Y-72813D01*
X80757Y-72813D01*
X80699Y-72784D01*
X80671Y-72756D01*
X80642Y-72699D01*
X80642Y-72527D01*
X80671Y-72470D01*
X80699Y-72441D01*
X80757Y-72413D01*
X80871Y-72413D01*
X80928Y-72441D01*
X71014Y-73984D02*
X71100Y-74013D01*
X71243Y-74013D01*
X71300Y-73984D01*
X71329Y-73956D01*
X71357Y-73899D01*
X71357Y-73841D01*
X71329Y-73784D01*
X71300Y-73756D01*
X71243Y-73727D01*
X71129Y-73699D01*
X71071Y-73670D01*
X71043Y-73641D01*
X71014Y-73584D01*
X71014Y-73527D01*
X71043Y-73470D01*
X71071Y-73441D01*
X71129Y-73413D01*
X71271Y-73413D01*
X71357Y-73441D01*
X71614Y-74013D02*
X71614Y-73413D01*
X71871Y-74013D02*
X71871Y-73699D01*
X71842Y-73641D01*
X71785Y-73613D01*
X71700Y-73613D01*
X71642Y-73641D01*
X71614Y-73670D01*
X72385Y-73984D02*
X72328Y-74013D01*
X72214Y-74013D01*
X72157Y-73984D01*
X72128Y-73927D01*
X72128Y-73699D01*
X72157Y-73641D01*
X72214Y-73613D01*
X72328Y-73613D01*
X72385Y-73641D01*
X72414Y-73699D01*
X72414Y-73756D01*
X72128Y-73813D01*
X72899Y-73984D02*
X72842Y-74013D01*
X72728Y-74013D01*
X72671Y-73984D01*
X72642Y-73927D01*
X72642Y-73699D01*
X72671Y-73641D01*
X72728Y-73613D01*
X72842Y-73613D01*
X72899Y-73641D01*
X72928Y-73699D01*
X72928Y-73756D01*
X72642Y-73813D01*
X73099Y-73613D02*
X73328Y-73613D01*
X73185Y-73413D02*
X73185Y-73927D01*
X73213Y-73984D01*
X73271Y-74013D01*
X73328Y-74013D01*
X73528Y-73956D02*
X73556Y-73984D01*
X73528Y-74013D01*
X73499Y-73984D01*
X73528Y-73956D01*
X73528Y-74013D01*
X73528Y-73641D02*
X73556Y-73670D01*
X73528Y-73699D01*
X73499Y-73670D01*
X73528Y-73641D01*
X73528Y-73699D01*
X74585Y-74013D02*
X74242Y-74013D01*
X74414Y-74013D02*
X74414Y-73413D01*
X74357Y-73499D01*
X74299Y-73556D01*
X74242Y-73584D01*
X75270Y-73384D02*
X74756Y-74156D01*
X75785Y-74013D02*
X75442Y-74013D01*
X75614Y-74013D02*
X75614Y-73413D01*
X75557Y-73499D01*
X75499Y-73556D01*
X75442Y-73584D01*
X70300Y-71970D02*
X70300Y-77970D01*
X70300Y-71970D02*
X112300Y-71970D01*
X70300Y-71970D02*
X112300Y-71970D01*
X70300Y-74370D02*
X112300Y-74370D01*
X103500Y-75570D02*
X103500Y-77970D01*
X70300Y-76770D02*
X112300Y-76770D01*
X70300Y-75570D02*
X112300Y-75570D01*
X76900Y-75570D02*
X76900Y-76770D01*
G54D11*
X40613Y-30245D02*
X40813Y-29864D01*
X40956Y-30245D02*
X40956Y-29445D01*
X40728Y-29445D01*
X40670Y-29483D01*
X40642Y-29521D01*
X40613Y-29597D01*
X40613Y-29711D01*
X40642Y-29788D01*
X40670Y-29826D01*
X40728Y-29864D01*
X40956Y-29864D01*
X40356Y-30245D02*
X40356Y-29445D01*
X40128Y-29445D01*
X40070Y-29483D01*
X40042Y-29521D01*
X40013Y-29597D01*
X40013Y-29711D01*
X40042Y-29788D01*
X40070Y-29826D01*
X40128Y-29864D01*
X40356Y-29864D01*
X39756Y-30245D02*
X39756Y-29711D01*
X39756Y-29445D02*
X39785Y-29483D01*
X39756Y-29521D01*
X39728Y-29483D01*
X39756Y-29445D01*
X39756Y-29521D01*
X39013Y-30245D02*
X39013Y-29445D01*
X38727Y-29711D02*
X38727Y-30245D01*
X38727Y-29788D02*
X38699Y-29750D01*
X38641Y-29711D01*
X38556Y-29711D01*
X38499Y-29750D01*
X38470Y-29826D01*
X38470Y-30245D01*
X38270Y-29711D02*
X38041Y-29711D01*
X38184Y-29445D02*
X38184Y-30131D01*
X38156Y-30207D01*
X38098Y-30245D01*
X38041Y-30245D01*
X37613Y-30207D02*
X37670Y-30245D01*
X37784Y-30245D01*
X37841Y-30207D01*
X37870Y-30131D01*
X37870Y-29826D01*
X37841Y-29750D01*
X37784Y-29711D01*
X37670Y-29711D01*
X37613Y-29750D01*
X37584Y-29826D01*
X37584Y-29902D01*
X37870Y-29978D01*
X37327Y-30245D02*
X37327Y-29711D01*
X37327Y-29864D02*
X37299Y-29788D01*
X37270Y-29750D01*
X37213Y-29711D01*
X37156Y-29711D01*
X37042Y-29711D02*
X36813Y-29711D01*
X36956Y-30245D02*
X36956Y-29559D01*
X36928Y-29483D01*
X36870Y-29445D01*
X36813Y-29445D01*
X36356Y-30245D02*
X36356Y-29826D01*
X36385Y-29750D01*
X36442Y-29711D01*
X36556Y-29711D01*
X36613Y-29750D01*
X36356Y-30207D02*
X36413Y-30245D01*
X36556Y-30245D01*
X36613Y-30207D01*
X36642Y-30131D01*
X36642Y-30054D01*
X36613Y-29978D01*
X36556Y-29940D01*
X36413Y-29940D01*
X36356Y-29902D01*
X35813Y-30207D02*
X35870Y-30245D01*
X35984Y-30245D01*
X36042Y-30207D01*
X36070Y-30169D01*
X36099Y-30092D01*
X36099Y-29864D01*
X36070Y-29788D01*
X36042Y-29750D01*
X35984Y-29711D01*
X35870Y-29711D01*
X35813Y-29750D01*
X35328Y-30207D02*
X35385Y-30245D01*
X35499Y-30245D01*
X35556Y-30207D01*
X35585Y-30131D01*
X35585Y-29826D01*
X35556Y-29750D01*
X35499Y-29711D01*
X35385Y-29711D01*
X35328Y-29750D01*
X35299Y-29826D01*
X35299Y-29902D01*
X35585Y-29978D01*
X34385Y-29826D02*
X34299Y-29864D01*
X34271Y-29902D01*
X34242Y-29978D01*
X34242Y-30092D01*
X34271Y-30169D01*
X34299Y-30207D01*
X34357Y-30245D01*
X34585Y-30245D01*
X34585Y-29445D01*
X34385Y-29445D01*
X34328Y-29483D01*
X34299Y-29521D01*
X34271Y-29597D01*
X34271Y-29673D01*
X34299Y-29750D01*
X34328Y-29788D01*
X34385Y-29826D01*
X34585Y-29826D01*
X33899Y-30245D02*
X33957Y-30207D01*
X33985Y-30169D01*
X34014Y-30092D01*
X34014Y-29864D01*
X33985Y-29788D01*
X33957Y-29750D01*
X33899Y-29711D01*
X33814Y-29711D01*
X33757Y-29750D01*
X33728Y-29788D01*
X33699Y-29864D01*
X33699Y-30092D01*
X33728Y-30169D01*
X33757Y-30207D01*
X33814Y-30245D01*
X33899Y-30245D01*
X33185Y-30245D02*
X33185Y-29826D01*
X33214Y-29750D01*
X33271Y-29711D01*
X33385Y-29711D01*
X33442Y-29750D01*
X33185Y-30207D02*
X33242Y-30245D01*
X33385Y-30245D01*
X33442Y-30207D01*
X33471Y-30131D01*
X33471Y-30054D01*
X33442Y-29978D01*
X33385Y-29940D01*
X33242Y-29940D01*
X33185Y-29902D01*
X32899Y-30245D02*
X32899Y-29711D01*
X32899Y-29864D02*
X32871Y-29788D01*
X32842Y-29750D01*
X32785Y-29711D01*
X32728Y-29711D01*
X32271Y-30245D02*
X32271Y-29445D01*
X32271Y-30207D02*
X32328Y-30245D01*
X32442Y-30245D01*
X32500Y-30207D01*
X32528Y-30169D01*
X32557Y-30092D01*
X32557Y-29864D01*
X32528Y-29788D01*
X32500Y-29750D01*
X32442Y-29711D01*
X32328Y-29711D01*
X32271Y-29750D01*
X40999Y-31790D02*
X41027Y-31751D01*
X41084Y-31637D01*
X41113Y-31561D01*
X41142Y-31447D01*
X41170Y-31256D01*
X41170Y-31104D01*
X41142Y-30913D01*
X41113Y-30799D01*
X41084Y-30723D01*
X41027Y-30609D01*
X40999Y-30571D01*
X40513Y-31447D02*
X40570Y-31485D01*
X40684Y-31485D01*
X40742Y-31447D01*
X40770Y-31409D01*
X40799Y-31332D01*
X40799Y-31104D01*
X40770Y-31028D01*
X40742Y-30990D01*
X40684Y-30951D01*
X40570Y-30951D01*
X40513Y-30990D01*
X40313Y-31790D02*
X40285Y-31751D01*
X40228Y-31637D01*
X40199Y-31561D01*
X40170Y-31447D01*
X40142Y-31256D01*
X40142Y-31104D01*
X40170Y-30913D01*
X40199Y-30799D01*
X40228Y-30723D01*
X40285Y-30609D01*
X40313Y-30571D01*
X39485Y-30685D02*
X39142Y-30685D01*
X39313Y-31485D02*
X39313Y-30685D01*
X38942Y-31485D02*
X38942Y-30951D01*
X38942Y-30685D02*
X38971Y-30723D01*
X38942Y-30761D01*
X38914Y-30723D01*
X38942Y-30685D01*
X38942Y-30761D01*
X38656Y-31485D02*
X38656Y-30951D01*
X38656Y-31028D02*
X38628Y-30990D01*
X38570Y-30951D01*
X38485Y-30951D01*
X38428Y-30990D01*
X38399Y-31066D01*
X38399Y-31485D01*
X38399Y-31066D02*
X38370Y-30990D01*
X38313Y-30951D01*
X38228Y-30951D01*
X38170Y-30990D01*
X38142Y-31066D01*
X38142Y-31485D01*
X37199Y-31066D02*
X37113Y-31104D01*
X37085Y-31142D01*
X37056Y-31218D01*
X37056Y-31332D01*
X37085Y-31409D01*
X37113Y-31447D01*
X37171Y-31485D01*
X37399Y-31485D01*
X37399Y-30685D01*
X37199Y-30685D01*
X37142Y-30723D01*
X37113Y-30761D01*
X37085Y-30837D01*
X37085Y-30913D01*
X37113Y-30990D01*
X37142Y-31028D01*
X37199Y-31066D01*
X37399Y-31066D01*
X36799Y-31485D02*
X36799Y-30951D01*
X36799Y-31104D02*
X36771Y-31028D01*
X36742Y-30990D01*
X36685Y-30951D01*
X36628Y-30951D01*
X36342Y-31485D02*
X36400Y-31447D01*
X36428Y-31409D01*
X36457Y-31332D01*
X36457Y-31104D01*
X36428Y-31028D01*
X36400Y-30990D01*
X36342Y-30951D01*
X36257Y-30951D01*
X36200Y-30990D01*
X36171Y-31028D01*
X36142Y-31104D01*
X36142Y-31332D01*
X36171Y-31409D01*
X36200Y-31447D01*
X36257Y-31485D01*
X36342Y-31485D01*
X35628Y-31447D02*
X35685Y-31485D01*
X35799Y-31485D01*
X35857Y-31447D01*
X35885Y-31409D01*
X35914Y-31332D01*
X35914Y-31104D01*
X35885Y-31028D01*
X35857Y-30990D01*
X35799Y-30951D01*
X35685Y-30951D01*
X35628Y-30990D01*
X35371Y-31485D02*
X35371Y-30685D01*
X35314Y-31180D02*
X35143Y-31485D01*
X35143Y-30951D02*
X35371Y-31256D01*
X34799Y-31485D02*
X34857Y-31447D01*
X34885Y-31371D01*
X34885Y-30685D01*
X34343Y-31447D02*
X34400Y-31485D01*
X34514Y-31485D01*
X34571Y-31447D01*
X34600Y-31371D01*
X34600Y-31066D01*
X34571Y-30990D01*
X34514Y-30951D01*
X34400Y-30951D01*
X34343Y-30990D01*
X34314Y-31066D01*
X34314Y-31142D01*
X34600Y-31218D01*
X34057Y-31485D02*
X34057Y-30685D01*
X33800Y-31485D02*
X33800Y-31066D01*
X33829Y-30990D01*
X33886Y-30951D01*
X33971Y-30951D01*
X34029Y-30990D01*
X34057Y-31028D01*
X33257Y-30951D02*
X33257Y-31485D01*
X33514Y-30951D02*
X33514Y-31371D01*
X33486Y-31447D01*
X33428Y-31485D01*
X33343Y-31485D01*
X33286Y-31447D01*
X33257Y-31409D01*
X32971Y-31485D02*
X32971Y-30951D01*
X32971Y-31104D02*
X32943Y-31028D01*
X32914Y-30990D01*
X32857Y-30951D01*
X32800Y-30951D01*
X32629Y-31447D02*
X32572Y-31485D01*
X32457Y-31485D01*
X32400Y-31447D01*
X32372Y-31371D01*
X32372Y-31332D01*
X32400Y-31256D01*
X32457Y-31218D01*
X32543Y-31218D01*
X32600Y-31180D01*
X32629Y-31104D01*
X32629Y-31066D01*
X32600Y-30990D01*
X32543Y-30951D01*
X32457Y-30951D01*
X32400Y-30990D01*
X32200Y-30951D02*
X31971Y-30951D01*
X32114Y-30685D02*
X32114Y-31371D01*
X32086Y-31447D01*
X32028Y-31485D01*
X31971Y-31485D01*
X37427Y-32725D02*
X37627Y-32344D01*
X37770Y-32725D02*
X37770Y-31925D01*
X37542Y-31925D01*
X37484Y-31963D01*
X37456Y-32001D01*
X37427Y-32077D01*
X37427Y-32191D01*
X37456Y-32268D01*
X37484Y-32306D01*
X37542Y-32344D01*
X37770Y-32344D01*
X36942Y-32687D02*
X36999Y-32725D01*
X37113Y-32725D01*
X37170Y-32687D01*
X37199Y-32611D01*
X37199Y-32306D01*
X37170Y-32230D01*
X37113Y-32191D01*
X36999Y-32191D01*
X36942Y-32230D01*
X36913Y-32306D01*
X36913Y-32382D01*
X37199Y-32458D01*
X36713Y-32191D02*
X36570Y-32725D01*
X36428Y-32191D01*
X35428Y-32725D02*
X35771Y-32725D01*
X35599Y-32725D02*
X35599Y-31925D01*
X35656Y-32039D01*
X35714Y-32115D01*
X35771Y-32153D01*
X40026Y-33965D02*
X40026Y-33165D01*
X39883Y-33165D01*
X39798Y-33203D01*
X39740Y-33279D01*
X39712Y-33355D01*
X39683Y-33508D01*
X39683Y-33622D01*
X39712Y-33774D01*
X39740Y-33851D01*
X39798Y-33927D01*
X39883Y-33965D01*
X40026Y-33965D01*
X39198Y-33927D02*
X39255Y-33965D01*
X39369Y-33965D01*
X39426Y-33927D01*
X39455Y-33851D01*
X39455Y-33546D01*
X39426Y-33470D01*
X39369Y-33431D01*
X39255Y-33431D01*
X39198Y-33470D01*
X39169Y-33546D01*
X39169Y-33622D01*
X39455Y-33698D01*
X38655Y-33927D02*
X38712Y-33965D01*
X38826Y-33965D01*
X38884Y-33927D01*
X38912Y-33889D01*
X38941Y-33812D01*
X38941Y-33584D01*
X38912Y-33508D01*
X38884Y-33470D01*
X38826Y-33431D01*
X38712Y-33431D01*
X38655Y-33470D01*
X38170Y-33927D02*
X38227Y-33965D01*
X38341Y-33965D01*
X38398Y-33927D01*
X38427Y-33851D01*
X38427Y-33546D01*
X38398Y-33470D01*
X38341Y-33431D01*
X38227Y-33431D01*
X38170Y-33470D01*
X38141Y-33546D01*
X38141Y-33622D01*
X38427Y-33698D01*
X37884Y-33965D02*
X37884Y-33431D01*
X37884Y-33508D02*
X37856Y-33470D01*
X37798Y-33431D01*
X37713Y-33431D01*
X37656Y-33470D01*
X37627Y-33546D01*
X37627Y-33965D01*
X37627Y-33546D02*
X37598Y-33470D01*
X37541Y-33431D01*
X37456Y-33431D01*
X37398Y-33470D01*
X37370Y-33546D01*
X37370Y-33965D01*
X37084Y-33965D02*
X37084Y-33165D01*
X37084Y-33470D02*
X37027Y-33431D01*
X36913Y-33431D01*
X36856Y-33470D01*
X36827Y-33508D01*
X36798Y-33584D01*
X36798Y-33812D01*
X36827Y-33889D01*
X36856Y-33927D01*
X36913Y-33965D01*
X37027Y-33965D01*
X37084Y-33927D01*
X36313Y-33927D02*
X36370Y-33965D01*
X36484Y-33965D01*
X36541Y-33927D01*
X36570Y-33851D01*
X36570Y-33546D01*
X36541Y-33470D01*
X36484Y-33431D01*
X36370Y-33431D01*
X36313Y-33470D01*
X36284Y-33546D01*
X36284Y-33622D01*
X36570Y-33698D01*
X36027Y-33965D02*
X36027Y-33431D01*
X36027Y-33584D02*
X35999Y-33508D01*
X35970Y-33470D01*
X35913Y-33431D01*
X35856Y-33431D01*
X35228Y-33241D02*
X35199Y-33203D01*
X35142Y-33165D01*
X34999Y-33165D01*
X34942Y-33203D01*
X34913Y-33241D01*
X34885Y-33317D01*
X34885Y-33393D01*
X34913Y-33508D01*
X35256Y-33965D01*
X34885Y-33965D01*
X34514Y-33165D02*
X34457Y-33165D01*
X34400Y-33203D01*
X34371Y-33241D01*
X34342Y-33317D01*
X34314Y-33470D01*
X34314Y-33660D01*
X34342Y-33812D01*
X34371Y-33889D01*
X34400Y-33927D01*
X34457Y-33965D01*
X34514Y-33965D01*
X34571Y-33927D01*
X34600Y-33889D01*
X34628Y-33812D01*
X34657Y-33660D01*
X34657Y-33470D01*
X34628Y-33317D01*
X34600Y-33241D01*
X34571Y-33203D01*
X34514Y-33165D01*
X33743Y-33965D02*
X34086Y-33965D01*
X33914Y-33965D02*
X33914Y-33165D01*
X33971Y-33279D01*
X34029Y-33355D01*
X34086Y-33393D01*
X33515Y-33241D02*
X33486Y-33203D01*
X33429Y-33165D01*
X33286Y-33165D01*
X33229Y-33203D01*
X33200Y-33241D01*
X33172Y-33317D01*
X33172Y-33393D01*
X33200Y-33508D01*
X33543Y-33965D01*
X33172Y-33965D01*
G54D12*
X45650Y-39225D02*
X45600Y-39225D01*
X45600Y-39225D02*
X45600Y-37125D01*
X47100Y-37125D02*
X47100Y-39225D01*
X47100Y-39225D02*
X45650Y-39225D01*
X46550Y-39225D02*
X46550Y-39025D01*
X46550Y-39025D02*
X46150Y-39025D01*
X46150Y-39025D02*
X46150Y-39225D01*
X47100Y-37125D02*
X45600Y-37125D01*
X58825Y-39225D02*
X58775Y-39225D01*
X58775Y-39225D02*
X58775Y-37125D01*
X60275Y-37125D02*
X60275Y-39225D01*
X60275Y-39225D02*
X58825Y-39225D01*
X59725Y-39225D02*
X59725Y-39025D01*
X59725Y-39025D02*
X59325Y-39025D01*
X59325Y-39025D02*
X59325Y-39225D01*
X60275Y-37125D02*
X58775Y-37125D01*
G54D10*
X46432Y-37618D02*
X46796Y-37618D01*
X46839Y-37640D01*
X46861Y-37661D01*
X46882Y-37704D01*
X46882Y-37790D01*
X46861Y-37832D01*
X46839Y-37854D01*
X46796Y-37875D01*
X46432Y-37875D01*
X46882Y-38325D02*
X46882Y-38068D01*
X46882Y-38196D02*
X46432Y-38196D01*
X46496Y-38153D01*
X46539Y-38111D01*
X46561Y-38068D01*
X46432Y-38604D02*
X46432Y-38647D01*
X46454Y-38690D01*
X46475Y-38711D01*
X46518Y-38732D01*
X46604Y-38754D01*
X46711Y-38754D01*
X46796Y-38732D01*
X46839Y-38711D01*
X46861Y-38690D01*
X46882Y-38647D01*
X46882Y-38604D01*
X46861Y-38561D01*
X46839Y-38540D01*
X46796Y-38518D01*
X46711Y-38497D01*
X46604Y-38497D01*
X46518Y-38518D01*
X46475Y-38540D01*
X46454Y-38561D01*
X46432Y-38604D01*
X46092Y-37076D02*
X45742Y-37076D01*
X45742Y-37160D01*
X45758Y-37210D01*
X45792Y-37243D01*
X45825Y-37260D01*
X45892Y-37276D01*
X45942Y-37276D01*
X46008Y-37260D01*
X46042Y-37243D01*
X46075Y-37210D01*
X46092Y-37160D01*
X46092Y-37076D01*
X46075Y-37410D02*
X46092Y-37460D01*
X46092Y-37543D01*
X46075Y-37576D01*
X46058Y-37593D01*
X46025Y-37610D01*
X45992Y-37610D01*
X45958Y-37593D01*
X45942Y-37576D01*
X45925Y-37543D01*
X45908Y-37476D01*
X45892Y-37443D01*
X45875Y-37426D01*
X45842Y-37410D01*
X45808Y-37410D01*
X45775Y-37426D01*
X45758Y-37443D01*
X45742Y-37476D01*
X45742Y-37560D01*
X45758Y-37610D01*
X46092Y-37943D02*
X46092Y-37743D01*
X46092Y-37843D02*
X45742Y-37843D01*
X45792Y-37809D01*
X45825Y-37776D01*
X45842Y-37743D01*
X45892Y-38142D02*
X45875Y-38109D01*
X45858Y-38092D01*
X45825Y-38076D01*
X45808Y-38076D01*
X45775Y-38092D01*
X45758Y-38109D01*
X45742Y-38142D01*
X45742Y-38209D01*
X45758Y-38242D01*
X45775Y-38259D01*
X45808Y-38276D01*
X45825Y-38276D01*
X45858Y-38259D01*
X45875Y-38242D01*
X45892Y-38209D01*
X45892Y-38142D01*
X45908Y-38109D01*
X45925Y-38092D01*
X45958Y-38076D01*
X46025Y-38076D01*
X46058Y-38092D01*
X46075Y-38109D01*
X46092Y-38142D01*
X46092Y-38209D01*
X46075Y-38242D01*
X46058Y-38259D01*
X46025Y-38276D01*
X45958Y-38276D01*
X45925Y-38259D01*
X45908Y-38242D01*
X45892Y-38209D01*
X45908Y-38542D02*
X45925Y-38592D01*
X45942Y-38609D01*
X45975Y-38625D01*
X46025Y-38625D01*
X46058Y-38609D01*
X46075Y-38592D01*
X46092Y-38559D01*
X46092Y-38425D01*
X45742Y-38425D01*
X45742Y-38542D01*
X45758Y-38575D01*
X45775Y-38592D01*
X45808Y-38609D01*
X45842Y-38609D01*
X45875Y-38592D01*
X45892Y-38575D01*
X45908Y-38542D01*
X45908Y-38425D01*
X45775Y-38759D02*
X45758Y-38775D01*
X45742Y-38809D01*
X45742Y-38892D01*
X45758Y-38925D01*
X45775Y-38942D01*
X45808Y-38959D01*
X45842Y-38959D01*
X45892Y-38942D01*
X46092Y-38742D01*
X46092Y-38959D01*
X45742Y-39175D02*
X45742Y-39208D01*
X45758Y-39242D01*
X45775Y-39258D01*
X45808Y-39275D01*
X45875Y-39292D01*
X45958Y-39292D01*
X46025Y-39275D01*
X46058Y-39258D01*
X46075Y-39242D01*
X46092Y-39208D01*
X46092Y-39175D01*
X46075Y-39142D01*
X46058Y-39125D01*
X46025Y-39108D01*
X45958Y-39092D01*
X45875Y-39092D01*
X45808Y-39108D01*
X45775Y-39125D01*
X45758Y-39142D01*
X45742Y-39175D01*
X59607Y-37832D02*
X59971Y-37832D01*
X60014Y-37854D01*
X60036Y-37875D01*
X60057Y-37918D01*
X60057Y-38004D01*
X60036Y-38046D01*
X60014Y-38068D01*
X59971Y-38089D01*
X59607Y-38089D01*
X60057Y-38325D02*
X60057Y-38410D01*
X60036Y-38453D01*
X60014Y-38475D01*
X59950Y-38517D01*
X59864Y-38539D01*
X59693Y-38539D01*
X59650Y-38517D01*
X59629Y-38496D01*
X59607Y-38453D01*
X59607Y-38367D01*
X59629Y-38325D01*
X59650Y-38303D01*
X59693Y-38282D01*
X59800Y-38282D01*
X59843Y-38303D01*
X59864Y-38325D01*
X59886Y-38367D01*
X59886Y-38453D01*
X59864Y-38496D01*
X59843Y-38517D01*
X59800Y-38539D01*
X59267Y-37076D02*
X58917Y-37076D01*
X58917Y-37160D01*
X58933Y-37210D01*
X58967Y-37243D01*
X59000Y-37260D01*
X59067Y-37276D01*
X59117Y-37276D01*
X59183Y-37260D01*
X59217Y-37243D01*
X59250Y-37210D01*
X59267Y-37160D01*
X59267Y-37076D01*
X59250Y-37410D02*
X59267Y-37460D01*
X59267Y-37543D01*
X59250Y-37576D01*
X59233Y-37593D01*
X59200Y-37610D01*
X59167Y-37610D01*
X59133Y-37593D01*
X59117Y-37576D01*
X59100Y-37543D01*
X59083Y-37476D01*
X59067Y-37443D01*
X59050Y-37426D01*
X59017Y-37410D01*
X58983Y-37410D01*
X58950Y-37426D01*
X58933Y-37443D01*
X58917Y-37476D01*
X58917Y-37560D01*
X58933Y-37610D01*
X59267Y-37943D02*
X59267Y-37743D01*
X59267Y-37843D02*
X58917Y-37843D01*
X58967Y-37809D01*
X59000Y-37776D01*
X59017Y-37743D01*
X59067Y-38142D02*
X59050Y-38109D01*
X59033Y-38092D01*
X59000Y-38076D01*
X58983Y-38076D01*
X58950Y-38092D01*
X58933Y-38109D01*
X58917Y-38142D01*
X58917Y-38209D01*
X58933Y-38242D01*
X58950Y-38259D01*
X58983Y-38276D01*
X59000Y-38276D01*
X59033Y-38259D01*
X59050Y-38242D01*
X59067Y-38209D01*
X59067Y-38142D01*
X59083Y-38109D01*
X59100Y-38092D01*
X59133Y-38076D01*
X59200Y-38076D01*
X59233Y-38092D01*
X59250Y-38109D01*
X59267Y-38142D01*
X59267Y-38209D01*
X59250Y-38242D01*
X59233Y-38259D01*
X59200Y-38276D01*
X59133Y-38276D01*
X59100Y-38259D01*
X59083Y-38242D01*
X59067Y-38209D01*
X59083Y-38542D02*
X59100Y-38592D01*
X59117Y-38609D01*
X59150Y-38625D01*
X59200Y-38625D01*
X59233Y-38609D01*
X59250Y-38592D01*
X59267Y-38559D01*
X59267Y-38425D01*
X58917Y-38425D01*
X58917Y-38542D01*
X58933Y-38575D01*
X58950Y-38592D01*
X58983Y-38609D01*
X59017Y-38609D01*
X59050Y-38592D01*
X59067Y-38575D01*
X59083Y-38542D01*
X59083Y-38425D01*
X58950Y-38759D02*
X58933Y-38775D01*
X58917Y-38809D01*
X58917Y-38892D01*
X58933Y-38925D01*
X58950Y-38942D01*
X58983Y-38959D01*
X59017Y-38959D01*
X59067Y-38942D01*
X59267Y-38742D01*
X59267Y-38959D01*
X58917Y-39175D02*
X58917Y-39208D01*
X58933Y-39242D01*
X58950Y-39258D01*
X58983Y-39275D01*
X59050Y-39292D01*
X59133Y-39292D01*
X59200Y-39275D01*
X59233Y-39258D01*
X59250Y-39242D01*
X59267Y-39208D01*
X59267Y-39175D01*
X59250Y-39142D01*
X59233Y-39125D01*
X59200Y-39108D01*
X59133Y-39092D01*
X59050Y-39092D01*
X58983Y-39108D01*
X58950Y-39125D01*
X58933Y-39142D01*
X58917Y-39175D01*
M02*
